<svg width="24" height="24" viewBox="0 0 24 24" fill="none" xmlns="http://www.w3.org/2000/svg">
<path d="M20.8855 16.9616V7.03996C21.4367 6.89872 21.9407 6.61414 22.3463 6.21513C22.7519 5.81612 23.0447 5.31688 23.195 4.76811C23.3453 4.21933 23.3476 3.64057 23.2019 3.09058C23.0561 2.54059 22.7674 2.03897 22.3651 1.63664C21.9628 1.23431 21.4611 0.945613 20.9111 0.799855C20.3612 0.654097 19.7824 0.656472 19.2336 0.806739C18.6848 0.957006 18.1856 1.24981 17.7866 1.65543C17.3876 2.06104 17.103 2.56502 16.9618 3.11619H7.04008C6.89884 2.56502 6.61427 2.06104 6.21526 1.65543C5.81624 1.24981 5.317 0.957006 4.76823 0.806739C4.21946 0.656472 3.64069 0.654097 3.0907 0.799855C2.54071 0.945613 2.03909 1.23431 1.63676 1.63664C1.23443 2.03897 0.945735 2.54059 0.799977 3.09058C0.654219 3.64057 0.656594 4.21933 0.806861 4.76811C0.957128 5.31688 1.24993 5.81612 1.65555 6.21513C2.06116 6.61414 2.56514 6.89872 3.11631 7.03996V16.9616C2.56514 17.1029 2.06116 17.3875 1.65555 17.7865C1.24993 18.1855 0.957128 18.6847 0.806861 19.2335C0.656594 19.7823 0.654219 20.361 0.799977 20.911C0.945735 21.461 1.23443 21.9626 1.63676 22.365C2.03909 22.7673 2.54071 23.056 3.0907 23.2017C3.64069 23.3475 4.21946 23.3451 4.76823 23.1949C5.317 23.0446 5.81624 22.7518 6.21526 22.3462C6.61427 21.9406 6.89884 21.4366 7.04008 20.8854H16.9618C17.103 21.4366 17.3876 21.9406 17.7866 22.3462C18.1856 22.7518 18.6848 23.0446 19.2336 23.1949C19.7824 23.3451 20.3612 23.3475 20.9111 23.2017C21.4611 23.056 21.9628 22.7673 22.3651 22.365C22.7674 21.9626 23.0561 21.461 23.2019 20.911C23.3476 20.361 23.3453 19.7823 23.195 19.2335C23.0447 18.6847 22.7519 18.1855 22.3463 17.7865C21.9407 17.3875 21.4367 17.1029 20.8855 16.9616ZM20.0778 2.30849C20.3973 2.30849 20.7097 2.40323 20.9753 2.58074C21.241 2.75824 21.448 3.01052 21.5703 3.3057C21.6925 3.60087 21.7245 3.92567 21.6622 4.23902C21.5999 4.55238 21.446 4.84021 21.2201 5.06613C20.9942 5.29204 20.7063 5.44589 20.393 5.50822C20.0796 5.57055 19.7548 5.53856 19.4597 5.4163C19.1645 5.29403 18.9122 5.08699 18.7347 4.82134C18.5572 4.55569 18.4625 4.24337 18.4625 3.92388C18.4625 3.49545 18.6327 3.08457 18.9356 2.78163C19.2385 2.47869 19.6494 2.30849 20.0778 2.30849ZM2.30862 3.92388C2.30862 3.60439 2.40336 3.29207 2.58086 3.02642C2.75836 2.76077 3.01065 2.55372 3.30582 2.43146C3.60099 2.30919 3.92579 2.2772 4.23915 2.33953C4.5525 2.40186 4.84033 2.55571 5.06625 2.78163C5.29217 3.00754 5.44602 3.29538 5.50835 3.60873C5.57068 3.92209 5.53869 4.24689 5.41642 4.54206C5.29416 4.83723 5.08711 5.08952 4.82146 5.26702C4.55581 5.44452 4.24349 5.53926 3.924 5.53926C3.49557 5.53926 3.08469 5.36907 2.78175 5.06613C2.47881 4.76319 2.30862 4.35231 2.30862 3.92388ZM3.924 21.6931C3.60451 21.6931 3.29219 21.5984 3.02654 21.4209C2.76089 21.2434 2.55384 20.9911 2.43158 20.6959C2.30932 20.4007 2.27733 20.0759 2.33966 19.7626C2.40199 19.4492 2.55584 19.1614 2.78175 18.9355C3.00767 18.7096 3.2955 18.5557 3.60886 18.4934C3.92221 18.431 4.24701 18.463 4.54218 18.5853C4.83735 18.7076 5.08964 18.9146 5.26714 19.1803C5.44464 19.4459 5.53939 19.7582 5.53939 20.0777C5.53939 20.5062 5.36919 20.917 5.06625 21.22C4.76331 21.5229 4.35243 21.6931 3.924 21.6931ZM16.9618 19.27H7.04008C6.89494 18.7149 6.60459 18.2085 6.19889 17.8028C5.79319 17.3971 5.28678 17.1068 4.73169 16.9616V7.03996C5.28678 6.89481 5.79319 6.60447 6.19889 6.19877C6.60459 5.79307 6.89494 5.28665 7.04008 4.73157H16.9618C17.1069 5.28665 17.3973 5.79307 17.803 6.19877C18.2087 6.60447 18.7151 6.89481 19.2702 7.03996V16.9616C18.7147 17.106 18.2079 17.3961 17.802 17.8019C17.3962 18.2077 17.1061 18.7146 16.9618 19.27ZM20.0778 21.6931C19.7584 21.6931 19.446 21.5984 19.1804 21.4209C18.9147 21.2434 18.7077 20.9911 18.5854 20.6959C18.4632 20.4007 18.4312 20.0759 18.4935 19.7626C18.5558 19.4492 18.7097 19.1614 18.9356 18.9355C19.1615 18.7096 19.4493 18.5557 19.7627 18.4934C20.0761 18.431 20.4009 18.463 20.696 18.5853C20.9912 18.7076 21.2435 18.9146 21.421 19.1803C21.5985 19.4459 21.6932 19.7582 21.6932 20.0777C21.6926 20.506 21.5222 20.9165 21.2194 21.2193C20.9166 21.5221 20.5061 21.6925 20.0778 21.6931Z" fill="#573C63"/>
</svg>
