<svg width="22" height="17" viewBox="0 0 22 17" fill="none" xmlns="http://www.w3.org/2000/svg">
<path d="M1.30762 16.269V10.8979C1.30995 10.0846 1.6249 9.30531 2.18368 8.73023C2.74245 8.15516 3.49964 7.83102 4.28987 7.82862H17.71C18.5002 7.83102 19.2574 8.15516 19.8162 8.73023C20.3749 9.30531 20.6899 10.0846 20.6922 10.8979V16.269M16.9644 7.82862H3.5443V2.84112C3.54578 2.33283 3.74263 1.84579 4.09186 1.48638C4.44109 1.12696 4.91432 0.92437 5.40821 0.922852H16.5916C17.0855 0.92437 17.5588 1.12696 17.908 1.48638C18.2572 1.84579 18.4541 2.33283 18.4555 2.84112V7.82862H16.9644Z" stroke="#573C63" stroke-width="1.21154" stroke-linecap="round" stroke-linejoin="round"/>
<path d="M1.30762 16.2692V15.8942C1.30848 15.5961 1.42658 15.3104 1.63612 15.0996C1.84567 14.8888 2.12962 14.77 2.42596 14.7692H19.5739C19.8702 14.77 20.1542 14.8888 20.3637 15.0996C20.5733 15.3104 20.6914 15.5961 20.6922 15.8942V16.2692M4.28987 8.01917V7.26917C4.29097 6.87168 4.44843 6.4908 4.72783 6.20973C5.00723 5.92867 5.38586 5.77028 5.78099 5.76917H9.5088C9.90393 5.77028 10.2826 5.92867 10.562 6.20973C10.8414 6.4908 10.9988 6.87168 10.9999 7.26917M10.9999 7.26917V8.01917M10.9999 7.26917C11.001 6.87168 11.1585 6.4908 11.4379 6.20973C11.7173 5.92867 12.0959 5.77028 12.491 5.76917H16.2189C16.614 5.77028 16.9926 5.92867 17.272 6.20973C17.5514 6.4908 17.7089 6.87168 17.71 7.26917V8.01917" stroke="#573C63" stroke-width="1.21154" stroke-linecap="round" stroke-linejoin="round"/>
</svg>
