<svg width="19" height="18" viewBox="0 0 19 18" fill="none" xmlns="http://www.w3.org/2000/svg">
<path d="M17.7042 17.8845L11.5253 11.7209L12.7061 10.543L18.885 16.7066L17.7042 17.8845ZM2.23903 17.8845L1.0571 16.7066L8.80083 8.98209L5.49544 5.70711L4.88779 6.31326L3.83274 5.23973V7.23802L3.22508 7.84417L0.308105 4.93444L0.915762 4.32829H2.91902L1.8495 3.28141L4.25898 0.877915C4.5157 0.621838 4.7969 0.43163 5.10258 0.307292C5.40752 0.183694 5.73287 0.121895 6.07862 0.121895C6.42362 0.121895 6.74897 0.183694 7.05465 0.307292C7.36033 0.43089 7.64116 0.621098 7.89713 0.877915L6.06526 2.70524L7.28502 3.92197L6.67737 4.52812L9.98275 7.8031L12.8285 4.96331C12.6541 4.71759 12.5332 4.46595 12.4657 4.2084C12.3982 3.95084 12.3644 3.66812 12.3644 3.36023C12.3644 2.4536 12.6794 1.68611 13.3093 1.05776C13.9392 0.42941 14.7086 0.115234 15.6175 0.115234C15.8104 0.115234 15.9959 0.128927 16.1739 0.156311C16.3535 0.182954 16.5305 0.237722 16.7048 0.320614L14.3999 2.61976L16.3598 4.57475L18.6647 2.27672C18.7515 2.4499 18.8075 2.62568 18.8327 2.80404C18.8579 2.98315 18.8706 3.16855 18.8706 3.36023C18.8706 4.26686 18.5552 5.03436 17.9246 5.66271C17.2954 6.2918 16.5264 6.60634 15.6175 6.60634C15.3088 6.60634 15.0254 6.57341 14.7672 6.50754C14.509 6.44167 14.2568 6.31992 14.0104 6.1423L2.23903 17.8845Z" fill="#573C63"/>
</svg>
