<svg width="24" height="24" viewBox="0 0 24 24" fill="none" xmlns="http://www.w3.org/2000/svg">
<path d="M8.79815 18.079C7.94716 17.0533 8.04663 15.5359 8.34945 14.5601C13.2973 16.9738 13.9428 12.5531 13.5714 11.4479C15.2347 12.5531 16.8483 16.3317 15.1341 18.079" stroke="#573C63" stroke-width="1.65777" stroke-linecap="round" stroke-linejoin="round"/>
<path d="M8.47983 18.0786C4.91673 16.8949 4.00827 11.5005 5.51132 8.60606C6.61097 10.9723 8.40689 10.9723 8.40689 10.9723C7.20998 6.23656 9.6038 2.6834 14.2201 1.49976C13.3161 3.15863 12.5922 5.75028 14.4268 7.41136C14.8158 6.672 16.121 5.0518 17.9855 5.0518C17.9855 5.0518 16.5521 7.59593 18.1071 9.81292C19.903 12.3714 19.4432 16.1821 16.7731 18.0775M2.66658 18.0786H1.49951M21.3309 18.0786H22.4979M21.3928 18.0786H2.60469L3.33411 20.8249C3.70435 22.2175 4.08674 22.4993 5.61299 22.4993H18.3845C19.9096 22.4993 20.2931 22.2175 20.6633 20.8249L21.3928 18.0786Z" stroke="#573C63" stroke-width="1.65777" stroke-linecap="round" stroke-linejoin="round"/>
</svg>
