<svg width="23" height="21" viewBox="0 0 23 21" fill="none" xmlns="http://www.w3.org/2000/svg">
<path d="M14.1523 1.99028C14.1523 1.54405 14.3295 1.11608 14.6451 0.800545C14.9606 0.485007 15.3886 0.307739 15.8348 0.307739H20.8824C21.3287 0.307739 21.7566 0.485007 22.0722 0.800545C22.3877 1.11608 22.565 1.54405 22.565 1.99028V16.2919C22.565 17.4075 22.1218 18.4774 21.333 19.2663C20.5441 20.0551 19.4742 20.4983 18.3586 20.4983H2.37444C1.9282 20.4983 1.50024 20.321 1.1847 20.0055C0.869162 19.6899 0.691895 19.262 0.691895 18.8157V13.7681C0.691895 13.3219 0.869162 12.8939 1.1847 12.5784C1.50024 12.2628 1.9282 12.0855 2.37444 12.0855H7.42207V8.72046C7.42207 8.27422 7.59934 7.84626 7.91488 7.53072C8.23042 7.21518 8.65838 7.03792 9.10462 7.03792H14.1523V1.99028ZM20.8824 1.99028H15.8348V7.03792C15.8348 7.48416 15.6575 7.91212 15.342 8.22765C15.0265 8.54319 14.5985 8.72046 14.1523 8.72046H9.10462V12.0855C9.10462 12.5318 8.92735 12.9597 8.61181 13.2753C8.29627 13.5908 7.86831 13.7681 7.42207 13.7681H2.37444V18.8157H18.3586C19.028 18.8157 19.6699 18.5498 20.1432 18.0765C20.6165 17.6032 20.8824 16.9613 20.8824 16.2919V1.99028Z" fill="#573C63"/>
</svg>
