<svg width="22" height="25" viewBox="0 0 22 25" fill="none" xmlns="http://www.w3.org/2000/svg">
<path d="M14.3164 12.1116C14.3164 12.2589 14.2874 12.4048 14.231 12.5408C14.1746 12.6769 14.092 12.8005 13.9879 12.9047C13.8837 13.0088 13.7601 13.0914 13.624 13.1478C13.4879 13.2042 13.3421 13.2332 13.1948 13.2332C13.0475 13.2332 12.9017 13.2042 12.7656 13.1478C12.6295 13.0914 12.5059 13.0088 12.4018 12.9047C12.2976 12.8005 12.215 12.6769 12.1586 12.5408C12.1023 12.4048 12.0733 12.2589 12.0733 12.1116C12.0733 11.8142 12.1914 11.5289 12.4018 11.3186C12.6121 11.1082 12.8974 10.9901 13.1948 10.9901C13.4923 10.9901 13.7775 11.1082 13.9879 11.3186C14.1982 11.5289 14.3164 11.8142 14.3164 12.1116ZM10.0066 0.169261C9.89767 0.145864 9.78489 0.147106 9.6765 0.172895C9.56812 0.198684 9.46686 0.248368 9.38015 0.318315C9.29343 0.388263 9.22344 0.476705 9.17529 0.577177C9.12715 0.677649 9.10206 0.787611 9.10187 0.899023V23.3302C9.10184 23.4418 9.12676 23.5519 9.17481 23.6525C9.22286 23.7532 9.29282 23.8418 9.37957 23.9119C9.46631 23.9821 9.56764 24.0319 9.67614 24.0578C9.78464 24.0836 9.89755 24.0849 10.0066 24.0615L20.4745 21.8169C20.6417 21.7806 20.7914 21.688 20.8987 21.5547C21.0059 21.4213 21.0641 21.2552 21.0637 21.0841V3.13915C21.0634 2.96834 21.0046 2.80277 20.8972 2.67C20.7897 2.53723 20.64 2.44526 20.473 2.40939L10.0066 0.169261ZM10.5973 22.4046V1.82319L19.5698 3.74479V20.4815L10.5973 22.4046ZM7.60945 22.5765V21.0811H1.62481V3.14364H7.60945V1.64822H0.877101C0.678797 1.64822 0.488615 1.727 0.348393 1.86722C0.208171 2.00744 0.129395 2.19763 0.129395 2.39593V21.8288C0.129395 22.0271 0.208171 22.2173 0.348393 22.3575C0.488615 22.4977 0.678797 22.5765 0.877101 22.5765H7.60945Z" fill="#573C63"/>
</svg>
