<svg width="63" height="62" viewBox="0 0 63 62" fill="none" xmlns="http://www.w3.org/2000/svg">
<rect x="0.75" width="61.8019" height="61.8019" rx="30.901" fill="#FFF1EC"/>
<path d="M32.0071 18.3609L32.0071 18.3609L22.4992 24.6308L22.4968 24.6324C22.2173 24.8159 21.8901 24.9134 21.5557 24.9128M32.0071 18.3609L21.5573 23.5991M32.0071 18.3609C32.9765 17.7216 34.2701 18.4177 34.2701 19.5798V42.2218C34.2701 43.3848 32.977 44.0804 32.0071 43.4407L32.0068 43.4406L22.5032 37.1761M32.0071 18.3609L22.5032 37.1761M21.5557 24.9128C21.5548 24.9128 21.5539 24.9128 21.553 24.9128L21.5573 23.5991M21.5557 24.9128H21.5573V23.5991M21.5557 24.9128H16.961C16.1535 24.9128 15.379 25.2336 14.808 25.8046C14.237 26.3756 13.9162 27.1501 13.9162 27.9576V33.844C13.9162 34.6515 14.237 35.426 14.808 35.997C15.379 36.568 16.1535 36.8888 16.961 36.8888H21.5573H21.5662V36.8889C21.8984 36.8911 22.2227 36.9901 22.4995 37.1737L22.4974 37.1723L21.7744 38.2691M21.5573 23.5991H16.961C15.8051 23.5991 14.6965 24.0583 13.8791 24.8757C13.0617 25.6931 12.6025 26.8017 12.6025 27.9576V33.844C12.6025 34.9999 13.0617 36.1085 13.8791 36.9259C14.6965 37.7433 15.8051 38.2025 16.961 38.2025H21.5573C21.6346 38.203 21.7101 38.2262 21.7744 38.2691M21.7744 38.2691L22.5032 37.1761M21.7744 38.2691L31.2839 44.5374L22.5032 37.1761" stroke="#222222" stroke-width="2.62731"/>
<path d="M40.6797 25.5612L50.6995 35.581" stroke="#D75337" stroke-width="2.62731" stroke-linecap="round"/>
<path d="M50.6997 25.5612L40.6798 35.581" stroke="#D75337" stroke-width="2.62731" stroke-linecap="round"/>
</svg>
