<svg width="63" height="62" viewBox="0 0 63 62" fill="none" xmlns="http://www.w3.org/2000/svg">
<rect x="0.75" width="61.8019" height="61.8019" rx="30.901" fill="#FFF1EC"/>
<path d="M31.9041 41.7569C32.2131 41.7571 32.5192 41.6963 32.8046 41.5779C33.0901 41.4594 33.3493 41.2857 33.5674 41.0667C33.7855 40.8477 33.9581 40.5878 34.0753 40.3018C34.1926 40.0159 34.2521 39.7095 34.2505 39.4005C34.2505 38.4891 33.7367 37.7424 32.99 37.3354C32.6797 37.1707 32.573 37.0541 32.573 36.5792V31.4304C32.573 30.9257 32.2822 30.6254 31.9041 30.6254C31.5359 30.6254 31.2351 30.9261 31.2351 31.4304V36.5783C31.2351 37.0532 31.1284 37.1699 30.8182 37.3345C30.0719 37.7416 29.5576 38.4887 29.5576 39.3997C29.5561 39.7087 29.6156 40.015 29.7328 40.301C29.8501 40.5869 30.0227 40.8469 30.2408 41.0659C30.4588 41.2849 30.7181 41.4586 31.0035 41.577C31.289 41.6955 31.595 41.7563 31.9041 41.756" fill="#D75337"/>
<path d="M31.8185 44.6905C34.6574 44.6905 36.9639 42.3378 36.9639 39.4424C36.9639 37.9141 36.3431 36.577 35.1697 35.4914C34.9531 35.2902 34.9039 35.1795 34.9039 34.878L34.9237 25.8499C34.9237 23.7489 33.6716 22.3514 31.8185 22.3514C29.9554 22.3514 28.7033 23.7489 28.7033 25.8499L28.7134 34.878C28.7134 35.1795 28.6642 35.2902 28.4569 35.4914C27.2742 36.577 26.6631 37.914 26.6631 39.442C26.6631 42.3373 28.9594 44.6905 31.8185 44.6905ZM31.8185 43.2317C29.7682 43.2317 28.1023 41.5228 28.1023 39.442C28.1023 38.1851 28.684 37.0493 29.7287 36.3355C30.0344 36.1241 30.1526 35.9332 30.1526 35.521V25.9104C30.1526 24.6437 30.8327 23.8292 31.8181 23.8292C32.7943 23.8292 33.4647 24.6437 33.4647 25.9104V35.5214C33.4647 35.9336 33.5829 36.1245 33.8886 36.3355C34.9333 37.0497 35.515 38.1856 35.515 39.4424C35.515 41.5232 33.8592 43.2317 31.8185 43.2317Z" fill="#D75337"/>
<path d="M16.6895 29.5579V45.1502C16.6895 46.7241 17.9654 48 19.5393 48H43.763C45.3369 48 46.6128 46.7241 46.6128 45.1502V29.5579C46.6128 28.7884 46.3016 28.0516 45.75 27.515L33.6381 15.7345C32.532 14.6586 30.7703 14.6586 29.6641 15.7345L17.5523 27.515C17.0007 28.0516 16.6895 28.7884 16.6895 29.5579Z" stroke="#222222" stroke-width="2.5"/>
</svg>
