<svg width="63" height="62" viewBox="0 0 63 62" fill="none" xmlns="http://www.w3.org/2000/svg">
<rect x="0.5" width="61.8019" height="61.8019" rx="30.901" fill="#FFF1EC"/>
<path d="M41.3041 30.2788V28.4311H44.9995L28.3703 11.802L11.7412 28.4311H15.4366V41.3649C15.4366 42.345 15.8259 43.2849 16.5189 43.9779C17.2119 44.6709 18.1519 45.0603 19.1319 45.0603H23.7511" stroke="#222222" stroke-width="2.80206" stroke-linecap="round" stroke-linejoin="round"/>
<path d="M22.8271 45.0603V33.9742C22.8271 32.9941 23.2165 32.0542 23.9095 31.3612C24.6025 30.6681 25.5424 30.2788 26.5225 30.2788H30.2179C31.1979 30.2788 32.1379 30.6681 32.8309 31.3612C33.5239 32.0542 33.9132 32.9941 33.9132 33.9742" stroke="#222222" stroke-width="2.80206" stroke-linecap="round" stroke-linejoin="round"/>
<path d="M33.5408 40.3745L41.3274 41.1548L36.6129 47.9844L36.6102 47.9883C36.1184 48.7085 36.1735 49.7116 36.7999 50.3626C37.4947 51.0848 38.6191 51.1177 39.349 50.4166L51.3127 39.2786L51.3167 39.2749C52.5962 38.0696 51.9367 35.7841 50.1036 35.6055C50.1031 35.6055 50.1025 35.6054 50.102 35.6054L42.3154 34.8251L47.0299 27.9955L47.03 27.9955L47.0326 27.9916C47.5235 27.2727 47.4696 26.2719 46.8463 25.6208C46.5167 25.2728 46.0616 25.0659 45.5758 25.0566C45.0936 25.0473 44.6338 25.2338 44.292 25.565L32.3301 36.7014L32.3301 36.7014L32.3262 36.705C31.0466 37.9103 31.7061 40.1959 33.5392 40.3744C33.5397 40.3744 33.5403 40.3745 33.5408 40.3745Z" fill="#D75337" stroke="#F9F9F9" stroke-width="1.84768"/>
</svg>
