<svg width="63" height="62" viewBox="0 0 63 62" fill="none" xmlns="http://www.w3.org/2000/svg">
<rect x="0.5" width="61.8019" height="61.8019" rx="30.901" fill="#FFF1EC"/>
<path d="M24.3449 32.7377L24.3966 21.7688L25.1051 23.066L22.2791 24.4238L21.7312 21.8528L25.5059 19.978L27.2632 19.9863L27.203 32.7512L24.3449 32.7377ZM21.9651 33.6728L21.9774 31.0657L29.6441 31.1019L29.6318 33.7089L21.9651 33.6728ZM35.9845 33.8741C35.006 33.8695 34.1186 33.6657 33.3223 33.2629C32.5389 32.8472 31.8851 32.2519 31.3609 31.4769L32.9333 29.7463C33.484 30.3668 33.9841 30.7876 34.4337 31.0086C34.8833 31.2296 35.3784 31.3414 35.9191 31.3439C36.3697 31.3461 36.7757 31.2578 37.137 31.0793C37.4984 30.8879 37.7829 30.6253 37.9905 30.2915C38.198 29.9578 38.3028 29.5849 38.3047 29.1729C38.3068 28.7481 38.2056 28.3678 38.0011 28.0321C37.7967 27.6964 37.5212 27.4312 37.1745 27.2364C36.8407 27.0288 36.455 26.924 36.0173 26.922C35.734 26.9206 35.47 26.9451 35.2251 26.9955C34.9803 27.0329 34.7096 27.1154 34.4129 27.2427C34.1162 27.3572 33.7549 27.5293 33.329 27.759L32.024 26.0148L32.8822 20.1287L40.4909 20.1646L40.4791 22.6558L34.3381 22.6268L35.0566 21.7805L34.3991 26.0646L33.4742 25.6161C33.6682 25.4367 33.9329 25.2706 34.2684 25.1177C34.6168 24.952 34.9907 24.825 35.3903 24.7368C35.8027 24.6357 36.2021 24.5861 36.5883 24.5879C37.438 24.5919 38.1903 24.7886 38.845 25.1779C39.5127 25.5673 40.038 26.1105 40.4209 26.8076C40.8168 27.4918 41.0126 28.2781 41.0084 29.1664C41.0043 30.0547 40.7816 30.8583 40.3405 31.5772C39.8994 32.2832 39.2981 32.8469 38.5365 33.2682C37.775 33.6765 36.9243 33.8785 35.9845 33.8741Z" fill="#D75337"/>
<path d="M21.3835 41.2019L21.3935 39.0719L21.4348 39.3712L19.7192 36.9219L20.6469 36.9263L21.9562 38.8244L21.6694 38.8047L22.8683 36.9367L23.7593 36.9409L22.0936 39.4414L22.1871 39.0269L22.1768 41.2056L21.3835 41.2019ZM25.1302 41.2195L25.1503 36.9475L27.9454 36.9607L27.942 37.6808L25.9281 37.6713L25.9147 40.5031L27.9531 40.5127L27.9497 41.2328L25.1302 41.2195ZM25.505 39.3904L25.5083 38.6825L27.626 38.6924L27.6227 39.4004L25.505 39.3904ZM29.2618 41.239L30.9481 36.9749L31.6926 36.9784L33.3264 41.2582L32.5025 41.2543L31.5985 38.821C31.5784 38.7721 31.5503 38.6947 31.5141 38.5887C31.4821 38.4828 31.446 38.3687 31.4059 38.2465C31.3658 38.1201 31.3297 38.004 31.2977 37.8981C31.2657 37.7881 31.2416 37.7086 31.2256 37.6597L31.3782 37.6543C31.3534 37.7356 31.3245 37.827 31.2914 37.9286C31.2584 38.0301 31.2233 38.1357 31.1862 38.2454C31.1491 38.3551 31.1119 38.4607 31.0748 38.5622C31.0418 38.6638 31.0109 38.7552 30.982 38.8364L30.0552 41.2428L29.2618 41.239ZM30.0232 40.2661L30.3011 39.5778L32.2479 39.587L32.5376 40.278L30.0232 40.2661ZM34.7925 41.2651L34.8127 36.9931L36.668 37.0019C36.9243 37.0031 37.1579 37.0652 37.3689 37.1882C37.5799 37.3072 37.746 37.4708 37.8671 37.6788C37.9922 37.8829 38.0542 38.113 38.053 38.3694C38.0518 38.6135 37.9877 38.839 37.8606 39.0459C37.7376 39.2487 37.57 39.4107 37.3579 39.5318C37.1498 39.6488 36.9156 39.7067 36.6552 39.7054L35.575 39.7003L35.5676 41.2688L34.7925 41.2651ZM37.2703 41.2768L36.1931 39.3432L37.0116 39.1945L38.2101 41.2874L37.2703 41.2768ZM35.5782 39.0107L36.6646 39.0158C36.7825 39.0164 36.8844 38.9904 36.9701 38.9379C37.0599 38.8814 37.1294 38.8044 37.1787 38.707C37.228 38.6096 37.2529 38.5019 37.2534 38.3839C37.2541 38.2496 37.2241 38.1335 37.1635 38.0356C37.103 37.9377 37.0179 37.86 36.9083 37.8025C36.7987 37.745 36.6727 37.7159 36.5303 37.7153L35.5844 37.7108L35.5782 39.0107ZM41.1958 41.3564C40.9476 41.3552 40.7199 41.3236 40.5127 41.2616C40.3055 41.1955 40.1188 41.099 39.9526 40.9721C39.7864 40.8452 39.6386 40.6919 39.5092 40.5123L40.0307 39.9289C40.2288 40.2065 40.4232 40.3986 40.6139 40.5053C40.8046 40.612 41.02 40.6659 41.2601 40.667C41.3984 40.6677 41.5246 40.6479 41.6387 40.6078C41.7529 40.5636 41.8427 40.505 41.9081 40.4321C41.9736 40.3551 42.0065 40.2677 42.007 40.1701C42.0073 40.1009 41.9934 40.0378 41.9652 39.9807C41.941 39.9196 41.9026 39.8665 41.85 39.8215C41.7973 39.7724 41.7324 39.7274 41.6553 39.6863C41.5782 39.6453 41.4909 39.6103 41.3934 39.5813C41.2959 39.5524 41.1882 39.5254 41.0703 39.5005C40.8467 39.4546 40.6517 39.3947 40.4852 39.3207C40.3188 39.2426 40.1789 39.1484 40.0655 39.038C39.9521 38.9235 39.8693 38.797 39.817 38.6584C39.7648 38.5158 39.7391 38.3549 39.74 38.1759C39.7408 37.9969 39.7802 37.8323 39.8583 37.6821C39.9403 37.532 40.0508 37.4023 40.1897 37.2931C40.3285 37.1839 40.4896 37.0992 40.673 37.0391C40.8564 36.9789 41.0538 36.9493 41.2654 36.9503C41.5055 36.9514 41.7189 36.9809 41.9058 37.0388C42.0968 37.0966 42.2632 37.1829 42.405 37.2975C42.551 37.408 42.6704 37.5428 42.7632 37.7019L42.2359 38.2182C42.1551 38.0917 42.0641 37.9875 41.9627 37.9057C41.8614 37.8197 41.7519 37.7562 41.6341 37.7149C41.5163 37.6696 41.3923 37.6467 41.2621 37.646C41.1157 37.6453 40.9874 37.6651 40.8774 37.7053C40.7714 37.7454 40.6877 37.804 40.6263 37.8811C40.5649 37.954 40.534 38.0434 40.5335 38.1491C40.5331 38.2305 40.5511 38.3038 40.5874 38.3691C40.6237 38.4303 40.6743 38.4855 40.7392 38.5346C40.8081 38.5838 40.8954 38.6269 41.001 38.664C41.1066 38.7011 41.2265 38.7342 41.3606 38.7634C41.5842 38.8092 41.7853 38.8711 41.9639 38.9493C42.1426 39.0234 42.2947 39.1136 42.4204 39.22C42.546 39.3223 42.6411 39.4407 42.7055 39.5753C42.77 39.7058 42.8019 39.8524 42.8011 40.0152C42.7998 40.2959 42.7315 40.5377 42.5963 40.7405C42.4652 40.9392 42.2793 41.0929 42.0387 41.2017C41.7982 41.3063 41.5172 41.3579 41.1958 41.3564Z" fill="#181818"/>
<path d="M52.2739 25.638C52.175 25.447 52.1187 25.2369 52.1089 25.0221L51.8737 19.8705C51.8517 19.3881 51.5967 18.9465 51.19 18.6862L46.8466 15.9067C46.6655 15.7908 46.5117 15.637 46.3958 15.4559L43.6156 11.1119C43.3554 10.7052 42.9138 10.4503 42.4316 10.4282L37.2795 10.1924C37.0648 10.1825 36.8547 10.1262 36.6639 10.0274L32.0847 7.65584C31.6559 7.43379 31.1461 7.43382 30.7173 7.65591L26.1382 10.028C25.9473 10.1269 25.7372 10.1832 25.5224 10.193L20.3704 10.4289C19.8881 10.451 19.4466 10.7058 19.1864 11.1125L16.4062 15.456C16.2903 15.637 16.1365 15.7908 15.9554 15.9067L11.612 18.6862C11.2053 18.9465 10.9503 19.3881 10.9283 19.8705L10.6931 25.0221C10.6833 25.2369 10.627 25.447 10.5281 25.638L8.15596 30.2171C7.93384 30.6459 7.93384 31.1558 8.15595 31.5846L10.5281 36.164C10.627 36.3549 10.6833 36.5649 10.6931 36.7797L10.929 41.9315C10.9511 42.4137 11.206 42.8552 11.6126 43.1155L15.9554 45.895C16.1365 46.0109 16.2903 46.1647 16.4062 46.3458L19.1858 50.6898C19.4461 51.0966 19.8877 51.3515 20.3701 51.3736L25.5218 51.6089C25.7366 51.6187 25.9468 51.675 26.1377 51.7739L30.7173 54.146C31.146 54.3681 31.656 54.368 32.0847 54.1459L36.6638 51.7739C36.8547 51.675 37.0648 51.6187 37.2797 51.6089L42.4314 51.3736C42.9138 51.3515 43.3554 51.0966 43.6157 50.6898L46.3952 46.3459C46.5112 46.1648 46.665 46.0109 46.8462 45.895L51.1897 43.116C51.5965 42.8558 51.8515 42.4141 51.8736 41.9317L52.1089 36.7803C52.1187 36.5655 52.175 36.3554 52.2739 36.1644L54.6461 31.5851C54.8682 31.1563 54.8682 30.6464 54.6461 30.2177L52.2739 25.638Z" stroke="#222222" stroke-width="2.97301"/>
<circle cx="31.5074" cy="31.0854" r="21.0587" stroke="#222222" stroke-width="2.47751"/>
</svg>
