<svg width="62" height="62" viewBox="0 0 62 62" fill="none" xmlns="http://www.w3.org/2000/svg">
<rect width="61.8019" height="61.8019" rx="30.901" fill="#FFF1EC"/>
<path d="M46.1493 45.1692L16.4062 15.411L14.4756 17.3265L23.495 26.3761C21.3382 28.4274 20.1618 31.6098 20.3428 34.6264C20.4333 35.3805 20.5237 36.1346 20.7802 36.8888C20.9913 37.7937 21.3985 38.6987 21.851 39.4981C23.48 42.1074 26.3004 43.9776 29.332 44.3547C32.5597 44.762 36.0137 44.1737 38.4872 41.9415C38.5928 41.851 38.6682 41.7303 38.7738 41.6248L44.2338 47.0847L46.1493 45.1692ZM26.0742 33.9929C25.7273 34.1437 25.3653 34.0532 25.0787 33.8119C24.9931 33.7402 24.9215 33.6533 24.8676 33.5555C23.3593 31.6098 22.9671 28.9251 23.7514 26.6024L25.7424 28.5933C25.7424 29.996 25.9686 31.3987 26.4814 32.741C26.5417 32.8919 26.6021 33.0427 26.6021 33.2388C26.6021 33.5706 26.3758 33.8722 26.0742 33.9929ZM34.6713 39.1964C34.249 39.5584 33.5552 39.9506 33.0122 40.1014C31.323 40.7047 29.6337 39.8601 28.6382 38.8646C30.4331 38.4423 31.504 37.115 31.8207 35.7727C31.8961 35.4258 31.8961 35.0638 31.8659 34.7169L35.4255 38.2613C35.1992 38.6082 34.9579 38.94 34.6713 39.1964ZM41.3379 36.5117L27.3562 22.5451C28.0651 21.3234 28.9701 20.2224 30.0862 19.3174C31.1571 18.4577 32.4089 17.6734 33.8418 17.3265C32.4089 20.1168 32.9066 23.7517 35.154 25.9538C36.1193 26.904 37.2655 27.5526 38.2761 28.4575C38.6682 28.8497 39.0906 29.2418 39.4375 29.6943C39.4375 29.6943 40.2821 30.9009 40.5988 31.5947L40.7949 31.9869C41.3982 33.4499 41.549 35.0034 41.3379 36.5117Z" fill="#D75337"/>
<path d="M15.3076 16.0911L45.8661 46.6496" stroke="#222222" stroke-width="3.01654"/>
</svg>
