<svg width="23" height="23" viewBox="0 0 23 23" fill="none" xmlns="http://www.w3.org/2000/svg">
<path d="M11.4026 22.3059C5.39031 22.3059 0.499512 17.4151 0.499512 11.4028C0.499512 5.39056 5.39031 0.499756 11.4026 0.499756C17.4148 0.499756 22.3056 5.39056 22.3056 11.4028C22.3056 17.4151 17.4148 22.3059 11.4026 22.3059ZM11.4026 2.05734C6.24698 2.05734 2.05709 6.24723 2.05709 11.4028C2.05709 16.5584 6.24698 20.7483 11.4026 20.7483C16.5582 20.7483 20.748 16.5584 20.748 11.4028C20.748 6.24723 16.5582 2.05734 11.4026 2.05734Z" fill="#573C63"/>
<path d="M9.06684 12.961H7.50926C7.07314 12.961 6.73047 12.6183 6.73047 12.1822C6.73047 11.7461 7.07314 11.4034 7.50926 11.4034H9.06684C10.3596 11.4034 11.4032 10.3598 11.4032 9.06704C11.4032 7.77425 10.3596 6.73068 9.06684 6.73068H7.50926C7.07314 6.73068 6.73047 6.38801 6.73047 5.95189C6.73047 5.51576 7.07314 5.1731 7.50926 5.1731H9.06684C10.0996 5.1731 11.09 5.58335 11.8203 6.31361C12.5505 7.04386 12.9608 8.03431 12.9608 9.06704C12.9608 10.0998 12.5505 11.0902 11.8203 11.8205C11.09 12.5507 10.0996 12.961 9.06684 12.961Z" fill="#573C63"/>
<path d="M15.2972 9.84583H7.50926C7.07314 9.84583 6.73047 9.50317 6.73047 9.06704C6.73047 8.63092 7.07314 8.28825 7.50926 8.28825H15.2972C15.7333 8.28825 16.0759 8.63092 16.0759 9.06704C16.0759 9.50317 15.7333 9.84583 15.2972 9.84583ZM15.2972 6.73068H7.50926C7.07314 6.73068 6.73047 6.38801 6.73047 5.95189C6.73047 5.51576 7.07314 5.1731 7.50926 5.1731H15.2972C15.7333 5.1731 16.0759 5.51576 16.0759 5.95189C16.0759 6.38801 15.7333 6.73068 15.2972 6.73068ZM10.6244 17.6337C10.3752 17.6337 10.126 17.5091 9.97023 17.2911L6.85508 12.6183C6.74753 12.4469 6.71123 12.2402 6.75394 12.0424C6.79665 11.8446 6.91498 11.6713 7.08368 11.5595C7.25238 11.4477 7.45808 11.4063 7.6569 11.4441C7.85572 11.4818 8.03191 11.5958 8.14787 11.7617L11.263 16.4344C11.4967 16.7926 11.4032 17.2755 11.045 17.5091C10.9048 17.6026 10.7646 17.6337 10.6088 17.6337H10.6244Z" fill="#573C63"/>
</svg>
