<svg width="726" height="428" viewBox="0 0 726 428" fill="none" xmlns="http://www.w3.org/2000/svg">
<path d="M508.315 388.672H470.895V388.955H508.315V388.672Z" fill="#EBEBEB"/>
<path d="M374.228 391.745H364.409V392.027H374.228V391.745Z" fill="#EBEBEB"/>
<path d="M469.765 378.188H448.083V378.47H469.765V378.188Z" fill="#EBEBEB"/>
<path d="M108.066 380.083H59.2686V380.366H108.066V380.083Z" fill="#EBEBEB"/>
<path d="M125.291 380.086H118.139V380.369H125.291V380.086Z" fill="#EBEBEB"/>
<path d="M254.384 384.854H148.54V385.136H254.384V384.854Z" fill="#EBEBEB"/>
<path d="M269.352 320.102H51.1799C49.4689 320.102 47.828 319.422 46.6181 318.212C45.4082 317.002 44.7285 315.361 44.7285 313.65V6.97742C44.7434 5.27622 45.4297 3.64976 46.6379 2.45207C47.8462 1.25439 49.4786 0.582454 51.1799 0.58252H269.352C270.2 0.58252 271.039 0.749388 271.821 1.0736C272.604 1.39781 273.315 1.87302 273.914 2.47209C274.513 3.07116 274.988 3.78236 275.313 4.56508C275.637 5.3478 275.804 6.18671 275.804 7.03392V313.65C275.804 314.498 275.637 315.337 275.313 316.119C274.988 316.902 274.513 317.613 273.914 318.212C273.315 318.811 272.604 319.287 271.821 319.611C271.039 319.935 270.2 320.102 269.352 320.102ZM51.1799 0.808489C49.5447 0.811475 47.9774 1.46237 46.8211 2.61863C45.6649 3.77488 45.014 5.34224 45.011 6.97742V313.65C45.014 315.286 45.6649 316.853 46.8211 318.009C47.9774 319.165 49.5447 319.816 51.1799 319.819H269.352C270.988 319.816 272.555 319.165 273.711 318.009C274.867 316.853 275.518 315.286 275.521 313.65V6.97742C275.518 5.34224 274.867 3.77488 273.711 2.61863C272.555 1.46237 270.988 0.811475 269.352 0.808489H51.1799Z" fill="#EBEBEB"/>
<path d="M513.738 320.102H295.566C293.855 320.102 292.214 319.422 291.004 318.212C289.794 317.002 289.114 315.361 289.114 313.65V6.97742C289.129 5.27622 289.815 3.64976 291.024 2.45207C292.232 1.25439 293.864 0.582454 295.566 0.58252H513.738C515.449 0.58252 517.09 1.26222 518.3 2.47209C519.51 3.68196 520.19 5.3229 520.19 7.03392V313.65C520.19 315.361 519.51 317.002 518.3 318.212C517.09 319.422 515.449 320.102 513.738 320.102ZM295.566 0.808489C293.93 0.811475 292.363 1.46237 291.207 2.61863C290.051 3.77488 289.4 5.34224 289.397 6.97742V313.65C289.4 315.286 290.051 316.853 291.207 318.009C292.363 319.165 293.93 319.816 295.566 319.819H513.738C515.373 319.816 516.941 319.165 518.097 318.009C519.253 316.853 519.904 315.286 519.907 313.65V6.97742C519.904 5.34224 519.253 3.77488 518.097 2.61863C516.941 1.46237 515.373 0.811475 513.738 0.808489H295.566Z" fill="#EBEBEB"/>
<path d="M564.921 370.493H0V370.775H564.921V370.493Z" fill="#EBEBEB"/>
<path d="M240.18 65.1752C238.992 65.1562 237.836 65.5562 236.914 66.305C237.101 65.2815 237.101 64.2327 236.914 63.2092C236.415 60.7772 235.113 58.5832 233.218 56.9791C231.323 55.375 228.945 54.4536 226.463 54.3626C225.068 54.3448 223.694 54.7039 222.486 55.402C221.568 53.7169 220.227 52.3002 218.594 51.2917C216.962 50.2833 215.094 49.7178 213.176 49.6511C212.069 49.6124 210.968 49.8298 209.958 50.2865C208.949 50.7432 208.058 51.4268 207.356 52.284C206.654 53.1413 206.16 54.1491 205.911 55.2288C205.662 56.3086 205.667 57.4311 205.923 58.5091C206 58.8909 206.098 59.2681 206.217 59.6389C205.439 59.4317 204.638 59.3254 203.833 59.3226C202.725 59.2838 201.624 59.5012 200.614 59.9579C199.605 60.4146 198.715 61.0982 198.013 61.9555C197.311 62.8127 196.816 63.8205 196.567 64.9003C196.319 65.98 196.323 67.1026 196.579 68.1805C197.077 70.6135 198.378 72.8086 200.273 74.413C202.169 76.0175 204.548 76.9382 207.03 77.0272H242.315C243.059 77.0541 243.799 76.9089 244.477 76.603C245.155 76.2971 245.754 75.8388 246.226 75.2637C246.699 74.6887 247.032 74.0123 247.2 73.2874C247.368 72.5625 247.367 71.8085 247.196 71.0842C246.854 69.4574 245.977 67.9918 244.706 66.9209C243.434 65.85 241.841 65.2355 240.18 65.1752Z" fill="#F5F5F5"/>
<path d="M182.207 72.4739C180.05 72.4354 177.949 73.1596 176.275 74.519C176.63 72.6526 176.63 70.7361 176.275 68.8697C174.671 59.9892 166.185 52.7921 157.305 52.7921C154.776 52.7639 152.287 53.4155 150.097 54.6789C146.707 48.5891 140.075 44.2505 133.149 44.2505C124.268 44.2505 118.371 51.4476 119.975 60.3281C120.11 61.0507 120.292 61.7639 120.517 62.4635C119.105 62.0909 117.651 61.8973 116.19 61.8873C107.309 61.8873 101.423 69.0844 103.016 77.9537C104.609 86.8229 113.117 94.0313 121.986 94.0313H186.048C192.014 94.0313 195.968 89.1956 194.895 83.23C194.275 80.2825 192.692 77.6253 190.394 75.6776C188.096 73.7299 185.216 72.6028 182.207 72.4739Z" fill="#F5F5F5"/>
<path d="M441.078 76.1362C438.92 76.0998 436.818 76.8282 435.146 78.1925C435.5 76.326 435.5 74.4097 435.146 72.5433C433.553 63.674 425.057 56.4769 416.176 56.4769C413.651 56.449 411.165 57.1007 408.979 58.3637C405.589 52.2739 398.946 47.9353 392.031 47.9353C383.151 47.9353 377.253 55.1324 378.857 64.0016C378.997 64.727 379.178 65.4438 379.4 66.1483C377.989 65.7667 376.534 65.5692 375.072 65.5608C366.203 65.5608 360.305 72.7579 361.91 81.6385C363.514 90.519 372.044 97.75 380.925 97.75H444.976C450.941 97.75 454.896 92.9143 453.822 86.96C453.213 83.991 451.627 81.3115 449.317 79.3495C447.007 77.3876 444.106 76.2562 441.078 76.1362Z" fill="#F5F5F5"/>
<path d="M475.662 61.8416C474.761 61.8232 473.883 62.1278 473.187 62.7003C473.335 61.9276 473.335 61.1341 473.187 60.3615C472.813 58.5188 471.829 56.8558 470.394 55.6404C468.96 54.425 467.158 53.7279 465.278 53.6615C464.223 53.6461 463.184 53.9196 462.273 54.4524C461.578 53.179 460.564 52.1083 459.329 51.3456C458.095 50.583 456.684 50.1546 455.234 50.1025C454.396 50.0729 453.563 50.2371 452.799 50.5824C452.035 50.9276 451.361 51.4446 450.83 52.093C450.298 52.7414 449.924 53.5037 449.735 54.3206C449.547 55.1374 449.55 55.9868 449.743 56.8025C449.801 57.1041 449.876 57.4022 449.969 57.6951C449.384 57.5334 448.78 57.4499 448.173 57.4465C447.334 57.4146 446.5 57.5772 445.735 57.9217C444.969 58.2663 444.294 58.7833 443.763 59.4323C443.231 60.0813 442.856 60.8446 442.669 61.6625C442.481 62.4804 442.486 63.3306 442.682 64.1465C443.058 65.9871 444.043 67.6475 445.477 68.8607C446.912 70.0739 448.713 70.7693 450.59 70.8351H477.277C477.842 70.8544 478.403 70.743 478.917 70.5095C479.431 70.276 479.884 69.9269 480.24 69.4893C480.597 69.0516 480.847 68.5375 480.972 67.9869C481.097 67.4364 481.093 66.8645 480.961 66.3158C480.7 65.087 480.038 63.9801 479.079 63.1698C478.119 62.3596 476.917 61.8922 475.662 61.8416Z" fill="#F0F0F0"/>
<path d="M311.372 116.086V105.171H289.318V116.086H252.733V372.854H316.705V116.086H311.372Z" fill="#F0F0F0"/>
<path d="M282.846 129.871H273.4V139.316H282.846V129.871Z" fill="#FAFAFA"/>
<path d="M296.042 129.871H286.597V139.316H296.042V129.871Z" fill="#FAFAFA"/>
<path d="M269.65 144.119H260.204V153.564H269.65V144.119Z" fill="#FAFAFA"/>
<path d="M282.846 144.119H273.4V153.564H282.846V144.119Z" fill="#FAFAFA"/>
<path d="M309.238 144.119H299.793V153.564H309.238V144.119Z" fill="#FAFAFA"/>
<path d="M269.65 158.377H260.204V167.823H269.65V158.377Z" fill="#FAFAFA"/>
<path d="M296.042 158.375H286.597V167.821H296.042V158.375Z" fill="#FAFAFA"/>
<path d="M309.238 158.375H299.793V167.821H309.238V158.375Z" fill="#FAFAFA"/>
<path d="M269.65 186.873H260.204V196.318H269.65V186.873Z" fill="#FAFAFA"/>
<path d="M296.042 186.871H286.597V196.316H296.042V186.871Z" fill="#FAFAFA"/>
<path d="M269.65 201.119H260.204V210.564H269.65V201.119Z" fill="#FAFAFA"/>
<path d="M282.846 201.119H273.4V210.564H282.846V201.119Z" fill="#FAFAFA"/>
<path d="M309.238 201.118H299.793V210.563H309.238V201.118Z" fill="#FAFAFA"/>
<path d="M269.65 272.274H260.204V281.719H269.65V272.274Z" fill="#FAFAFA"/>
<path d="M282.846 272.274H273.4V281.719H282.846V272.274Z" fill="#FAFAFA"/>
<path d="M309.238 272.274H299.793V281.719H309.238V272.274Z" fill="#FAFAFA"/>
<path d="M269.65 286.523H260.204V295.968H269.65V286.523Z" fill="#FAFAFA"/>
<path d="M296.042 286.523H286.597V295.968H296.042V286.523Z" fill="#FAFAFA"/>
<path d="M309.238 286.523H299.793V295.968H309.238V286.523Z" fill="#FAFAFA"/>
<path d="M269.65 315.029H260.204V324.474H269.65V315.029Z" fill="#FAFAFA"/>
<path d="M296.042 315.029H286.597V324.474H296.042V315.029Z" fill="#FAFAFA"/>
<path d="M269.65 329.276H260.204V338.721H269.65V329.276Z" fill="#FAFAFA"/>
<path d="M282.846 329.276H273.4V338.721H282.846V329.276Z" fill="#FAFAFA"/>
<path d="M309.238 329.275H299.793V338.721H309.238V329.275Z" fill="#FAFAFA"/>
<path d="M309.238 215.377H299.793V224.823H309.238V215.377Z" fill="#FAFAFA"/>
<path d="M269.65 229.625H260.204V239.07H269.65V229.625Z" fill="#FAFAFA"/>
<path d="M282.846 229.625H273.4V239.07H282.846V229.625Z" fill="#FAFAFA"/>
<path d="M296.113 244.032L286.669 243.897L286.534 253.341L295.978 253.477L296.113 244.032Z" fill="#FAFAFA"/>
<path d="M309.305 244.221L299.86 244.085L299.725 253.53L309.17 253.665L309.305 244.221Z" fill="#FAFAFA"/>
<path d="M269.65 258.119H260.204V267.564H269.65V258.119Z" fill="#FAFAFA"/>
<path d="M434.13 165.019V156.195H451.971V165.019H481.595V372.853H429.814V165.019H434.13Z" fill="#F0F0F0"/>
<path d="M457.224 183.832H464.873V176.183H457.224V183.832Z" fill="#FAFAFA"/>
<path d="M446.537 183.832H454.186V176.183H446.537V183.832Z" fill="#FAFAFA"/>
<path d="M467.903 195.368H475.552V187.719H467.903V195.368Z" fill="#FAFAFA"/>
<path d="M457.224 195.368H464.873V187.719H457.224V195.368Z" fill="#FAFAFA"/>
<path d="M435.849 195.368H443.498V187.719H435.849V195.368Z" fill="#FAFAFA"/>
<path d="M467.903 206.905H475.552V199.256H467.903V206.905Z" fill="#FAFAFA"/>
<path d="M446.537 206.905H454.186V199.256H446.537V206.905Z" fill="#FAFAFA"/>
<path d="M435.849 206.905H443.498V199.256H435.849V206.905Z" fill="#FAFAFA"/>
<path d="M467.903 229.964H475.552V222.315H467.903V229.964Z" fill="#FAFAFA"/>
<path d="M446.537 229.964H454.186V222.315H446.537V229.964Z" fill="#FAFAFA"/>
<path d="M467.903 241.508H475.552V233.859H467.903V241.508Z" fill="#FAFAFA"/>
<path d="M457.224 241.508H464.873V233.859H457.224V241.508Z" fill="#FAFAFA"/>
<path d="M435.849 241.508H443.498V233.859H435.849V241.508Z" fill="#FAFAFA"/>
<path d="M467.903 299.099H475.552V291.45H467.903V299.099Z" fill="#FAFAFA"/>
<path d="M457.224 299.098H464.873V291.449H457.224V299.098Z" fill="#FAFAFA"/>
<path d="M435.849 299.098H443.498V291.449H435.849V299.098Z" fill="#FAFAFA"/>
<path d="M467.903 310.622H475.552V302.973H467.903V310.622Z" fill="#FAFAFA"/>
<path d="M446.537 310.622H454.186V302.973H446.537V310.622Z" fill="#FAFAFA"/>
<path d="M435.849 310.622H443.498V302.973H435.849V310.622Z" fill="#FAFAFA"/>
<path d="M467.903 333.705H475.552V326.056H467.903V333.705Z" fill="#FAFAFA"/>
<path d="M446.537 333.705H454.186V326.056H446.537V333.705Z" fill="#FAFAFA"/>
<path d="M467.903 345.239H475.552V337.59H467.903V345.239Z" fill="#FAFAFA"/>
<path d="M457.224 345.239H464.873V337.59H457.224V345.239Z" fill="#FAFAFA"/>
<path d="M435.849 345.239H443.498V337.59H435.849V345.239Z" fill="#FAFAFA"/>
<path d="M435.849 253.046H443.498V245.397H435.849V253.046Z" fill="#FAFAFA"/>
<path d="M467.903 264.571H475.552V256.922H467.903V264.571Z" fill="#FAFAFA"/>
<path d="M457.224 264.571H464.873V256.922H457.224V264.571Z" fill="#FAFAFA"/>
<path d="M446.605 276.221L454.253 276.112L454.143 268.464L446.495 268.573L446.605 276.221Z" fill="#FAFAFA"/>
<path d="M435.9 276.397L443.548 276.288L443.438 268.639L435.79 268.749L435.9 276.397Z" fill="#FAFAFA"/>
<path d="M467.903 287.641H475.552V279.992H467.903V287.641Z" fill="#FAFAFA"/>
<path d="M326.413 167.11H344.084H373.404V372.854H322.143V167.11H326.413Z" fill="#EBEBEB"/>
<path d="M349.28 185.731H356.85V178.161H349.28V185.731Z" fill="#FAFAFA"/>
<path d="M338.702 185.731H346.271V178.161H338.702V185.731Z" fill="#FAFAFA"/>
<path d="M359.844 197.154H367.414V189.584H359.844V197.154Z" fill="#FAFAFA"/>
<path d="M349.28 197.154H356.85V189.584H349.28V197.154Z" fill="#FAFAFA"/>
<path d="M328.129 197.154H335.699V189.584H328.129V197.154Z" fill="#FAFAFA"/>
<path d="M359.844 208.563H367.414V200.993H359.844V208.563Z" fill="#FAFAFA"/>
<path d="M338.702 208.566H346.271V200.996H338.702V208.566Z" fill="#FAFAFA"/>
<path d="M328.129 208.563H335.699V200.993H328.129V208.563Z" fill="#FAFAFA"/>
<path d="M359.844 231.411H367.414V223.841H359.844V231.411Z" fill="#FAFAFA"/>
<path d="M338.702 231.411H346.271V223.841H338.702V231.411Z" fill="#FAFAFA"/>
<path d="M359.844 242.821H367.414V235.251H359.844V242.821Z" fill="#FAFAFA"/>
<path d="M349.28 242.821H356.85V235.251H349.28V242.821Z" fill="#FAFAFA"/>
<path d="M328.129 242.821H335.699V235.251H328.129V242.821Z" fill="#FAFAFA"/>
<path d="M359.844 299.833H367.414V292.264H359.844V299.833Z" fill="#FAFAFA"/>
<path d="M349.28 299.833H356.85V292.264H349.28V299.833Z" fill="#FAFAFA"/>
<path d="M328.129 299.833H335.699V292.264H328.129V299.833Z" fill="#FAFAFA"/>
<path d="M359.844 311.255H367.414V303.685H359.844V311.255Z" fill="#FAFAFA"/>
<path d="M338.702 311.255H346.271V303.685H338.702V311.255Z" fill="#FAFAFA"/>
<path d="M328.129 311.255H335.699V303.685H328.129V311.255Z" fill="#FAFAFA"/>
<path d="M359.844 334.088H367.414V326.518H359.844V334.088Z" fill="#FAFAFA"/>
<path d="M338.702 334.09H346.271V326.52H338.702V334.09Z" fill="#FAFAFA"/>
<path d="M359.844 345.5H367.414V337.931H359.844V345.5Z" fill="#FAFAFA"/>
<path d="M349.28 345.5H356.85V337.931H349.28V345.5Z" fill="#FAFAFA"/>
<path d="M328.129 345.5H335.699V337.931H328.129V345.5Z" fill="#FAFAFA"/>
<path d="M328.129 254.244H335.699V246.674H328.129V254.244Z" fill="#FAFAFA"/>
<path d="M359.844 265.656H367.414V258.086H359.844V265.656Z" fill="#FAFAFA"/>
<path d="M349.28 265.656H356.85V258.086H349.28V265.656Z" fill="#FAFAFA"/>
<path d="M338.771 277.209L346.34 277.101L346.232 269.532L338.662 269.64L338.771 277.209Z" fill="#FAFAFA"/>
<path d="M328.181 277.349L335.75 277.241L335.642 269.672L328.073 269.78L328.181 277.349Z" fill="#FAFAFA"/>
<path d="M359.844 288.5H367.414V280.931H359.844V288.5Z" fill="#FAFAFA"/>
<path d="M89.8671 167.11H107.526H136.857V372.854H85.585V167.11H89.8671Z" fill="#F0F0F0"/>
<path d="M112.726 185.731H120.296V178.161H112.726V185.731Z" fill="#FAFAFA"/>
<path d="M102.149 185.731H109.719V178.161H102.149V185.731Z" fill="#FAFAFA"/>
<path d="M123.286 197.154H130.856V189.584H123.286V197.154Z" fill="#FAFAFA"/>
<path d="M112.726 197.154H120.296V189.584H112.726V197.154Z" fill="#FAFAFA"/>
<path d="M91.5756 197.154H99.1455V189.584H91.5756V197.154Z" fill="#FAFAFA"/>
<path d="M123.286 208.566H130.856V200.996H123.286V208.566Z" fill="#FAFAFA"/>
<path d="M102.149 208.563H109.719V200.993H102.149V208.563Z" fill="#FAFAFA"/>
<path d="M91.5756 208.566H99.1455V200.996H91.5756V208.566Z" fill="#FAFAFA"/>
<path d="M123.286 231.411H130.856V223.841H123.286V231.411Z" fill="#FAFAFA"/>
<path d="M102.149 231.409H109.719V223.839H102.149V231.409Z" fill="#FAFAFA"/>
<path d="M123.286 242.821H130.856V235.251H123.286V242.821Z" fill="#FAFAFA"/>
<path d="M112.726 242.821H120.296V235.251H112.726V242.821Z" fill="#FAFAFA"/>
<path d="M91.5756 242.821H99.1455V235.251H91.5756V242.821Z" fill="#FAFAFA"/>
<path d="M123.286 299.833H130.856V292.264H123.286V299.833Z" fill="#FAFAFA"/>
<path d="M112.726 299.833H120.296V292.264H112.726V299.833Z" fill="#FAFAFA"/>
<path d="M91.5756 299.833H99.1455V292.264H91.5756V299.833Z" fill="#FAFAFA"/>
<path d="M123.286 311.255H130.856V303.685H123.286V311.255Z" fill="#FAFAFA"/>
<path d="M102.149 311.255H109.719V303.685H102.149V311.255Z" fill="#FAFAFA"/>
<path d="M91.5756 311.255H99.1455V303.685H91.5756V311.255Z" fill="#FAFAFA"/>
<path d="M123.286 334.09H130.856V326.52H123.286V334.09Z" fill="#FAFAFA"/>
<path d="M102.149 334.088H109.719V326.518H102.149V334.088Z" fill="#FAFAFA"/>
<path d="M123.286 345.5H130.856V337.931H123.286V345.5Z" fill="#FAFAFA"/>
<path d="M112.726 345.5H120.296V337.931H112.726V345.5Z" fill="#FAFAFA"/>
<path d="M91.5756 345.5H99.1455V337.931H91.5756V345.5Z" fill="#FAFAFA"/>
<path d="M91.5756 254.244H99.1455V246.674H91.5756V254.244Z" fill="#FAFAFA"/>
<path d="M123.286 265.656H130.856V258.086H123.286V265.656Z" fill="#FAFAFA"/>
<path d="M112.726 265.656H120.296V258.086H112.726V265.656Z" fill="#FAFAFA"/>
<path d="M102.213 277.212L109.782 277.104L109.674 269.535L102.105 269.643L102.213 277.212Z" fill="#FAFAFA"/>
<path d="M91.632 277.354L99.2012 277.246L99.0928 269.676L91.5237 269.785L91.632 277.354Z" fill="#FAFAFA"/>
<path d="M123.286 288.5H130.856V280.931H123.286V288.5Z" fill="#FAFAFA"/>
<path d="M190.989 372.854H247.301V134.559L190.989 140.581V372.854Z" fill="#F0F0F0"/>
<path d="M228.873 159.98H244.262V144.591H228.873V159.98Z" fill="#FAFAFA"/>
<path d="M211.447 159.98H226.836V144.591H211.447V159.98Z" fill="#F0F0F0"/>
<path d="M194.014 159.98H209.402V144.591H194.014V159.98Z" fill="#FAFAFA"/>
<path d="M228.873 177.177H244.262V161.788H228.873V177.177Z" fill="#FAFAFA"/>
<path d="M211.447 177.177H226.836V161.788H211.447V177.177Z" fill="#FAFAFA"/>
<path d="M194.014 177.177H209.402V161.788H194.014V177.177Z" fill="#FAFAFA"/>
<path d="M228.873 194.373H244.262V178.984H228.873V194.373Z" fill="#FAFAFA"/>
<path d="M211.447 194.373H226.836V178.984H211.447V194.373Z" fill="#F0F0F0"/>
<path d="M194.014 194.373H209.402V178.984H194.014V194.373Z" fill="#FAFAFA"/>
<path d="M228.873 211.557H244.262V196.169H228.873V211.557Z" fill="#F0F0F0"/>
<path d="M211.447 211.557H226.836V196.169H211.447V211.557Z" fill="#FAFAFA"/>
<path d="M194.014 211.557H209.402V196.169H194.014V211.557Z" fill="#FAFAFA"/>
<path d="M228.873 228.752H244.262V213.364H228.873V228.752Z" fill="#FAFAFA"/>
<path d="M211.447 228.752H226.836V213.364H211.447V228.752Z" fill="#FAFAFA"/>
<path d="M194.014 228.752H209.402V213.364H194.014V228.752Z" fill="#F0F0F0"/>
<path d="M228.873 245.928H244.262V230.54H228.873V245.928Z" fill="#FAFAFA"/>
<path d="M211.447 245.928H226.836V230.54H211.447V245.928Z" fill="#F0F0F0"/>
<path d="M194.014 245.928H209.402V230.54H194.014V245.928Z" fill="#FAFAFA"/>
<path d="M228.873 263.123H244.262V247.735H228.873V263.123Z" fill="#F0F0F0"/>
<path d="M211.447 263.123H226.836V247.735H211.447V263.123Z" fill="#F0F0F0"/>
<path d="M194.014 263.123H209.402V247.735H194.014V263.123Z" fill="#FAFAFA"/>
<path d="M228.873 280.32H244.262V264.932H228.873V280.32Z" fill="#FAFAFA"/>
<path d="M211.447 280.32H226.836V264.931H211.447V280.32Z" fill="#F0F0F0"/>
<path d="M194.014 280.32H209.402V264.931H194.014V280.32Z" fill="#FAFAFA"/>
<path d="M228.873 297.504H244.262V282.116H228.873V297.504Z" fill="#FAFAFA"/>
<path d="M211.447 297.504H226.836V282.116H211.447V297.504Z" fill="#FAFAFA"/>
<path d="M194.014 297.506H209.402V282.118H194.014V297.506Z" fill="#FAFAFA"/>
<path d="M228.873 314.691H244.262V299.302H228.873V314.691Z" fill="#F0F0F0"/>
<path d="M211.447 314.691H226.836V299.302H211.447V314.691Z" fill="#FAFAFA"/>
<path d="M194.014 314.691H209.402V299.302H194.014V314.691Z" fill="#F0F0F0"/>
<path d="M228.873 331.887H244.262V316.499H228.873V331.887Z" fill="#FAFAFA"/>
<path d="M211.447 331.887H226.836V316.499H211.447V331.887Z" fill="#F0F0F0"/>
<path d="M194.014 331.887H209.402V316.499H194.014V331.887Z" fill="#FAFAFA"/>
<path d="M228.873 349.071H244.262V333.682H228.873V349.071Z" fill="#F0F0F0"/>
<path d="M211.447 349.071H226.836V333.682H211.447V349.071Z" fill="#FAFAFA"/>
<path d="M194.014 349.071H209.402V333.682H194.014V349.071Z" fill="#FAFAFA"/>
<path d="M378.835 372.854H424.413V179.956L378.835 184.836V372.854Z" fill="#F0F0F0"/>
<path d="M409.5 200.542H421.962V188.079H409.5V200.542Z" fill="#FAFAFA"/>
<path d="M395.388 200.542H407.851V188.079H395.388V200.542Z" fill="#F0F0F0"/>
<path d="M381.276 200.542H393.738V188.079H381.276V200.542Z" fill="#FAFAFA"/>
<path d="M409.5 214.452H421.962V201.99H409.5V214.452Z" fill="#FAFAFA"/>
<path d="M395.388 214.452H407.851V201.99H395.388V214.452Z" fill="#FAFAFA"/>
<path d="M381.276 214.45H393.738V201.988H381.276V214.45Z" fill="#FAFAFA"/>
<path d="M409.5 228.38H421.962V215.918H409.5V228.38Z" fill="#FAFAFA"/>
<path d="M395.388 228.38H407.851V215.918H395.388V228.38Z" fill="#F0F0F0"/>
<path d="M381.276 228.38H393.738V215.918H381.276V228.38Z" fill="#FAFAFA"/>
<path d="M409.5 242.29H421.962V229.827H409.5V242.29Z" fill="#F0F0F0"/>
<path d="M395.388 242.29H407.851V229.827H395.388V242.29Z" fill="#FAFAFA"/>
<path d="M381.276 242.29H393.738V229.827H381.276V242.29Z" fill="#FAFAFA"/>
<path d="M409.5 256.198H421.962V243.736H409.5V256.198Z" fill="#FAFAFA"/>
<path d="M395.388 256.198H407.851V243.736H395.388V256.198Z" fill="#FAFAFA"/>
<path d="M381.276 256.198H393.738V243.736H381.276V256.198Z" fill="#F0F0F0"/>
<path d="M409.5 270.118H421.962V257.656H409.5V270.118Z" fill="#FAFAFA"/>
<path d="M395.388 270.118H407.851V257.656H395.388V270.118Z" fill="#F0F0F0"/>
<path d="M381.276 270.118H393.738V257.656H381.276V270.118Z" fill="#FAFAFA"/>
<path d="M409.5 284.026H421.962V271.564H409.5V284.026Z" fill="#F0F0F0"/>
<path d="M395.388 284.026H407.851V271.564H395.388V284.026Z" fill="#F0F0F0"/>
<path d="M381.276 284.026H393.738V271.564H381.276V284.026Z" fill="#FAFAFA"/>
<path d="M409.5 297.947H421.962V285.485H409.5V297.947Z" fill="#FAFAFA"/>
<path d="M395.388 297.947H407.851V285.485H395.388V297.947Z" fill="#F0F0F0"/>
<path d="M381.276 297.945H393.738V285.483H381.276V297.945Z" fill="#FAFAFA"/>
<path d="M409.5 311.854H421.962V299.392H409.5V311.854Z" fill="#FAFAFA"/>
<path d="M395.388 311.854H407.851V299.392H395.388V311.854Z" fill="#FAFAFA"/>
<path d="M381.276 311.854H393.738V299.392H381.276V311.854Z" fill="#FAFAFA"/>
<path d="M409.5 325.774H421.962V313.312H409.5V325.774Z" fill="#F0F0F0"/>
<path d="M395.388 325.774H407.851V313.312H395.388V325.774Z" fill="#FAFAFA"/>
<path d="M381.276 325.774H393.738V313.312H381.276V325.774Z" fill="#F0F0F0"/>
<path d="M409.5 339.682H421.962V327.22H409.5V339.682Z" fill="#FAFAFA"/>
<path d="M395.388 339.682H407.851V327.22H395.388V339.682Z" fill="#F0F0F0"/>
<path d="M381.276 339.682H393.738V327.22H381.276V339.682Z" fill="#FAFAFA"/>
<path d="M409.5 353.6H421.962V341.138H409.5V353.6Z" fill="#F0F0F0"/>
<path d="M395.388 353.6H407.851V341.138H395.388V353.6Z" fill="#FAFAFA"/>
<path d="M381.276 353.6H393.738V341.138H381.276V353.6Z" fill="#FAFAFA"/>
<path d="M140.506 373.308H186.095V180.41L140.506 185.291V373.308Z" fill="#F5F5F5"/>
<path d="M171.171 200.995H183.633V188.532H171.171V200.995Z" fill="#FAFAFA"/>
<path d="M157.071 200.992H169.533V188.53H157.071V200.992Z" fill="#F0F0F0"/>
<path d="M142.96 200.992H155.422V188.53H142.96V200.992Z" fill="#FAFAFA"/>
<path d="M171.171 214.903H183.633V202.441H171.171V214.903Z" fill="#FAFAFA"/>
<path d="M157.071 214.903H169.533V202.441H157.071V214.903Z" fill="#FAFAFA"/>
<path d="M142.96 214.903H155.422V202.441H142.96V214.903Z" fill="#FAFAFA"/>
<path d="M171.171 228.822H183.633V216.36H171.171V228.822Z" fill="#FAFAFA"/>
<path d="M157.071 228.822H169.533V216.36H157.071V228.822Z" fill="#F0F0F0"/>
<path d="M142.96 228.822H155.422V216.36H142.96V228.822Z" fill="#FAFAFA"/>
<path d="M171.171 242.742H183.633V230.28H171.171V242.742Z" fill="#F0F0F0"/>
<path d="M157.071 242.742H169.533V230.28H157.071V242.742Z" fill="#FAFAFA"/>
<path d="M142.96 242.742H155.422V230.28H142.96V242.742Z" fill="#FAFAFA"/>
<path d="M171.171 256.661H183.633V244.199H171.171V256.661Z" fill="#FAFAFA"/>
<path d="M157.071 256.661H169.533V244.199H157.071V256.661Z" fill="#FAFAFA"/>
<path d="M142.96 256.661H155.422V244.199H142.96V256.661Z" fill="#F0F0F0"/>
<path d="M171.171 270.569H183.633V258.107H171.171V270.569Z" fill="#FAFAFA"/>
<path d="M157.071 270.569H169.533V258.107H157.071V270.569Z" fill="#F0F0F0"/>
<path d="M142.96 270.569H155.422V258.107H142.96V270.569Z" fill="#FAFAFA"/>
<path d="M171.171 284.478H183.633V272.016H171.171V284.478Z" fill="#F0F0F0"/>
<path d="M157.071 284.478H169.533V272.016H157.071V284.478Z" fill="#F0F0F0"/>
<path d="M142.96 284.478H155.422V272.016H142.96V284.478Z" fill="#FAFAFA"/>
<path d="M171.171 298.399H183.633V285.937H171.171V298.399Z" fill="#FAFAFA"/>
<path d="M157.071 298.396H169.533V285.934H157.071V298.396Z" fill="#F0F0F0"/>
<path d="M142.96 298.396H155.422V285.934H142.96V298.396Z" fill="#FAFAFA"/>
<path d="M171.171 312.306H183.633V299.844H171.171V312.306Z" fill="#FAFAFA"/>
<path d="M157.071 312.304H169.533V299.842H157.071V312.304Z" fill="#FAFAFA"/>
<path d="M142.96 312.304H155.422V299.842H142.96V312.304Z" fill="#FAFAFA"/>
<path d="M171.171 326.226H183.633V313.763H171.171V326.226Z" fill="#F0F0F0"/>
<path d="M157.071 326.226H169.533V313.763H157.071V326.226Z" fill="#FAFAFA"/>
<path d="M142.96 326.226H155.422V313.763H142.96V326.226Z" fill="#F0F0F0"/>
<path d="M171.171 340.133H183.633V327.671H171.171V340.133Z" fill="#FAFAFA"/>
<path d="M157.071 340.133H169.533V327.671H157.071V340.133Z" fill="#F0F0F0"/>
<path d="M142.96 340.133H155.422V327.671H142.96V340.133Z" fill="#FAFAFA"/>
<path d="M171.171 354.054H183.633V341.592H171.171V354.054Z" fill="#F0F0F0"/>
<path d="M157.071 354.054H169.533V341.592H157.071V354.054Z" fill="#FAFAFA"/>
<path d="M142.96 354.054H155.422V341.592H142.96V354.054Z" fill="#FAFAFA"/>
<path d="M371.185 71.4024C369.735 71.3777 368.322 71.8659 367.197 72.7808C367.44 71.5308 367.44 70.2457 367.197 68.9958C366.579 66.0257 364.984 63.3485 362.665 61.3923C360.346 59.4362 357.439 58.3142 354.407 58.2058C352.704 58.1861 351.026 58.623 349.549 59.4712C348.419 57.4131 346.775 55.6835 344.777 54.4516C342.778 53.2197 340.495 52.5278 338.149 52.4436C332.16 52.4436 328.195 57.3019 329.268 63.2788C329.359 63.7688 329.484 64.252 329.641 64.725C328.686 64.4694 327.703 64.3366 326.715 64.3295C320.738 64.3295 316.761 69.1766 317.845 75.1647C318.453 78.1413 320.043 80.8275 322.361 82.7923C324.678 84.7571 327.588 85.8867 330.624 85.9999H373.806C374.716 86.0312 375.621 85.8523 376.45 85.4771C377.279 85.1019 378.011 84.5406 378.588 83.8367C379.165 83.1328 379.572 82.3053 379.777 81.4186C379.983 80.5318 379.981 79.6096 379.772 78.7237C379.372 76.7158 378.307 74.9011 376.749 73.5728C375.191 72.2444 373.231 71.4798 371.185 71.4024Z" fill="#FAFAFA"/>
<path d="M282.462 417.167C403.448 417.167 501.527 411.441 501.527 404.377C501.527 397.314 403.448 391.587 282.462 391.587C161.475 391.587 63.3965 397.314 63.3965 404.377C63.3965 411.441 161.475 417.167 282.462 417.167Z" fill="#F5F5F5"/>
<path d="M506.065 427.163C627.051 427.163 725.13 421.436 725.13 414.373C725.13 407.309 627.051 401.583 506.065 401.583C385.079 401.583 287 407.309 287 414.373C287 421.436 385.079 427.163 506.065 427.163Z" fill="#F5F5F5"/>
<path d="M413.578 218.484H403.816C401.09 218.481 398.476 217.397 396.549 215.47C394.621 213.542 393.537 210.929 393.534 208.203V198.43C393.537 195.704 394.621 193.09 396.549 191.163C398.476 189.235 401.09 188.151 403.816 188.148H413.578C416.305 188.151 418.919 189.235 420.848 191.162C422.778 193.089 423.864 195.703 423.87 198.43V208.203C423.864 210.93 422.778 213.543 420.848 215.47C418.919 217.397 416.305 218.481 413.578 218.484ZM403.816 191.142C401.884 191.145 400.032 191.914 398.666 193.28C397.3 194.646 396.531 196.498 396.528 198.43V208.203C396.528 210.135 397.296 211.989 398.663 213.356C400.029 214.722 401.883 215.49 403.816 215.49H413.578C415.51 215.49 417.364 214.722 418.731 213.356C420.097 211.989 420.865 210.135 420.865 208.203V198.43C420.862 196.498 420.093 194.646 418.727 193.28C417.361 191.914 415.509 191.145 413.578 191.142H403.816Z" fill="#D75337"/>
<g opacity="0.6">
<path d="M413.578 218.484H403.816C401.09 218.481 398.476 217.397 396.549 215.47C394.621 213.542 393.537 210.929 393.534 208.203V198.43C393.537 195.704 394.621 193.09 396.549 191.163C398.476 189.235 401.09 188.151 403.816 188.148H413.578C416.305 188.151 418.919 189.235 420.848 191.162C422.778 193.089 423.864 195.703 423.87 198.43V208.203C423.864 210.93 422.778 213.543 420.848 215.47C418.919 217.397 416.305 218.481 413.578 218.484ZM403.816 191.142C401.884 191.145 400.032 191.914 398.666 193.28C397.3 194.646 396.531 196.498 396.528 198.43V208.203C396.528 210.135 397.296 211.989 398.663 213.356C400.029 214.722 401.883 215.49 403.816 215.49H413.578C415.51 215.49 417.364 214.722 418.731 213.356C420.097 211.989 420.865 210.135 420.865 208.203V198.43C420.862 196.498 420.093 194.646 418.727 193.28C417.361 191.914 415.509 191.145 413.578 191.142H403.816Z" fill="white"/>
</g>
<path d="M407.638 211.66L393.391 197.424L397.628 193.176L407.638 203.186L425.772 185.052L430.009 189.289L407.638 211.66Z" fill="#D75337"/>
<path d="M198.353 109.126H189.721C187.33 109.109 185.041 108.151 183.35 106.459C181.658 104.768 180.7 102.479 180.683 100.088V91.4443C180.686 89.0428 181.637 86.7396 183.33 85.0362C185.023 83.3328 187.32 82.367 189.721 82.3491H198.353C200.765 82.3521 203.076 83.3113 204.781 85.0164C206.486 86.7214 207.446 89.0331 207.449 91.4443V100.009C207.45 101.204 207.216 102.389 206.76 103.494C206.303 104.6 205.634 105.604 204.789 106.451C203.945 107.298 202.942 107.97 201.837 108.429C200.733 108.888 199.549 109.125 198.353 109.126ZM189.721 84.9478C188.012 84.9478 186.373 85.6259 185.164 86.8333C183.954 88.0408 183.273 89.6788 183.27 91.3878V100.009C183.273 101.718 183.954 103.356 185.164 104.563C186.373 105.771 188.012 106.449 189.721 106.449H198.353C200.061 106.449 201.699 105.77 202.907 104.562C204.115 103.355 204.793 101.717 204.793 100.009V91.3653C204.793 89.6572 204.115 88.0192 202.907 86.8114C201.699 85.6037 200.061 84.9252 198.353 84.9252L189.721 84.9478Z" fill="#D75337"/>
<g opacity="0.6">
<path d="M198.357 109.127H189.725C187.334 109.11 185.045 108.152 183.354 106.46C181.662 104.769 180.704 102.48 180.687 100.089V91.4453C180.689 89.0438 181.641 86.7406 183.334 85.0372C185.027 83.3337 187.324 82.368 189.725 82.3501H198.357C200.769 82.3531 203.08 83.3123 204.785 85.0173C206.49 86.7224 207.449 89.034 207.452 91.4453V100.01C207.454 101.205 207.22 102.39 206.764 103.495C206.307 104.601 205.638 105.605 204.793 106.452C203.949 107.299 202.946 107.971 201.841 108.43C200.737 108.889 199.553 109.126 198.357 109.127ZM189.725 84.9487C188.016 84.9487 186.377 85.6269 185.167 86.8343C183.958 88.0417 183.277 89.6798 183.274 91.3888V100.01C183.277 101.719 183.958 103.357 185.167 104.564C186.377 105.771 188.016 106.45 189.725 106.45H198.357C200.065 106.45 201.703 105.771 202.911 104.563C204.119 103.356 204.797 101.718 204.797 100.01V91.3662C204.797 89.6582 204.119 88.0201 202.911 86.8124C201.703 85.6046 200.065 84.9261 198.357 84.9261L189.725 84.9487Z" fill="white"/>
</g>
<path d="M193.091 103.081L180.505 90.495L184.245 86.7439L193.091 95.5906L209.124 79.5581L212.875 83.3092L193.091 103.081Z" fill="#D75337"/>
<path d="M451.939 96.1669C443.058 94.0622 434.635 90.356 427.083 85.23C419.532 90.358 411.108 94.0644 402.226 96.1669C398.981 96.9387 395.69 97.5085 392.374 97.8729C392.374 98.0198 392.374 98.178 392.374 98.3248C392.374 128.831 406.068 150.128 427.094 166.782C448.12 150.128 461.814 128.842 461.814 98.3248C461.814 98.178 461.814 98.0198 461.814 97.8729C458.49 97.5089 455.192 96.9392 451.939 96.1669Z" fill="#D75337"/>
<path opacity="0.1" d="M427.083 85.23C419.532 90.358 411.108 94.0644 402.226 96.1669C398.981 96.9387 395.69 97.5085 392.374 97.8729C392.374 98.0198 392.374 98.178 392.374 98.3248C392.374 128.831 406.068 150.128 427.094 166.782L427.083 85.23Z" fill="black"/>
<g opacity="0.5">
<path d="M427.085 161.247L426.159 160.456C407.211 144.232 397.913 125.951 396.783 102.902L396.727 101.637L397.969 101.422C399.755 101.117 401.54 100.756 403.257 100.292C411.406 98.362 419.2 95.1592 426.351 90.8016L427.097 90.3384L427.842 90.8016C434.995 95.1571 442.788 98.3599 450.936 100.292C452.676 100.71 454.45 101.072 456.224 101.422L457.478 101.637L457.41 102.902C456.281 125.951 446.971 144.243 428.034 160.456L427.085 161.247ZM399.698 104.021C401.009 125.262 409.742 142.3 427.085 157.474C444.428 142.311 453.162 125.262 454.473 104.021C453.06 103.761 451.648 103.456 450.258 103.117C442.103 101.184 434.29 98.0215 427.085 93.7392C419.882 98.0234 412.068 101.186 403.912 103.117C402.534 103.456 401.099 103.75 399.698 104.021Z" fill="white"/>
</g>
<path opacity="0.9" d="M427.08 157.474C409.737 142.3 401.003 125.262 399.693 104.021C401.116 103.75 402.529 103.456 403.907 103.117C412.063 101.186 419.877 98.0238 427.08 93.7396V90.3501L426.334 90.8133C419.183 95.1709 411.389 98.3738 403.24 100.304C401.523 100.722 399.738 101.084 397.953 101.434L396.71 101.649L396.766 102.914C397.896 125.963 407.206 144.244 426.142 160.468L427.069 161.259L427.08 157.474Z" fill="#F0F0F0"/>
<g opacity="0.2">
<path d="M425.114 139.146L409.918 123.938L414.437 119.419L425.114 130.096L444.469 110.742L448.999 115.261L425.114 139.146Z" fill="#D75337"/>
</g>
<g opacity="0.9">
<path d="M425.114 139.146L409.918 123.938L414.437 119.419L425.114 130.096L444.469 110.742L448.999 115.261L425.114 139.146Z" fill="white"/>
</g>
<path d="M361.599 84.1211H322.134V120.807H361.599V84.1211Z" fill="#D75337"/>
<path opacity="0.3" d="M361.599 84.1211H322.134V120.807H361.599V84.1211Z" fill="white"/>
<path d="M379.11 84.1211H359.383V120.807H379.11V84.1211Z" fill="#D75337"/>
<path d="M348.051 91.3188H335.656V120.808H348.051V91.3188Z" fill="#263238"/>
<path d="M338.752 91.3188H335.656V120.808H338.752V91.3188Z" fill="#D75337"/>
<path d="M337.318 115.914H234.536V407.866H337.318V115.914Z" fill="#D75337"/>
<path opacity="0.6" d="M337.318 115.914H234.536V407.866H337.318V115.914Z" fill="white"/>
<path d="M335.779 115.914V159.086H313.104V168.655H335.779V205.658H313.104V215.227H335.779V252.23H313.104V261.8H335.779V298.802H313.104V308.372H335.779V345.374H313.104V354.944H335.779V407.866H384.374V115.914H335.779Z" fill="#D75337"/>
<path opacity="0.2" d="M335.779 115.914V159.086H313.104V168.655H335.779V205.658H313.104V215.227H335.779V252.23H313.104V261.8H335.779V298.802H313.104V308.372H335.779V345.374H313.104V354.944H335.779V407.866H384.374V115.914H335.779Z" fill="white"/>
<path d="M314.381 345.374H220.141V354.944H314.381V345.374Z" fill="#D75337"/>
<path d="M314.381 298.802H220.141V308.372H314.381V298.802Z" fill="#D75337"/>
<path d="M314.381 252.232H220.141V261.801H314.381V252.232Z" fill="#D75337"/>
<path d="M314.381 205.658H220.141V215.228H314.381V205.658Z" fill="#D75337"/>
<path d="M314.381 159.086H220.141V168.656H314.381V159.086Z" fill="#D75337"/>
<g opacity="0.4">
<path d="M314.381 345.373H220.141V354.942H314.381V345.373Z" fill="white"/>
<path d="M314.381 298.802H220.141V308.372H314.381V298.802Z" fill="white"/>
<path d="M314.381 252.231H220.141V261.8H314.381V252.231Z" fill="white"/>
<path d="M314.381 205.657H220.141V215.227H314.381V205.657Z" fill="white"/>
<path d="M314.381 159.085H220.141V168.655H314.381V159.085Z" fill="white"/>
</g>
<path d="M315.951 365.404H255.911V407.864H315.951V365.404Z" fill="#D75337"/>
<path d="M268.115 127.178H243.236V152.057H268.115V127.178Z" fill="#D75337"/>
<path d="M297.783 127.178H272.904V152.057H297.783V127.178Z" fill="#D75337"/>
<path opacity="0.7" d="M327.451 127.178H302.572V152.057H327.451V127.178Z" fill="white"/>
<path opacity="0.7" d="M268.115 174.713H243.236V199.592H268.115V174.713Z" fill="white"/>
<path d="M297.783 174.71H272.904V199.589H297.783V174.71Z" fill="#D75337"/>
<path opacity="0.7" d="M327.451 174.713H302.572V199.592H327.451V174.713Z" fill="white"/>
<path opacity="0.7" d="M268.115 221.284H243.236V246.164H268.115V221.284Z" fill="white"/>
<path opacity="0.7" d="M297.783 221.283H272.904V246.163H297.783V221.283Z" fill="white"/>
<path d="M327.451 221.284H302.572V246.164H327.451V221.284Z" fill="#D75337"/>
<path opacity="0.7" d="M268.115 267.855H243.236V292.734H268.115V267.855Z" fill="white"/>
<path d="M297.783 267.855H272.904V292.734H297.783V267.855Z" fill="#D75337"/>
<path opacity="0.7" d="M327.451 267.855H302.572V292.734H327.451V267.855Z" fill="white"/>
<path d="M268.115 314.438H243.236V339.318H268.115V314.438Z" fill="#D75337"/>
<path d="M297.783 314.438H272.904V339.318H297.783V314.438Z" fill="#D75337"/>
<path opacity="0.7" d="M327.451 314.438H302.572V339.318H327.451V314.438Z" fill="white"/>
<path d="M245.858 127.178H243.236V152.057H245.858V127.178Z" fill="#D75337"/>
<path d="M275.526 127.178H272.904V152.057H275.526V127.178Z" fill="#D75337"/>
<path d="M305.194 127.178H302.572V152.057H305.194V127.178Z" fill="#D75337"/>
<path d="M245.858 174.713H243.236V199.592H245.858V174.713Z" fill="#D75337"/>
<path d="M275.526 174.71H272.904V199.589H275.526V174.71Z" fill="#D75337"/>
<path d="M305.194 174.713H302.572V199.592H305.194V174.713Z" fill="#D75337"/>
<path d="M245.858 221.284H243.236V246.164H245.858V221.284Z" fill="#D75337"/>
<path d="M275.526 221.283H272.904V246.163H275.526V221.283Z" fill="#D75337"/>
<path d="M305.194 221.284H302.572V246.164H305.194V221.284Z" fill="#D75337"/>
<path d="M245.858 267.855H243.236V292.734H245.858V267.855Z" fill="#D75337"/>
<path d="M275.526 267.855H272.904V292.734H275.526V267.855Z" fill="#D75337"/>
<path d="M305.194 267.855H302.572V292.734H305.194V267.855Z" fill="#D75337"/>
<path d="M245.858 314.438H243.236V339.318H245.858V314.438Z" fill="#D75337"/>
<path d="M275.526 314.438H272.904V339.318H275.526V314.438Z" fill="#D75337"/>
<path d="M305.194 314.438H302.572V339.318H305.194V314.438Z" fill="#D75337"/>
<g opacity="0.2">
<path d="M245.857 127.178H243.235V152.057H245.857V127.178Z" fill="black"/>
<path d="M275.529 127.178H272.908V152.058H275.529V127.178Z" fill="black"/>
<path d="M305.194 127.178H302.572V152.058H305.194V127.178Z" fill="black"/>
<path d="M245.857 174.71H243.235V199.59H245.857V174.71Z" fill="black"/>
<path d="M275.529 174.71H272.908V199.59H275.529V174.71Z" fill="black"/>
<path d="M305.194 174.71H302.572V199.59H305.194V174.71Z" fill="black"/>
<path d="M245.857 221.283H243.235V246.162H245.857V221.283Z" fill="black"/>
<path d="M275.529 221.282H272.908V246.161H275.529V221.282Z" fill="black"/>
<path d="M305.194 221.282H302.572V246.161H305.194V221.282Z" fill="black"/>
<path d="M245.857 267.856H243.235V292.735H245.857V267.856Z" fill="black"/>
<path d="M275.529 267.854H272.908V292.733H275.529V267.854Z" fill="black"/>
<path d="M305.194 267.854H302.572V292.733H305.194V267.854Z" fill="black"/>
<path d="M245.857 314.439H243.235V339.318H245.857V314.439Z" fill="black"/>
<path d="M275.529 314.439H272.908V339.318H275.529V314.439Z" fill="black"/>
<path d="M305.194 314.439H302.572V339.318H305.194V314.439Z" fill="black"/>
</g>
<path opacity="0.4" d="M313.082 368.277H285.932V407.867H313.082V368.277Z" fill="white"/>
<path opacity="0.7" d="M285.93 368.277H258.78V407.867H285.93V368.277Z" fill="white"/>
<path d="M261.65 368.277H258.78V407.867H261.65V368.277Z" fill="#D75337"/>
<path opacity="0.2" d="M261.65 368.277H258.78V407.867H261.65V368.277Z" fill="black"/>
<path d="M586.82 408.974H579.88L579.032 392.908H585.964L586.82 408.974Z" fill="#FFB8A8"/>
<path d="M621.806 408.974H614.866L612.15 392.908H619.082L621.806 408.974Z" fill="#FFB8A8"/>
<path d="M614.418 408.167H622.206C622.342 408.165 622.474 408.211 622.579 408.298C622.683 408.385 622.753 408.506 622.777 408.64L623.853 414.805C623.876 414.959 623.864 415.116 623.82 415.266C623.776 415.415 623.701 415.553 623.599 415.671C623.497 415.789 623.37 415.883 623.228 415.947C623.087 416.012 622.933 416.045 622.777 416.045C620.061 415.996 618.748 415.832 615.315 415.832C613.211 415.832 607.527 416.053 604.615 416.053C601.704 416.053 601.459 413.174 602.658 412.913C608.065 411.747 611.482 410.132 613.26 408.599C613.581 408.32 613.992 408.167 614.418 408.167Z" fill="#263238"/>
<path d="M579.709 408.167H587.277C587.413 408.165 587.545 408.211 587.65 408.298C587.755 408.385 587.825 408.506 587.848 408.64L588.925 414.805C588.95 414.958 588.941 415.115 588.899 415.265C588.857 415.414 588.783 415.553 588.682 415.671C588.581 415.789 588.456 415.883 588.315 415.948C588.173 416.012 588.02 416.045 587.865 416.045C585.141 415.996 581.194 415.832 577.76 415.832C573.748 415.832 572.728 416.053 568.015 416.053C565.169 416.053 564.516 413.174 565.723 412.913C571.203 411.73 573.185 411.6 578.005 408.713C578.513 408.379 579.102 408.19 579.709 408.167Z" fill="#263238"/>
<path d="M579.489 192.959L570.013 190.178C570.013 190.178 560.357 213.119 557.087 214.644C552.642 216.682 540.777 222.937 535.753 225.89C535.41 227.023 535.402 230.13 535.949 231.027C544.177 230.375 561.059 224.789 564.304 221.673C571.709 214.562 579.489 192.959 579.489 192.959Z" fill="#FFB8A8"/>
<path d="M582.36 188.628C585.051 194.63 566.571 220.955 566.571 220.955L557.601 211.642C557.601 211.642 565.536 191.719 569.833 184.078C574.221 176.224 579.432 182.022 582.36 188.628Z" fill="#D75337"/>
<path opacity="0.4" d="M582.36 188.628C585.051 194.63 566.571 220.955 566.571 220.955L557.601 211.642C557.601 211.642 565.536 191.719 569.833 184.078C574.221 176.224 579.432 182.022 582.36 188.628Z" fill="white"/>
<path d="M556.948 210.819C556.385 211.153 555.178 213.347 554.909 214.44C554.64 215.533 560.952 223.965 563.406 223.623C565.861 223.28 568.667 220.891 569.172 219.602C569.678 218.314 558.13 210.126 556.948 210.819Z" fill="#D75337"/>
<path d="M536.803 225.368L531.095 224.324L531.437 232.479C531.437 232.479 533.443 233.294 537.766 230.62L536.803 225.368Z" fill="#FFB8A8"/>
<path d="M524.196 227.04L525.24 232.055L531.397 232.512L531.055 224.332L524.196 227.04Z" fill="#FFB8A8"/>
<path opacity="0.2" d="M579.032 392.917L579.473 401.194H586.405L585.972 392.917H579.032Z" fill="black"/>
<path opacity="0.2" d="M619.09 392.917H612.15L613.553 401.195H620.493L619.09 392.917Z" fill="black"/>
<path d="M573.542 180.441C573.542 180.441 564.286 204.27 570.207 243.277H607.305C607.827 237.568 605.674 206.913 612.418 180.082C608.341 179.287 604.217 178.761 600.071 178.508C594.818 178.206 589.552 178.206 584.299 178.508C580.669 178.877 577.073 179.523 573.542 180.441Z" fill="#D75337"/>
<path opacity="0.2" d="M573.542 180.441C573.542 180.441 564.286 204.27 570.207 243.277H607.305C607.827 237.568 605.674 206.913 612.418 180.082C608.341 179.287 604.217 178.761 600.071 178.508C594.818 178.206 589.552 178.206 584.299 178.508C580.669 178.877 577.073 179.523 573.542 180.441Z" fill="black"/>
<path opacity="0.2" d="M604.045 186.704C603.229 191.124 604.102 201.685 607.731 213.893C608.172 203.412 609.537 192.99 611.808 182.749V182.7C609.346 182.447 604.836 182.561 604.045 186.704Z" fill="black"/>
<path d="M598.72 163.763C597.48 168.836 596.689 175.123 600.073 178.508C600.073 178.508 597.79 183.662 588.363 183.662C579.742 183.662 584.285 178.508 584.285 178.508C589.994 177.162 590.051 170.165 589.251 166.218L598.72 163.763Z" fill="#FFB8A8"/>
<path d="M588.402 183.654C593.956 185.391 595.057 187.169 595.057 187.169C595.057 187.169 601.981 184.355 601.72 178.255C600.879 177.633 599.971 177.108 599.012 176.689C599.012 176.689 598.425 181.207 588.402 183.654Z" fill="#D75337"/>
<path d="M588.402 183.654C585.287 183.947 582.694 186.614 582.694 186.614C582.694 186.614 580.712 184.535 582.612 178.5C582.612 178.5 584.463 177.872 585.996 177.546C585.956 177.554 584.708 182.349 588.402 183.654Z" fill="#D75337"/>
<path opacity="0.2" d="M589.267 166.226C589.74 168.534 589.919 171.935 588.826 174.553C589.717 174.406 590.583 174.132 591.395 173.737C594.657 172.236 596.337 169.863 598.148 166.397C598.311 165.492 598.506 164.611 598.718 163.763L589.267 166.226Z" fill="black"/>
<path d="M588.166 147.551C585.947 148.277 580.989 152.534 585.719 154.678C590.449 156.823 592.031 146.295 588.166 147.551Z" fill="#263238"/>
<path d="M603.131 157.557C600.97 164.212 600.04 168.159 595.791 170.932C589.405 175.009 582.025 170.116 582.196 163.086C582.343 156.717 585.85 146.906 593.035 145.642C600.219 144.378 605.292 150.927 603.131 157.557Z" fill="#FFB8A8"/>
<path d="M592.709 150.274C589.039 150.894 585.981 150.699 584.872 147.649C583.763 144.598 588.811 141.402 592.293 142.837C594.862 140.162 601.875 142.217 602.781 144.786C606.858 144.525 610.716 149.222 607.951 151.628C608.576 152.017 609.105 152.543 609.496 153.166C609.888 153.789 610.132 154.494 610.211 155.226C610.29 155.957 610.2 156.698 609.95 157.39C609.7 158.082 609.295 158.708 608.767 159.221C609.957 162.76 605.668 166.291 602.283 164.856C598.948 163.861 597.129 164.677 596.664 162.524C596.199 160.371 597.374 158.291 600.212 157.875C598.776 156.163 598.426 153.455 599.396 152.289C595.963 153.846 593.149 151.889 592.709 150.274Z" fill="#263238"/>
<path d="M588.304 164.62C588.953 164.674 589.606 164.6 590.226 164.401C590.846 164.202 591.421 163.883 591.917 163.461C591.947 163.43 591.964 163.387 591.964 163.343C591.964 163.299 591.947 163.257 591.917 163.225C591.903 163.209 591.885 163.197 591.865 163.188C591.846 163.179 591.824 163.175 591.803 163.175C591.781 163.175 591.76 163.179 591.741 163.188C591.721 163.197 591.703 163.209 591.689 163.225C591.145 163.676 590.505 163.999 589.819 164.168C589.133 164.338 588.417 164.35 587.725 164.204C587.682 164.196 587.638 164.206 587.601 164.23C587.565 164.254 587.539 164.291 587.53 164.334C587.523 164.355 587.522 164.376 587.525 164.397C587.528 164.418 587.536 164.438 587.547 164.456C587.559 164.474 587.574 164.489 587.592 164.5C587.61 164.512 587.631 164.519 587.652 164.522C587.868 164.565 588.085 164.598 588.304 164.62Z" fill="#263238"/>
<path d="M603.514 166.748C602.126 167.832 600.373 168.337 598.621 168.159C596.346 167.906 596.174 165.663 597.601 163.967C598.89 162.434 601.63 160.705 603.53 161.83C605.43 162.956 605.218 165.394 603.514 166.748Z" fill="#FFB8A8"/>
<path d="M594.593 243.277C594.593 243.277 593.647 252.003 592.44 263.82C591.054 277.219 589.333 294.614 588.24 307.858C588.24 307.923 588.24 307.98 588.24 308.037C588.028 310.557 587.84 312.93 587.685 315.067C586.136 336.687 588.909 399.58 588.909 399.58H577.149C577.149 399.58 566.319 335.398 566.588 313.395C566.841 292.249 570.201 243.26 570.201 243.26L594.593 243.277Z" fill="#D75337"/>
<path d="M589.87 394.988C589.927 394.988 589.666 399.832 589.666 399.832H576.12L575.777 394.515L589.87 394.988Z" fill="#263238"/>
<path opacity="0.2" d="M592.48 263.819C591.093 277.218 589.372 294.614 588.28 307.858C588.28 307.923 588.28 307.98 588.28 308.037C585.694 295.47 584.887 279.844 585.89 254.115L592.48 263.819Z" fill="black"/>
<path d="M583.362 243.277C583.362 243.277 588.777 293.399 592.145 313.257C595.84 335.006 610.421 399.588 610.421 399.588H623.127C623.127 399.588 614.564 336.792 612.884 315.23C611.074 291.857 607.33 243.277 607.33 243.277H583.362Z" fill="#D75337"/>
<path d="M623.281 395.282C623.338 395.282 623.721 399.833 623.721 399.833H609.76L608.74 394.752L623.281 395.282Z" fill="#263238"/>
<path d="M591.608 157.263C591.461 157.81 591.061 158.193 590.711 158.079C590.36 157.965 590.189 157.492 590.327 156.945C590.466 156.399 590.874 156.016 591.224 156.13C591.575 156.244 591.746 156.741 591.608 157.263Z" fill="#263238"/>
<path d="M585.507 155.926C585.36 156.472 584.961 156.856 584.61 156.742C584.259 156.627 584.088 156.163 584.227 155.608C584.365 155.053 584.773 154.678 585.124 154.792C585.475 154.907 585.646 155.38 585.507 155.926Z" fill="#263238"/>
<path d="M588.355 156.627C587.275 158.164 586 159.554 584.562 160.762C585.28 161.871 587.009 161.814 587.009 161.814L588.355 156.627Z" fill="#DD8572"/>
<path d="M594.927 155.665C594.879 155.652 594.834 155.629 594.796 155.596C594.758 155.564 594.727 155.523 594.707 155.478C594.564 155.1 594.329 154.765 594.025 154.5C593.721 154.235 593.355 154.05 592.962 153.961C592.919 153.955 592.878 153.94 592.842 153.918C592.805 153.896 592.773 153.866 592.749 153.831C592.724 153.795 592.707 153.755 592.699 153.713C592.691 153.671 592.691 153.628 592.701 153.586C592.717 153.499 592.766 153.422 592.837 153.37C592.908 153.319 592.997 153.296 593.084 153.308C593.585 153.411 594.053 153.638 594.443 153.969C594.834 154.299 595.135 154.723 595.319 155.2C595.35 155.283 595.348 155.374 595.315 155.456C595.282 155.537 595.219 155.603 595.139 155.641C595.073 155.672 594.999 155.681 594.927 155.665Z" fill="#263238"/>
<path d="M584.325 153.137C584.281 153.119 584.24 153.094 584.203 153.064C584.172 153.033 584.147 152.997 584.131 152.957C584.114 152.917 584.105 152.874 584.105 152.831C584.105 152.788 584.114 152.745 584.131 152.705C584.147 152.665 584.172 152.629 584.203 152.599C584.548 152.199 584.982 151.887 585.472 151.688C585.961 151.49 586.49 151.41 587.016 151.457C587.059 151.463 587.1 151.477 587.137 151.5C587.173 151.522 587.205 151.552 587.229 151.587C587.254 151.622 587.271 151.662 587.279 151.705C587.287 151.747 587.287 151.79 587.277 151.832C587.26 151.918 587.21 151.994 587.139 152.045C587.069 152.097 586.981 152.119 586.894 152.109C586.476 152.079 586.056 152.147 585.67 152.308C585.283 152.47 584.94 152.72 584.668 153.039C584.624 153.084 584.569 153.116 584.509 153.134C584.449 153.151 584.386 153.152 584.325 153.137Z" fill="#263238"/>
<path d="M616.529 189.55L607.771 194.851C607.771 194.851 617.557 216.055 617.5 219.618C617.337 226.273 620.199 240.7 619.424 248.3C620.501 248.684 623.502 248.773 624.448 248.243C626.185 241.368 628.591 223.304 627.898 218.778C626.381 208.935 616.529 189.55 616.529 189.55Z" fill="#FFB8A8"/>
<path d="M612.42 180.082C618.944 181.036 628.241 214.146 628.241 214.146L616.171 218.721C616.171 218.721 605.659 200.78 603.082 192.714C600.31 184.298 605.431 179.054 612.42 180.082Z" fill="#D75337"/>
<path opacity="0.4" d="M612.42 180.082C618.944 181.036 628.241 214.146 628.241 214.146L616.171 218.721C616.171 218.721 605.659 200.78 603.082 192.714C600.31 184.298 605.431 179.054 612.42 180.082Z" fill="white"/>
<path d="M612.052 409.382C611.586 409.423 611.12 409.296 610.739 409.023C610.618 408.918 610.526 408.783 610.473 408.631C610.42 408.48 610.408 408.317 610.437 408.159C610.443 408.062 610.473 407.968 610.526 407.886C610.579 407.804 610.653 407.738 610.739 407.694C611.555 407.303 613.7 408.673 613.944 408.836C613.971 408.852 613.992 408.877 614.004 408.907C614.016 408.936 614.018 408.968 614.009 408.999C614.002 409.03 613.985 409.059 613.962 409.082C613.939 409.105 613.91 409.121 613.879 409.129C613.282 409.284 612.669 409.369 612.052 409.382ZM611.098 407.922C611.025 407.918 610.952 407.932 610.886 407.963C610.852 407.981 610.823 408.008 610.803 408.041C610.783 408.074 610.772 408.112 610.772 408.151C610.751 408.26 610.758 408.372 610.792 408.478C610.827 408.583 610.887 408.678 610.968 408.754C611.326 409.072 612.232 409.113 613.414 408.877C612.714 408.405 611.927 408.081 611.098 407.922Z" fill="#D75337"/>
<path d="M613.847 409.137C613.823 409.144 613.798 409.144 613.774 409.137C613.072 408.754 611.759 407.229 611.947 406.454C611.977 406.334 612.047 406.228 612.144 406.151C612.241 406.074 612.361 406.032 612.485 406.03C612.608 406.014 612.734 406.023 612.853 406.059C612.973 406.094 613.083 406.154 613.178 406.234C613.953 406.895 613.994 408.901 613.994 408.982C613.994 409.013 613.986 409.043 613.972 409.07C613.958 409.097 613.937 409.12 613.912 409.137C613.891 409.141 613.869 409.141 613.847 409.137ZM612.583 406.291H612.51C612.298 406.291 612.273 406.414 612.265 406.454C612.151 406.911 612.983 408.085 613.668 408.599C613.665 407.819 613.417 407.06 612.958 406.43C612.854 406.339 612.721 406.29 612.583 406.291Z" fill="#D75337"/>
<path d="M576.765 409.382C576.176 409.438 575.585 409.288 575.093 408.958C574.986 408.854 574.905 408.726 574.858 408.583C574.811 408.441 574.799 408.29 574.824 408.142C574.834 408.051 574.866 407.963 574.917 407.886C574.968 407.809 575.037 407.746 575.118 407.702C575.982 407.229 578.706 408.648 579.016 408.811C579.045 408.828 579.068 408.854 579.081 408.884C579.095 408.915 579.097 408.95 579.089 408.982C579.083 409.017 579.067 409.049 579.042 409.074C579.017 409.098 578.985 409.115 578.951 409.121C578.232 409.274 577.5 409.361 576.765 409.382ZM575.574 407.922C575.468 407.917 575.362 407.936 575.265 407.979C575.233 407.998 575.206 408.024 575.186 408.055C575.166 408.087 575.154 408.122 575.15 408.159C575.134 408.255 575.142 408.354 575.173 408.446C575.204 408.539 575.258 408.622 575.33 408.689C575.738 409.064 576.871 409.129 578.421 408.876C577.534 408.396 576.571 408.073 575.574 407.922Z" fill="#D75337"/>
<path d="M578.926 409.137H578.853C578.037 408.762 576.406 407.261 576.61 406.479C576.61 406.291 576.798 406.063 577.246 406.022C577.407 406.001 577.57 406.015 577.725 406.063C577.88 406.111 578.022 406.192 578.143 406.299C578.959 407.025 579.089 408.892 579.098 408.974C579.097 409.003 579.089 409.032 579.075 409.058C579.061 409.083 579.041 409.105 579.016 409.121C578.989 409.138 578.957 409.143 578.926 409.137ZM577.361 406.291H577.263C576.969 406.291 576.945 406.438 576.936 406.47C576.839 406.943 577.907 408.101 578.739 408.632C578.697 407.852 578.412 407.104 577.923 406.495C577.768 406.358 577.567 406.285 577.361 406.291Z" fill="#D75337"/>
<path d="M640.31 255.003L598.623 260.439C596.796 260.677 595.509 262.351 595.747 264.178L599.297 291.398C599.535 293.225 601.209 294.512 603.035 294.274L644.722 288.838C646.549 288.6 647.837 286.926 647.599 285.099L644.049 257.879C643.811 256.052 642.137 254.765 640.31 255.003Z" fill="#263238"/>
<path opacity="0.3" d="M640.31 255.003L598.623 260.439C596.796 260.677 595.509 262.351 595.747 264.178L599.297 291.398C599.535 293.225 601.209 294.512 603.035 294.274L644.722 288.838C646.549 288.6 647.837 286.926 647.599 285.099L644.049 257.879C643.811 256.052 642.137 254.765 640.31 255.003Z" fill="black"/>
<path d="M617.509 263.999C616.812 263.999 616.135 263.766 615.584 263.338C614.918 262.824 614.481 262.068 614.369 261.234L613.635 255.575C613.581 255.162 613.609 254.743 613.717 254.342C613.826 253.94 614.012 253.564 614.266 253.235C614.519 252.905 614.836 252.629 615.196 252.422C615.557 252.215 615.955 252.08 616.367 252.027L625.786 250.796C626.62 250.687 627.463 250.914 628.129 251.426C628.796 251.938 629.232 252.694 629.342 253.528L630.084 259.187C630.188 260.02 629.96 260.861 629.449 261.527C628.937 262.192 628.184 262.629 627.352 262.743L617.925 263.966C617.787 263.985 617.648 263.996 617.509 263.999ZM626.202 252.582H626.031L616.603 253.813C616.431 253.835 616.264 253.891 616.114 253.978C615.963 254.065 615.83 254.18 615.724 254.318C615.618 254.456 615.54 254.613 615.495 254.782C615.45 254.95 615.439 255.125 615.462 255.297L616.196 260.957C616.244 261.307 616.429 261.624 616.71 261.838C616.847 261.944 617.005 262.022 617.173 262.067C617.341 262.111 617.516 262.122 617.688 262.099L627.107 260.876C627.456 260.827 627.772 260.643 627.987 260.364C628.202 260.085 628.299 259.733 628.257 259.383L627.548 253.789C627.526 253.616 627.47 253.449 627.383 253.298C627.296 253.147 627.18 253.014 627.042 252.908C626.805 252.715 626.508 252.608 626.202 252.606V252.582Z" fill="#263238"/>
<path d="M644.28 254.486L602.593 259.922C600.766 260.161 599.478 261.835 599.716 263.661L603.266 290.881C603.504 292.708 605.178 293.996 607.005 293.757L648.692 288.321C650.519 288.083 651.807 286.409 651.568 284.582L648.019 257.362C647.78 255.536 646.106 254.248 644.28 254.486Z" fill="#263238"/>
<path d="M619.816 247.158L617.157 252.337L624.954 252.696C625.516 251.565 625.721 250.289 625.54 249.039C625.359 247.789 624.802 246.624 623.942 245.698L619.816 247.158Z" fill="#FFB8A8"/>
<path d="M620.134 256.349L624.782 255.713L624.954 252.696L617.157 252.337L617.28 254.025C617.303 254.369 617.397 254.705 617.556 255.012C617.715 255.318 617.935 255.589 618.202 255.806C618.47 256.024 618.78 256.185 619.112 256.278C619.444 256.372 619.792 256.396 620.134 256.349Z" fill="#FFB8A8"/>
<path d="M614.353 216.838C614.23 217.474 615.095 219.831 615.731 220.744C616.367 221.657 626.887 222.465 628.241 220.393C629.595 218.322 629.652 214.636 629.007 213.404C628.363 212.173 614.605 215.459 614.353 216.838Z" fill="#D75337"/>
<path d="M460.676 191.385C459.363 193.106 457.935 194.989 456.598 196.841C455.261 198.692 453.972 200.576 452.741 202.484C450.271 206.146 448.139 210.025 446.371 214.073C446.167 214.554 445.98 215.035 445.817 215.516C445.73 215.755 445.648 215.992 445.572 216.226L445.458 216.584L445.409 216.756V216.805C445.26 217.43 445.229 218.077 445.319 218.713C445.601 220.765 446.084 222.783 446.763 224.74C448.157 228.956 450.025 233.303 451.86 237.519L447.692 240.161C444.566 236.303 441.859 232.123 439.619 227.692C438.384 225.3 437.445 222.767 436.822 220.148C436.417 218.455 436.35 216.697 436.626 214.978L436.691 214.586L436.756 214.325L436.879 213.82C436.952 213.486 437.034 213.151 437.131 212.825C437.311 212.164 437.507 211.528 437.719 210.892C439.424 206.094 441.65 201.497 444.357 197.183C445.662 195.071 446.999 193 448.435 191.002C449.87 189.004 451.289 187.063 452.944 185.073L460.676 191.385Z" fill="#263238"/>
<path d="M450.759 236.01L455.049 238.286L450.156 244.068C450.156 244.068 447.073 241.98 446.894 238.799L450.759 236.01Z" fill="#FFC3BD"/>
<path d="M460.823 241.849L455.538 246.049L450.115 244.067L455.049 238.285L460.823 241.849Z" fill="#FFC3BD"/>
<path d="M524.939 223.614L530.011 226.232L529.563 228.059L525.485 232.136C525.485 232.136 522.549 229.853 522.614 226.672L524.939 223.614Z" fill="#FFC3BD"/>
<path d="M525.673 224.332L530.321 223.459L533.306 224.732L531.316 225.066L530.011 226.249L525.673 224.332Z" fill="#FFC3BD"/>
<path d="M535.092 232.74L530.052 233.825C529.524 233.937 528.973 233.871 528.487 233.637L525.461 232.169L529.539 228.091L532.238 227.276L535.614 231.15C535.719 231.279 535.79 231.432 535.82 231.596C535.851 231.76 535.839 231.929 535.787 232.087C535.735 232.245 535.644 232.388 535.523 232.502C535.402 232.616 535.253 232.698 535.092 232.74Z" fill="#FFC3BD"/>
<path d="M479.261 158.324C479.375 158.87 479.75 159.253 480.077 159.139C480.403 159.025 480.631 158.56 480.525 158.014C480.419 157.467 480.028 157.084 479.71 157.198C479.391 157.312 479.122 157.777 479.261 158.324Z" fill="#263238"/>
<path d="M479.702 159.261C480.694 160.802 481.894 162.198 483.266 163.412C482.45 164.513 480.754 164.432 480.754 164.432L479.702 159.261Z" fill="#FF5652"/>
<path d="M476.676 155.689C476.595 155.686 476.517 155.654 476.456 155.6C476.396 155.537 476.362 155.454 476.362 155.367C476.362 155.281 476.396 155.197 476.456 155.135C476.801 154.745 477.234 154.442 477.719 154.254C478.204 154.065 478.728 153.995 479.245 154.05C479.321 154.075 479.386 154.126 479.428 154.194C479.469 154.262 479.485 154.343 479.472 154.422C479.459 154.501 479.419 154.572 479.358 154.624C479.297 154.675 479.219 154.703 479.139 154.703C478.729 154.664 478.315 154.724 477.932 154.877C477.549 155.031 477.208 155.273 476.937 155.583C476.905 155.62 476.865 155.648 476.819 155.667C476.774 155.685 476.725 155.693 476.676 155.689Z" fill="#263238"/>
<path d="M464.443 167.987C465.389 172.799 465.952 179.462 462.592 182.667C462.592 182.667 463.905 187.56 472.843 187.56C482.678 187.56 477.573 183.27 477.573 183.27C473.495 182.006 473.495 177.349 474.458 173.614L464.443 167.987Z" fill="#FFC3BD"/>
<path d="M461.181 185.962C460.366 184.673 460.635 180.767 461.613 180.131C463.179 179.103 469.638 179.217 478.209 181.721C477.051 185.456 478.935 187.56 478.935 187.56L461.181 185.962Z" fill="#D75337"/>
<path opacity="0.2" d="M454.004 192.885C450.946 195.903 450.057 202.084 450.391 206.301C451.142 205.02 451.941 203.74 452.765 202.492C453.996 200.576 455.309 198.708 456.63 196.832C456.997 196.319 457.372 195.797 457.756 195.275C457.829 194.94 457.894 194.606 457.96 194.28L454.004 192.885Z" fill="black"/>
<path d="M432.344 407.922C432.878 408.109 433.465 408.076 433.975 407.832C434.074 407.743 434.142 407.625 434.17 407.495C434.197 407.364 434.184 407.229 434.13 407.107C434.1 407.006 434.049 406.914 433.98 406.835C433.911 406.756 433.826 406.693 433.731 406.65C432.842 406.226 430.795 407.058 430.713 407.09C430.685 407.101 430.661 407.12 430.644 407.145C430.626 407.17 430.616 407.199 430.615 407.229C430.614 407.26 430.622 407.29 430.638 407.316C430.654 407.342 430.677 407.363 430.705 407.376C431.231 407.615 431.78 407.799 432.344 407.922ZM433.421 406.87L433.6 406.927C433.657 406.952 433.707 406.989 433.748 407.036C433.789 407.082 433.819 407.137 433.837 407.196C433.918 407.474 433.837 407.563 433.78 407.596C433.429 407.898 432.149 407.596 431.194 407.245C431.907 406.941 432.68 406.805 433.453 406.846L433.421 406.87Z" fill="#D75337"/>
<path d="M430.746 407.367H430.819C431.57 407.155 433.16 406.022 433.176 405.28C433.179 405.162 433.14 405.047 433.067 404.955C432.994 404.863 432.892 404.799 432.777 404.774C432.664 404.732 432.543 404.715 432.424 404.725C432.304 404.735 432.188 404.771 432.083 404.831C431.211 405.28 430.656 407.098 430.632 407.172C430.62 407.196 430.613 407.222 430.613 407.249C430.613 407.276 430.62 407.303 430.632 407.327C430.664 407.354 430.704 407.368 430.746 407.367ZM432.605 405.035H432.679C432.866 405.1 432.866 405.198 432.866 405.239C432.866 405.679 431.806 406.56 431.031 406.919C431.239 406.199 431.657 405.558 432.23 405.076C432.292 405.042 432.36 405.021 432.43 405.014C432.5 405.007 432.571 405.014 432.638 405.035H432.605Z" fill="#D75337"/>
<path d="M480.909 408.998C481.724 408.998 482.54 408.884 482.842 408.501C482.911 408.402 482.949 408.284 482.949 408.162C482.949 408.041 482.911 407.923 482.842 407.824C482.73 407.641 482.552 407.509 482.344 407.457C481.251 407.163 478.952 408.468 478.854 408.525C478.825 408.541 478.803 408.565 478.789 408.594C478.776 408.624 478.773 408.657 478.78 408.688C478.785 408.72 478.799 408.75 478.821 408.773C478.843 408.797 478.871 408.813 478.903 408.819C479.565 408.936 480.236 408.996 480.909 408.998ZM481.953 407.726C482.053 407.713 482.154 407.713 482.254 407.726C482.317 407.74 482.377 407.766 482.429 407.804C482.481 407.842 482.524 407.89 482.556 407.946C482.67 408.142 482.63 408.232 482.556 408.289C482.254 408.713 480.591 408.721 479.367 408.55C480.168 408.112 481.046 407.832 481.953 407.726Z" fill="#D75337"/>
<path d="M478.919 408.819H478.984C479.799 408.468 481.349 407.041 481.235 406.299C481.235 406.119 481.08 405.907 480.656 405.858C480.501 405.844 480.345 405.861 480.197 405.907C480.048 405.953 479.911 406.028 479.791 406.128C478.976 406.821 478.772 408.574 478.764 408.664C478.763 408.69 478.769 408.717 478.78 408.741C478.791 408.765 478.808 408.786 478.829 408.802C478.857 408.817 478.888 408.822 478.919 408.819ZM480.55 406.152H480.648C480.925 406.152 480.941 406.291 480.949 406.323C481.023 406.772 479.954 407.889 479.147 408.37C479.22 407.623 479.521 406.917 480.011 406.348C480.155 406.225 480.336 406.156 480.525 406.152H480.55Z" fill="#D75337"/>
<path d="M471.693 408.664H478.266L478.919 393.43H472.346L471.693 408.664Z" fill="#FFC3BD"/>
<path d="M423.529 405.851L429.874 407.196L435.632 392.623L429.287 391.277L423.529 405.851Z" fill="#FFC3BD"/>
<path d="M430.461 406.364L423.235 404.799C423.109 404.772 422.977 404.789 422.861 404.846C422.746 404.904 422.653 404.999 422.599 405.117L420.087 410.556C420.027 410.689 419.997 410.834 420 410.981C420.004 411.127 420.04 411.27 420.107 411.401C420.173 411.531 420.269 411.644 420.385 411.732C420.502 411.821 420.637 411.881 420.78 411.91C423.317 412.407 424.573 412.53 427.745 413.215C429.702 413.639 434.114 414.715 436.814 415.294C439.513 415.873 440.434 413.288 439.382 412.807C434.669 410.654 432.695 408.729 431.415 406.984C431.185 406.666 430.845 406.445 430.461 406.364Z" fill="#263238"/>
<path d="M478.225 407.922H471.04C470.91 407.924 470.784 407.969 470.682 408.05C470.58 408.131 470.508 408.244 470.478 408.37L469.181 414.218C469.149 414.359 469.149 414.506 469.182 414.647C469.215 414.788 469.279 414.921 469.37 415.033C469.461 415.146 469.576 415.237 469.707 415.299C469.838 415.361 469.982 415.393 470.127 415.392C472.72 415.343 476.463 415.196 479.717 415.196C483.526 415.196 484.88 415.4 489.341 415.4C492.04 415.4 492.79 412.676 491.665 412.424C486.519 411.298 484.252 411.176 479.807 408.436C479.337 408.123 478.789 407.945 478.225 407.922Z" fill="#263238"/>
<path opacity="0.2" d="M478.92 393.438L478.585 401.284H472.004L472.338 393.438H478.92Z" fill="black"/>
<path opacity="0.2" d="M429.286 391.277L435.631 392.623L432.662 400.134L426.317 398.796L429.286 391.277Z" fill="black"/>
<path d="M476.399 241.352C476.399 241.352 468.928 291.621 464.834 310.451C460.349 331.075 436.291 399.343 436.291 399.343L424.482 396.749C424.482 396.749 441.315 341.147 445.074 312.318C447.969 290.177 453.67 241.368 453.67 241.368L476.399 241.352Z" fill="#263238"/>
<path opacity="0.1" d="M476.399 241.352C476.399 241.352 468.928 291.621 464.834 310.451C460.349 331.075 436.291 399.343 436.291 399.343L424.482 396.749C424.482 396.749 441.315 341.147 445.074 312.318C447.969 290.177 453.67 241.368 453.67 241.368L476.399 241.352Z" fill="white"/>
<path d="M439.105 395.371C439.154 395.371 436.911 399.628 436.911 399.628L423.667 396.758L424.784 392.778L439.105 395.371Z" fill="#263238"/>
<path opacity="0.3" d="M471.678 259.261C463.05 260.957 463.963 293.146 464.999 309.701C467.445 297.998 471.131 275.449 473.627 259.497C473.022 259.203 472.336 259.119 471.678 259.261Z" fill="black"/>
<path d="M488.91 241.352C488.91 241.352 489.815 290.528 489.097 310.59C488.355 331.451 481.073 399.767 481.073 399.767H469.892C469.892 399.767 469.484 332.674 468.987 312.18C468.448 289.843 465.725 241.352 465.725 241.352H488.91Z" fill="#263238"/>
<path opacity="0.1" d="M488.91 241.352C488.91 241.352 489.815 290.528 489.097 310.59C488.355 331.451 481.073 399.767 481.073 399.767H469.892C469.892 399.767 469.484 332.674 468.987 312.18C468.448 289.843 465.725 241.352 465.725 241.352H488.91Z" fill="white"/>
<path d="M483.201 395.331C483.25 395.331 482.565 399.955 482.565 399.955H468.995L468.628 395.828L483.201 395.331Z" fill="#263238"/>
<path d="M489.774 190.757C491.12 197.868 493.615 217.734 489.717 246.636L451.648 246.049C451.428 241.001 455.441 213.599 451.73 189.272C451.627 188.582 451.662 187.879 451.833 187.202C452.005 186.526 452.309 185.891 452.729 185.333C453.149 184.776 453.676 184.308 454.279 183.957C454.881 183.605 455.548 183.377 456.24 183.287C458.164 183.026 460.399 182.781 462.601 182.675C467.58 182.389 472.571 182.389 477.549 182.675C479.18 182.83 480.812 183.066 482.263 183.319C484.121 183.652 485.835 184.541 487.176 185.869C488.517 187.197 489.423 188.902 489.774 190.757Z" fill="#263238"/>
<path opacity="0.2" d="M490.817 197.819L484.407 199.41C483.918 205.396 487.865 212.173 491.812 217.351C491.852 210.827 491.52 204.306 490.817 197.819Z" fill="black"/>
<path d="M488.183 187.56C489.267 189.509 490.442 191.638 491.649 193.619C492.856 195.601 494.095 197.632 495.343 199.589C497.747 203.435 500.476 207.069 503.498 210.452C503.873 210.835 504.24 211.226 504.615 211.585L504.893 211.854L505.113 212.05C505.235 212.181 505.447 212.327 505.602 212.466C506.353 213.053 507.233 213.673 508.204 214.268C510.12 215.451 512.175 216.609 514.263 217.726C518.439 219.969 522.761 222.171 527.026 224.397L525.338 229.037C520.511 227.882 515.759 226.436 511.107 224.707C508.775 223.834 506.434 222.888 504.094 221.739C502.849 221.146 501.642 220.476 500.481 219.732C500.163 219.504 499.861 219.325 499.518 219.056L499.029 218.68L498.63 218.346C498.083 217.906 497.586 217.449 497.08 216.992C495.153 215.195 493.355 213.266 491.698 211.218C490.067 209.237 488.542 207.141 487.098 205.11C485.655 203.079 484.285 200.926 483.02 198.765C481.756 196.604 480.501 194.484 479.326 192.135L488.183 187.56Z" fill="#263238"/>
<path d="M460.766 160.868C462.544 167.506 463.212 171.47 467.347 174.242C473.512 178.402 481.211 173.631 481.423 166.593C481.635 160.264 478.691 150.47 471.572 149.133C470.002 148.828 468.38 148.93 466.861 149.429C465.342 149.928 463.976 150.808 462.893 151.984C461.81 153.16 461.046 154.594 460.674 156.149C460.301 157.704 460.333 159.329 460.766 160.868Z" fill="#FFC3BD"/>
<path d="M474.556 160.95C476.138 158.625 476.741 155.053 475.632 153.333C476.668 153.765 484.138 154.279 481.211 148.961C478.283 143.644 472.411 142.176 467.298 143.644L469.785 144.362C469.785 144.362 462.796 143.856 459.395 146.686C460.431 146.743 461.328 146.686 461.328 146.686C461.328 146.686 453.842 150.217 457.104 152.9C451.844 156.905 455.407 162.45 464.068 170.719C465.577 172.081 469.85 171.584 470.796 170.768C470.193 167.164 473.667 162.271 474.556 160.95Z" fill="#263238"/>
<path d="M475.436 156.423C476.986 157.557 478.902 160.892 479.791 162.556C480.68 164.22 481.618 164.008 482.066 164.668C482.515 165.329 484.35 176.501 482.384 178.287C480.419 180.073 474.506 177.252 473.732 175.197C472.957 173.142 474.376 168.102 474.759 166.952C475.162 164.966 475.044 162.909 474.417 160.982C473.732 159.033 475.436 156.423 475.436 156.423Z" fill="#263238"/>
<path d="M471.946 161.26C472.157 162.073 472.529 162.836 473.04 163.502C473.552 164.169 474.192 164.727 474.922 165.142C476.724 165.957 476.945 163.861 476.594 161.879C476.276 160.077 475.778 158.617 474.319 157.916C472.598 157.027 471.35 159.286 471.946 161.26Z" fill="#FFC3BD"/>
</svg>
