<svg width="589" height="440" viewBox="0 0 589 440" fill="none" xmlns="http://www.w3.org/2000/svg">
<path d="M589 386.259H0V386.554H589V386.259Z" fill="#EBEBEB"/>
<path d="M529.982 405.212H490.967V405.507H529.982V405.212Z" fill="#EBEBEB"/>
<path d="M390.176 408.417H379.939V408.711H390.176V408.417Z" fill="#EBEBEB"/>
<path d="M489.789 394.282H467.184V394.576H489.789V394.282Z" fill="#EBEBEB"/>
<path d="M112.677 396.261H61.7988V396.556H112.677V396.261Z" fill="#EBEBEB"/>
<path d="M130.629 396.261H123.172V396.556H130.629V396.261Z" fill="#EBEBEB"/>
<path d="M265.226 401.233H154.871V401.527H265.226V401.233Z" fill="#EBEBEB"/>
<path d="M279.186 333.721H51.7263C49.9444 333.718 48.2366 333.008 46.9777 331.747C45.7188 330.486 45.0117 328.776 45.0117 326.995V7.25C45.0272 5.47832 45.7411 3.7843 46.9983 2.5359C48.2556 1.2875 49.9546 0.585555 51.7263 0.58252H279.186C280.97 0.58252 282.681 1.29119 283.943 2.55263C285.204 3.81407 285.913 5.52495 285.913 7.3089V326.995C285.913 328.779 285.204 330.489 283.943 331.751C282.681 333.012 280.97 333.721 279.186 333.721ZM51.7263 0.81812C50.0225 0.821241 48.3896 1.50026 47.1859 2.70613C45.9822 3.91201 45.3062 5.5462 45.3062 7.25V326.995C45.3062 328.698 45.9822 330.333 47.1859 331.538C48.3896 332.744 50.0225 333.423 51.7263 333.426H279.186C280.891 333.423 282.525 332.745 283.731 331.539C284.936 330.334 285.615 328.699 285.618 326.995V7.25C285.615 5.54512 284.936 3.91095 283.731 2.70541C282.525 1.49988 280.891 0.821234 279.186 0.81812H51.7263Z" fill="#EBEBEB"/>
<path d="M533.999 333.721H306.527C304.744 333.718 303.035 333.008 301.774 331.747C300.514 330.487 299.804 328.778 299.801 326.995V7.25C299.819 5.47724 300.536 3.78324 301.795 2.53516C303.054 1.28709 304.754 0.585521 306.527 0.58252H533.999C535.769 0.58865 537.465 1.29197 538.719 2.54004C539.974 3.7881 540.686 5.48035 540.702 7.25V326.995C540.702 328.774 539.996 330.482 538.74 331.743C537.484 333.003 535.779 333.715 533.999 333.721ZM306.527 0.81812C304.822 0.821234 303.188 1.49988 301.983 2.70541C300.777 3.91095 300.098 5.54512 300.095 7.25V326.995C300.098 328.699 300.777 330.334 301.983 331.539C303.188 332.745 304.822 333.423 306.527 333.426H533.999C535.704 333.423 537.338 332.745 538.544 331.539C539.749 330.334 540.428 328.699 540.431 326.995V7.25C540.428 5.54512 539.749 3.91095 538.544 2.70541C537.338 1.49988 535.704 0.821234 533.999 0.81812H306.527Z" fill="#EBEBEB"/>
<path d="M542.387 381.642V303.317H504.667V281.912H486.609V218.972L463.272 195.636H415.929V263.076H350.962V276.411H305.02V258.906H255.673V245.712H217.141V167.576H148.935V217.37H133.232V235.405H96.7259V264.973H77.2183L62.1988 279.992V295.259H47.2617V381.642H542.387Z" fill="#F0F0F0"/>
<path d="M496.445 303.316H504.02L504.668 302.88V303.316H542.387V381.641H496.445V303.316Z" fill="#E6E6E6"/>
<path d="M417.047 281.453H424.621L425.269 280.887V281.453H463.001V381.642H417.047V281.453Z" fill="#E6E6E6"/>
<path d="M304.372 264.595V276.41H306.233L308.212 289.038L302.617 381.641H240.383V258.905H255.025H303.477L304.372 264.595Z" fill="#E6E6E6"/>
<path d="M159.489 235.406V381.642H46.6133V295.26L61.5503 295.884V265.009L76.5698 264.973H96.0775V235.406H129.203H132.572H159.489Z" fill="#E6E6E6"/>
<path d="M76.4997 279.744H83.3203V272.923H76.4997V279.744Z" fill="white"/>
<path d="M88.5505 279.744H95.3711V272.923H88.5505V279.744Z" fill="white"/>
<path d="M76.4997 292.457H83.3203V285.636H76.4997V292.457Z" fill="white"/>
<path d="M88.5505 292.457H95.3711V285.636H88.5505V292.457Z" fill="white"/>
<path d="M113.736 247.727H120.557V240.906H113.736V247.727Z" fill="white"/>
<path d="M125.787 247.727H132.607V240.906H125.787V247.727Z" fill="white"/>
<path d="M504.349 321.174H511.17V314.353H504.349V321.174Z" fill="white"/>
<path d="M516.4 321.174H523.221V314.353H516.4V321.174Z" fill="white"/>
<path d="M255.061 285.765V278.945H248.24V285.765H255.061Z" fill="white"/>
<path d="M255.061 273.714V266.893H248.24V273.714H255.061Z" fill="white"/>
<path d="M134.55 279.744H141.371V272.923H134.55V279.744Z" fill="white"/>
<path d="M146.601 279.744H153.422V272.923H146.601V279.744Z" fill="white"/>
<path d="M459.584 230.327H466.404V223.507H459.584V230.327Z" fill="white"/>
<path d="M471.648 230.327H478.469V223.507H471.648V230.327Z" fill="white"/>
<path d="M471.648 243.037H478.469V236.216H471.648V243.037Z" fill="white"/>
<path d="M528.004 176.186C528.117 175.496 528.176 174.799 528.181 174.101C528.184 172.354 527.842 170.623 527.176 169.009C526.51 167.394 525.531 165.926 524.297 164.69C523.063 163.453 521.597 162.472 519.983 161.803C518.37 161.134 516.64 160.789 514.893 160.789C514.17 160.793 513.449 160.856 512.737 160.978C511.216 158.436 508.984 156.396 506.315 155.11C503.647 153.824 500.66 153.348 497.725 153.742C494.789 154.136 492.033 155.381 489.798 157.325C487.563 159.268 485.946 161.824 485.148 164.677C484.2 164.378 483.21 164.227 482.215 164.229C480.921 164.231 479.64 164.487 478.445 164.984C477.25 165.482 476.164 166.209 475.251 167.126C474.337 168.043 473.613 169.131 473.121 170.328C472.628 171.524 472.376 172.807 472.379 174.101C472.382 174.802 472.457 175.5 472.603 176.186H528.004Z" fill="#F0F0F0"/>
<path d="M107.198 198.629C107.278 198.134 107.321 197.634 107.328 197.132C107.331 195.746 107.032 194.376 106.452 193.118C105.871 191.859 105.023 190.742 103.967 189.845C102.91 188.948 101.671 188.292 100.335 187.923C98.9985 187.554 97.5981 187.481 96.2309 187.708C95.1381 185.881 93.5334 184.415 91.6156 183.49C89.6977 182.566 87.5509 182.224 85.4409 182.508C83.3308 182.791 81.3502 183.687 79.7442 185.085C78.1381 186.482 76.9772 188.32 76.4051 190.371C75.7227 190.157 75.0115 190.05 74.2965 190.053C72.422 190.053 70.6242 190.797 69.2987 192.123C67.9732 193.448 67.2285 195.246 67.2285 197.121C67.229 197.624 67.2843 198.126 67.3934 198.617L107.198 198.629Z" fill="#F0F0F0"/>
<path d="M214.491 50.7289C214.686 49.5609 214.789 48.3792 214.797 47.1949C214.81 41.139 212.417 35.3261 208.145 31.034C203.872 26.7419 198.071 24.322 192.015 24.3064C190.775 24.3147 189.538 24.425 188.316 24.6362C185.701 20.2683 181.863 16.7625 177.277 14.5521C172.692 12.3418 167.558 11.5238 162.513 12.1993C157.467 12.8749 152.73 15.0143 148.887 18.3531C145.044 21.6919 142.263 26.0837 140.89 30.9857C138.356 30.1972 135.672 30.0154 133.056 30.4549C130.439 30.8944 127.962 31.943 125.825 33.5159C123.688 35.0889 121.951 37.1422 120.753 39.5101C119.556 41.8781 118.932 44.4943 118.932 47.1478C118.938 48.3361 119.068 49.5205 119.32 50.6818L214.491 50.7289Z" fill="#F0F0F0"/>
<path d="M292.213 439.458C418.356 439.458 520.615 433.488 520.615 426.123C520.615 418.759 418.356 412.788 292.213 412.788C166.07 412.788 63.8105 418.759 63.8105 426.123C63.8105 433.488 166.07 439.458 292.213 439.458Z" fill="#F5F5F5"/>
<path d="M113.206 82.2888H145.884C149.806 82.2981 153.565 83.8596 156.34 86.632C159.115 89.4043 160.679 93.1622 160.692 97.0845V127.383H115.362C111.44 127.37 107.682 125.806 104.91 123.031C102.137 120.257 100.576 116.497 100.566 112.575V94.9052C100.573 91.557 101.907 88.348 104.277 85.9826C106.647 83.6173 109.858 82.2888 113.206 82.2888Z" fill="#D75337"/>
<path d="M160.692 123.06V136.018L147.145 122.471L160.692 123.06Z" fill="#D75337"/>
<g opacity="0.6">
<path d="M113.206 82.2886H145.884C149.806 82.2979 153.565 83.8593 156.34 86.6317C159.115 89.4041 160.679 93.162 160.692 97.0843V127.382H115.362C111.44 127.37 107.682 125.806 104.91 123.031C102.137 120.256 100.576 116.497 100.566 112.575V94.905C100.573 91.5567 101.907 88.3477 104.277 85.9824C106.647 83.617 109.858 82.2886 113.206 82.2886Z" fill="white"/>
<path d="M160.692 123.059V136.017L147.145 122.47L160.692 123.059Z" fill="white"/>
</g>
<path d="M478.48 106.013C470.016 106.013 461.742 103.503 454.704 98.8001C447.666 94.0976 442.181 87.4136 438.941 79.5936C435.702 71.7735 434.855 63.1685 436.506 54.8667C438.157 46.565 442.233 38.9393 448.219 32.9541C454.204 26.9689 461.829 22.8929 470.131 21.2415C478.433 19.5902 487.038 20.4377 494.858 23.6769C502.678 26.9161 509.362 32.4015 514.065 39.4394C518.767 46.4772 521.277 54.7516 521.277 63.216C521.265 74.5625 516.752 85.4408 508.728 93.464C500.705 101.487 489.827 106 478.48 106.013ZM478.48 26.321C471.18 26.321 464.044 28.4858 457.975 32.5417C451.905 36.5976 447.175 42.3623 444.382 49.1069C441.589 55.8514 440.859 63.2727 442.284 70.4322C443.709 77.5917 447.225 84.1679 452.388 89.3289C457.55 94.4899 464.127 98.004 471.287 99.4268C478.447 100.849 485.868 100.117 492.612 97.3217C499.356 94.5265 505.119 89.7943 509.173 83.7235C513.227 77.6526 515.389 70.5159 515.387 63.216C515.375 53.4326 511.482 44.0537 504.563 37.1369C497.644 30.2201 488.264 26.3303 478.48 26.321Z" fill="#D75337"/>
<path d="M477.762 76.5823L463 62.85L465.737 60.0959L477.034 70.5998L491.669 48.5823L495 50.6478L477.762 76.5823Z" fill="#D75337"/>
<g opacity="0.8">
<path d="M478.48 106.012C470.016 106.012 461.742 103.502 454.704 98.7999C447.666 94.0973 442.181 87.4134 438.941 79.5933C435.702 71.7732 434.855 63.1682 436.506 54.8665C438.157 46.5647 442.233 38.9391 448.219 32.9538C454.204 26.9686 461.829 22.8926 470.131 21.2413C478.433 19.59 487.038 20.4375 494.858 23.6767C502.678 26.9159 509.362 32.4012 514.065 39.4391C518.767 46.477 521.277 54.7513 521.277 63.2157C521.265 74.5623 516.752 85.4406 508.728 93.4638C500.705 101.487 489.827 106 478.48 106.012ZM478.48 26.3207C471.18 26.3207 464.044 28.4856 457.975 32.5415C451.905 36.5974 447.175 42.3621 444.382 49.1066C441.589 55.8511 440.859 63.2724 442.284 70.432C443.709 77.5915 447.225 84.1676 452.388 89.3287C457.55 94.4897 464.127 98.0038 471.287 99.4265C478.447 100.849 485.868 100.117 492.612 97.3215C499.356 94.5263 505.119 89.794 509.173 83.7232C513.227 77.6524 515.389 70.5157 515.387 63.2157C515.375 53.4323 511.482 44.0534 504.563 37.1366C497.644 30.2199 488.264 26.3301 478.48 26.3207Z" fill="white"/>
</g>
<path d="M373.954 55.561L214.924 55.6906C210.238 55.6906 205.743 57.5523 202.429 60.866C199.116 64.1798 197.254 68.6742 197.254 73.3606L197.537 405.015C197.537 409.701 199.398 414.196 202.712 417.509C206.026 420.823 210.52 422.685 215.207 422.685L374.237 422.543C378.923 422.543 383.417 420.682 386.731 417.368C390.045 414.054 391.907 409.56 391.907 404.873L391.636 73.2193C391.634 70.8988 391.176 68.6014 390.286 66.4581C389.397 64.3149 388.094 62.3679 386.452 60.7281C384.81 59.0884 382.861 57.7881 380.717 56.9016C378.572 56.015 376.274 55.5595 373.954 55.561Z" fill="#263238"/>
<path d="M373.472 407.937L216.067 408.066C214.505 408.066 213.007 407.446 211.902 406.341C210.798 405.237 210.177 403.739 210.177 402.176L209.895 74.2212C209.895 72.6591 210.515 71.161 211.62 70.0564C212.724 68.9518 214.222 68.3312 215.785 68.3312L373.177 68.2017C374.739 68.2017 376.237 68.8222 377.342 69.9268C378.447 71.0314 379.067 72.5295 379.067 74.0917L379.338 402.047C379.338 403.605 378.721 405.1 377.621 406.203C376.522 407.307 375.03 407.931 373.472 407.937Z" fill="#D75337"/>
<path opacity="0.1" d="M308.918 385.189H280.587C277.334 385.189 274.697 387.826 274.697 391.079V392.775C274.697 396.028 277.334 398.665 280.587 398.665H308.918C312.171 398.665 314.808 396.028 314.808 392.775V391.079C314.808 387.826 312.171 385.189 308.918 385.189Z" fill="black"/>
<path opacity="0.1" d="M308.846 286.365H280.515C277.262 286.365 274.625 289.002 274.625 292.255V314.931C274.625 318.184 277.262 320.821 280.515 320.821H308.846C312.099 320.821 314.736 318.184 314.736 314.931V292.255C314.736 289.002 312.099 286.365 308.846 286.365Z" fill="black"/>
<path opacity="0.1" d="M258.91 286.414H230.579C227.326 286.414 224.689 289.051 224.689 292.304V314.98C224.689 318.233 227.326 320.87 230.579 320.87H258.91C262.163 320.87 264.8 318.233 264.8 314.98V292.304C264.8 289.051 262.163 286.414 258.91 286.414Z" fill="black"/>
<path opacity="0.1" d="M358.781 286.332H330.451C327.198 286.332 324.561 288.969 324.561 292.222V314.898C324.561 318.151 327.198 320.788 330.451 320.788H358.781C362.034 320.788 364.671 318.151 364.671 314.898V292.222C364.671 288.969 362.034 286.332 358.781 286.332Z" fill="black"/>
<path opacity="0.1" d="M308.881 330.706H280.55C277.297 330.706 274.66 333.343 274.66 336.596V359.272C274.66 362.525 277.297 365.162 280.55 365.162H308.881C312.134 365.162 314.771 362.525 314.771 359.272V336.596C314.771 333.343 312.134 330.706 308.881 330.706Z" fill="black"/>
<path opacity="0.1" d="M258.947 330.743H230.617C227.364 330.743 224.727 333.38 224.727 336.633V359.309C224.727 362.562 227.364 365.199 230.617 365.199H258.947C262.2 365.199 264.837 362.562 264.837 359.309V336.633C264.837 333.38 262.2 330.743 258.947 330.743Z" fill="black"/>
<path opacity="0.1" d="M358.817 330.659H330.486C327.233 330.659 324.596 333.296 324.596 336.549V359.225C324.596 362.478 327.233 365.115 330.486 365.115H358.817C362.07 365.115 364.707 362.478 364.707 359.225V336.549C364.707 333.296 362.07 330.659 358.817 330.659Z" fill="black"/>
<path opacity="0.1" d="M379.291 322.013L379.185 207.983C336.223 257.294 256.26 349.885 210.318 403.201C210.559 404.564 211.272 405.798 212.332 406.687C213.391 407.577 214.73 408.065 216.114 408.066L304.759 407.996L379.291 322.013Z" fill="white"/>
<path opacity="0.1" d="M210.035 239.199L358.322 68.2241H288.914C270.549 89.2279 239.191 125.463 209.988 159.284L210.035 239.199Z" fill="white"/>
<path opacity="0.1" d="M210.094 310.61L379.113 115.745L379.078 74.0676L210.059 268.932L210.094 310.61Z" fill="white"/>
<path opacity="0.2" d="M215.785 68.271H373.189C374.751 68.271 376.249 68.8916 377.354 69.9961C378.458 71.1007 379.079 72.5989 379.079 74.161V81.5824H209.895V74.161C209.895 72.5989 210.515 71.1007 211.62 69.9961C212.724 68.8916 214.222 68.271 215.785 68.271Z" fill="black"/>
<path opacity="0.6" d="M354.871 78.2127L354.376 77.7179L354.27 77.6001H354.212C354.155 77.5252 354.104 77.4465 354.058 77.3645C353.807 76.9231 353.677 76.4233 353.681 75.9156C353.681 75.9156 353.681 74.4902 353.681 74.4313C353.677 73.8803 353.507 73.3434 353.194 72.8899C352.881 72.4363 352.44 72.0869 351.926 71.8868C351.926 71.8868 351.926 71.8868 351.926 71.7926C351.926 71.7926 351.926 71.7337 351.926 71.6983V71.6041C351.941 71.4627 351.927 71.3196 351.883 71.1842C351.84 71.0489 351.768 70.9242 351.673 70.8183C351.578 70.7125 351.462 70.6278 351.332 70.5698C351.202 70.5119 351.061 70.4819 350.919 70.4819C350.777 70.4819 350.636 70.5119 350.506 70.5698C350.376 70.6278 350.26 70.7125 350.165 70.8183C350.07 70.9242 349.998 71.0489 349.955 71.1842C349.911 71.3196 349.896 71.4627 349.912 71.6041V71.6983C349.912 71.6983 349.912 71.769 349.912 71.7926C349.912 71.7926 349.912 71.7926 349.912 71.875C349.397 72.0759 348.954 72.4271 348.641 72.883C348.328 73.3388 348.159 73.8783 348.157 74.4313V75.8567C348.165 76.3851 348.031 76.9061 347.768 77.3645C347.708 77.4673 347.641 77.5657 347.568 77.659L347.462 77.765L346.967 78.2598C346.909 78.3194 346.869 78.3943 346.853 78.4757C346.836 78.5571 346.843 78.6416 346.873 78.7192C346.905 78.7957 346.959 78.8611 347.028 78.9072C347.097 78.9532 347.178 78.978 347.261 78.9784H350.018C350.105 79.1328 350.232 79.2612 350.385 79.3506C350.538 79.4399 350.712 79.487 350.89 79.487C351.067 79.487 351.241 79.4399 351.394 79.3506C351.547 79.2612 351.674 79.1328 351.761 78.9784H354.518C354.6 78.9763 354.68 78.9504 354.748 78.9036C354.816 78.8569 354.868 78.7914 354.9 78.7152C354.931 78.639 354.939 78.5554 354.924 78.4745C354.908 78.3936 354.87 78.319 354.812 78.2598L354.871 78.2127Z" fill="white"/>
<g opacity="0.6">
<path opacity="0.6" d="M228.196 78.0447L230.752 78.0425L230.749 74.6263L228.193 74.6285L228.196 78.0447Z" fill="white"/>
<path opacity="0.6" d="M224.016 78.0662L226.572 78.064L226.568 73.5051L224.012 73.5073L224.016 78.0662Z" fill="white"/>
<path opacity="0.6" d="M219.858 78.0496L222.414 78.0474L222.409 72.3576L219.853 72.3599L219.858 78.0496Z" fill="white"/>
<path opacity="0.6" d="M215.664 78.0691L218.221 78.0669L218.215 71.2345L215.658 71.2367L215.664 78.0691Z" fill="white"/>
</g>
<path opacity="0.6" d="M362.174 73.2661H360.654V76.6823H362.174V73.2661Z" fill="white"/>
<path opacity="0.6" d="M362.16 77.9466L374.258 77.936L374.253 72.0343L362.155 72.0448L362.16 77.9466Z" fill="white"/>
<path d="M303.299 68.2721C303.301 70.0177 302.786 71.7247 301.818 73.1773C300.849 74.6298 299.472 75.7625 297.86 76.4321C296.248 77.1017 294.474 77.2781 292.761 76.939C291.049 76.5999 289.476 75.7605 288.241 74.527C287.006 73.2936 286.164 71.7214 285.823 70.0096C285.481 68.2977 285.655 66.5231 286.323 64.9101C286.99 63.2972 288.121 61.9185 289.572 60.9485C291.024 59.9785 292.73 59.4607 294.476 59.4607C296.814 59.4607 299.056 60.3887 300.71 62.0408C302.365 63.6929 303.296 65.9341 303.299 68.2721Z" fill="#263238"/>
<path opacity="0.1" d="M299.034 68.2702C299.036 69.1724 298.771 70.0549 298.271 70.8062C297.772 71.5574 297.06 72.1436 296.228 72.4905C295.395 72.8373 294.478 72.9293 293.593 72.7547C292.708 72.5801 291.894 72.1469 291.255 71.5098C290.617 70.8727 290.181 70.0604 290.004 69.1757C289.828 68.2911 289.917 67.3738 290.262 66.5401C290.607 65.7064 291.191 64.9937 291.941 64.4923C292.691 63.9908 293.573 63.7231 294.475 63.7231C295.682 63.7231 296.84 64.2018 297.694 65.0542C298.549 65.9066 299.031 67.0632 299.034 68.2702Z" fill="#E0E0E0"/>
<path d="M300.07 75.2098C300.07 75.2098 307.209 68.2596 320.544 68.2478L300.059 67.0698L300.07 75.2098Z" fill="#263238"/>
<path d="M288.913 75.2211C288.913 75.2211 281.751 68.2827 268.416 68.2945L288.901 67.1165L288.913 75.2211Z" fill="#263238"/>
<path opacity="0.3" d="M357.569 120.893H244.858C238.352 120.893 233.078 126.167 233.078 132.673V306.393C233.078 312.899 238.352 318.173 244.858 318.173H357.569C364.075 318.173 369.349 312.899 369.349 306.393V132.673C369.349 126.167 364.075 120.893 357.569 120.893Z" fill="black"/>
<path d="M353.598 112.504H240.887C234.382 112.504 229.107 117.778 229.107 124.284V298.004C229.107 304.51 234.382 309.784 240.887 309.784H353.598C360.104 309.784 365.378 304.51 365.378 298.004V124.284C365.378 117.778 360.104 112.504 353.598 112.504Z" fill="white"/>
<path d="M345.847 137.019C344.174 137.019 342.539 136.523 341.148 135.594C339.757 134.664 338.673 133.343 338.032 131.798C337.392 130.252 337.225 128.552 337.551 126.911C337.878 125.27 338.683 123.763 339.866 122.58C341.049 121.397 342.556 120.592 344.197 120.266C345.837 119.939 347.538 120.107 349.083 120.747C350.629 121.387 351.95 122.471 352.879 123.862C353.809 125.253 354.305 126.888 354.305 128.561C354.302 130.803 353.41 132.953 351.824 134.538C350.239 136.124 348.089 137.016 345.847 137.019ZM345.847 121.705C344.479 121.705 343.142 122.111 342.005 122.87C340.868 123.63 339.982 124.71 339.458 125.974C338.935 127.237 338.798 128.628 339.065 129.969C339.332 131.31 339.99 132.542 340.957 133.51C341.924 134.477 343.156 135.135 344.498 135.402C345.839 135.669 347.229 135.532 348.493 135.008C349.756 134.485 350.836 133.599 351.596 132.462C352.356 131.325 352.762 129.988 352.762 128.62C352.769 127.707 352.596 126.801 352.252 125.956C351.908 125.11 351.4 124.341 350.757 123.692C350.114 123.044 349.349 122.529 348.507 122.178C347.664 121.827 346.76 121.646 345.847 121.646V121.705Z" fill="#E0E0E0"/>
<path d="M348.431 124.898L342.184 131.145L343.266 132.228L349.514 125.981L348.431 124.898Z" fill="#E0E0E0"/>
<path d="M343.266 124.908L342.184 125.991L348.431 132.238L349.514 131.155L343.266 124.908Z" fill="#E0E0E0"/>
<path d="M326.527 294.915H269.217C266.093 294.915 263.097 293.674 260.888 291.465C258.679 289.256 257.438 286.259 257.438 283.135C257.438 280.011 258.679 277.015 260.888 274.805C263.097 272.596 266.093 271.355 269.217 271.355H326.527C329.651 271.355 332.648 272.596 334.857 274.805C337.066 277.015 338.307 280.011 338.307 283.135C338.307 286.259 337.066 289.256 334.857 291.465C332.648 293.674 329.651 294.915 326.527 294.915Z" fill="#E0E0E0"/>
<path d="M325.17 292.844H267.86C264.868 292.844 261.999 291.655 259.884 289.54C257.769 287.424 256.58 284.555 256.58 281.564C256.58 278.572 257.769 275.703 259.884 273.588C261.999 271.472 264.868 270.284 267.86 270.284H325.17C328.161 270.284 331.031 271.472 333.146 273.588C335.261 275.703 336.45 278.572 336.45 281.564C336.45 284.555 335.261 287.424 333.146 289.54C331.031 291.655 328.161 292.844 325.17 292.844Z" fill="white" stroke="#D75337"/>
<path d="M327.246 229.665H261.996V233.199H327.246V229.665Z" fill="#E0E0E0"/>
<path d="M327.212 253.874H261.963V257.408H327.212V253.874Z" fill="#F5F5F5"/>
<path d="M340.558 238.31H248.697V244.2H340.558V238.31Z" fill="#E0E0E0"/>
<path d="M275.505 285.266V277.744H278.837C279.302 277.744 279.725 277.851 280.105 278.066C280.484 278.274 280.782 278.557 280.997 278.915C281.219 279.273 281.33 279.682 281.33 280.14C281.33 280.591 281.219 281.003 280.997 281.376C280.782 281.741 280.484 282.031 280.105 282.246C279.725 282.461 279.302 282.569 278.837 282.569H277.063V285.266H275.505ZM279.772 285.266L277.859 281.87L279.514 281.602L281.641 285.277L279.772 285.266ZM277.063 281.258H278.761C278.955 281.258 279.123 281.215 279.267 281.129C279.417 281.036 279.532 280.91 279.61 280.753C279.689 280.588 279.729 280.405 279.729 280.205C279.729 279.99 279.682 279.803 279.589 279.646C279.496 279.488 279.36 279.366 279.181 279.28C279.001 279.187 278.794 279.141 278.557 279.141H277.063V281.258ZM285.302 285.374C284.686 285.374 284.145 285.248 283.68 284.997C283.221 284.747 282.863 284.403 282.605 283.966C282.354 283.529 282.229 283.027 282.229 282.461C282.229 282.017 282.301 281.612 282.444 281.247C282.587 280.882 282.788 280.566 283.046 280.301C283.304 280.029 283.608 279.821 283.959 279.678C284.317 279.528 284.704 279.452 285.12 279.452C285.507 279.452 285.865 279.524 286.194 279.667C286.524 279.811 286.807 280.011 287.043 280.269C287.287 280.52 287.473 280.821 287.602 281.172C287.731 281.516 287.788 281.888 287.774 282.289L287.763 282.762H283.196L282.949 281.827H286.506L286.334 282.021V281.784C286.32 281.591 286.255 281.419 286.141 281.268C286.033 281.111 285.893 280.989 285.722 280.903C285.55 280.81 285.356 280.763 285.141 280.763C284.826 280.763 284.557 280.824 284.335 280.946C284.12 281.068 283.956 281.247 283.841 281.483C283.726 281.72 283.669 282.006 283.669 282.343C283.669 282.687 283.741 282.984 283.884 283.235C284.034 283.486 284.242 283.683 284.507 283.826C284.779 283.962 285.098 284.03 285.464 284.03C285.714 284.03 285.944 283.991 286.151 283.912C286.359 283.833 286.581 283.697 286.818 283.504L287.548 284.525C287.341 284.711 287.111 284.868 286.861 284.997C286.61 285.119 286.352 285.212 286.087 285.277C285.822 285.341 285.56 285.374 285.302 285.374ZM292.824 287.63V283.901L293.136 283.955C293.122 284.134 293.053 284.31 292.932 284.482C292.817 284.646 292.663 284.797 292.47 284.933C292.283 285.069 292.076 285.177 291.846 285.255C291.617 285.334 291.377 285.374 291.126 285.374C290.625 285.374 290.177 285.248 289.783 284.997C289.396 284.74 289.088 284.388 288.859 283.944C288.637 283.5 288.526 282.991 288.526 282.418C288.526 281.845 288.637 281.337 288.859 280.892C289.081 280.448 289.385 280.101 289.772 279.85C290.159 279.592 290.596 279.463 291.083 279.463C291.363 279.463 291.624 279.506 291.868 279.592C292.119 279.671 292.341 279.778 292.534 279.914C292.727 280.051 292.885 280.205 293.007 280.376C293.129 280.548 293.197 280.728 293.211 280.914L292.835 280.968L292.889 279.571H294.35V287.63H292.824ZM291.438 284.052C291.724 284.052 291.975 283.984 292.19 283.848C292.405 283.711 292.57 283.522 292.685 283.278C292.806 283.034 292.867 282.748 292.867 282.418C292.867 282.089 292.806 281.802 292.685 281.559C292.57 281.308 292.405 281.114 292.19 280.978C291.975 280.842 291.724 280.774 291.438 280.774C291.151 280.774 290.901 280.846 290.686 280.989C290.471 281.125 290.302 281.319 290.181 281.569C290.066 281.813 290.009 282.096 290.009 282.418C290.009 282.741 290.066 283.027 290.181 283.278C290.302 283.522 290.471 283.711 290.686 283.848C290.901 283.984 291.151 284.052 291.438 284.052ZM297.836 285.374C297.421 285.374 297.063 285.284 296.762 285.105C296.468 284.919 296.239 284.657 296.074 284.32C295.916 283.977 295.838 283.565 295.838 283.085V279.581H297.364V282.837C297.364 283.095 297.407 283.321 297.493 283.514C297.579 283.701 297.7 283.844 297.858 283.944C298.016 284.045 298.209 284.095 298.438 284.095C298.603 284.095 298.754 284.07 298.89 284.02C299.033 283.962 299.155 283.883 299.255 283.783C299.362 283.683 299.445 283.565 299.502 283.428C299.56 283.292 299.588 283.145 299.588 282.988V279.581H301.114V285.266H299.663L299.61 284.095L299.889 283.966C299.803 284.231 299.66 284.471 299.459 284.686C299.259 284.901 299.019 285.069 298.739 285.191C298.46 285.313 298.159 285.374 297.836 285.374ZM305.347 285.374C304.731 285.374 304.19 285.248 303.724 284.997C303.266 284.747 302.908 284.403 302.65 283.966C302.399 283.529 302.274 283.027 302.274 282.461C302.274 282.017 302.345 281.612 302.488 281.247C302.632 280.882 302.832 280.566 303.09 280.301C303.348 280.029 303.653 279.821 304.004 279.678C304.362 279.528 304.749 279.452 305.164 279.452C305.551 279.452 305.909 279.524 306.239 279.667C306.568 279.811 306.851 280.011 307.088 280.269C307.331 280.52 307.518 280.821 307.647 281.172C307.776 281.516 307.833 281.888 307.819 282.289L307.808 282.762H303.241L302.994 281.827H306.551L306.379 282.021V281.784C306.364 281.591 306.3 281.419 306.185 281.268C306.078 281.111 305.938 280.989 305.766 280.903C305.594 280.81 305.401 280.763 305.186 280.763C304.871 280.763 304.602 280.824 304.38 280.946C304.165 281.068 304 281.247 303.885 281.483C303.771 281.72 303.714 282.006 303.714 282.343C303.714 282.687 303.785 282.984 303.928 283.235C304.079 283.486 304.287 283.683 304.552 283.826C304.824 283.962 305.143 284.03 305.508 284.03C305.759 284.03 305.988 283.991 306.196 283.912C306.404 283.833 306.626 283.697 306.862 283.504L307.593 284.525C307.385 284.711 307.156 284.868 306.905 284.997C306.654 285.119 306.397 285.212 306.131 285.277C305.866 285.341 305.605 285.374 305.347 285.374ZM310.859 285.374C310.329 285.374 309.856 285.288 309.441 285.116C309.032 284.937 308.703 284.693 308.452 284.385L309.408 283.568C309.623 283.805 309.867 283.977 310.139 284.084C310.411 284.184 310.684 284.234 310.956 284.234C311.063 284.234 311.16 284.224 311.246 284.202C311.339 284.174 311.418 284.138 311.483 284.095C311.547 284.045 311.594 283.987 311.622 283.923C311.658 283.851 311.676 283.776 311.676 283.697C311.676 283.54 311.611 283.418 311.483 283.332C311.411 283.289 311.3 283.242 311.149 283.192C310.999 283.135 310.805 283.074 310.569 283.009C310.204 282.916 309.892 282.809 309.634 282.687C309.383 282.558 309.183 282.415 309.032 282.257C308.903 282.107 308.803 281.945 308.731 281.774C308.667 281.594 308.635 281.397 308.635 281.182C308.635 280.925 308.692 280.692 308.807 280.484C308.921 280.269 309.079 280.086 309.279 279.936C309.487 279.785 309.724 279.671 309.989 279.592C310.254 279.506 310.533 279.463 310.827 279.463C311.121 279.463 311.407 279.499 311.687 279.571C311.966 279.642 312.224 279.746 312.46 279.882C312.704 280.011 312.915 280.165 313.094 280.344L312.278 281.247C312.149 281.125 312.002 281.014 311.837 280.914C311.68 280.814 311.515 280.735 311.343 280.677C311.171 280.62 311.017 280.591 310.881 280.591C310.759 280.591 310.648 280.602 310.548 280.624C310.454 280.645 310.376 280.681 310.311 280.731C310.247 280.774 310.197 280.828 310.161 280.892C310.132 280.957 310.118 281.028 310.118 281.107C310.118 281.186 310.136 281.261 310.171 281.333C310.214 281.405 310.272 281.465 310.343 281.516C310.422 281.559 310.537 281.609 310.687 281.666C310.845 281.723 311.056 281.788 311.321 281.859C311.665 281.953 311.955 282.057 312.192 282.171C312.435 282.286 312.629 282.418 312.772 282.569C312.894 282.698 312.983 282.845 313.041 283.009C313.098 283.174 313.127 283.357 313.127 283.557C313.127 283.908 313.026 284.22 312.826 284.492C312.632 284.765 312.364 284.98 312.02 285.137C311.676 285.295 311.289 285.374 310.859 285.374ZM314.763 285.266V278.141H316.289V285.266H314.763ZM313.699 280.946V279.581H317.46V280.946H313.699Z" fill="#D75337"/>
<path d="M300.023 157.137L247.305 187.576V190.11L295.629 218.007L348.347 187.576V185.041L300.023 157.137Z" fill="#D75337"/>
<path opacity="0.15" d="M247.305 187.576L295.629 215.473V218.008L247.305 190.111V187.576Z" fill="black"/>
<path opacity="0.1" d="M295.629 215.473L348.347 185.041V187.576L295.629 218.008V215.473Z" fill="black"/>
<path d="M343.656 175.889L341.572 179.994L341.91 180.165L343.993 176.06L343.656 175.889Z" fill="#455A64"/>
<path d="M339.804 175.568L339.482 175.767L341.514 179.049L341.836 178.849L339.804 175.568Z" fill="#455A64"/>
<path d="M342.06 175.185V185.081C342.059 185.108 342.05 185.135 342.034 185.157C342.019 185.18 341.997 185.198 341.972 185.209C341.904 185.246 341.827 185.265 341.749 185.265C341.672 185.265 341.595 185.246 341.526 185.209C341.5 185.199 341.477 185.182 341.46 185.159C341.444 185.136 341.434 185.109 341.432 185.081V175.185H342.06Z" fill="#455A64"/>
<path d="M349.543 172.109C349.543 173.019 349.273 173.907 348.768 174.663C348.263 175.419 347.545 176.008 346.705 176.356C345.865 176.704 344.941 176.795 344.049 176.618C343.158 176.44 342.339 176.003 341.696 175.36C341.053 174.717 340.615 173.898 340.438 173.006C340.261 172.115 340.352 171.19 340.7 170.35C341.047 169.511 341.637 168.793 342.392 168.288C343.148 167.783 344.037 167.513 344.946 167.513C346.165 167.515 347.333 168 348.194 168.861C349.056 169.723 349.541 170.891 349.543 172.109Z" fill="#D75337"/>
<path opacity="0.2" d="M346.386 170.934C346.981 169.069 347.61 168.339 347.211 168.109C346.45 167.677 345.581 167.471 344.707 167.516C343.833 167.561 342.99 167.854 342.277 168.362C341.564 168.869 341.011 169.57 340.682 170.381C340.353 171.192 340.263 172.08 340.422 172.941C340.581 173.801 340.982 174.599 341.579 175.239C342.175 175.88 342.942 176.337 343.789 176.556C344.637 176.776 345.529 176.749 346.361 176.478C347.194 176.208 347.932 175.706 348.489 175.031C347.103 175.43 345.616 173.354 346.386 170.934Z" fill="black"/>
<path d="M340.937 173.407C340.937 174.046 340.747 174.671 340.392 175.202C340.037 175.734 339.533 176.148 338.942 176.392C338.352 176.637 337.702 176.701 337.075 176.576C336.449 176.452 335.873 176.144 335.421 175.692C334.969 175.24 334.661 174.664 334.537 174.038C334.412 173.411 334.476 172.761 334.721 172.171C334.965 171.58 335.379 171.076 335.911 170.721C336.442 170.366 337.067 170.176 337.706 170.176C338.563 170.176 339.384 170.517 339.99 171.123C340.596 171.729 340.937 172.55 340.937 173.407Z" fill="#D75337"/>
<path opacity="0.2" d="M337.707 170.176C337.029 170.176 336.368 170.392 335.821 170.791C335.733 172.758 337.409 174.685 336.936 175.334C336.463 175.983 335.321 175.584 334.908 175.03C335.193 175.52 335.602 175.927 336.093 176.209C336.585 176.491 337.142 176.64 337.709 176.638C338.276 176.637 338.833 176.487 339.323 176.203C339.814 175.918 340.221 175.51 340.503 175.018C340.786 174.527 340.934 173.97 340.934 173.403C340.933 172.836 340.783 172.279 340.499 171.788C340.215 171.298 339.806 170.891 339.315 170.608C338.824 170.325 338.267 170.176 337.7 170.176H337.707Z" fill="black"/>
<path d="M341.748 175.855C345.022 175.855 347.677 173.2 347.677 169.926C347.677 166.652 345.022 163.998 341.748 163.998C338.474 163.998 335.82 166.652 335.82 169.926C335.82 173.2 338.474 175.855 341.748 175.855Z" fill="#D75337"/>
<path opacity="0.1" d="M347.514 171.278C347.29 172.238 346.83 173.127 346.177 173.865C345.523 174.602 344.695 175.165 343.769 175.502C342.843 175.839 341.848 175.941 340.873 175.796C339.898 175.652 338.974 175.267 338.186 174.676C337.397 174.085 336.768 173.306 336.356 172.411C335.944 171.516 335.761 170.532 335.825 169.548C335.889 168.565 336.197 167.613 336.721 166.778C337.245 165.944 337.969 165.253 338.828 164.769C338.327 165.064 337.872 165.431 337.476 165.857C337.181 167.124 337.312 168.453 337.848 169.639C338.384 170.824 339.296 171.8 340.442 172.415C341.589 173.031 342.906 173.252 344.19 173.044C345.474 172.836 346.654 172.21 347.548 171.265L347.514 171.278Z" fill="black"/>
<path d="M255.822 178.416L253.738 182.521L254.076 182.692L256.159 178.587L255.822 178.416Z" fill="#455A64"/>
<path d="M251.957 178.088L251.635 178.288L253.666 181.569L253.988 181.37L251.957 178.088Z" fill="#455A64"/>
<path d="M254.218 177.707V187.603C254.216 187.631 254.206 187.657 254.189 187.68C254.172 187.702 254.15 187.72 254.124 187.731C254.054 187.765 253.978 187.782 253.901 187.782C253.824 187.782 253.747 187.765 253.678 187.731C253.653 187.72 253.631 187.702 253.616 187.679C253.6 187.657 253.591 187.63 253.59 187.603V177.707H254.218Z" fill="#455A64"/>
<path d="M261.701 174.624C261.701 175.533 261.431 176.422 260.926 177.178C260.421 177.934 259.703 178.523 258.863 178.871C258.023 179.219 257.099 179.31 256.208 179.132C255.316 178.955 254.497 178.517 253.854 177.874C253.211 177.231 252.773 176.412 252.596 175.521C252.419 174.629 252.51 173.705 252.858 172.865C253.206 172.025 253.795 171.307 254.551 170.802C255.307 170.297 256.195 170.028 257.104 170.028C258.323 170.028 259.493 170.512 260.355 171.374C261.217 172.236 261.701 173.405 261.701 174.624Z" fill="#D75337"/>
<path opacity="0.2" d="M258.552 173.448C259.147 171.582 259.776 170.852 259.377 170.629C258.688 170.233 257.907 170.025 257.112 170.028C256.338 170.027 255.576 170.223 254.897 170.595C254.218 170.968 253.645 171.507 253.23 172.161C252.814 172.815 252.571 173.563 252.523 174.336C252.474 175.109 252.622 175.881 252.952 176.582C253.281 177.283 253.783 177.889 254.41 178.344C255.036 178.799 255.768 179.088 256.536 179.185C257.305 179.281 258.085 179.182 258.805 178.897C259.525 178.611 260.161 178.148 260.654 177.551C259.289 177.95 257.775 175.868 258.552 173.448Z" fill="black"/>
<path d="M253.097 175.929C253.097 176.568 252.907 177.193 252.552 177.724C252.197 178.256 251.693 178.67 251.102 178.914C250.512 179.159 249.862 179.223 249.235 179.098C248.609 178.974 248.033 178.666 247.581 178.214C247.129 177.762 246.822 177.186 246.697 176.56C246.572 175.933 246.636 175.283 246.881 174.693C247.125 174.102 247.539 173.598 248.071 173.243C248.602 172.888 249.227 172.698 249.866 172.698C250.29 172.697 250.711 172.78 251.103 172.942C251.496 173.104 251.852 173.342 252.153 173.643C252.453 173.943 252.691 174.299 252.853 174.692C253.015 175.084 253.098 175.505 253.097 175.929Z" fill="#D75337"/>
<path opacity="0.2" d="M249.865 172.698C249.188 172.696 248.527 172.909 247.979 173.307C247.891 175.28 249.561 177.207 249.094 177.849C248.628 178.491 247.472 178.099 247.066 177.552C247.351 178.042 247.76 178.449 248.251 178.731C248.743 179.013 249.3 179.162 249.867 179.16C250.434 179.159 250.991 179.009 251.481 178.725C251.972 178.44 252.379 178.032 252.661 177.54C252.944 177.049 253.093 176.492 253.092 175.925C253.091 175.358 252.941 174.801 252.657 174.31C252.373 173.82 251.965 173.413 251.473 173.13C250.982 172.847 250.425 172.698 249.858 172.698H249.865Z" fill="black"/>
<path d="M253.901 178.369C257.175 178.369 259.829 175.715 259.829 172.441C259.829 169.167 257.175 166.513 253.901 166.513C250.627 166.513 247.973 169.167 247.973 172.441C247.973 175.715 250.627 178.369 253.901 178.369Z" fill="#D75337"/>
<path opacity="0.1" d="M259.666 173.8C259.44 174.757 258.979 175.643 258.324 176.377C257.67 177.111 256.844 177.671 255.919 178.005C254.994 178.34 254.001 178.439 253.028 178.294C252.056 178.148 251.135 177.763 250.349 177.173C249.562 176.582 248.935 175.805 248.524 174.912C248.113 174.019 247.931 173.037 247.995 172.056C248.058 171.075 248.365 170.125 248.887 169.291C249.41 168.458 250.131 167.769 250.987 167.284C250.475 167.579 250.009 167.946 249.601 168.372C249.309 169.638 249.441 170.965 249.977 172.148C250.514 173.331 251.424 174.306 252.568 174.92C253.713 175.535 255.027 175.757 256.31 175.551C257.593 175.345 258.772 174.722 259.666 173.78V173.8Z" fill="black"/>
<path d="M311.986 198.418L319.348 194.173L325.952 197.985L318.597 202.224L311.986 198.418Z" fill="#F0F0F0"/>
<path d="M260.491 187.576L260.484 164.749L295.634 185.035V207.869L260.491 187.576Z" fill="#F0F0F0"/>
<path d="M260.484 173.807L295.634 194.106V185.035L260.484 164.749V173.807Z" fill="#E0E0E0"/>
<path d="M335.165 185.034V162.842L321.984 159.672V157.137L295.635 185.034V207.868L335.165 185.034Z" fill="#FAFAFA"/>
<path d="M321.984 157.137V159.672L337.362 163.478V160.943L321.984 157.137Z" fill="#263238"/>
<path d="M302.225 140.652L337.361 160.944L321.983 157.138L286.84 136.846L302.225 140.652Z" fill="#37474F"/>
<path d="M293.431 188.854L321.99 157.138V154.603L291.234 190.111L293.431 188.854Z" fill="#37474F"/>
<path d="M286.848 134.311L321.991 154.603L291.289 190.145L256.092 169.819L286.848 134.311Z" fill="#455A64"/>
<path d="M275.822 167.189L280.25 169.745V176.159L275.822 173.625V167.189Z" fill="#263238"/>
<path d="M280.25 169.745L284.671 167.189V171.09L280.25 176.159V169.745Z" fill="#37474F"/>
<path d="M280.25 162.843L275.363 165.662V166.939L280.25 169.744L285.131 166.939V165.662L280.25 162.843Z" fill="#F5F5F5"/>
<path d="M275.363 166.939L280.25 169.744V168.467L275.363 165.662V166.939Z" fill="#E0E0E0"/>
<path d="M285.13 166.939L280.25 169.744V168.467L285.13 165.662V166.939Z" fill="#EBEBEB"/>
<path d="M277.004 165.661L280.248 163.788L283.493 165.661L280.248 167.526L277.004 165.661Z" fill="#D75337"/>
<path d="M280.248 163.788V167.526L277.004 165.661L280.248 163.788Z" fill="#37474F"/>
<path d="M280.25 163.788L283.495 165.661L280.25 167.526V163.788Z" fill="#263238"/>
<path d="M298.48 191.002L308.37 185.297V192.908L298.48 198.613V191.002Z" fill="#455A64"/>
<path d="M307.93 192.652V185.555L298.48 191.003V198.107L307.93 192.652Z" fill="#E0E0E0"/>
<path d="M308.37 192.909L307.93 192.653L298.48 198.108V198.615L308.37 192.909Z" fill="#37474F"/>
<path d="M298.48 194.808L308.37 189.103V188.589L298.48 194.294V194.808Z" fill="#455A64"/>
<path d="M322.645 177.044L332.527 171.339V178.95L322.645 184.655V177.044Z" fill="#455A64"/>
<path d="M332.088 178.694V171.597L322.645 177.045V184.149L332.088 178.694Z" fill="#E0E0E0"/>
<path d="M332.527 178.95L332.088 178.693L322.645 184.148V184.655L332.527 178.95Z" fill="#37474F"/>
<path d="M322.645 180.851L332.527 175.146V174.632L322.645 180.344V180.851Z" fill="#455A64"/>
<path d="M311.986 198.418V183.202L319.348 178.957V194.173L311.986 198.418Z" fill="#37474F"/>
<path d="M319.091 193.978V179.106L311.986 183.203V198.074L319.091 193.978Z" fill="#455A64"/>
<path d="M319.347 178.957L319.09 179.106V193.977L319.347 194.173V178.957Z" fill="#263238"/>
<path d="M287.612 188.022L282.447 185.041V192.646L287.612 195.627V188.022Z" fill="#455A64"/>
<path d="M282.887 192.389V185.291L287.612 188.022V195.12L282.887 192.389Z" fill="#FAFAFA"/>
<path d="M282.447 192.646L282.887 192.389L287.612 195.12V195.627L282.447 192.646Z" fill="#37474F"/>
<path d="M287.612 191.801L282.447 188.84V188.326L287.612 191.287V191.801Z" fill="#455A64"/>
<path d="M282.887 185.291L287.612 188.022V189.489L282.887 186.778V185.291Z" fill="#F5F5F5"/>
<path d="M272.233 179.14L267.068 176.159V183.771L272.233 186.752V179.14Z" fill="#455A64"/>
<path d="M267.516 183.514V176.416L272.234 179.14V186.238L267.516 183.514Z" fill="#FAFAFA"/>
<path d="M267.068 183.77L267.514 183.513L272.233 186.237V186.751L267.068 183.77Z" fill="#37474F"/>
<path d="M272.233 182.919L267.068 179.958V179.445L272.233 182.405V182.919Z" fill="#455A64"/>
<path d="M267.516 176.416L272.234 179.14V180.546L267.516 177.843V176.416Z" fill="#F5F5F5"/>
<path d="M192.946 325.355L192.101 332.019L176.5 331.991L177.335 325.328L192.946 325.355Z" fill="#FFD3CA"/>
<path d="M191.832 333.171C192.064 334.248 192.343 336.169 191.702 336.883C191.612 336.996 191.496 337.084 191.362 337.139C191.229 337.194 191.085 337.215 190.941 337.199C190.854 337.199 190.769 337.175 190.694 337.131C190.619 337.087 190.557 337.024 190.514 336.948C190.041 336.141 191.387 333.412 191.535 333.106C191.549 333.075 191.574 333.05 191.604 333.035C191.635 333.02 191.669 333.015 191.702 333.023C191.721 333.024 191.739 333.028 191.755 333.037C191.772 333.045 191.786 333.056 191.798 333.07C191.81 333.084 191.82 333.1 191.825 333.117C191.831 333.134 191.834 333.153 191.832 333.171ZM190.774 336.781V336.837C190.791 336.866 190.816 336.89 190.845 336.907C190.874 336.923 190.908 336.931 190.941 336.93C191.037 336.939 191.132 336.925 191.221 336.889C191.31 336.854 191.389 336.798 191.452 336.726C191.805 336.308 191.86 335.204 191.591 333.728C191.127 334.795 190.589 336.271 190.774 336.781Z" fill="#D75337"/>
<path d="M191.832 333.171C191.841 333.188 191.846 333.207 191.846 333.226C191.846 333.246 191.841 333.265 191.832 333.282C191.479 334.099 190.05 335.741 189.298 335.63C189.113 335.63 188.899 335.482 188.844 335.045C188.826 334.888 188.839 334.73 188.884 334.578C188.929 334.427 189.003 334.286 189.103 334.164C189.824 333.536 190.723 333.15 191.674 333.059C191.701 333.058 191.728 333.063 191.752 333.075C191.776 333.086 191.797 333.103 191.814 333.124C191.814 333.124 191.832 333.152 191.832 333.171ZM189.196 335.175C189.196 335.305 189.317 335.315 189.345 335.315C189.8 335.379 190.923 334.266 191.405 333.458C190.642 333.548 189.925 333.872 189.354 334.386C189.278 334.475 189.221 334.579 189.188 334.691C189.154 334.802 189.144 334.92 189.159 335.036C189.167 335.084 189.179 335.13 189.196 335.175Z" fill="#D75337"/>
<path d="M190.904 332.52L190.821 325.188C190.817 325.056 190.86 324.926 190.941 324.821C191.022 324.716 191.137 324.643 191.266 324.613L197.197 323.156C197.339 323.113 197.489 323.104 197.635 323.131C197.781 323.158 197.918 323.219 198.035 323.31C198.152 323.401 198.246 323.519 198.309 323.654C198.371 323.788 198.4 323.936 198.394 324.084C198.394 326.729 198.273 330.581 198.31 333.875C198.357 337.764 198.134 340.233 198.18 344.79C198.18 347.574 195.452 348.372 195.183 347.222C193.976 341.996 194.254 338.59 191.47 334.117C191.14 333.646 190.944 333.094 190.904 332.52Z" fill="#263238"/>
<path opacity="0.5" d="M190.904 332.52L190.821 325.188C190.817 325.056 190.86 324.926 190.941 324.821C191.022 324.716 191.137 324.643 191.266 324.613L197.197 323.156C197.339 323.113 197.489 323.104 197.635 323.131C197.781 323.158 197.918 323.219 198.035 323.31C198.152 323.401 198.246 323.519 198.309 323.654C198.371 323.788 198.4 323.936 198.394 324.084C198.394 326.729 198.273 330.581 198.31 333.875C198.357 337.764 198.134 340.233 198.18 344.79C198.18 347.574 195.452 348.372 195.183 347.222C193.976 341.996 194.254 338.59 191.47 334.117C191.14 333.646 190.944 333.094 190.904 332.52Z" fill="white"/>
<path opacity="0.2" d="M176.5 331.991L184.547 332.001L185.391 325.337L177.345 325.328L176.5 331.991Z" fill="black"/>
<path d="M182.875 335.75L184.379 322.274L180.045 321.829L178.17 336.613L182.875 335.75Z" fill="#263238"/>
<path d="M167.014 221.974C164.74 225.882 162.374 229.64 159.868 233.39C157.326 237.232 154.561 240.923 151.589 244.444C151.181 244.908 150.754 245.372 150.271 245.864C149.719 246.424 149.129 246.948 148.508 247.432C148.285 247.599 148.09 247.738 147.793 247.924L147.58 248.054L147.301 248.202L147.023 248.342C146.891 248.406 146.754 248.462 146.615 248.509C145.454 248.949 144.184 249.011 142.986 248.685C142.143 248.446 141.356 248.039 140.675 247.488C140.229 247.136 139.821 246.738 139.459 246.3C138.54 245.122 137.787 243.823 137.222 242.439C136.742 241.302 136.324 240.14 135.969 238.958C134.656 234.536 133.782 229.994 133.361 225.399L138.252 224.239C139.914 228.239 141.584 232.341 143.394 236.054C143.849 236.982 144.322 237.854 144.805 238.652C145.148 239.293 145.586 239.878 146.104 240.388C146.16 240.388 146.206 240.434 146.104 240.332C145.859 240.128 145.57 239.982 145.26 239.905C144.597 239.722 143.893 239.748 143.246 239.979L143.041 240.072L142.939 240.119H142.847C142.847 240.119 143.218 239.729 143.478 239.404C143.738 239.079 144.053 238.708 144.341 238.318C145.538 236.759 146.745 234.996 147.914 233.204C149.083 231.413 150.271 229.594 151.413 227.756L158.337 216.666L167.014 221.974Z" fill="#FFD3CA"/>
<path d="M170.551 217.529C172.453 223.664 160.017 240.509 160.017 240.509L147.023 232.341C149.349 227.002 152.246 221.929 155.664 217.213C160.806 210.494 168.453 210.809 170.551 217.529Z" fill="#D75337"/>
<path opacity="0.7" d="M170.551 217.529C172.453 223.664 160.017 240.509 160.017 240.509L147.023 232.341C149.349 227.002 152.246 221.929 155.664 217.213C160.806 210.494 168.453 210.809 170.551 217.529Z" fill="#515151"/>
<path opacity="0.2" d="M162.365 226.03C159.117 227.552 155.692 233.111 155.219 237.492L160.017 240.518C162.986 236.436 165.648 232.14 167.98 227.664C166.969 226.114 166.087 224.295 162.365 226.03Z" fill="black"/>
<path d="M198.589 208.323C197.108 215.909 196.215 223.598 195.916 231.321C195.693 236.555 195.712 241.484 195.851 245.911C196.166 256.194 197.094 263.897 197.002 266.524L161.734 267.285C153.539 233.251 160.23 213.353 160.23 213.353C162.896 212.322 165.62 211.449 168.388 210.736C168.973 210.587 169.576 210.448 170.198 210.309C175.334 209.375 180.518 208.725 185.725 208.36C186.737 208.285 187.767 208.23 188.769 208.193C193.92 207.998 198.589 208.323 198.589 208.323Z" fill="#D75337"/>
<path opacity="0.7" d="M195.851 245.911C196.176 256.194 197.094 263.897 197.002 266.524L161.734 267.285C153.539 233.251 160.23 213.353 160.23 213.353C162.896 212.322 165.62 211.449 168.388 210.736C168.973 210.587 169.576 210.448 170.198 210.309C175.334 209.376 180.518 208.725 185.725 208.36C186.737 208.285 187.767 208.23 188.769 208.193C193.939 207.998 198.607 208.323 198.607 208.323C197.434 214.252 196.64 220.251 196.231 226.281C196.101 227.989 196.009 229.669 195.934 231.321C195.823 233.79 195.777 236.203 195.767 238.514C195.739 241.103 195.786 243.572 195.851 245.911Z" fill="#515151"/>
<path d="M176.852 193.175C177.149 198.15 178.457 207.097 182.606 209.417C181.531 211.302 180.063 212.933 178.301 214.2C176.54 215.467 174.526 216.339 172.397 216.758C168.276 217.686 167.339 214.902 167.84 213.046C172.824 210.466 171.673 206.549 169.798 203.115L176.852 193.175Z" fill="#FFD3CA"/>
<path opacity="0.2" d="M173.966 197.249L169.762 203.152C170.217 203.947 170.596 204.783 170.894 205.649C172.852 204.86 175.061 201.936 174.736 199.783C174.633 198.899 174.373 198.041 173.966 197.249Z" fill="black"/>
<path d="M155.978 184.395C155.644 187.077 157.027 192.21 160.266 189.862C163.505 187.514 156.554 179.783 155.978 184.395Z" fill="#263238"/>
<path d="M174.885 184.479C176.472 190.976 177.725 194.632 175.525 198.846C172.212 205.185 163.46 204.647 159.97 198.781C156.833 193.5 154.773 183.839 160.212 179.449C161.417 178.475 162.85 177.823 164.376 177.554C165.903 177.285 167.472 177.407 168.938 177.91C170.404 178.412 171.719 179.278 172.759 180.427C173.799 181.576 174.53 182.97 174.885 184.479Z" fill="#FFD3CA"/>
<path d="M177.669 177.148H170.244V181.398C170.374 181.306 170.532 181.222 170.662 181.139C170.792 181.055 171.414 187.301 175.033 189.25C179.692 185.389 180.815 179.357 177.669 177.148Z" fill="#263238"/>
<path d="M178.977 188.999C178.966 190.659 178.299 192.247 177.121 193.417C175.525 194.939 173.668 193.76 173.223 191.709C172.833 189.853 173.177 186.846 175.209 186.141C175.651 185.994 176.122 185.957 176.582 186.033C177.041 186.109 177.475 186.296 177.846 186.578C178.217 186.859 178.514 187.227 178.711 187.649C178.908 188.071 178.999 188.534 178.977 188.999Z" fill="#FFD3CA"/>
<path d="M165.79 189.148C165.947 189.668 165.79 190.169 165.465 190.271C165.14 190.373 164.722 190.039 164.537 189.519C164.351 189 164.537 188.508 164.861 188.406C165.186 188.303 165.632 188.638 165.79 189.148Z" fill="#263238"/>
<path d="M159.932 190.91C160.09 191.43 159.932 191.931 159.607 192.033C159.282 192.135 158.865 191.792 158.679 191.281C158.494 190.771 158.679 190.26 159.004 190.158C159.329 190.056 159.774 190.399 159.932 190.91Z" fill="#263238"/>
<path d="M161.874 190.615C161.711 192.332 161.311 194.019 160.686 195.626C161.116 195.758 161.569 195.798 162.015 195.742C162.461 195.686 162.891 195.536 163.275 195.302L161.874 190.615Z" fill="#E3A092"/>
<path d="M166.662 196.434C166.448 196.531 166.228 196.615 166.003 196.684C165.983 196.69 165.962 196.691 165.941 196.689C165.92 196.686 165.9 196.679 165.882 196.669C165.864 196.659 165.848 196.645 165.835 196.628C165.823 196.612 165.813 196.593 165.808 196.573C165.801 196.553 165.798 196.533 165.799 196.512C165.8 196.491 165.806 196.471 165.816 196.453C165.825 196.434 165.839 196.418 165.855 196.405C165.871 196.392 165.89 196.383 165.91 196.378C166.558 196.2 167.154 195.871 167.65 195.418C168.145 194.964 168.525 194.399 168.759 193.77C168.765 193.75 168.774 193.731 168.787 193.715C168.8 193.699 168.816 193.685 168.834 193.676C168.852 193.666 168.873 193.66 168.893 193.659C168.914 193.658 168.935 193.661 168.954 193.668C168.974 193.673 168.993 193.682 169.01 193.695C169.026 193.708 169.04 193.724 169.051 193.742C169.061 193.76 169.068 193.78 169.07 193.801C169.073 193.822 169.071 193.843 169.066 193.863C168.864 194.434 168.547 194.958 168.133 195.4C167.719 195.843 167.218 196.195 166.662 196.434Z" fill="#263238"/>
<path d="M167.005 186.724C166.956 186.751 166.902 186.765 166.847 186.765C166.792 186.765 166.737 186.751 166.689 186.724C166.373 186.478 166.002 186.312 165.608 186.237C165.215 186.163 164.809 186.184 164.425 186.297C164.344 186.325 164.257 186.322 164.179 186.287C164.102 186.253 164.04 186.19 164.007 186.112C163.992 186.073 163.985 186.031 163.986 185.989C163.988 185.948 163.997 185.907 164.015 185.869C164.032 185.831 164.056 185.797 164.087 185.768C164.118 185.74 164.153 185.718 164.193 185.703C164.677 185.554 165.19 185.522 165.688 185.611C166.187 185.7 166.658 185.907 167.06 186.214C167.128 186.262 167.173 186.335 167.187 186.417C167.201 186.498 167.182 186.582 167.135 186.65C167.099 186.686 167.054 186.712 167.005 186.724Z" fill="#263238"/>
<path d="M156.787 189.684C156.726 189.699 156.662 189.699 156.601 189.684C156.519 189.669 156.446 189.623 156.396 189.556C156.346 189.489 156.323 189.405 156.332 189.322C156.398 188.825 156.584 188.351 156.874 187.94C157.163 187.53 157.547 187.195 157.993 186.965C158.031 186.948 158.072 186.938 158.113 186.937C158.155 186.936 158.196 186.943 158.235 186.957C158.273 186.972 158.309 186.994 158.339 187.023C158.369 187.051 158.394 187.085 158.411 187.123C158.429 187.16 158.44 187.201 158.442 187.243C158.444 187.285 158.437 187.327 158.422 187.366C158.407 187.405 158.385 187.441 158.356 187.471C158.327 187.501 158.292 187.524 158.253 187.54C157.903 187.722 157.603 187.985 157.378 188.309C157.153 188.632 157.011 189.006 156.963 189.397C156.966 189.457 156.951 189.517 156.92 189.568C156.888 189.619 156.842 189.66 156.787 189.684Z" fill="#263238"/>
<path d="M173.046 182.623C172.912 182.748 172.766 182.86 172.61 182.957C172.196 183.235 171.718 183.402 171.221 183.445C170.725 183.487 170.225 183.402 169.77 183.198C167.914 182.382 167.079 177.193 161.974 180.089C161.404 179.987 160.816 180.05 160.28 180.27C159.744 180.49 159.282 180.859 158.949 181.333C157.677 183.04 158.884 189.008 155.969 188.303C153.055 187.597 153.528 186.697 153.528 186.697C153.528 186.697 154.354 187.171 154.809 186.744C154.37 186.405 154.046 185.939 153.88 185.409C153.714 184.88 153.714 184.312 153.881 183.783C153.881 183.783 154.614 184.581 155.078 184.396C154.484 181.987 154.643 179.454 155.533 177.138C157.009 172.924 167.227 173.379 167.227 173.379C167.227 173.379 168.415 171.179 173.084 172.451C177.752 173.722 180.1 179.18 179.487 181.63" fill="#263238"/>
<path d="M186.523 336.865C177.725 338.638 170.188 339.891 163.766 340.679C134.345 344.28 128.164 338.044 130.577 326.312C133.918 310.024 160.972 276.381 160.972 276.381V263.007H167.07L176.49 262.301L176.694 281.875L176.899 300.808C176.899 300.808 169.752 307.138 163.46 313.3C158.012 318.637 153.204 323.834 154.179 324.688C154.912 325.301 158.55 325.394 163.07 325.254C172.082 324.976 184.602 323.742 184.602 323.742L186.523 336.865Z" fill="#D75337"/>
<path opacity="0.2" d="M176.9 300.808C176.9 300.808 169.753 307.137 163.461 313.3C163.591 300.241 173.466 278.784 173.466 278.784L176.696 281.874L176.9 300.808Z" fill="black"/>
<path opacity="0.2" d="M186.523 336.863C177.725 338.636 170.189 339.889 163.766 340.678C162.765 335.599 162.546 330.397 163.116 325.253C172.128 324.974 184.648 323.74 184.648 323.74L186.523 336.863Z" fill="black"/>
<path d="M196.611 296.65C194.912 312.363 178.225 399.298 178.225 399.298H166.002L171.088 294.116L167.069 263.006L197.316 260.742C197.316 260.742 197.53 263.684 197.641 268.389C197.641 269.744 197.697 271.239 197.706 272.863C197.786 280.806 197.421 288.748 196.611 296.65Z" fill="#D75337"/>
<path d="M166.783 412.643H173.484L175.387 397.125H168.686L166.783 412.643Z" fill="#FFD3CA"/>
<path opacity="0.2" d="M168.685 397.125H175.386L174.402 405.126H167.701L168.685 397.125Z" fill="black"/>
<path d="M179.107 401.245H164.656L164.703 396.93L179.794 396.057L179.107 401.245Z" fill="#263238"/>
<path d="M164.129 413.034C163.671 413.068 163.214 412.951 162.83 412.699C162.71 412.596 162.617 412.465 162.559 412.318C162.501 412.171 162.479 412.012 162.495 411.855C162.496 411.763 162.522 411.674 162.569 411.595C162.616 411.517 162.684 411.453 162.765 411.409C163.498 411.029 165.679 412.337 165.92 412.505C165.947 412.522 165.969 412.547 165.982 412.577C165.995 412.607 166 412.64 165.994 412.672C165.988 412.701 165.975 412.728 165.956 412.751C165.936 412.774 165.911 412.791 165.883 412.802C165.309 412.944 164.72 413.022 164.129 413.034ZM163.117 411.651C163.05 411.635 162.98 411.635 162.913 411.651C162.881 411.669 162.854 411.697 162.836 411.729C162.818 411.762 162.809 411.799 162.811 411.836C162.798 411.943 162.812 412.051 162.851 412.152C162.89 412.252 162.952 412.341 163.034 412.412C163.783 412.759 164.638 412.802 165.419 412.532C164.715 412.094 163.934 411.795 163.117 411.651Z" fill="#D75337"/>
<path d="M165.836 412.801H165.762C165.066 412.421 163.711 410.945 163.85 410.212C163.87 410.094 163.931 409.987 164.023 409.91C164.115 409.834 164.231 409.792 164.351 409.794C164.595 409.77 164.838 409.843 165.028 409.998C165.808 410.629 165.957 412.569 165.957 412.653C165.961 412.68 165.957 412.707 165.945 412.732C165.934 412.757 165.915 412.778 165.892 412.792C165.874 412.798 165.855 412.801 165.836 412.801ZM164.462 410.082H164.388C164.184 410.082 164.165 410.202 164.156 410.24C164.082 410.685 164.945 411.789 165.641 412.309C165.581 411.545 165.297 410.815 164.824 410.212C164.723 410.127 164.595 410.081 164.462 410.082Z" fill="#D75337"/>
<path d="M166.373 411.864H174.55C174.684 411.866 174.813 411.913 174.917 411.997C175.021 412.081 175.095 412.198 175.125 412.328L176.508 418.277C176.541 418.422 176.54 418.572 176.505 418.717C176.471 418.861 176.405 418.996 176.311 419.112C176.217 419.227 176.099 419.319 175.964 419.382C175.829 419.445 175.682 419.476 175.534 419.474C172.907 419.474 170.986 419.27 167.673 419.27C165.64 419.27 159.496 419.483 156.684 419.483C153.872 419.483 153.482 416.699 154.624 416.449C159.784 415.326 163.654 413.766 165.297 412.281C165.59 412.011 165.975 411.862 166.373 411.864Z" fill="#263238"/>
<path opacity="0.5" d="M166.373 411.864H174.55C174.684 411.866 174.813 411.913 174.917 411.997C175.021 412.081 175.095 412.198 175.125 412.328L176.508 418.277C176.541 418.422 176.54 418.572 176.505 418.717C176.471 418.861 176.405 418.996 176.311 419.112C176.217 419.227 176.099 419.319 175.964 419.382C175.829 419.445 175.682 419.476 175.534 419.474C172.907 419.474 170.986 419.27 167.673 419.27C165.64 419.27 159.496 419.483 156.684 419.483C153.872 419.483 153.482 416.699 154.624 416.449C159.784 415.326 163.654 413.766 165.297 412.281C165.59 412.011 165.975 411.862 166.373 411.864Z" fill="white"/>
<path d="M172.258 216.786C172.258 216.786 174.3 218.383 176.601 219.895C178.949 217.816 184.351 212.471 183.256 208.981C182.711 208.333 181.961 207.891 181.13 207.728C178.68 211.205 175.684 214.264 172.258 216.786Z" fill="white"/>
<path d="M172.259 216.786C171.181 218.242 170.313 219.842 169.679 221.538C167.414 220.61 166.941 213.77 167.498 212.87C168.129 212.122 168.98 211.592 169.929 211.357C169.929 211.357 168.973 216.758 172.259 216.786Z" fill="white"/>
<path opacity="0.2" d="M197.705 272.861C196.742 273.482 195.699 273.969 194.605 274.309L191.051 266.374C193.402 266.352 195.703 267.056 197.64 268.388C197.677 269.743 197.696 271.237 197.705 272.861Z" fill="black"/>
<path opacity="0.2" d="M196.212 226.281C196.082 227.989 195.989 229.669 195.915 231.321C195.804 233.789 195.757 236.202 195.748 238.513C192.527 234.244 193.465 225.668 193.465 225.668C194.421 225.6 195.376 225.813 196.212 226.281Z" fill="black"/>
<path d="M202.886 213.306C205.257 217.872 207.343 222.58 209.132 227.404C210.051 229.877 210.844 232.395 211.508 234.949C211.833 236.267 212.13 237.613 212.353 239.042C212.606 240.606 212.694 242.193 212.612 243.775C212.582 244.254 212.526 244.732 212.445 245.205C212.39 245.474 212.353 245.715 212.278 245.994L212.167 246.402L212.065 246.68C211.805 247.414 211.545 248.184 211.257 248.796C210.691 250.105 210.079 251.265 209.457 252.435C208.232 254.746 206.886 256.908 205.531 259.043C202.811 263.294 199.878 267.404 196.742 271.359L192.473 268.686L198.737 255.321C199.777 253.112 200.761 250.894 201.67 248.722C202.116 247.646 202.533 246.55 202.858 245.548C203.062 245.019 203.146 244.62 203.276 244.156L203.322 243.989V243.395C203.274 242.498 203.147 241.606 202.942 240.731C202.728 239.72 202.431 238.662 202.097 237.585C201.41 235.432 200.594 233.232 199.703 231.033C197.93 226.661 195.888 222.188 193.837 217.956L202.886 213.306Z" fill="#FFD3CA"/>
<path d="M200.547 208.777C206.459 211.301 212.13 229.594 212.13 229.594L196.584 234.931C194.233 229.791 192.354 224.447 190.969 218.967C188.89 210.169 193.382 205.723 200.547 208.777Z" fill="#D75337"/>
<path opacity="0.7" d="M200.547 208.777C206.459 211.301 212.13 229.594 212.13 229.594L196.584 234.931C194.233 229.791 192.354 224.447 190.969 218.967C188.89 210.169 193.382 205.723 200.547 208.777Z" fill="#515151"/>
<path d="M190.339 265.912C190.339 265.912 196.835 270.051 198.394 272.483C198.394 272.483 197.346 283.453 192.946 282.692C188.547 281.931 186.997 274.543 190.339 265.912Z" fill="#D75337"/>
<path d="M178.977 227.182L187.441 226.012V236.091C187.441 236.091 182.856 238.727 179.459 236.89L178.977 227.182Z" fill="white"/>
<path d="M146.207 223.766C146.237 223.853 146.247 223.946 146.237 224.037C146.228 224.129 146.199 224.217 146.152 224.296C146.106 224.376 146.042 224.444 145.967 224.497C145.892 224.549 145.806 224.585 145.715 224.602L138.671 226.003C138.477 226.032 138.279 225.994 138.11 225.894C137.941 225.794 137.811 225.639 137.743 225.455L133.409 211.859C133.377 211.767 133.364 211.669 133.371 211.572C133.378 211.475 133.404 211.381 133.448 211.294C133.492 211.208 133.554 211.131 133.628 211.068C133.703 211.006 133.789 210.959 133.882 210.931L140.926 209.529C141.13 209.519 141.331 209.577 141.499 209.692C141.666 209.808 141.791 209.976 141.854 210.17L146.207 223.766Z" fill="#263238"/>
<path opacity="0.3" d="M141.064 210.233L145.454 223.96C145.492 224.037 145.511 224.122 145.509 224.208C145.507 224.293 145.485 224.377 145.444 224.453C145.403 224.528 145.345 224.593 145.274 224.641C145.203 224.689 145.122 224.72 145.037 224.73L139.06 225.881C138.661 225.965 137.881 225.881 137.76 225.501L133.361 211.737C133.24 211.347 133.853 210.892 134.289 210.809L140.257 209.612C140.445 209.593 140.634 209.647 140.784 209.762C140.934 209.878 141.035 210.046 141.064 210.233Z" fill="white"/>
<path d="M133.648 228.415L133.268 221.594L140.275 224.471C140.275 224.471 140.275 230.578 137.11 230.429L133.648 228.415Z" fill="#FFD3CA"/>
<path d="M136.453 215.626L141.641 220.146L140.277 224.471L133.27 221.594L136.453 215.626Z" fill="#FFD3CA"/>
</svg>
