<svg width="680" height="472" viewBox="0 0 680 472" fill="none" xmlns="http://www.w3.org/2000/svg">
<path d="M679.085 445.248H0V445.587H679.085V445.248Z" fill="#EBEBEB"/>
<path d="M611.041 467.1H566.059V467.44H611.041V467.1Z" fill="#EBEBEB"/>
<path d="M449.853 470.794H438.051V471.134H449.853V470.794Z" fill="#EBEBEB"/>
<path d="M564.7 454.497H538.637V454.836H564.7V454.497Z" fill="#EBEBEB"/>
<path d="M129.909 456.778H71.25V457.117H129.909V456.778Z" fill="#EBEBEB"/>
<path d="M150.607 456.778H142.01V457.117H150.607V456.778Z" fill="#EBEBEB"/>
<path d="M305.792 462.509H178.559V462.849H305.792V462.509Z" fill="#EBEBEB"/>
<path d="M321.886 384.673H59.6371C57.5826 384.669 55.6136 383.851 54.1621 382.397C52.7107 380.943 51.8955 378.972 51.8955 376.918V8.26976C51.9134 6.22711 52.7365 4.274 54.186 2.83466C55.6355 1.39533 57.5944 0.586019 59.6371 0.58252H321.886C323.943 0.58252 325.916 1.39958 327.37 2.85395C328.824 4.30832 329.641 6.28088 329.641 8.33767V376.918C329.641 378.975 328.824 380.947 327.37 382.402C325.916 383.856 323.943 384.673 321.886 384.673ZM59.6371 0.854155C57.6727 0.857752 55.79 1.64062 54.4022 3.03093C53.0145 4.42124 52.235 6.30537 52.2351 8.26976V376.918C52.235 378.882 53.0145 380.766 54.4022 382.157C55.79 383.547 57.6727 384.33 59.6371 384.334H321.886C323.852 384.33 325.736 383.548 327.126 382.158C328.516 380.768 329.298 378.884 329.302 376.918V8.26976C329.298 6.30412 328.516 4.42002 327.126 3.0301C325.736 1.64018 323.852 0.857745 321.886 0.854155H59.6371Z" fill="#EBEBEB"/>
<path d="M615.672 384.673H353.409C351.354 384.669 349.383 383.851 347.93 382.398C346.476 380.944 345.658 378.974 345.654 376.918V8.26976C345.676 6.22587 346.502 4.27277 347.954 2.83381C349.405 1.39485 351.365 0.585981 353.409 0.58252H615.672C617.712 0.589588 619.668 1.40048 621.114 2.83943C622.561 4.27838 623.382 6.22946 623.4 8.26976V376.918C623.4 378.97 622.587 380.938 621.138 382.392C619.69 383.846 617.724 384.666 615.672 384.673ZM353.409 0.854155C351.444 0.857745 349.56 1.64018 348.17 3.0301C346.78 4.42002 345.997 6.30412 345.994 8.26976V376.918C345.997 378.884 346.78 380.768 348.17 382.158C349.56 383.548 351.444 384.33 353.409 384.334H615.672C617.638 384.33 619.522 383.548 620.912 382.158C622.302 380.768 623.084 378.884 623.088 376.918V8.26976C623.084 6.30412 622.302 4.42002 620.912 3.0301C619.522 1.64018 617.638 0.857745 615.672 0.854155H353.409Z" fill="#EBEBEB"/>
<path d="M77.9995 437.329H593.276V253.419H610.524V247.647H600.094L574.832 209.646H560.408V209.591H479.841L456.861 163.128H339.624V145.852H353.627V138.939H338.673L316.793 98.1399H258.609L230.278 138.939H215.772V145.852H229.775V209.591H188.256L170.029 248.856H137.515V235.084H111.709V248.856H105.407V176.588H102.284V248.856H88.2129L68.2614 295.238H60.2754V302.354H77.9995V437.329Z" fill="#F0F0F0"/>
<path d="M159.531 106.262C180.376 106.262 197.274 89.3634 197.274 68.5182C197.274 47.673 180.376 30.7747 159.531 30.7747C138.685 30.7747 121.787 47.673 121.787 68.5182C121.787 89.3634 138.685 106.262 159.531 106.262Z" fill="#FAFAFA"/>
<path d="M139.959 68.0969C139.957 67.0744 139.717 66.0665 139.257 65.1533C138.797 64.2401 138.131 63.4467 137.311 62.8362C136.491 62.2257 135.539 61.8149 134.533 61.6365C133.526 61.4581 132.491 61.517 131.511 61.8085C131.805 59.8346 131.668 57.8206 131.112 55.9042C130.555 53.9877 129.592 52.214 128.287 50.7041C126.982 49.1942 125.366 47.9837 123.551 47.1554C121.735 46.327 119.762 45.9003 117.767 45.9044C116.905 45.9091 116.046 45.9909 115.2 46.1488C113.835 43.8928 111.772 42.143 109.324 41.1645C106.875 40.1859 104.175 40.032 101.631 40.7259C99.0869 41.4198 96.8385 42.9238 95.2261 45.01C93.6137 47.0963 92.7251 49.6512 92.6949 52.2878H92.4911C89.523 52.2878 86.6764 53.4668 84.5777 55.5656C82.4789 57.6644 81.2998 60.511 81.2998 63.4791C81.2998 66.4472 82.4789 69.2938 84.5777 71.3925C86.6764 73.4913 89.523 74.6704 92.4911 74.6704H133.576C135.288 74.6278 136.916 73.9156 138.109 72.6866C139.303 71.4577 139.967 69.8099 139.959 68.0969Z" fill="#F5F5F5"/>
<path d="M476.718 98.493C476.718 96.7532 476.026 95.0847 474.796 93.8545C473.566 92.6242 471.897 91.9331 470.158 91.9331C469.519 91.9329 468.883 92.0244 468.27 92.2047C468.563 90.2308 468.427 88.2168 467.87 86.3003C467.314 84.3839 466.35 82.6101 465.045 81.1002C463.74 79.5903 462.125 78.3799 460.309 77.5515C458.494 76.7232 456.521 76.2965 454.525 76.3005C453.668 76.2991 452.813 76.381 451.972 76.545C450.604 74.2933 448.541 72.5475 446.094 71.571C443.647 70.5946 440.949 70.4405 438.407 71.132C435.865 71.8235 433.616 73.3231 432.001 75.4045C430.386 77.4859 429.492 80.0361 429.453 82.6704H429.182C426.213 82.6704 423.367 83.8494 421.268 85.9482C419.169 88.047 417.99 90.8936 417.99 93.8617C417.99 96.8298 419.169 99.6764 421.268 101.775C423.367 103.874 426.213 105.053 429.182 105.053H470.266C471.988 105.028 473.631 104.325 474.839 103.097C476.046 101.87 476.721 100.215 476.718 98.493Z" fill="#F5F5F5"/>
<path d="M291.626 56.0508C291.626 55.029 291.864 54.0212 292.322 53.1078C292.781 52.1944 293.446 51.4007 294.265 50.7899C295.084 50.1791 296.035 49.7682 297.041 49.5898C298.047 49.4114 299.081 49.4706 300.06 49.7625C299.783 47.7911 299.931 45.7833 300.494 43.8737C301.057 41.9641 302.021 40.197 303.323 38.6907C304.624 37.1845 306.233 35.9741 308.041 35.1406C309.849 34.3072 311.814 33.87 313.805 33.8583C314.667 33.8563 315.526 33.9382 316.372 34.1028C317.74 31.8502 319.804 30.1039 322.253 29.1278C324.701 28.1517 327.4 27.9987 329.943 28.6919C332.486 29.3851 334.734 30.887 336.348 32.9705C337.962 35.0541 338.855 37.6063 338.89 40.2417H339.094C342.062 40.2417 344.909 41.4208 347.008 43.5196C349.106 45.6184 350.285 48.4649 350.285 51.4331C350.285 54.4012 349.106 57.2477 347.008 59.3465C344.909 61.4453 342.062 62.6244 339.094 62.6244H297.996C296.286 62.5783 294.662 61.8645 293.471 60.6359C292.281 59.4074 291.618 57.7616 291.626 56.0508Z" fill="#F5F5F5"/>
<path d="M595.503 184.017C595.503 182.277 594.812 180.608 593.582 179.378C592.352 178.148 590.683 177.457 588.943 177.457C588.303 177.454 587.666 177.55 587.055 177.742C587.153 177.072 587.203 176.395 587.205 175.718C587.205 172.033 585.741 168.499 583.135 165.894C580.53 163.288 576.996 161.824 573.311 161.824C572.454 161.83 571.599 161.911 570.757 162.069C569.389 159.816 567.325 158.07 564.877 157.094C562.428 156.118 559.729 155.965 557.186 156.658C554.643 157.351 552.395 158.853 550.781 160.936C549.167 163.02 548.275 165.572 548.239 168.208H548.035C545.067 168.208 542.22 169.387 540.122 171.485C538.023 173.584 536.844 176.431 536.844 179.399C536.844 182.367 538.023 185.214 540.122 187.312C542.22 189.411 545.067 190.59 548.035 190.59H589.133C590.843 190.544 592.468 189.83 593.658 188.602C594.849 187.373 595.511 185.727 595.503 184.017Z" fill="#F5F5F5"/>
<path d="M222.264 87.7503C222.264 86.6697 221.835 85.6333 221.071 84.8692C220.307 84.1051 219.271 83.6758 218.19 83.6758C217.794 83.6714 217.399 83.731 217.022 83.8524C217.081 83.4339 217.113 83.0119 217.117 82.5893C217.121 81.4526 216.9 80.3265 216.467 79.2753C216.035 78.2242 215.399 77.2687 214.597 76.4638C213.794 75.6588 212.841 75.0201 211.791 74.5843C210.741 74.1485 209.616 73.9241 208.479 73.9242C207.946 73.9255 207.414 73.9755 206.89 74.0736C206.043 72.6589 204.756 71.5604 203.226 70.9459C201.696 70.3314 200.006 70.2345 198.416 70.6702C196.826 71.1059 195.422 72.0501 194.419 73.3587C193.415 74.6673 192.868 76.2683 192.86 77.9172H192.738C191.798 77.8756 190.859 78.0249 189.979 78.356C189.098 78.6871 188.293 79.1931 187.614 79.8435C186.934 80.494 186.393 81.2754 186.023 82.1406C185.653 83.0058 185.463 83.9369 185.463 84.8778C185.463 85.8187 185.653 86.7498 186.023 87.615C186.393 88.4802 186.934 89.2616 187.614 89.9121C188.293 90.5625 189.098 91.0685 189.979 91.3996C190.859 91.7307 191.798 91.88 192.738 91.8384H218.285C219.351 91.8135 220.366 91.3714 221.11 90.6071C221.854 89.8427 222.268 88.817 222.264 87.7503Z" fill="#F5F5F5"/>
<path d="M238.861 159.053C238.861 157.973 239.291 156.936 240.055 156.172C240.819 155.408 241.855 154.979 242.936 154.979C243.336 154.982 243.734 155.042 244.118 155.155C244.052 154.742 244.02 154.324 244.022 153.906C244.022 152.772 244.246 151.648 244.68 150.6C245.114 149.552 245.75 148.6 246.552 147.798C247.355 146.996 248.307 146.36 249.355 145.925C250.403 145.491 251.526 145.268 252.66 145.268C253.194 145.269 253.725 145.319 254.25 145.417C255.101 144.017 256.384 142.932 257.906 142.326C259.428 141.719 261.107 141.624 262.687 142.055C264.268 142.486 265.666 143.419 266.67 144.714C267.674 146.009 268.229 147.596 268.252 149.234H268.374C270.167 149.313 271.861 150.081 273.101 151.378C274.342 152.674 275.034 154.4 275.034 156.194C275.034 157.989 274.342 159.714 273.101 161.011C271.861 162.308 270.167 163.076 268.374 163.155H242.827C241.761 163.127 240.748 162.681 240.007 161.914C239.265 161.147 238.854 160.12 238.861 159.053Z" fill="#F5F5F5"/>
<path d="M544.626 69.2109C544.625 68.5753 544.772 67.9482 545.057 67.3797C545.341 66.8113 545.755 66.3173 546.264 65.9372C546.773 65.5571 547.365 65.3014 547.991 65.1907C548.616 65.0799 549.26 65.1172 549.869 65.2994C549.814 64.8851 549.787 64.4677 549.787 64.0499C549.785 62.9161 550.007 61.7932 550.44 60.7453C550.872 59.6973 551.507 58.745 552.308 57.9427C553.109 57.1404 554.061 56.5039 555.108 56.0697C556.155 55.6354 557.278 55.4119 558.411 55.4119C558.949 55.4132 559.485 55.4632 560.014 55.5613C560.862 54.158 562.144 53.0694 563.666 52.4605C565.189 51.8516 566.868 51.7556 568.45 52.1872C570.031 52.6187 571.429 53.5541 572.432 54.8517C573.434 56.1493 573.986 57.7383 574.003 59.3777H574.139C575.932 59.457 577.625 60.2249 578.866 61.5216C580.106 62.8183 580.799 64.5437 580.799 66.3384C580.799 68.133 580.106 69.8584 578.866 71.1551C577.625 72.4518 575.932 73.2198 574.139 73.299H548.701C548.164 73.299 547.633 73.1932 547.138 72.9875C546.643 72.7819 546.193 72.4806 545.815 72.1008C545.436 71.721 545.136 71.2702 544.932 70.7743C544.728 70.2784 544.624 69.7471 544.626 69.2109Z" fill="#F5F5F5"/>
<path d="M337.336 467.331C482.772 467.331 600.671 460.448 600.671 451.957C600.671 443.466 482.772 436.583 337.336 436.583C191.899 436.583 74 443.466 74 451.957C74 460.448 191.899 467.331 337.336 467.331Z" fill="#F5F5F5"/>
<path d="M63.223 385.271H615.863C617.642 385.271 619.349 385.978 620.607 387.236C621.865 388.494 622.572 390.201 622.572 391.98V444.84H56.5137V391.98C56.5137 390.201 57.2205 388.494 58.4788 387.236C59.737 385.978 61.4436 385.271 63.223 385.271Z" fill="#E0E0E0"/>
<path d="M385.924 389.766L383.765 387.661H331.516L329.058 389.766H385.924Z" fill="#F0F0F0"/>
<path d="M327.795 390.84L322.158 395.675H392.023L387.038 390.84H327.795Z" fill="#F0F0F0"/>
<path d="M320.909 396.748L310.247 405.888H402.548L393.136 396.748H320.909Z" fill="#F0F0F0"/>
<path d="M405.319 408.578H307.11L288.91 424.156H421.372L405.319 408.578Z" fill="#F0F0F0"/>
<path d="M425.8 428.447H283.898L266.337 443.496H441.31L425.8 428.447Z" fill="#F0F0F0"/>
<path d="M371.283 445.207H369.721V435.02H371.283V445.207ZM371.283 428.651H369.721V418.464H371.283V428.651ZM371.283 412.094H369.721V401.908H371.283V412.094ZM371.283 395.552H369.721V385.352H371.283V395.552ZM371.283 378.996H369.721V368.796H371.283V378.996ZM371.283 362.44H369.721V352.254H371.283V362.44ZM371.283 345.884H369.721V335.697H371.283V345.884ZM371.283 329.328H369.721V319.141H371.283V329.328ZM371.283 312.771H369.721V302.585H371.283V312.771ZM371.283 296.215H369.721V286.029H371.283V296.215ZM371.283 279.659H369.721V269.5H371.283V279.659ZM371.283 263.103H369.721V252.917H371.283V263.103ZM371.283 246.547H369.721V236.361H371.283V246.547ZM371.283 229.991H369.721V219.805H371.283V229.991ZM371.283 213.435H369.721V203.249H371.283V213.435ZM371.283 196.879H369.721V186.652H371.283V196.879ZM371.283 180.323H369.721V170.136H371.283V180.323ZM371.283 163.767H369.721V153.58H371.283V163.767ZM371.283 147.211H369.721V137.024H371.283V147.211ZM371.283 130.654H369.721V120.468H371.283V130.654ZM371.283 114.112H369.721V103.912H371.283V114.112ZM371.283 97.5558H369.721V87.3559H371.283V97.5558ZM371.283 80.9997H369.721V70.8134H371.283V80.9997ZM371.283 64.4436H369.721V54.2573H371.283V64.4436Z" fill="#263238"/>
<g opacity="0.7">
<path d="M371.283 445.207H369.721V435.02H371.283V445.207ZM371.283 428.651H369.721V418.464H371.283V428.651ZM371.283 412.094H369.721V401.908H371.283V412.094ZM371.283 395.552H369.721V385.352H371.283V395.552ZM371.283 378.996H369.721V368.796H371.283V378.996ZM371.283 362.44H369.721V352.254H371.283V362.44ZM371.283 345.884H369.721V335.697H371.283V345.884ZM371.283 329.328H369.721V319.141H371.283V329.328ZM371.283 312.771H369.721V302.585H371.283V312.771ZM371.283 296.215H369.721V286.029H371.283V296.215ZM371.283 279.659H369.721V269.5H371.283V279.659ZM371.283 263.103H369.721V252.917H371.283V263.103ZM371.283 246.547H369.721V236.361H371.283V246.547ZM371.283 229.991H369.721V219.805H371.283V229.991ZM371.283 213.435H369.721V203.249H371.283V213.435ZM371.283 196.879H369.721V186.652H371.283V196.879ZM371.283 180.323H369.721V170.136H371.283V180.323ZM371.283 163.767H369.721V153.58H371.283V163.767ZM371.283 147.211H369.721V137.024H371.283V147.211ZM371.283 130.654H369.721V120.468H371.283V130.654ZM371.283 114.112H369.721V103.912H371.283V114.112ZM371.283 97.5558H369.721V87.3559H371.283V97.5558ZM371.283 80.9997H369.721V70.8134H371.283V80.9997ZM371.283 64.4436H369.721V54.2573H371.283V64.4436Z" fill="white"/>
</g>
<path d="M366.109 274.037H202.504V386.126H366.109V274.037Z" fill="#263238"/>
<path opacity="0.8" d="M366.109 274.037H202.504V386.126H366.109V274.037Z" fill="white"/>
<path opacity="0.05" d="M328.461 274.037H202.504V386.126H328.461V274.037Z" fill="black"/>
<path d="M366.109 303.196H340.209V386.126H366.109V303.196Z" fill="#263238"/>
<path d="M285.976 328.675H271.539V352.443H285.976V328.675Z" fill="#263238"/>
<path d="M285.976 303.196H271.539V326.964H285.976V303.196Z" fill="#263238"/>
<path d="M302.52 328.675H287.688V352.443H302.52V328.675Z" fill="#263238"/>
<path d="M302.52 303.196H287.688V326.964H302.52V303.196Z" fill="#263238"/>
<path d="M235.48 328.675H221.043V352.443H235.48V328.675Z" fill="#263238"/>
<path d="M235.48 303.196H221.043V326.964H235.48V303.196Z" fill="#263238"/>
<path d="M252.023 328.675H237.191V352.443H252.023V328.675Z" fill="#263238"/>
<path d="M252.023 303.196H237.191V326.964H252.023V303.196Z" fill="#263238"/>
<path d="M366.109 194.081H218.082V270.355H366.109V194.081Z" fill="#263238"/>
<path opacity="0.8" d="M366.109 194.081H218.082V270.355H366.109V194.081Z" fill="white"/>
<path opacity="0.05" d="M326.776 194.081H218.082V270.355H326.776V194.081Z" fill="black"/>
<path d="M295.117 239.946H280.68V263.714H295.117V239.946Z" fill="#263238"/>
<path d="M295.117 214.467H280.68V238.235H295.117V214.467Z" fill="#263238"/>
<path d="M311.646 239.946H296.814V263.714H311.646V239.946Z" fill="#263238"/>
<path d="M311.647 214.467H296.815V238.235H311.647V214.467Z" fill="#263238"/>
<path d="M244.621 239.946H230.184V263.714H244.621V239.946Z" fill="#263238"/>
<path d="M261.15 239.946H246.318V263.714H261.15V239.946Z" fill="#263238"/>
<path opacity="0.5" d="M244.621 239.946H230.184V263.714H244.621V239.946Z" fill="white"/>
<path opacity="0.5" d="M261.15 239.946H246.318V263.714H261.15V239.946Z" fill="white"/>
<path opacity="0.3" d="M230.184 214.467V226.229L233.321 214.467H230.184Z" fill="white"/>
<path opacity="0.3" d="M230.184 239.946V248.978L232.601 239.946H230.184Z" fill="white"/>
<path opacity="0.3" d="M261.149 239.946H257.74L251.384 263.727H258.935L261.149 255.456V239.946Z" fill="white"/>
<path opacity="0.3" d="M261.149 227.275L258.216 238.235H261.149V227.275Z" fill="white"/>
<path d="M354.456 239.946H340.019V263.714H354.456V239.946Z" fill="#263238"/>
<path d="M354.456 214.467H340.019V238.235H354.456V214.467Z" fill="#263238"/>
<path d="M366.109 239.946H356.153V263.727H366.109V239.946Z" fill="#263238"/>
<path d="M366.109 214.467H356.153V238.235H366.109V214.467Z" fill="#263238"/>
<path opacity="0.5" d="M354.456 239.946H340.019V263.714H354.456V239.946Z" fill="white"/>
<path opacity="0.5" d="M354.456 214.467H340.019V238.235H354.456V214.467Z" fill="white"/>
<path opacity="0.5" d="M366.109 239.946H356.153V263.727H366.109V239.946Z" fill="white"/>
<path opacity="0.5" d="M366.109 214.467H356.153V238.235H366.109V214.467Z" fill="white"/>
<path opacity="0.3" d="M340.019 214.467V226.229L343.169 214.467H340.019Z" fill="white"/>
<path opacity="0.3" d="M340.019 239.946V248.978L342.436 239.946H340.019Z" fill="white"/>
<path opacity="0.3" d="M349.267 214.467L342.897 238.235H340.398L346.768 214.467H349.267Z" fill="white"/>
<path opacity="0.3" d="M366.109 245.474V263.728H361.22L366.109 245.474Z" fill="white"/>
<path opacity="0.4" d="M366.109 270.463V283.054H328.203L328.04 280.446L327.632 274.035L327.401 270.463H366.109Z" fill="white"/>
<path opacity="0.4" d="M366.109 280.447H328.963V287.347H366.109V280.447Z" fill="white"/>
<path d="M366.109 383.585V386.125H192.752L196.392 383.585H366.109Z" fill="#263238"/>
<path d="M567.267 175.448H563.437V277.908H567.267V175.448Z" fill="#D75337"/>
<path d="M447.884 260.226H374.773V386.128H447.884V260.226Z" fill="#D75337"/>
<path opacity="0.8" d="M447.884 260.226H374.773V386.128H447.884V260.226Z" fill="white"/>
<path d="M527.364 281.427H443.334V386.128H527.364V281.427Z" fill="#D75337"/>
<path opacity="0.4" d="M527.378 281.412H443.348V386.113H527.378V281.412Z" fill="white"/>
<path opacity="0.1" d="M527.378 281.412V321.858L478.796 342.706V386.127H443.348V281.412H527.378Z" fill="black"/>
<path d="M561.835 286.179H555.451V386.127H561.835V286.179Z" fill="#D75337"/>
<path d="M546.99 286.179H540.606V386.127H546.99V286.179Z" fill="#D75337"/>
<path d="M532.131 286.179H525.748V386.127H532.131V286.179Z" fill="#D75337"/>
<path d="M517.287 286.179H510.903V386.127H517.287V286.179Z" fill="#D75337"/>
<path d="M502.428 286.179H496.045V386.127H502.428V286.179Z" fill="#D75337"/>
<path d="M481.037 247.54V250.487H491.577V253.339H481.037V254.113H491.577V257.047H481.037V257.807H491.577V260.741H481.037V261.502H491.577V264.435H481.037V265.209H491.577V268.143H481.037V268.904H491.577V271.837H481.037V272.611H491.577V275.545H481.037V276.292H491.577V277.908H493.804V276.292H523.521V277.908H525.748V276.292H555.492V277.908H557.733V250.487H561.889V247.553L481.037 247.54ZM493.804 250.473H523.521V253.325H493.804V250.473ZM493.804 254.1H523.521V257.033H493.804V254.1ZM493.804 257.794H523.521V260.727H493.804V257.794ZM493.804 261.488H523.521V264.422H493.804V261.488ZM493.804 265.196H523.521V268.143H493.804V265.196ZM493.804 268.89H523.521V271.824H493.804V268.89ZM493.804 275.531V272.598H523.521V275.531H493.804ZM525.748 250.487H555.492V253.339H525.748V250.487ZM525.748 254.113H555.492V257.047H525.748V254.113ZM525.748 257.807H555.492V260.741H525.748V257.807ZM525.748 261.502H555.492V264.435H525.748V261.502ZM525.748 265.209H555.492V268.143H525.748V265.209ZM525.748 268.904H555.492V271.837H525.748V268.904ZM525.748 275.545V272.611H555.492V275.545H525.748Z" fill="#D75337"/>
<g opacity="0.2">
<path d="M481.037 247.539V250.486H491.577V253.338H481.037V254.112H491.577V257.046H481.037V257.806H491.577V260.74H481.037V261.501H491.577V264.434H481.037V265.208H491.577V268.142H481.037V268.903H491.577V271.836H481.037V272.61H491.577V275.544H481.037V276.291H491.577V277.907H493.804V276.291H523.521V277.907H525.748V276.291H555.492V277.907H557.733V250.486H561.889V247.552L481.037 247.539ZM493.804 250.472H523.521V253.324H493.804V250.472ZM493.804 254.099H523.521V257.032H493.804V254.099ZM493.804 257.793H523.521V260.726H493.804V257.793ZM493.804 261.487H523.521V264.421H493.804V261.487ZM493.804 265.195H523.521V268.142H493.804V265.195ZM493.804 268.889H523.521V271.823H493.804V268.889ZM493.804 275.53V272.597H523.521V275.53H493.804ZM525.748 250.486H555.492V253.338H525.748V250.486ZM525.748 254.112H555.492V257.046H525.748V254.112ZM525.748 257.806H555.492V260.74H525.748V257.806ZM525.748 261.501H555.492V264.434H525.748V261.501ZM525.748 265.208H555.492V268.142H525.748V265.208ZM525.748 268.903H555.492V271.836H525.748V268.903ZM525.748 275.544V272.61H555.492V275.544H525.748Z" fill="black"/>
</g>
<path d="M484.228 175.448H374.773V277.12H484.228V175.448Z" fill="#D75337"/>
<path opacity="0.8" d="M484.228 175.448H374.773V277.12H484.228V175.448Z" fill="white"/>
<path d="M474.504 189.913H374.773V277.121H474.504V189.913Z" fill="#D75337"/>
<path opacity="0.1" d="M374.773 189.913V196.581H467.917V271.457H374.773V277.121H474.504V189.913H374.773Z" fill="white"/>
<path d="M460.909 196.581H374.773V270.438H460.909V196.581Z" fill="#D75337"/>
<path opacity="0.5" d="M460.909 196.581H374.773V270.438H460.909V196.581Z" fill="white"/>
<path opacity="0.3" d="M460.908 196.581V237.326L452.039 270.438H435.035L454.81 196.581H460.908Z" fill="white"/>
<path opacity="0.3" d="M450.003 196.581L430.228 270.438H427.756L447.531 196.581H450.003Z" fill="white"/>
<path d="M450.003 343.971V303.198H458.668V296.095H394.657V351.196H458.668V343.971H450.003Z" fill="#D75337"/>
<path d="M451.85 303.199H407.614V343.985H451.85V303.199Z" fill="black"/>
<path d="M451.85 303.199H407.614V343.985H451.85V303.199Z" fill="#D75337"/>
<path opacity="0.5" d="M451.85 303.199H407.614V343.985H451.85V303.199Z" fill="white"/>
<path opacity="0.3" d="M437.684 303.199L426.778 343.971H409.773L420.68 303.199H437.684Z" fill="white"/>
<path opacity="0.3" d="M447.789 303.199L436.883 343.971H431.979L442.899 303.199H447.789Z" fill="white"/>
<path opacity="0.1" d="M400.701 296.095H394.657V351.196H400.701V296.095Z" fill="black"/>
<path d="M391.764 286.275H375.792V386.128H391.764V286.275Z" fill="#D75337"/>
<path opacity="0.3" d="M391.764 286.275H375.792V386.128H391.764V286.275Z" fill="white"/>
<path opacity="0.2" d="M391.764 286.275H383.778V386.128H391.764V286.275Z" fill="white"/>
<path d="M512.193 286.275H496.221V386.128H512.193V286.275Z" fill="#D75337"/>
<path opacity="0.3" d="M512.193 286.275H496.221V386.128H512.193V286.275Z" fill="white"/>
<path opacity="0.2" d="M512.193 286.275H504.207V386.128H512.193V286.275Z" fill="white"/>
<path d="M575.973 277.121H374.773V287.484H575.973V277.121Z" fill="#D75337"/>
<path opacity="0.3" d="M575.973 277.121H374.773V287.484H575.973V277.121Z" fill="white"/>
<path opacity="0.2" d="M512.193 277.121H383.778V287.484H512.193V277.121Z" fill="white"/>
<path d="M571.124 168.114H374.773V178.477H571.124V168.114Z" fill="#D75337"/>
<path opacity="0.3" d="M571.124 168.114H374.773V178.477H571.124V168.114Z" fill="white"/>
<path opacity="0.2" d="M571.124 168.114H383.778V178.477H571.124V168.114Z" fill="white"/>
<path d="M586.295 386.127H374.773V383.587H582.655L586.295 386.127Z" fill="#D75337"/>
<path d="M119.518 370.003C119.518 370.003 112.551 364.19 106.588 370.003C100.626 375.816 99.458 411.781 99.458 411.781" stroke="#D75337" stroke-width="1.17966" stroke-miterlimit="10"/>
<path d="M98.956 418.68C98.956 418.68 103.03 376.454 87.6152 358.716" stroke="#D75337" stroke-width="1.17966" stroke-miterlimit="10"/>
<path d="M100.504 414.224C100.504 414.224 97.3392 366.159 108.938 355.497" stroke="#D75337" stroke-width="1.17966" stroke-miterlimit="10"/>
<path d="M98.9562 414.225C98.9562 414.225 98.6981 382.471 90.0738 377.554C81.4494 372.638 77.0625 388.718 77.0625 388.718" stroke="#D75337" stroke-width="1.17966" stroke-miterlimit="10"/>
<path d="M102.365 414.225C102.365 414.225 101.007 389.845 107.634 381.126C114.262 372.407 121.338 384.861 121.338 384.861" stroke="#D75337" stroke-width="1.17966" stroke-miterlimit="10"/>
<path d="M100.043 417.539C100.043 417.539 104.362 360.496 97.2178 350.853" stroke="#D75337" stroke-width="1.17966" stroke-miterlimit="10"/>
<path d="M82.6986 382.226C82.6986 382.226 86.9905 383.802 85.7138 387.55C84.4371 391.299 70.8554 397.438 70.8554 397.438C70.8554 397.438 65.1647 392.222 70.3936 383.747C75.6226 375.272 82.5764 379.51 82.6986 382.226Z" fill="#D75337"/>
<path opacity="0.2" d="M82.6986 382.226C82.6986 382.226 86.9905 383.802 85.7138 387.55C84.4371 391.299 70.8554 397.438 70.8554 397.438C70.8554 397.438 65.1647 392.222 70.3936 383.747C75.6226 375.272 82.5764 379.51 82.6986 382.226Z" fill="white"/>
<path d="M101.373 375.042C101.373 375.042 96.7961 374.852 96.538 378.791C96.28 382.73 106.453 393.636 106.453 393.636C106.453 393.636 113.705 391.014 112.157 381.181C110.609 371.348 102.514 372.611 101.373 375.042Z" fill="#D75337"/>
<path opacity="0.2" d="M101.373 375.042C101.373 375.042 96.7961 374.852 96.538 378.791C96.28 382.73 106.453 393.636 106.453 393.636C106.453 393.636 113.705 391.014 112.157 381.181C110.609 371.348 102.514 372.611 101.373 375.042Z" fill="white"/>
<path d="M105.244 356.164C105.244 356.164 102.202 355.838 102.447 353.977C102.691 352.116 114.303 347.336 121.149 355.077C121.149 355.077 116.762 362.601 110.419 362.71C104.076 362.819 105.244 356.164 105.244 356.164Z" fill="#D75337"/>
<path opacity="0.2" d="M105.244 356.164C105.244 356.164 102.202 355.838 102.447 353.977C102.691 352.116 114.303 347.336 121.149 355.077C121.149 355.077 116.762 362.601 110.419 362.71C104.076 362.819 105.244 356.164 105.244 356.164Z" fill="white"/>
<path d="M99.567 351.654C99.567 351.654 102.283 353.012 103.098 351.288C103.913 349.563 96.5518 339.376 86.6508 342.31C86.6508 342.31 86.3791 351.029 91.7167 354.466C97.0543 357.902 99.567 351.654 99.567 351.654Z" fill="#D75337"/>
<path opacity="0.2" d="M99.567 351.654C99.567 351.654 102.283 353.012 103.098 351.288C103.913 349.563 96.5518 339.376 86.6508 342.31C86.6508 342.31 86.3791 351.029 91.7167 354.466C97.0543 357.902 99.567 351.654 99.567 351.654Z" fill="white"/>
<path d="M114.005 380.651C114.005 380.651 111.9 378.953 114.168 378.125C116.436 377.296 127.587 377.527 127.75 388.569C127.75 388.569 114.765 390.728 113.163 386.518C111.56 382.308 114.005 380.651 114.005 380.651Z" fill="#D75337"/>
<path opacity="0.2" d="M114.005 380.651C114.005 380.651 111.9 378.953 114.168 378.125C116.436 377.296 127.587 377.527 127.75 388.569C127.75 388.569 114.765 390.728 113.163 386.518C111.56 382.308 114.005 380.651 114.005 380.651Z" fill="white"/>
<path d="M87.5337 355.892C87.5337 355.892 89.6389 354.194 87.3708 353.352C85.1026 352.51 73.952 352.768 73.7891 363.81C73.7891 363.81 86.7732 365.969 88.3758 361.759C89.9785 357.549 87.5337 355.892 87.5337 355.892Z" fill="#D75337"/>
<path opacity="0.2" d="M87.5337 355.892C87.5337 355.892 89.6389 354.194 87.3708 353.352C85.1026 352.51 73.952 352.768 73.7891 363.81C73.7891 363.81 86.7732 365.969 88.3758 361.759C89.9785 357.549 87.5337 355.892 87.5337 355.892Z" fill="white"/>
<path d="M94.3924 364.789C94.3924 364.789 94.5825 362.711 92.9119 363.526C91.2414 364.341 85.4284 370.602 91.4587 376.551C91.4587 376.551 99.6077 370.548 98.1002 367.424C96.5926 364.3 94.3924 364.789 94.3924 364.789Z" fill="#D75337"/>
<path opacity="0.2" d="M94.3924 364.789C94.3924 364.789 94.5825 362.711 92.9119 363.526C91.2414 364.341 85.4284 370.602 91.4587 376.551C91.4587 376.551 99.6077 370.548 98.1002 367.424C96.5926 364.3 94.3924 364.789 94.3924 364.789Z" fill="white"/>
<path d="M115.893 367.722C115.893 367.722 114.63 366.078 116.477 365.875C118.324 365.671 126.582 367.871 124.626 376.115C124.626 376.115 114.562 375.368 114.127 371.932C113.693 368.496 115.893 367.722 115.893 367.722Z" fill="#D75337"/>
<path opacity="0.2" d="M115.893 367.722C115.893 367.722 114.63 366.078 116.477 365.875C118.324 365.671 126.582 367.871 124.626 376.115C124.626 376.115 114.562 375.368 114.127 371.932C113.693 368.496 115.893 367.722 115.893 367.722Z" fill="white"/>
<path d="M81.8972 444.839H116.422L120.143 407.042H78.1758L81.8972 444.839Z" fill="#D75337"/>
<path opacity="0.5" d="M81.8972 444.839H116.422L120.143 407.042H78.1758L81.8972 444.839Z" fill="white"/>
<path d="M76.3285 411.21H121.99V402.871H76.3285V411.21Z" fill="#D75337"/>
<path opacity="0.2" d="M76.3285 411.21H121.99V402.871H76.3285V411.21Z" fill="white"/>
<path d="M582.927 413.318C582.927 413.318 589.12 399.736 582.044 386.453C574.968 373.17 572.904 370.006 577.426 367.29C581.949 364.573 584.013 377.951 584.013 377.951C586.249 371.896 586.478 365.282 584.665 359.086C581.528 349.443 579.559 333.729 583.85 332.045C588.142 330.361 584.665 351.643 588.387 358.896C590.291 353.804 591.519 348.485 592.04 343.073C592.556 335.332 591.741 322.959 595.137 319.781C598.532 316.603 600.692 318.803 597.364 335.902C595.364 346.118 594.26 356.488 594.064 366.896C594.064 366.896 601.412 344.472 606.355 343.807C611.299 343.141 611.285 350.407 607.062 356.709C602.838 363.011 594.675 374.298 593.344 380.111C593.344 380.111 601.425 363.229 608.678 368.403C615.93 373.578 602.362 383.764 596.305 387.418C590.247 391.071 586.051 414.187 586.051 414.187L582.927 413.318Z" fill="#D75337"/>
<path opacity="0.6" d="M582.927 413.318C582.927 413.318 589.12 399.736 582.044 386.453C574.968 373.17 572.904 370.006 577.426 367.29C581.949 364.573 584.013 377.951 584.013 377.951C586.249 371.896 586.478 365.282 584.665 359.086C581.528 349.443 579.559 333.729 583.85 332.045C588.142 330.361 584.665 351.643 588.387 358.896C590.291 353.804 591.519 348.485 592.04 343.073C592.556 335.332 591.741 322.959 595.137 319.781C598.532 316.603 600.692 318.803 597.364 335.902C595.364 346.118 594.26 356.488 594.064 366.896C594.064 366.896 601.412 344.472 606.355 343.807C611.299 343.141 611.285 350.407 607.062 356.709C602.838 363.011 594.675 374.298 593.344 380.111C593.344 380.111 601.425 363.229 608.678 368.403C615.93 373.578 602.362 383.764 596.305 387.418C590.247 391.071 586.051 414.187 586.051 414.187L582.927 413.318Z" fill="white"/>
<path d="M587.816 418.9C587.816 418.9 581.786 405.319 589.025 392.049C596.264 378.78 598.355 375.751 593.873 372.913C589.391 370.074 587.164 383.493 587.164 383.493C584.991 377.397 584.839 370.763 586.729 364.574C589.989 354.971 592.162 339.298 587.87 337.546C583.578 335.794 586.811 357.131 583.008 364.329C581.173 359.209 580.014 353.872 579.558 348.452C579.137 340.697 580.088 328.338 576.733 325.119C573.378 321.9 571.178 324.046 574.316 341.2C576.184 351.445 577.157 361.833 577.222 372.247C577.222 372.247 570.132 349.702 565.202 348.982C560.272 348.262 560.191 355.515 564.347 361.871C568.503 368.227 576.502 379.649 577.779 385.476C577.779 385.476 569.902 368.472 562.581 373.538C555.26 378.604 568.706 389.007 574.723 392.783C580.74 396.559 584.665 419.702 584.665 419.702L587.816 418.9Z" fill="#D75337"/>
<path opacity="0.7" d="M587.816 418.9C587.816 418.9 581.786 405.319 589.025 392.049C596.264 378.78 598.355 375.751 593.873 372.913C589.391 370.074 587.164 383.493 587.164 383.493C584.991 377.397 584.839 370.763 586.729 364.574C589.989 354.971 592.162 339.298 587.87 337.546C583.578 335.794 586.811 357.131 583.008 364.329C581.173 359.209 580.014 353.872 579.558 348.452C579.137 340.697 580.088 328.338 576.733 325.119C573.378 321.9 571.178 324.046 574.316 341.2C576.184 351.445 577.157 361.833 577.222 372.247C577.222 372.247 570.132 349.702 565.202 348.982C560.272 348.262 560.191 355.515 564.347 361.871C568.503 368.227 576.502 379.649 577.779 385.476C577.779 385.476 569.902 368.472 562.581 373.538C555.26 378.604 568.706 389.007 574.723 392.783C580.74 396.559 584.665 419.702 584.665 419.702L587.816 418.9Z" fill="white"/>
<path d="M559.974 409.149H609.846L605.812 444.842H564.007L559.974 409.149Z" fill="#D75337"/>
<path d="M158.446 173.225C158.446 167.353 152.554 162.583 145.276 162.583C137.997 162.583 132.105 167.334 132.105 173.225C132.105 178.385 136.638 182.68 142.663 183.678C144.033 186.553 146.319 188.892 149.162 190.329C149.162 190.329 146.806 188.514 147.024 183.763C153.467 183.079 158.446 178.622 158.446 173.225Z" fill="#D75337"/>
<path opacity="0.8" d="M158.446 173.225C158.446 167.353 152.554 162.583 145.276 162.583C137.997 162.583 132.105 167.334 132.105 173.225C132.105 178.385 136.638 182.68 142.663 183.678C144.033 186.553 146.319 188.892 149.162 190.329C149.162 190.329 146.806 188.514 147.024 183.763C153.467 183.079 158.446 178.622 158.446 173.225Z" fill="#D75337"/>
<path d="M139.992 168.655C141.693 166.555 144.259 167.78 145.418 169.738C147.033 168.141 149.827 167.609 150.939 170.08C152.839 174.232 147.47 177.159 144.981 178.252L144.278 178.566C144.107 178.432 143.907 178.28 143.669 178.081C141.531 176.389 137.141 172.199 139.992 168.655Z" fill="white"/>
<path d="M212.496 255.754C210.481 260.829 203.62 261.893 198.071 259.612C192.522 257.332 184.882 243.848 184.882 243.848L192.607 229.899L212.496 255.754Z" fill="#D75337"/>
<path opacity="0.2" d="M212.496 255.754C210.481 260.829 203.62 261.893 198.071 259.612C192.522 257.332 184.882 243.848 184.882 243.848L192.607 229.899L212.496 255.754Z" fill="black"/>
<path d="M160.261 192.136C161.558 190.105 163.367 188.45 165.505 187.338C167.643 186.225 170.036 185.695 172.443 185.798C180.786 186.179 183.732 186.929 184.882 194.265C186.032 201.601 186.602 202.598 189.234 204.166C191.866 205.734 185.547 209.184 186.64 212.348C187.733 215.512 191.115 215.313 190.925 218.23C190.735 221.147 187.029 221.08 186.64 223.351C186.25 225.623 188.179 229.595 186.64 232.787C185.1 235.98 154.247 246.547 150.142 238.726C146.037 230.906 152.584 227.067 153.334 223.351C154.085 219.636 151.947 219.807 151.795 215.398C151.643 210.989 154.646 210.647 154.959 208.167C155.273 205.687 152.213 203.416 153.154 200.622C154.094 197.828 157.553 192.136 160.261 192.136Z" fill="#263238"/>
<path d="M140.649 439.016L136.753 433.904L143.367 427.528L149.381 421.731L155.035 427.015L147.424 433.362L140.649 439.016Z" fill="#EEC1BB"/>
<path d="M136.524 432.344C137.095 431.926 141.941 439.186 141.941 439.186C141.941 439.186 140.858 446.788 143.043 451.624C145.229 456.461 140.943 456.081 137.456 451.501L128.723 440.098C126.215 436.753 130.576 436.668 136.524 432.344Z" fill="#263238"/>
<path d="M143.584 444.66C142.482 444.403 141.769 441.267 141.684 440.64C141.674 440.609 141.674 440.576 141.684 440.545C141.68 440.523 141.68 440.501 141.684 440.479C141.684 440.479 141.684 440.479 141.684 440.422C141.709 440.414 141.735 440.414 141.76 440.422C141.864 440.422 143.907 439.738 145.01 440.422C145.186 440.519 145.337 440.655 145.452 440.82C145.567 440.985 145.644 441.173 145.675 441.372C145.76 441.8 145.675 442.104 145.437 442.265C145.2 442.427 144.316 442.313 143.537 441.98C144.028 442.433 144.38 443.017 144.554 443.662C144.571 443.796 144.561 443.931 144.526 444.061C144.49 444.191 144.429 444.313 144.346 444.419C144.262 444.525 144.159 444.614 144.041 444.68C143.924 444.745 143.794 444.787 143.66 444.802L143.584 444.66ZM143.689 444.213C143.689 444.213 143.869 444.261 144.088 443.976C144.165 443.865 144.196 443.729 144.174 443.596C144.078 442.873 142.995 441.828 142.273 441.182C142.577 442.531 143.166 444.09 143.689 444.213ZM142.416 440.678C143.594 441.41 144.886 441.99 145.209 441.762C145.314 441.695 145.276 441.467 145.209 441.343C145.187 441.216 145.137 441.094 145.061 440.989C144.985 440.884 144.886 440.797 144.772 440.735C144.45 440.568 144.089 440.489 143.727 440.507C143.285 440.521 142.846 440.579 142.416 440.678Z" fill="#D75337"/>
<path opacity="0.2" d="M147.424 433.362L143.366 427.527L149.381 421.731L155.035 427.014L147.424 433.362Z" fill="black"/>
<path d="M179.731 447.102H173.307L172.253 438.151L171.293 429.941L178.923 428.696L179.351 438.436L179.731 447.102Z" fill="#EEC1BB"/>
<path d="M171.93 446.684C171.93 445.981 180.653 446.532 180.653 446.532C180.653 446.532 186.003 451.977 191.21 453.184C196.417 454.39 193.51 457.536 187.694 457.536H173.308C169.174 457.555 171.759 454.029 171.93 446.684Z" fill="#263238"/>
<path d="M181.622 447.7L181.546 447.652V447.586C181.546 447.586 181.546 447.538 181.546 447.51C181.542 447.478 181.542 447.446 181.546 447.415C181.546 447.32 182.316 445.296 183.447 444.811C183.625 444.731 183.817 444.69 184.012 444.69C184.207 444.69 184.4 444.731 184.578 444.811C184.967 445.001 185.167 445.248 185.148 445.543C185.148 445.999 184.501 446.493 183.789 446.835C184.449 446.726 185.127 446.801 185.746 447.054C185.86 447.115 185.96 447.199 186.04 447.3C186.12 447.402 186.178 447.518 186.212 447.643C186.278 447.804 186.293 447.981 186.256 448.151C186.218 448.32 186.13 448.475 186.003 448.593C185.776 448.745 185.506 448.818 185.233 448.802C183.975 448.648 182.753 448.275 181.622 447.7ZM182.42 447.557C183.703 448.099 185.271 448.584 185.708 448.242C185.708 448.242 185.851 448.128 185.765 447.785C185.749 447.72 185.719 447.658 185.676 447.606C185.633 447.553 185.579 447.511 185.518 447.481C185.197 447.334 184.845 447.269 184.492 447.291C183.796 447.294 183.102 447.367 182.42 447.51V447.557ZM183.627 445.239C182.933 445.69 182.408 446.358 182.135 447.139C183.418 446.655 184.663 445.98 184.692 445.581C184.692 445.467 184.502 445.353 184.378 445.296C184.254 445.233 184.118 445.2 183.979 445.201C183.864 445.171 183.744 445.168 183.627 445.191V445.239Z" fill="#D75337"/>
<path opacity="0.2" d="M179.351 438.635L172.253 438.321L171.293 430.026L178.923 428.743L179.351 438.635Z" fill="black"/>
<path d="M195.781 292.46C195.781 292.46 210.985 337.349 213.959 357.076C216.933 376.803 153.296 429.569 153.296 429.569L146.397 422.224C146.397 422.224 192.797 370.626 192.797 361.751C192.797 352.876 177.014 312.339 177.014 312.339C177.014 312.339 175.151 295.995 195.781 292.46Z" fill="#263238"/>
<path opacity="0.2" d="M195.781 292.46C195.781 292.46 210.985 337.349 213.959 357.076C216.933 376.803 153.296 429.569 153.296 429.569L146.397 422.224C146.397 422.224 192.797 370.626 192.797 361.751C192.797 352.876 177.014 312.339 177.014 312.339C177.014 312.339 175.151 295.995 195.781 292.46Z" fill="white"/>
<mask id="mask0_759_13148" style="mask-type:luminance" maskUnits="userSpaceOnUse" x="146" y="292" width="69" height="138">
<path d="M195.781 292.462C195.781 292.462 210.985 337.351 213.959 357.078C216.933 376.805 153.296 429.571 153.296 429.571L146.397 422.226C146.397 422.226 192.797 370.628 192.797 361.753C192.797 352.878 177.014 312.341 177.014 312.341C177.014 312.341 175.151 295.997 195.781 292.462Z" fill="white"/>
</mask>
<g mask="url(#mask0_759_13148)">
<path opacity="0.2" d="M182.848 378.133L182.031 405.006C175.132 411.344 171.075 414.917 165.877 419.259C165.06 415.724 163.026 408.341 163.463 401.965C170.305 394.591 176.301 386.001 182.848 378.133Z" fill="black"/>
</g>
<path opacity="0.2" d="M185.043 333.985C181.109 323.219 177.336 313.898 177.336 313.898C177.324 312.027 177.626 310.167 178.23 308.396C178.763 308.076 179.334 307.823 179.93 307.645C179.93 307.645 185.48 316.796 185.043 333.985Z" fill="black"/>
<path d="M179.96 305.888L181.195 369.106V433.798H170.248C144.592 311.218 162.171 280.488 162.171 280.488H162.228C162.228 280.44 162.228 280.383 162.285 280.345C166.419 271.157 193.51 277.932 193.51 277.932C195.41 285.534 196.703 300.994 196.703 300.994L179.96 305.888Z" fill="#263238"/>
<path opacity="0.2" d="M179.96 305.888L181.195 369.106V433.798H170.248C144.592 311.218 162.171 280.488 162.171 280.488H162.228C162.228 280.44 162.228 280.383 162.285 280.345C166.419 271.157 193.51 277.932 193.51 277.932C195.41 285.534 196.703 300.994 196.703 300.994L179.96 305.888Z" fill="white"/>
<path d="M168.87 432.24L182.325 430.273L181.195 435.651L170.096 437.143L168.87 432.24Z" fill="#D75337"/>
<path d="M146.378 419.753L155.406 429.56L150.892 432.144L143.927 424.761L146.378 419.753Z" fill="#D75337"/>
<path d="M197.33 289.01C192.22 291.142 186.902 292.734 181.461 293.761C164.452 297.097 156.271 295.662 156.271 295.662C158.665 289.96 159.815 281.865 159.777 272.856C159.74 268.182 159.422 263.515 158.827 258.878C158.827 258.679 158.827 258.479 158.751 258.28C158.304 254.859 157.715 251.41 156.993 247.998C156.48 245.572 155.891 243.181 155.225 240.824C154.76 239.142 154.275 237.498 153.724 235.873C153.125 234.049 152.47 232.129 151.767 230.087C156.022 228.729 160.369 227.681 164.775 226.951C169.428 226.122 174.134 225.624 178.858 225.459C184.968 225.411 191.971 226.105 191.971 226.105C191.971 226.105 192.969 226.343 193.596 232.757C193.776 234.657 193.434 239.408 193.064 245.509C192.256 258.603 193.292 277.883 197.33 289.01Z" fill="#D75337"/>
<path opacity="0.3" d="M169.602 247.676C170.884 245.519 171.996 243.419 172.899 241.576H171.283C170.694 242.782 170.01 244.113 169.25 245.5C169.374 246.184 169.497 246.916 169.602 247.676Z" fill="white"/>
<path opacity="0.3" d="M175.323 241.5L173.964 241.566C172.871 243.818 171.465 246.488 169.802 249.168C169.859 249.71 169.906 250.27 169.944 250.821C171.945 247.839 173.742 244.724 175.323 241.5Z" fill="white"/>
<path opacity="0.3" d="M188.939 269.417C188.863 268.78 188.787 268.086 188.711 267.345C187.675 269.16 186.507 271.051 185.233 272.885L186.906 272.514C187.618 271.488 188.303 270.452 188.939 269.417Z" fill="white"/>
<path opacity="0.3" d="M188.53 265.721C188.454 265.037 188.388 264.343 188.312 263.659C186.629 267.038 184.701 270.29 182.544 273.389L183.874 273.151C185.577 270.772 187.132 268.29 188.53 265.721Z" fill="white"/>
<path opacity="0.3" d="M181.213 273.618C183.865 269.912 186.183 265.979 188.141 261.864C188.046 260.799 187.96 259.792 187.903 258.908C185.603 264.178 182.766 269.196 179.437 273.884L181.213 273.618Z" fill="white"/>
<path opacity="0.3" d="M170.049 254.252C173.14 250.201 175.805 245.842 178.002 241.244L176.425 241.405C174.59 245.233 172.455 248.909 170.039 252.399C170.049 253.017 170.058 253.635 170.049 254.252Z" fill="white"/>
<path opacity="0.3" d="M188.303 272.164L189.253 271.898C189.253 271.632 189.177 271.29 189.139 270.948C188.854 271.337 188.578 271.746 188.303 272.164Z" fill="white"/>
<path opacity="0.3" d="M178.106 274.083C182.027 268.699 185.287 262.864 187.818 256.703V256.352C187.818 256.228 188.293 244.711 187.01 239.248C184.452 240.156 181.805 240.793 179.113 241.148C176.656 246.416 173.581 251.373 169.953 255.915C169.869 257.004 169.695 258.085 169.431 259.145C169.972 264.436 170.203 269.754 170.124 275.071C171.692 274.872 174.742 274.549 178.106 274.083Z" fill="white"/>
<path opacity="0.3" d="M170.238 241.557C169.611 241.557 168.984 241.5 168.338 241.462C168.509 242.128 168.718 243.011 168.937 244.038C169.45 243.182 169.849 242.346 170.238 241.557Z" fill="white"/>
<path d="M176.491 224.663C176.123 223.496 175.962 222.274 176.016 221.052C176.047 219.74 176.171 218.431 176.387 217.137L167.075 215.398C167.075 215.398 169.859 220.89 168.025 225.413C163.719 226.171 159.553 227.581 155.672 229.594C161.327 233.439 168.073 235.352 174.905 235.049C186.212 234.479 190.251 226.687 190.251 226.687C185.796 225.307 181.155 224.624 176.491 224.663Z" fill="#EEC1BB"/>
<path opacity="0.2" d="M176.386 217.137C176.17 218.431 176.046 219.74 176.016 221.052C171.531 220.016 167.074 215.398 167.074 215.398L176.386 217.137Z" fill="black"/>
<path opacity="0.1" d="M176.491 224.663C176.123 223.496 175.962 222.274 176.016 221.052C176.047 219.74 176.171 218.431 176.387 217.137L167.075 215.398C167.075 215.398 169.859 220.89 168.025 225.413C163.719 226.171 159.553 227.581 155.672 229.594C161.327 233.439 168.073 235.352 174.905 235.049C186.212 234.479 190.251 226.687 190.251 226.687C185.796 225.307 181.155 224.624 176.491 224.663Z" fill="black"/>
<path d="M175.94 219.16C175.039 219.166 174.139 219.093 173.251 218.941C171.666 218.671 170.159 218.061 168.832 217.154C167.506 216.247 166.391 215.064 165.563 213.686C160.641 205.971 162.713 192.686 172.158 192.173C179.817 191.755 182.506 195.718 183.504 203.576C184.653 212.404 183.266 219.055 175.94 219.16Z" fill="#EEC1BB"/>
<path d="M178.524 203.416C179.2 204.525 180.007 205.549 180.928 206.466C180.719 206.791 180.423 207.052 180.074 207.219C179.725 207.387 179.337 207.455 178.952 207.416L178.524 203.416Z" fill="#D4827D"/>
<path d="M173.802 203.045C173.802 203.672 173.555 204.214 173.137 204.242C172.719 204.271 172.339 203.796 172.282 203.169C172.225 202.542 172.539 202 172.957 201.971C173.375 201.943 173.755 202.418 173.802 203.045Z" fill="#263238"/>
<path d="M172.785 202.008L174.106 201.372C174.106 201.372 173.517 202.54 172.785 202.008Z" fill="#263238"/>
<path d="M181.603 202.305C181.651 202.932 181.356 203.473 180.938 203.502C180.52 203.531 180.14 203.055 180.083 202.419C180.026 201.782 180.339 201.259 180.758 201.231C181.176 201.202 181.556 201.678 181.603 202.305Z" fill="#263238"/>
<path d="M180.587 201.267L181.908 200.621C181.908 200.621 181.319 201.827 180.587 201.267Z" fill="#263238"/>
<path d="M173.441 197.791C172.831 197.75 172.22 197.849 171.655 198.081C171.09 198.314 170.586 198.673 170.182 199.131" stroke="#263238" stroke-width="0.566379" stroke-linecap="round" stroke-linejoin="round"/>
<path d="M178.952 197.135C179.466 196.972 180.011 196.929 180.544 197.008C181.078 197.087 181.586 197.286 182.031 197.591" stroke="#263238" stroke-width="0.566379" stroke-linecap="round" stroke-linejoin="round"/>
<path d="M178.002 210.523C177.689 211.406 177.441 212.311 177.261 213.231H176.757C174.524 213.126 173.517 212.338 173.08 211.492C172.874 211.076 172.773 210.616 172.785 210.152C172.783 209.892 172.815 209.634 172.88 209.382C174.239 210.057 175.726 210.436 177.242 210.494L178.002 210.523Z" fill="#263238"/>
<path d="M177.242 210.475L177.004 211.263C174.885 211.159 173.412 210.807 172.785 210.132C172.783 209.873 172.815 209.614 172.88 209.363C174.239 210.037 175.726 210.416 177.242 210.475Z" fill="white"/>
<path d="M176.757 213.212C174.524 213.108 173.517 212.319 173.08 211.473C173.93 211.53 174.763 211.736 175.541 212.081C176.054 212.323 176.479 212.718 176.757 213.212Z" fill="#DE5753"/>
<path d="M164.489 205.534C164.489 205.534 167.73 199.044 166.922 194.217C166.922 194.217 181.755 187.185 183.351 202.551C183.351 202.551 184.083 188.782 170.903 189.247C157.724 189.713 158.835 208.927 165.943 214.295C165.943 214.248 162.494 209.592 164.489 205.534Z" fill="#263238"/>
<path d="M165.829 207.083C165.702 206.201 165.231 205.406 164.518 204.872C163.806 204.337 162.91 204.107 162.029 204.232C159.672 204.622 158.807 209.563 164.775 210.408C165.649 210.503 166.086 209.648 165.829 207.083Z" fill="#EEC1BB"/>
<path opacity="0.1" d="M175.94 219.16C175.039 219.166 174.139 219.093 173.251 218.942C171.667 218.671 170.159 218.062 168.833 217.155C167.506 216.248 166.391 215.065 165.563 213.687C166.61 212.308 168.062 211.291 169.716 210.779C170.866 210.646 173.964 216.328 175.94 219.16Z" fill="black"/>
<path d="M188.397 209.363C188.397 209.363 184.473 218.694 185.166 220.196C185.86 221.697 189.233 230.164 189.233 230.164L193.528 227.902L190.174 221.051C190.174 221.051 194.06 214.865 193.528 214.247C192.996 213.63 189.86 208.708 188.397 209.363Z" fill="#EEC1BB"/>
<path d="M187.172 228.283L193.586 224.482C193.586 224.482 213.759 248.798 212.496 255.754C211.83 259.384 205.844 261.607 201.093 257.065C196.693 252.903 193.728 242.85 187.172 228.283Z" fill="#D75337"/>
<path opacity="0.1" d="M187.172 228.283L193.586 224.482C193.586 224.482 213.759 248.798 212.496 255.754C211.83 259.384 205.844 261.607 201.093 257.065C196.693 252.903 193.728 242.85 187.172 228.283Z" fill="black"/>
<path d="M164.974 214.249C164.974 214.249 168.718 211.227 169.858 211.293C170.999 211.36 174.609 221.413 175.398 222.268C176.187 223.124 173.612 231.239 173.612 231.239L168.376 231.305L170.276 224.521C170.276 224.521 163.207 215.569 164.974 214.249Z" fill="#EEC1BB"/>
<path opacity="0.2" d="M159.776 272.858C159.739 268.184 159.422 263.517 158.826 258.88C161.299 255.822 164.596 253.537 168.328 252.295C168.328 252.295 168.576 267.936 159.776 272.858Z" fill="black"/>
<path d="M168.376 228.719L175.028 230.164C175.028 230.164 168.557 258.918 164.081 262.928C159.606 266.937 155.159 266.453 151.814 261.027C148.469 255.601 147.31 231.313 151.814 230.002C153.547 232.753 155.044 235.646 156.289 238.649C157.495 241.34 158.512 244.112 159.33 246.945L168.376 228.719Z" fill="#D75337"/>
<path opacity="0.1" d="M175.009 230.154C175.009 230.154 168.538 258.918 164.063 262.928C159.587 266.938 155.14 266.453 151.795 261.027C148.45 255.601 147.291 231.314 151.795 230.002C153.528 232.753 155.025 235.646 156.271 238.649C157.221 240.759 157.829 242.45 158.295 243.79C159.045 245.871 159.311 246.945 159.311 246.945L168.377 228.691L175.009 230.154Z" fill="black"/>
<path opacity="0.2" d="M159.311 246.974C159.311 246.974 155.947 251.526 154.959 254.405C154.959 254.405 153.904 247.849 158.294 243.82C159.045 245.901 159.311 246.974 159.311 246.974Z" fill="black"/>
</svg>
