<svg width="457" height="419" viewBox="0 0 457 419" fill="none" xmlns="http://www.w3.org/2000/svg">
<path d="M445.913 385.967H408.753V386.248H445.913V385.967Z" fill="#EBEBEB"/>
<path d="M312.76 389.017H303.01V389.298H312.76V389.017Z" fill="#EBEBEB"/>
<path d="M407.636 375.554H386.105V375.835H407.636V375.554Z" fill="#EBEBEB"/>
<path d="M48.4578 377.44H0V377.72H48.4578V377.44Z" fill="#EBEBEB"/>
<path d="M65.5552 377.44H58.4531V377.72H65.5552V377.44Z" fill="#EBEBEB"/>
<path d="M193.752 382.174H88.6465V382.455H193.752V382.174Z" fill="#EBEBEB"/>
<path d="M449.742 317.875H233.09C231.392 317.872 229.764 317.196 228.563 315.995C227.362 314.795 226.687 313.167 226.684 311.469V6.93286C226.701 5.24442 227.384 3.63099 228.583 2.44229C229.782 1.25358 231.401 0.585379 233.09 0.58252H449.742C451.428 0.588359 453.043 1.25822 454.238 2.44692C455.433 3.63563 456.111 5.24738 456.126 6.93286V311.469C456.126 313.164 455.454 314.79 454.258 315.991C453.061 317.191 451.437 317.869 449.742 317.875ZM233.09 0.806914C231.466 0.80988 229.91 1.45624 228.762 2.60444C227.613 3.75263 226.967 5.30907 226.964 6.93286V311.469C226.967 313.092 227.613 314.649 228.762 315.797C229.91 316.945 231.466 317.592 233.09 317.595H449.742C451.366 317.592 452.922 316.945 454.07 315.797C455.219 314.649 455.865 313.092 455.868 311.469V6.93286C455.865 5.30907 455.219 3.75263 454.07 2.60444C452.922 1.45624 451.366 0.80988 449.742 0.806914H233.09Z" fill="#EBEBEB"/>
<path d="M128.305 45.3149H51.4277V261.182H128.305V45.3149Z" fill="#FAFAFA"/>
<path d="M116.865 45.3149H112.366L85.5625 261.182H90.0504L116.865 45.3149Z" fill="#F5F5F5"/>
<path d="M126.951 46.3132H50.9492V48.6133H126.951V46.3132Z" fill="#E0E0E0"/>
<path d="M126.951 258.892H50.9492V263.806H126.951V258.892Z" fill="#EBEBEB"/>
<path d="M125.682 263.593H53.8652V263.806H125.682V263.593Z" fill="#EBEBEB"/>
<path d="M53.8675 46.3245H125.685V263.594H129.982V43.0933H49.5703V263.594H53.8675V46.3245Z" fill="#EBEBEB"/>
<path d="M213.858 45.3149H136.98V261.182H213.858V45.3149Z" fill="#FAFAFA"/>
<path d="M192.53 45.3149H168.015L141.211 261.182H165.715L192.53 45.3149Z" fill="#F5F5F5"/>
<path d="M214.645 46.3132H136.488V48.6133H214.645V46.3132Z" fill="#E0E0E0"/>
<path d="M214.645 258.892H136.488V263.806H214.645V258.892Z" fill="#EBEBEB"/>
<path d="M211.221 263.593H139.404V263.806H211.221V263.593Z" fill="#EBEBEB"/>
<path d="M139.407 46.3245H211.224V263.594H215.532V43.0933H135.109V263.594H139.407V46.3245Z" fill="#EBEBEB"/>
<path d="M297.231 45.3149H222.52V261.182H297.231V45.3149Z" fill="#FAFAFA"/>
<path d="M264.854 45.3149H260.355L233.551 261.182H238.039L264.854 45.3149Z" fill="#F5F5F5"/>
<path d="M298.029 46.3132H222.027V48.6133H298.029V46.3132Z" fill="#E0E0E0"/>
<path d="M298.029 258.892H222.027V263.806H298.029V258.892Z" fill="#EBEBEB"/>
<path d="M296.761 263.593H224.943V263.806H296.761V263.593Z" fill="#EBEBEB"/>
<path d="M224.946 46.3245H296.763V263.594H301.071V43.0933H220.648V263.594H224.946V46.3245Z" fill="#EBEBEB"/>
<path d="M384.936 45.3149H308.059V261.182H384.936V45.3149Z" fill="#FAFAFA"/>
<path d="M377.409 45.3149H352.905L326.09 261.182H350.594L377.409 45.3149Z" fill="#F5F5F5"/>
<path d="M383.569 46.3132H307.566V48.6133H383.569V46.3132Z" fill="#E0E0E0"/>
<path d="M383.569 258.892H307.566V263.806H383.569V258.892Z" fill="#EBEBEB"/>
<path d="M310.492 46.3245H382.309V263.594H386.606V43.0933H306.184V263.594H310.492V46.3245Z" fill="#EBEBEB"/>
<path d="M382.311 263.593H310.494V263.806H382.311V263.593Z" fill="#EBEBEB"/>
<path d="M109.922 201.201H76.543V258.903H109.922V201.201Z" fill="#EBEBEB"/>
<path d="M103.511 193.134V207.608H100.875H85.5824H82.957V193.134H103.511Z" fill="#EBEBEB"/>
<path d="M103.501 207.607H107.775V203.332H103.501V207.607Z" fill="#FAFAFA"/>
<path d="M95.2312 207.607H99.5059V203.332H95.2312V207.607Z" fill="#FAFAFA"/>
<path d="M86.9616 207.607H91.2363V203.332H86.9616V207.607Z" fill="#FAFAFA"/>
<path d="M78.6706 207.607H82.9453V203.332H78.6706V207.607Z" fill="#F0F0F0"/>
<path d="M103.501 215.372H107.775V211.097H103.501V215.372Z" fill="#F0F0F0"/>
<path d="M95.2312 215.372H99.5059V211.097H95.2312V215.372Z" fill="#F0F0F0"/>
<path d="M86.9616 215.372H91.2363V211.097H86.9616V215.372Z" fill="#FAFAFA"/>
<path d="M78.6706 215.372H82.9453V211.097H78.6706V215.372Z" fill="#FAFAFA"/>
<path d="M103.501 223.125H107.775V218.851H103.501V223.125Z" fill="#F0F0F0"/>
<path d="M95.2312 223.125H99.5059V218.851H95.2312V223.125Z" fill="#FAFAFA"/>
<path d="M86.9616 223.125H91.2363V218.851H86.9616V223.125Z" fill="#FAFAFA"/>
<path d="M95.2312 200.899H99.5059V196.624H95.2312V200.899Z" fill="#FAFAFA"/>
<path d="M86.9616 200.899H91.2363V196.624H86.9616V200.899Z" fill="#F0F0F0"/>
<path d="M78.6706 223.125H82.9453V218.851H78.6706V223.125Z" fill="#F0F0F0"/>
<path d="M103.501 230.889H107.775V226.614H103.501V230.889Z" fill="#FAFAFA"/>
<path d="M95.2312 230.889H99.5059V226.614H95.2312V230.889Z" fill="#F0F0F0"/>
<path d="M86.9616 230.889H91.2363V226.614H86.9616V230.889Z" fill="#F0F0F0"/>
<path d="M78.6706 230.889H82.9453V226.614H78.6706V230.889Z" fill="#FAFAFA"/>
<path d="M103.501 238.654H107.775V234.379H103.501V238.654Z" fill="#F0F0F0"/>
<path d="M95.2312 238.654H99.5059V234.379H95.2312V238.654Z" fill="#FAFAFA"/>
<path d="M86.9616 238.654H91.2363V234.379H86.9616V238.654Z" fill="#FAFAFA"/>
<path d="M78.6706 238.654H82.9453V234.379H78.6706V238.654Z" fill="#F0F0F0"/>
<path d="M103.501 246.416H107.775V242.142H103.501V246.416Z" fill="#F0F0F0"/>
<path d="M95.2312 246.416H99.5059V242.142H95.2312V246.416Z" fill="#FAFAFA"/>
<path d="M86.9616 246.416H91.2363V242.142H86.9616V246.416Z" fill="#F0F0F0"/>
<path d="M78.6706 246.416H82.9453V242.142H78.6706V246.416Z" fill="#FAFAFA"/>
<path d="M103.501 254.182H107.775V249.907H103.501V254.182Z" fill="#FAFAFA"/>
<path d="M95.2312 254.182H99.5059V249.907H95.2312V254.182Z" fill="#FAFAFA"/>
<path d="M86.9616 254.182H91.2363V249.907H86.9616V254.182Z" fill="#F0F0F0"/>
<path d="M78.6706 254.182H82.9453V249.907H78.6706V254.182Z" fill="#F0F0F0"/>
<path d="M344.994 222.217H315.094V258.905H344.994V222.217Z" fill="#F0F0F0"/>
<path d="M317.695 226.288H324.652H326.57H328.477V230.113H326.57H324.652H317.695V226.288Z" fill="#E6E6E6"/>
<path d="M317.695 233.705H324.652H326.57H328.477V237.531H326.57H324.652H317.695V233.705Z" fill="#FAFAFA"/>
<path d="M317.695 241.109H324.652H326.57H328.477V244.946H326.57H324.652H317.695V241.109Z" fill="#E6E6E6"/>
<path d="M317.695 248.525H324.652H327.614H328.477V252.351H327.614H324.652H317.695V248.525Z" fill="#FAFAFA"/>
<path d="M331.609 226.288H338.566H340.473H342.392V230.113H340.473H338.566H331.609V226.288Z" fill="#FAFAFA"/>
<path d="M331.609 233.705H338.566H341.258H342.392V237.531H341.258H338.566H331.609V233.705Z" fill="#FAFAFA"/>
<path d="M331.609 241.109H338.566H340.473H342.392V244.946H340.473H338.566H331.609V241.109Z" fill="#E6E6E6"/>
<path d="M331.609 248.525H338.566H340.473H342.392V252.351H340.473H338.566H331.609V248.525Z" fill="#FAFAFA"/>
<path d="M200.932 236.107H173.77V258.905H200.932V236.107Z" fill="#F0F0F0"/>
<path d="M195.729 242.434H199.207V238.956H195.729V242.434Z" fill="#FAFAFA"/>
<path d="M188.983 242.434H192.461V238.956H188.983V242.434Z" fill="#FAFAFA"/>
<path d="M182.243 242.434H185.721V238.956H182.243V242.434Z" fill="#FAFAFA"/>
<path d="M175.51 242.434H178.988V238.956H175.51V242.434Z" fill="#FAFAFA"/>
<path d="M195.725 248.74H199.203V245.262H195.725V248.74Z" fill="#FAFAFA"/>
<path d="M188.983 248.74H192.461V245.262H188.983V248.74Z" fill="#FAFAFA"/>
<path d="M182.243 248.74H185.721V245.262H182.243V248.74Z" fill="#FAFAFA"/>
<path d="M175.51 248.74H178.988V245.262H175.51V248.74Z" fill="#E6E6E6"/>
<path d="M195.725 255.066H199.203V251.588H195.725V255.066Z" fill="#E6E6E6"/>
<path d="M188.983 255.066H192.461V251.588H188.983V255.066Z" fill="#E6E6E6"/>
<path d="M182.243 255.066H185.721V251.588H182.243V255.066Z" fill="#FAFAFA"/>
<path d="M175.51 255.066H178.988V251.588H175.51V255.066Z" fill="#E6E6E6"/>
<path d="M170.091 219.253H142.928V258.904H170.091V219.253Z" fill="#F0F0F0"/>
<path d="M168.349 220.992H158.139V230.787H168.349V220.992Z" fill="#FAFAFA"/>
<path d="M154.878 220.992H144.668V230.787H154.878V220.992Z" fill="#FAFAFA"/>
<path d="M168.351 233.627H158.141V243.422H168.351V233.627Z" fill="#FAFAFA"/>
<path d="M154.878 233.627H144.668V243.422H154.878V233.627Z" fill="#FAFAFA"/>
<path d="M168.352 246.27H158.143V256.065H168.352V246.27Z" fill="#FAFAFA"/>
<path d="M154.878 246.27H144.668V256.065H154.878V246.27Z" fill="#FAFAFA"/>
<path d="M306.22 360.645H282.221L294.854 257.738C295.166 255.595 296.225 253.631 297.845 252.194C299.465 250.757 301.541 249.939 303.706 249.884H408.554L393.172 360.679L306.22 360.645Z" fill="#F5F5F5"/>
<path d="M382.446 360.645H406.49L419.101 257.738C419.248 256.752 419.178 255.745 418.896 254.789C418.614 253.832 418.126 252.949 417.466 252.201C416.807 251.453 415.992 250.858 415.079 250.458C414.165 250.057 413.175 249.862 412.178 249.884H403.921C401.755 249.936 399.678 250.753 398.057 252.191C396.437 253.629 395.378 255.594 395.068 257.738L382.446 360.645Z" fill="#F0F0F0"/>
<path d="M373.591 360.519L377.944 310.749C378.04 309.669 378.502 308.655 379.252 307.873C380.003 307.092 380.998 306.59 382.073 306.452L383.868 306.227C385.308 306.041 386.641 305.369 387.647 304.323C388.652 303.276 389.271 301.917 389.399 300.471L390.196 291.395C390.272 290.516 390.165 289.63 389.881 288.795C389.597 287.959 389.143 287.192 388.547 286.541C387.951 285.89 387.226 285.37 386.419 285.014C385.612 284.658 384.739 284.474 383.857 284.472H424.023C424.902 284.48 425.77 284.669 426.572 285.028C427.374 285.387 428.093 285.907 428.684 286.558C429.275 287.208 429.725 287.973 430.006 288.805C430.287 289.638 430.393 290.519 430.318 291.395L429.521 300.471C429.392 301.917 428.774 303.276 427.768 304.323C426.762 305.369 425.429 306.041 423.99 306.227L422.195 306.452C421.12 306.59 420.125 307.092 419.374 307.873C418.623 308.655 418.162 309.669 418.066 310.749L413.713 360.519C413.561 362.271 412.757 363.902 411.461 365.091C410.165 366.279 408.47 366.938 406.711 366.937H366.59C368.348 366.938 370.043 366.279 371.34 365.091C372.636 363.902 373.439 362.271 373.591 360.519Z" fill="#E6E6E6"/>
<path d="M263.054 298.286C262.728 294.51 260.999 290.994 258.207 288.43C255.416 285.867 251.764 284.444 247.975 284.441H282.946C286.731 284.443 290.378 285.862 293.168 288.418C295.959 290.974 297.692 294.483 298.026 298.252L301.47 337.712H266.51L263.054 298.286Z" fill="#E6E6E6"/>
<path d="M232.45 284.441H247.978C251.763 284.443 255.41 285.862 258.2 288.418C260.991 290.974 262.724 294.483 263.058 298.252L266.513 337.746H349.808L353.253 298.286C353.578 294.512 355.306 290.997 358.095 288.434C360.884 285.871 364.533 284.447 368.321 284.441H383.86C384.742 284.442 385.615 284.627 386.422 284.983C387.229 285.339 387.954 285.859 388.55 286.51C389.146 287.161 389.6 287.928 389.884 288.764C390.168 289.599 390.275 290.484 390.199 291.363L389.402 300.44C389.274 301.886 388.655 303.245 387.65 304.291C386.644 305.338 385.311 306.01 383.871 306.196L382.076 306.42C381.001 306.559 380.006 307.061 379.255 307.842C378.505 308.624 378.043 309.638 377.947 310.717L373.594 360.488C373.442 362.24 372.639 363.871 371.343 365.059C370.046 366.248 368.351 366.907 366.593 366.906H249.684C247.925 366.907 246.23 366.248 244.934 365.059C243.638 363.871 242.834 362.24 242.683 360.488L238.329 310.717C238.236 309.637 237.775 308.622 237.024 307.84C236.272 307.058 235.276 306.557 234.201 306.42L232.417 306.196C230.975 306.012 229.639 305.341 228.631 304.295C227.623 303.248 227.003 301.888 226.874 300.44L226.122 291.397C226.041 290.516 226.145 289.628 226.426 288.79C226.707 287.951 227.159 287.18 227.754 286.525C228.35 285.871 229.075 285.348 229.883 284.989C230.692 284.63 231.566 284.443 232.45 284.441Z" fill="#F0F0F0"/>
<path d="M115.319 277.955H6.05078C6.05185 279.885 6.79794 281.741 8.13356 283.135C9.46918 284.529 11.2913 285.354 13.2202 285.438C24.9672 285.977 43.0308 287.828 48.7529 294.324C59.434 306.441 58.4018 348.986 45.6114 358.837C41.5947 361.923 29.9038 368.06 29.9038 368.06H91.4886C91.4886 368.06 80.5607 361.799 76.7572 358.837C64.0453 348.908 63.675 306.385 74.4011 294.324C79.9099 288.142 96.8404 286.145 108.195 285.517C110.124 285.405 111.936 284.559 113.261 283.153C114.586 281.747 115.322 279.887 115.319 277.955Z" fill="#F5F5F5"/>
<path d="M19.5898 285.843C30.6861 286.73 43.9926 288.929 48.761 294.325C50.3103 296.193 51.5319 298.31 52.3737 300.586H70.7291C71.5981 298.311 72.8378 296.195 74.398 294.325C79.1776 288.951 92.5963 286.741 103.479 285.843H19.5898Z" fill="#E6E6E6"/>
<path d="M68.7774 278.011L67.2852 261.024H88.8269L90.3192 278.011H68.7774Z" fill="#EBEBEB"/>
<path d="M68.7768 278.011L67.2845 261.024H66.1289L67.6099 278.011H68.7768Z" fill="#E0E0E0"/>
<path d="M70.8167 276.283L69.6387 262.763H86.7823L87.9604 276.283H70.8167Z" fill="#F0F0F0"/>
<path d="M72.1338 275.162L71.1465 263.875H85.474L86.4613 275.162H72.1338Z" fill="#FAFAFA"/>
<path d="M61.7878 277.955H40.1562L42.5573 250.523H64.1888L61.7878 277.955Z" fill="#E6E6E6"/>
<path d="M61.7891 277.955H62.8213L65.2223 250.523H64.1901L61.7891 277.955Z" fill="#E0E0E0"/>
<path d="M59.8238 275.161H42.6016L44.5201 253.316H61.7423L59.8238 275.161Z" fill="#F0F0F0"/>
<path d="M58.5667 273.366H44.1719L45.7763 255.112H60.1599L58.5667 273.366Z" fill="#FAFAFA"/>
<path d="M51.2981 263.324C51.7691 263.792 52.4064 264.055 53.0708 264.055C53.7352 264.055 54.3726 263.792 54.8435 263.324C55.3122 262.853 55.5753 262.215 55.5753 261.551C55.5753 260.886 55.3122 260.249 54.8435 259.778C54.3726 259.309 53.7352 259.046 53.0708 259.046C52.4064 259.046 51.7691 259.309 51.2981 259.778C50.8295 260.249 50.5664 260.886 50.5664 261.551C50.5664 262.215 50.8295 262.853 51.2981 263.324Z" fill="#EBEBEB"/>
<path d="M52.3608 266.387C52.1909 266.217 51.9889 266.081 51.7666 265.989C51.5442 265.897 51.3057 265.849 51.0649 265.849C50.8241 265.849 50.5857 265.897 50.3633 265.989C50.1409 266.081 49.939 266.217 49.7691 266.387C49.5084 266.645 49.331 266.974 49.2596 267.333C49.1883 267.692 49.2264 268.065 49.3691 268.402C49.5117 268.739 49.7522 269.026 50.0596 269.225C50.3669 269.424 50.7269 269.526 51.093 269.518C51.4543 269.514 51.8064 269.404 52.1051 269.201C52.4038 268.998 52.6355 268.71 52.7712 268.376C52.9068 268.041 52.9402 267.673 52.8672 267.319C52.7941 266.966 52.6179 266.641 52.3608 266.387Z" fill="#F0F0F0"/>
<path d="M221.632 418.582C341.775 418.582 439.171 412.895 439.171 405.881C439.171 398.866 341.775 393.18 221.632 393.18C101.489 393.18 4.09375 398.866 4.09375 405.881C4.09375 412.895 101.489 418.582 221.632 418.582Z" fill="#F5F5F5"/>
<path d="M396.906 329.109C397.108 330.557 393.181 331.51 389.973 332.049C390.242 334.674 391.992 337.333 394.404 339.824C397.445 338.108 401.787 335.841 402.584 336.391C403.38 336.941 399.016 339.88 396.233 341.563C398.218 343.297 400.321 344.891 402.527 346.332C403.896 345.064 405.489 343.942 406.443 344.548C407.397 345.154 407.161 347.151 406.679 348.901C409.977 350.831 412.457 352.009 412.457 352.009C413.432 348.937 414.182 345.798 414.701 342.618C414.533 342.281 414.375 341.956 414.218 341.597C413.68 340.363 414.218 339.847 415.082 339.667C415.328 337.431 415.347 335.175 415.138 332.935C411.391 332.15 406.847 330.691 408.552 328.447C409.573 327.101 411.458 326.944 413.422 327.325C413.15 326.879 412.838 326.459 412.491 326.069C405.68 318.563 400.923 326.069 400.923 326.069C396.962 322.77 391.398 323.657 390.197 328.818C392.396 328.201 396.66 327.325 396.906 329.109Z" fill="#D75337"/>
<path opacity="0.3" d="M396.906 329.109C397.108 330.557 393.181 331.51 389.973 332.049C390.242 334.674 391.992 337.333 394.404 339.824C397.445 338.108 401.787 335.841 402.584 336.391C403.38 336.941 399.016 339.88 396.233 341.563C398.218 343.297 400.321 344.891 402.527 346.332C403.896 345.064 405.489 343.942 406.443 344.548C407.397 345.154 407.161 347.151 406.679 348.901C409.977 350.831 412.457 352.009 412.457 352.009C413.432 348.937 414.182 345.798 414.701 342.618C414.533 342.281 414.375 341.956 414.218 341.597C413.68 340.363 414.218 339.847 415.082 339.667C415.328 337.431 415.347 335.175 415.138 332.935C411.391 332.15 406.847 330.691 408.552 328.447C409.573 327.101 411.458 326.944 413.422 327.325C413.15 326.879 412.838 326.459 412.491 326.069C405.68 318.563 400.923 326.069 400.923 326.069C396.962 322.77 391.398 323.657 390.197 328.818C392.396 328.201 396.66 327.325 396.906 329.109Z" fill="white"/>
<path d="M405.396 384.299L404.42 384.22C404.42 383.715 408.448 333.44 397.172 328.694C396.641 328.453 396.062 328.336 395.479 328.351C394.896 328.367 394.324 328.515 393.806 328.784C389.734 330.904 387.781 339.712 387.759 339.802L386.794 339.588C386.872 339.207 388.87 330.242 393.346 327.909C394.001 327.565 394.725 327.375 395.464 327.354C396.203 327.333 396.937 327.48 397.61 327.785C409.491 332.789 405.632 382.19 405.396 384.299Z" fill="#D75337"/>
<path d="M406.824 383.175C406.622 380.931 402.022 327.716 410.627 322.073C412.692 320.726 414.532 320.435 416.102 321.22C420.175 323.273 420.702 331.98 420.725 332.35H419.737C419.737 332.272 419.221 323.857 415.654 322.062C414.431 321.445 412.916 321.703 411.166 322.858C403.043 328.176 407.744 382.491 407.8 383.041L406.824 383.175Z" fill="#D75337"/>
<path d="M408.127 387.496C408.06 385.769 406.635 345.052 414.477 341.496C415.207 341.152 416.004 340.973 416.811 340.973C417.618 340.973 418.415 341.152 419.145 341.496C424.53 343.863 427.851 353.893 427.986 354.32L427.055 354.623C427.055 354.522 423.689 344.581 418.752 342.393C418.149 342.106 417.49 341.957 416.822 341.957C416.155 341.957 415.495 342.106 414.892 342.393C408.879 345.131 408.677 375.862 409.103 387.474L408.127 387.496Z" fill="#D75337"/>
<path d="M406.126 385.633L405.139 385.521C406.53 373.404 409.167 341.114 404.847 337.277C404.637 337.026 404.359 336.84 404.047 336.743C403.735 336.645 403.401 336.64 403.085 336.727C400.191 337.849 398.429 348.339 397.992 352.3L397.016 352.188C397.184 350.673 398.766 337.333 402.726 335.807C403.211 335.644 403.732 335.627 404.226 335.756C404.721 335.886 405.166 336.157 405.509 336.536C411.085 341.506 406.328 383.838 406.126 385.633Z" fill="#D75337"/>
<path d="M389.68 362.668H425.089L422.127 402.329H392.63L389.68 362.668Z" fill="#D75337"/>
<path opacity="0.2" d="M400.427 362.668L401.414 402.329H422.126L425.088 362.668H400.427Z" fill="white"/>
<path d="M394.502 348.103C394.132 349.068 391.383 348.316 389.218 347.542C388.548 349.598 388.572 351.817 389.285 353.858C391.753 353.858 395.198 353.937 395.512 354.554C395.826 355.171 392.146 355.474 389.823 355.564C390.452 357.312 391.201 359.014 392.067 360.657C393.346 360.343 394.715 360.197 395.085 360.893C395.456 361.589 394.648 362.744 393.739 363.664C395.119 365.987 396.241 367.558 396.241 367.558C397.888 365.993 399.421 364.313 400.83 362.531C400.83 362.262 400.83 362.004 400.83 361.735C400.92 360.792 401.425 360.613 402.03 360.837C402.955 359.539 403.741 358.148 404.375 356.686C402.345 354.913 400.033 352.456 401.851 351.659C402.973 351.177 404.162 351.727 405.217 352.613C405.203 352.235 405.155 351.86 405.071 351.491C403.444 344.524 397.935 347.53 397.935 347.53C396.634 344.165 392.898 342.773 390.384 345.545C392.045 345.982 394.951 346.913 394.502 348.103Z" fill="#D75337"/>
<path opacity="0.3" d="M394.502 348.103C394.132 349.068 391.383 348.316 389.218 347.542C388.548 349.598 388.572 351.817 389.285 353.858C391.753 353.858 395.198 353.937 395.512 354.554C395.826 355.171 392.146 355.474 389.823 355.564C390.452 357.312 391.201 359.014 392.067 360.657C393.346 360.343 394.715 360.197 395.085 360.893C395.456 361.589 394.648 362.744 393.739 363.664C395.119 365.987 396.241 367.558 396.241 367.558C397.888 365.993 399.421 364.313 400.83 362.531C400.83 362.262 400.83 362.004 400.83 361.735C400.92 360.792 401.425 360.613 402.03 360.837C402.955 359.539 403.741 358.148 404.375 356.686C402.345 354.913 400.033 352.456 401.851 351.659C402.973 351.177 404.162 351.727 405.217 352.613C405.203 352.235 405.155 351.86 405.071 351.491C403.444 344.524 397.935 347.53 397.935 347.53C396.634 344.165 392.898 342.773 390.384 345.545C392.045 345.982 394.951 346.913 394.502 348.103Z" fill="white"/>
<path d="M420.791 352.815C419.69 352.911 418.605 353.141 417.56 353.499C417.27 352.75 417.107 351.957 417.077 351.154C416.853 344.019 421.969 347.025 424.662 344.927C425.271 344.394 425.985 343.992 426.757 343.749C427.53 343.506 428.345 343.426 429.15 343.514C428.919 343.906 428.716 344.315 428.544 344.737C428.481 344.893 428.454 345.061 428.466 345.229C428.477 345.398 428.526 345.561 428.609 345.707C428.692 345.854 428.807 345.98 428.945 346.076C429.083 346.172 429.242 346.236 429.408 346.263C430.085 346.399 430.789 346.317 431.416 346.027C431.592 345.917 431.76 345.798 431.921 345.668C432.357 346.416 432.689 347.22 432.908 348.058C433.174 349.055 433.329 350.078 433.368 351.109C432.965 351.194 432.567 351.307 432.179 351.446C432.025 351.514 431.888 351.616 431.779 351.744C431.67 351.872 431.591 352.023 431.547 352.185C431.504 352.348 431.498 352.518 431.53 352.684C431.562 352.849 431.63 353.005 431.73 353.14C432.155 353.569 432.653 353.919 433.2 354.172C433.017 355.322 432.717 356.45 432.303 357.538L431.944 357.594C431.682 357.641 431.423 357.704 431.169 357.785C431.022 357.821 430.879 357.873 430.743 357.942C430.566 358.017 430.412 358.135 430.294 358.286C430.176 358.438 430.099 358.617 430.07 358.806C430.045 359 430.071 359.198 430.145 359.379C430.22 359.56 430.341 359.719 430.496 359.838C430.665 359.957 430.841 360.066 431.024 360.164C430.349 361.346 429.373 362.33 428.196 363.014C427.165 362.54 426.161 362.008 425.189 361.42C425.402 361.14 425.616 360.848 425.818 360.556C426.044 360.228 426.151 359.832 426.121 359.434C426.066 359.034 425.857 358.672 425.537 358.425C425.379 358.302 425.198 358.213 425.005 358.161C424.812 358.108 424.611 358.095 424.413 358.121C424.215 358.147 424.024 358.212 423.851 358.312C423.678 358.413 423.526 358.546 423.405 358.705C423.17 359.053 422.912 359.39 422.654 359.726C421.317 358.732 420.121 357.562 419.097 356.248H419.198C419.86 356.078 420.536 355.969 421.218 355.923C421.595 355.845 421.929 355.628 422.153 355.314C422.376 355 422.473 354.613 422.423 354.231C422.374 353.849 422.181 353.5 421.885 353.254C421.588 353.008 421.21 352.883 420.825 352.905L420.791 352.815Z" fill="#D75337"/>
<path opacity="0.5" d="M420.791 352.815C419.69 352.911 418.605 353.141 417.56 353.499C417.27 352.75 417.107 351.957 417.077 351.154C416.853 344.019 421.969 347.025 424.662 344.927C425.271 344.394 425.985 343.992 426.757 343.749C427.53 343.506 428.345 343.426 429.15 343.514C428.919 343.906 428.716 344.315 428.544 344.737C428.481 344.893 428.454 345.061 428.466 345.229C428.477 345.398 428.526 345.561 428.609 345.707C428.692 345.854 428.807 345.98 428.945 346.076C429.083 346.172 429.242 346.236 429.408 346.263C430.085 346.399 430.789 346.317 431.416 346.027C431.592 345.917 431.76 345.798 431.921 345.668C432.357 346.416 432.689 347.22 432.908 348.058C433.174 349.055 433.329 350.078 433.368 351.109C432.965 351.194 432.567 351.307 432.179 351.446C432.025 351.514 431.888 351.616 431.779 351.744C431.67 351.872 431.591 352.023 431.547 352.185C431.504 352.348 431.498 352.518 431.53 352.684C431.562 352.849 431.63 353.005 431.73 353.14C432.155 353.569 432.653 353.919 433.2 354.172C433.017 355.322 432.717 356.45 432.303 357.538L431.944 357.594C431.682 357.641 431.423 357.704 431.169 357.785C431.022 357.821 430.879 357.873 430.743 357.942C430.566 358.017 430.412 358.135 430.294 358.286C430.176 358.438 430.099 358.617 430.07 358.806C430.045 359 430.071 359.198 430.145 359.379C430.22 359.56 430.341 359.719 430.496 359.838C430.665 359.957 430.841 360.066 431.024 360.164C430.349 361.346 429.373 362.33 428.196 363.014C427.165 362.54 426.161 362.008 425.189 361.42C425.402 361.14 425.616 360.848 425.818 360.556C426.044 360.228 426.151 359.832 426.121 359.434C426.066 359.034 425.857 358.672 425.537 358.425C425.379 358.302 425.198 358.213 425.005 358.161C424.812 358.108 424.611 358.095 424.413 358.121C424.215 358.147 424.024 358.212 423.851 358.312C423.678 358.413 423.526 358.546 423.405 358.705C423.17 359.053 422.912 359.39 422.654 359.726C421.317 358.732 420.121 357.562 419.097 356.248H419.198C419.86 356.078 420.536 355.969 421.218 355.923C421.595 355.845 421.929 355.628 422.153 355.314C422.376 355 422.473 354.613 422.423 354.231C422.374 353.849 422.181 353.5 421.885 353.254C421.588 353.008 421.21 352.883 420.825 352.905L420.791 352.815Z" fill="white"/>
<path d="M422.834 328.199C423.455 327.765 424.125 327.407 424.831 327.133C424.657 326.614 424.395 326.128 424.057 325.697C421.039 321.848 419.681 325.697 417.325 325.753C416.768 325.739 416.213 325.842 415.698 326.055C415.182 326.267 414.716 326.585 414.33 326.987C414.622 327.096 414.907 327.223 415.182 327.369C415.283 327.423 415.371 327.5 415.438 327.592C415.506 327.685 415.553 327.792 415.574 327.904C415.595 328.017 415.592 328.133 415.563 328.244C415.534 328.355 415.48 328.459 415.407 328.547C415.124 328.912 414.73 329.175 414.285 329.298C414.143 329.31 414 329.31 413.858 329.298C413.965 329.88 414.146 330.446 414.397 330.981C414.699 331.625 415.075 332.232 415.519 332.788C415.771 332.658 416.029 332.542 416.293 332.44C416.404 332.405 416.521 332.397 416.636 332.415C416.751 332.433 416.859 332.478 416.954 332.545C417.049 332.612 417.126 332.701 417.181 332.803C417.236 332.906 417.266 333.019 417.269 333.135C417.235 333.547 417.129 333.95 416.955 334.325C417.552 334.848 418.203 335.307 418.896 335.694L419.109 335.559C419.265 335.471 419.427 335.393 419.592 335.323L419.883 335.211C420.011 335.175 420.146 335.172 420.275 335.201C420.404 335.231 420.524 335.292 420.624 335.379C420.722 335.471 420.794 335.586 420.834 335.714C420.873 335.842 420.878 335.978 420.848 336.109C420.814 336.247 420.769 336.382 420.714 336.513C421.59 336.828 422.532 336.916 423.451 336.771C423.787 336.07 424.083 335.351 424.338 334.616L423.631 334.426C423.367 334.36 423.135 334.201 422.98 333.977C422.904 333.863 422.852 333.734 422.827 333.599C422.802 333.464 422.804 333.326 422.834 333.192C422.896 332.923 423.062 332.689 423.294 332.541C423.409 332.467 423.538 332.417 423.673 332.394C423.808 332.371 423.946 332.375 424.08 332.406L424.921 332.608C425.199 331.482 425.32 330.323 425.28 329.164H425.213C424.791 329.362 424.39 329.598 424.012 329.871C423.781 329.992 423.513 330.022 423.26 329.955C423.008 329.888 422.79 329.729 422.649 329.51C422.508 329.29 422.455 329.025 422.499 328.768C422.544 328.511 422.684 328.28 422.89 328.12L422.834 328.199Z" fill="#D75337"/>
<path opacity="0.3" d="M422.834 328.199C423.455 327.765 424.125 327.407 424.831 327.133C424.657 326.614 424.395 326.128 424.057 325.697C421.039 321.848 419.681 325.697 417.325 325.753C416.768 325.739 416.213 325.842 415.698 326.055C415.182 326.267 414.716 326.585 414.33 326.987C414.622 327.096 414.907 327.223 415.182 327.369C415.283 327.423 415.371 327.5 415.438 327.592C415.506 327.685 415.553 327.792 415.574 327.904C415.595 328.017 415.592 328.133 415.563 328.244C415.534 328.355 415.48 328.459 415.407 328.547C415.124 328.912 414.73 329.175 414.285 329.298C414.143 329.31 414 329.31 413.858 329.298C413.965 329.88 414.146 330.446 414.397 330.981C414.699 331.625 415.075 332.232 415.519 332.788C415.771 332.658 416.029 332.542 416.293 332.44C416.404 332.405 416.521 332.397 416.636 332.415C416.751 332.433 416.859 332.478 416.954 332.545C417.049 332.612 417.126 332.701 417.181 332.803C417.236 332.906 417.266 333.019 417.269 333.135C417.235 333.547 417.129 333.95 416.955 334.325C417.552 334.848 418.203 335.307 418.896 335.694L419.109 335.559C419.265 335.471 419.427 335.393 419.592 335.323L419.883 335.211C420.011 335.175 420.146 335.172 420.275 335.201C420.404 335.231 420.524 335.292 420.624 335.379C420.722 335.471 420.794 335.586 420.834 335.714C420.873 335.842 420.878 335.978 420.848 336.109C420.814 336.247 420.769 336.382 420.714 336.513C421.59 336.828 422.532 336.916 423.451 336.771C423.787 336.07 424.083 335.351 424.338 334.616L423.631 334.426C423.367 334.36 423.135 334.201 422.98 333.977C422.904 333.863 422.852 333.734 422.827 333.599C422.802 333.464 422.804 333.326 422.834 333.192C422.896 332.923 423.062 332.689 423.294 332.541C423.409 332.467 423.538 332.417 423.673 332.394C423.808 332.371 423.946 332.375 424.08 332.406L424.921 332.608C425.199 331.482 425.32 330.323 425.28 329.164H425.213C424.791 329.362 424.39 329.598 424.012 329.871C423.781 329.992 423.513 330.022 423.26 329.955C423.008 329.888 422.79 329.729 422.649 329.51C422.508 329.29 422.455 329.025 422.499 328.768C422.544 328.511 422.684 328.28 422.89 328.12L422.834 328.199Z" fill="white"/>
<path d="M393.988 335.344C393.775 336.791 397.701 337.745 400.91 338.284C400.652 340.909 398.902 343.568 396.422 346.048C393.382 344.342 389.04 342.076 388.243 342.626C387.447 343.175 391.811 346.104 394.594 347.798C392.606 349.528 390.503 351.121 388.299 352.566C386.942 351.287 385.337 350.177 384.395 350.782C383.453 351.388 383.666 353.374 384.159 355.136C380.793 357.065 378.37 358.232 378.37 358.232C377.395 355.161 376.645 352.022 376.126 348.841C376.294 348.516 376.463 348.179 376.608 347.832C377.147 346.597 376.608 346.07 375.745 345.902C375.499 343.666 375.48 341.41 375.688 339.17C379.436 338.385 383.991 336.926 382.286 334.682C381.253 333.325 379.369 333.179 377.416 333.56C377.681 333.112 377.989 332.691 378.336 332.304C385.158 324.786 389.904 332.304 389.904 332.304C393.864 328.994 399.429 329.891 400.63 335.052C398.498 334.402 394.246 333.549 393.988 335.344Z" fill="#D75337"/>
<path opacity="0.5" d="M393.988 335.344C393.775 336.791 397.701 337.745 400.91 338.284C400.652 340.909 398.902 343.568 396.422 346.048C393.382 344.342 389.04 342.076 388.243 342.626C387.447 343.175 391.811 346.104 394.594 347.798C392.606 349.528 390.503 351.121 388.299 352.566C386.942 351.287 385.337 350.177 384.395 350.782C383.453 351.388 383.666 353.374 384.159 355.136C380.793 357.065 378.37 358.232 378.37 358.232C377.395 355.161 376.645 352.022 376.126 348.841C376.294 348.516 376.463 348.179 376.608 347.832C377.147 346.597 376.608 346.07 375.745 345.902C375.499 343.666 375.48 341.41 375.688 339.17C379.436 338.385 383.991 336.926 382.286 334.682C381.253 333.325 379.369 333.179 377.416 333.56C377.681 333.112 377.989 332.691 378.336 332.304C385.158 324.786 389.904 332.304 389.904 332.304C393.864 328.994 399.429 329.891 400.63 335.052C398.498 334.402 394.246 333.549 393.988 335.344Z" fill="white"/>
<path d="M45.609 381.288C45.609 381.288 40.3806 369.877 46.3495 358.624C52.3184 347.371 54.0574 344.723 50.2539 342.423C46.4505 340.123 44.6441 351.398 44.6441 351.398C42.7569 346.288 42.5641 340.706 44.0943 335.478C46.7422 327.343 48.4027 314.082 44.7787 312.657C41.1548 311.232 44.0943 329.195 40.9528 335.321C39.3466 331.024 38.313 326.535 37.8786 321.969C37.4411 315.428 38.1142 304.994 35.2644 302.312C32.4146 299.631 30.5634 301.482 33.3795 315.911C35.0657 324.535 36.0004 333.289 36.1732 342.075C36.1732 342.075 30.0024 323.17 25.8399 322.586C21.6774 322.003 21.6774 328.196 25.2453 333.469C28.8131 338.743 35.6908 348.313 36.8128 353.216C36.8128 353.216 30.0024 338.967 23.8765 343.343C17.7505 347.718 29.2058 356.301 34.322 359.409C39.4382 362.517 42.9724 382.051 42.9724 382.051L45.609 381.288Z" fill="#D75337"/>
<path opacity="0.2" d="M45.609 381.288C45.609 381.288 40.3806 369.877 46.3495 358.624C52.3184 347.371 54.0574 344.723 50.2539 342.423C46.4505 340.123 44.6441 351.398 44.6441 351.398C42.7569 346.288 42.5641 340.706 44.0943 335.478C46.7422 327.343 48.4027 314.082 44.7787 312.657C41.1548 311.232 44.0943 329.195 40.9528 335.321C39.3466 331.024 38.313 326.535 37.8786 321.969C37.4411 315.428 38.1142 304.994 35.2644 302.312C32.4146 299.631 30.5634 301.482 33.3795 315.911C35.0657 324.535 36.0004 333.289 36.1732 342.075C36.1732 342.075 30.0024 323.17 25.8399 322.586C21.6774 322.003 21.6774 328.196 25.2453 333.469C28.8131 338.743 35.6908 348.313 36.8128 353.216C36.8128 353.216 30.0024 338.967 23.8765 343.343C17.7505 347.718 29.2058 356.301 34.322 359.409C39.4382 362.517 42.9724 382.051 42.9724 382.051L45.609 381.288Z" fill="black"/>
<path d="M41.4775 385.968C41.4775 385.968 46.5712 374.479 40.4565 363.315C34.3417 352.151 32.6027 349.537 36.3613 347.17C40.1199 344.803 41.9711 356.09 41.9711 356.09C43.7979 350.96 43.9277 345.378 42.3414 340.169C39.5926 332.068 37.775 318.851 41.3765 317.359C44.978 315.867 42.2628 333.886 45.4829 339.956C47.0318 335.636 48.0087 331.132 48.3888 326.559C48.7478 320.018 47.9512 309.595 50.7786 306.869C53.6059 304.142 55.4572 305.971 52.8206 320.445C51.235 329.089 50.4054 337.855 50.341 346.643C50.341 346.643 56.3211 327.625 60.4387 327.008C64.5564 326.391 64.6685 332.517 61.1568 337.891C57.645 343.266 51.003 352.881 49.9708 357.806C49.9708 357.806 56.6128 343.456 62.7949 347.709C68.9769 351.961 57.6226 360.757 52.5513 363.943C47.48 367.13 44.159 386.663 44.159 386.663L41.4775 385.968Z" fill="#D75337"/>
<path d="M58.6016 380.582H28.2188L30.6871 402.325H56.1445L58.6016 380.582Z" fill="#263238"/>
<path d="M292.086 119.512C292.086 119.512 294.005 130.025 307.906 134.771C307.906 134.771 299.996 127.141 299.996 119.512H292.086Z" fill="#D75337"/>
<path opacity="0.8" d="M292.086 119.512C292.086 119.512 294.005 130.025 307.906 134.771C307.906 134.771 299.996 127.141 299.996 119.512H292.086Z" fill="white"/>
<path d="M311.919 95.7932H280.83C279.101 95.7932 277.699 97.1947 277.699 98.9235V119.669C277.699 121.398 279.101 122.799 280.83 122.799H311.919C313.648 122.799 315.05 121.398 315.05 119.669V98.9235C315.05 97.1947 313.648 95.7932 311.919 95.7932Z" fill="#D75337"/>
<path opacity="0.8" d="M311.919 95.7932H280.83C279.101 95.7932 277.699 97.1947 277.699 98.9235V119.669C277.699 121.398 279.101 122.799 280.83 122.799H311.919C313.648 122.799 315.05 121.398 315.05 119.669V98.9235C315.05 97.1947 313.648 95.7932 311.919 95.7932Z" fill="white"/>
<path d="M288.837 109.291C288.837 109.701 288.715 110.103 288.487 110.444C288.259 110.785 287.935 111.051 287.556 111.208C287.176 111.365 286.759 111.407 286.356 111.326C285.954 111.246 285.584 111.049 285.293 110.758C285.003 110.468 284.806 110.098 284.725 109.696C284.645 109.293 284.686 108.876 284.844 108.496C285.001 108.117 285.267 107.793 285.608 107.565C285.949 107.337 286.351 107.215 286.761 107.215C287.034 107.215 287.304 107.269 287.556 107.373C287.807 107.477 288.036 107.63 288.229 107.823C288.422 108.016 288.575 108.245 288.679 108.496C288.783 108.748 288.837 109.018 288.837 109.291Z" fill="#D75337"/>
<path d="M296.369 111.366C297.515 111.366 298.444 110.437 298.444 109.291C298.444 108.144 297.515 107.215 296.369 107.215C295.222 107.215 294.293 108.144 294.293 109.291C294.293 110.437 295.222 111.366 296.369 111.366Z" fill="#D75337"/>
<path d="M305.972 111.366C307.118 111.366 308.048 110.437 308.048 109.291C308.048 108.144 307.118 107.215 305.972 107.215C304.826 107.215 303.896 108.144 303.896 109.291C303.896 110.437 304.826 111.366 305.972 111.366Z" fill="#D75337"/>
<path d="M249.336 147.818C249.336 147.818 247.429 158.342 233.527 163.088C233.527 163.088 241.381 155.447 241.381 147.818H249.336Z" fill="#D75337"/>
<path opacity="0.8" d="M249.336 147.818C249.336 147.818 247.429 158.342 233.527 163.088C233.527 163.088 241.381 155.447 241.381 147.818H249.336Z" fill="white"/>
<path d="M229.508 151.139H260.598C262.327 151.139 263.729 149.737 263.729 148.009V127.263C263.729 125.535 262.327 124.133 260.598 124.133H229.508C227.78 124.133 226.378 125.535 226.378 127.263V148.009C226.378 149.737 227.78 151.139 229.508 151.139Z" fill="#D75337"/>
<path opacity="0.8" d="M229.508 151.139H260.598C262.327 151.139 263.729 149.737 263.729 148.009V127.263C263.729 125.535 262.327 124.133 260.598 124.133H229.508C227.78 124.133 226.378 125.535 226.378 127.263V148.009C226.378 149.737 227.78 151.139 229.508 151.139Z" fill="white"/>
<path d="M252.59 137.63C252.588 138.041 252.708 138.443 252.934 138.786C253.161 139.129 253.484 139.397 253.863 139.555C254.242 139.714 254.66 139.757 255.064 139.678C255.467 139.599 255.838 139.403 256.129 139.113C256.421 138.823 256.619 138.453 256.7 138.05C256.781 137.647 256.741 137.229 256.584 136.849C256.427 136.469 256.161 136.145 255.82 135.916C255.478 135.687 255.077 135.565 254.666 135.565C254.117 135.565 253.591 135.783 253.202 136.169C252.813 136.556 252.593 137.081 252.59 137.63Z" fill="#D75337"/>
<path d="M242.951 137.63C242.949 138.041 243.069 138.444 243.296 138.787C243.524 139.13 243.848 139.398 244.227 139.557C244.607 139.715 245.025 139.757 245.429 139.677C245.833 139.598 246.204 139.4 246.495 139.109C246.785 138.818 246.983 138.447 247.063 138.043C247.143 137.64 247.101 137.221 246.942 136.842C246.784 136.462 246.516 136.138 246.173 135.911C245.83 135.683 245.427 135.563 245.016 135.565C244.468 135.565 243.943 135.783 243.556 136.17C243.169 136.557 242.951 137.082 242.951 137.63Z" fill="#D75337"/>
<path d="M233.371 137.63C233.369 138.041 233.489 138.443 233.715 138.786C233.942 139.129 234.266 139.397 234.645 139.555C235.024 139.714 235.441 139.757 235.845 139.678C236.248 139.599 236.619 139.403 236.91 139.113C237.202 138.823 237.401 138.453 237.482 138.05C237.563 137.647 237.522 137.229 237.365 136.849C237.209 136.469 236.943 136.145 236.601 135.916C236.26 135.687 235.858 135.565 235.447 135.565C234.898 135.565 234.372 135.783 233.983 136.169C233.594 136.556 233.374 137.081 233.371 137.63Z" fill="#D75337"/>
<path d="M170.289 113.182C170.289 113.182 168.382 123.695 154.48 128.441C154.48 128.441 162.334 120.812 162.334 113.182H170.289Z" fill="#D75337"/>
<path opacity="0.8" d="M170.289 113.182C170.289 113.182 168.382 123.695 154.48 128.441C154.48 128.441 162.334 120.812 162.334 113.182H170.289Z" fill="white"/>
<path d="M177.417 89.4868H155.64C153.911 89.4868 152.51 90.8883 152.51 92.6171V113.362C152.51 115.091 153.911 116.493 155.64 116.493H177.417C179.146 116.493 180.548 115.091 180.548 113.362V92.6171C180.548 90.8883 179.146 89.4868 177.417 89.4868Z" fill="#D75337"/>
<path opacity="0.8" d="M177.417 89.4868H155.64C153.911 89.4868 152.51 90.8883 152.51 92.6171V113.362C152.51 115.091 153.911 116.493 155.64 116.493H177.417C179.146 116.493 180.548 115.091 180.548 113.362V92.6171C180.548 90.8883 179.146 89.4868 177.417 89.4868Z" fill="white"/>
<path d="M167.88 117.472V117.058C167.888 115.637 168.014 114.504 168.257 113.659C168.509 112.815 168.874 112.133 169.354 111.613C169.833 111.094 170.409 110.623 171.083 110.2C171.586 109.876 172.037 109.539 172.435 109.19C172.833 108.84 173.15 108.455 173.385 108.033C173.62 107.602 173.738 107.123 173.738 106.595C173.738 106.035 173.604 105.544 173.336 105.122C173.068 104.699 172.707 104.375 172.252 104.147C171.806 103.92 171.31 103.806 170.766 103.806C170.239 103.806 169.739 103.924 169.268 104.159C168.797 104.387 168.412 104.728 168.111 105.183C167.811 105.629 167.648 106.185 167.624 106.851H162.655C162.695 105.227 163.085 103.887 163.824 102.832C164.563 101.768 165.541 100.976 166.759 100.457C167.977 99.9291 169.321 99.6652 170.791 99.6652C172.407 99.6652 173.836 99.9331 175.078 100.469C176.32 100.997 177.295 101.764 178.001 102.771C178.707 103.778 179.061 104.992 179.061 106.413C179.061 107.363 178.902 108.207 178.586 108.946C178.277 109.677 177.843 110.326 177.282 110.895C176.722 111.455 176.06 111.962 175.297 112.417C174.656 112.799 174.128 113.197 173.714 113.611C173.308 114.025 173.003 114.504 172.8 115.048C172.605 115.592 172.504 116.262 172.496 117.058V117.472H167.88ZM170.291 125.267C169.479 125.267 168.785 124.982 168.209 124.414C167.64 123.838 167.36 123.147 167.368 122.344C167.36 121.548 167.64 120.866 168.209 120.297C168.785 119.729 169.479 119.445 170.291 119.445C171.063 119.445 171.741 119.729 172.325 120.297C172.91 120.866 173.206 121.548 173.214 122.344C173.206 122.879 173.064 123.371 172.788 123.817C172.52 124.256 172.167 124.609 171.729 124.877C171.29 125.137 170.811 125.267 170.291 125.267Z" fill="#D75337"/>
<path d="M320.959 164.737C319.397 164.141 317.662 164.19 316.135 164.871C314.608 165.553 313.414 166.812 312.814 168.372V168.439C311.692 171.312 310.57 174.33 309.448 177.258C308.326 180.186 307.114 183.126 305.902 186.009C304.691 188.893 303.4 191.72 302.065 194.424C301.403 195.771 300.685 197.083 299.99 198.317C299.664 198.867 299.328 199.439 299.002 199.888C298.722 199.507 298.441 199.092 298.161 198.665C297.207 197.196 296.287 195.58 295.378 193.919C294.47 192.259 293.572 190.553 292.697 188.893L292.629 188.77C292.279 188.127 291.717 187.625 291.038 187.351C290.359 187.076 289.606 187.046 288.908 187.264C288.209 187.482 287.608 187.936 287.206 188.548C286.804 189.16 286.628 189.893 286.705 190.621C286.958 192.698 287.333 194.758 287.827 196.792C288.32 198.863 288.943 200.901 289.69 202.895C290.108 203.967 290.583 205.016 291.115 206.037C291.736 207.254 292.512 208.386 293.426 209.403C294.074 210.138 294.831 210.77 295.67 211.276C296.971 212.096 298.486 212.51 300.023 212.465C300.908 212.433 301.78 212.251 302.604 211.927C303.289 211.631 303.937 211.254 304.534 210.805C305.177 210.314 305.764 209.753 306.284 209.133C307.605 207.705 308.817 206.178 309.908 204.567L310.155 204.197C311.086 202.817 311.905 201.448 312.69 200.068C314.418 197.072 315.922 194.065 317.335 191.092C317.851 189.97 318.356 188.848 318.839 187.726C319.703 185.796 320.51 183.855 321.296 181.903C322.507 178.806 323.697 175.788 324.763 172.568C325.257 171.024 325.138 169.349 324.429 167.891C323.721 166.433 322.478 165.303 320.959 164.737Z" fill="#263238"/>
<path opacity="0.2" d="M318.759 187.772C318.277 188.894 317.772 190.016 317.256 191.138C315.842 194.168 314.338 197.174 312.611 200.114C311.825 201.494 311.006 202.863 310.075 204.243C308.426 195.076 314.17 184.137 314.17 184.137C315.741 184.429 317.312 185.775 318.759 187.772Z" fill="black"/>
<path d="M362.47 199.755C362.47 201.393 362.335 203.12 362.245 204.815C361.965 209.953 361.483 215.574 360.753 221.644C360.521 223.664 360.256 225.739 359.957 227.871L312.273 228.69C309.951 222.34 307.864 208.641 314.394 196.725C314.394 189.107 312.52 180.67 312.284 172.513C312.138 167.408 316.57 162.718 322.618 161.653C331.884 160.12 341.302 159.71 350.667 160.43C355.805 160.777 359.856 163.863 360.652 168.137C361.432 172.555 361.964 177.012 362.245 181.489C362.56 186.594 362.706 192.675 362.47 199.755Z" fill="#263238"/>
<path d="M327.5 160.048C326.382 160.565 325.498 161.482 325.023 162.618C324.547 163.754 324.514 165.027 324.931 166.185C325.382 167.865 326.251 169.403 327.458 170.654C328.665 171.906 330.169 172.832 331.831 173.344C333.75 173.748 345.126 167.734 346.551 162.404C347.976 157.075 327.5 160.048 327.5 160.048Z" fill="#D75337"/>
<path opacity="0.5" d="M327.5 160.048C326.382 160.565 325.498 161.482 325.023 162.618C324.547 163.754 324.514 165.027 324.931 166.185C325.382 167.865 326.251 169.403 327.458 170.654C328.665 171.906 330.169 172.832 331.831 173.344C333.75 173.748 345.126 167.734 346.551 162.404C347.976 157.075 327.5 160.048 327.5 160.048Z" fill="white"/>
<path opacity="0.2" d="M362.249 204.78C361.968 209.918 361.486 215.539 360.756 221.609C355.147 221.497 346.799 220.813 344.791 217.806C341.717 213.195 344.163 210.457 344.163 210.457C344.163 210.457 357.301 207.562 362.249 204.78Z" fill="black"/>
<path opacity="0.2" d="M362.471 199.753C356.435 193.672 354.887 175.07 354.887 175.07C354.887 175.07 358.376 177.785 362.224 181.499C362.561 186.592 362.707 192.674 362.471 199.753Z" fill="black"/>
<path d="M289.277 194.447L280.301 191.866L286.797 184.147C286.797 184.147 294.37 186.391 293.159 191.092L289.277 194.447Z" fill="#FF8B7B"/>
<path d="M277.404 186.19L279.648 182.633C279.833 182.33 280.077 182.067 280.366 181.861C280.655 181.655 280.983 181.509 281.33 181.432C281.677 181.356 282.036 181.35 282.385 181.416C282.734 181.482 283.066 181.617 283.361 181.814L286.851 184.148L280.354 191.867L277.875 189.466C277.432 189.057 277.144 188.508 277.058 187.911C276.972 187.315 277.094 186.707 277.404 186.19Z" fill="#FF8B7B"/>
<path d="M311.991 397.21L321.056 397.356C321.22 397.355 321.379 397.413 321.503 397.521C321.627 397.628 321.707 397.777 321.729 397.94L322.851 405.356C322.877 405.539 322.863 405.726 322.81 405.903C322.757 406.081 322.666 406.244 322.543 406.383C322.42 406.522 322.269 406.632 322.099 406.707C321.93 406.781 321.746 406.818 321.561 406.814C318.285 406.702 313.573 406.444 309.455 406.377C304.642 406.298 305.124 406.5 299.481 406.377C296.115 406.377 295.352 402.854 296.799 402.562C303.385 401.25 304.058 401.171 309.893 397.794C310.527 397.415 311.252 397.214 311.991 397.21Z" fill="#263238"/>
<path d="M325.636 310.247C335.734 267.792 345.405 249.369 341.579 228.343L312.262 228.691C312.262 228.691 300.706 286.439 303.163 311.335C305.721 337.23 309.457 397.491 309.457 397.491L322.842 397.682C322.842 397.682 330.64 339.205 325.636 310.247Z" fill="#D75337"/>
<path opacity="0.3" d="M325.636 310.247C335.734 267.792 345.405 249.369 341.579 228.343L312.262 228.691C312.262 228.691 300.706 286.439 303.163 311.335C305.721 337.23 309.457 397.491 309.457 397.491L322.842 397.682C322.842 397.682 330.64 339.205 325.636 310.247Z" fill="black"/>
<path opacity="0.2" d="M327.094 304.231C332.513 282.589 337.596 267.543 340.322 254.932C321.283 261.776 322.909 285.495 327.094 304.231Z" fill="black"/>
<path d="M357.689 397.208L366.755 397.354C366.914 397.356 367.068 397.417 367.186 397.524C367.303 397.632 367.378 397.779 367.394 397.938L368.191 405.354C368.205 405.541 368.18 405.73 368.117 405.907C368.054 406.085 367.956 406.247 367.827 406.384C367.698 406.521 367.542 406.63 367.369 406.704C367.196 406.778 367.01 406.815 366.822 406.812C363.557 406.7 362.536 406.442 358.418 406.375C353.616 406.296 355.827 406.498 350.194 406.375C346.829 406.375 346.245 402.874 347.704 402.56C352.315 401.595 353.527 399.755 355.614 397.792C356.209 397.346 356.949 397.137 357.689 397.208Z" fill="#263238"/>
<path d="M356.637 310.244C361.192 267.789 366.555 248.895 360.003 227.847L329.44 228.666C329.44 228.666 328.61 286.414 334.343 311.31C340.312 337.205 354.236 397.466 354.236 397.466L367.699 397.657C367.699 397.657 365.444 339.202 356.637 310.244Z" fill="#D75337"/>
<path opacity="0.3" d="M356.637 310.244C361.192 267.789 366.555 248.895 360.003 227.847L329.44 228.666C329.44 228.666 328.61 286.414 334.343 311.31C340.312 337.205 354.236 397.466 354.236 397.466L367.699 397.657C367.699 397.657 365.444 339.202 356.637 310.244Z" fill="black"/>
<path d="M340.615 148.75C340.615 153.631 340.907 159.342 344.901 162.775C342.657 165.771 338.36 170.36 332.133 169.563C325.278 168.688 326.602 162.461 328.117 160.509C331.483 158.568 330.551 155.651 330.17 153.62L340.615 148.75Z" fill="#FF8B7B"/>
<path opacity="0.2" d="M338.318 150.746C338.318 150.443 338.318 150.129 338.318 149.826L330.184 153.618C330.583 154.984 330.66 156.424 330.408 157.825C334.312 156.636 338.228 153.696 338.318 150.746Z" fill="black"/>
<path d="M344.686 135.217C343.643 143.396 343.452 148.232 339.02 152.148C332.367 158.027 322.46 153.505 321.069 145.158C319.79 137.652 321.708 125.535 329.966 122.864C331.793 122.278 333.74 122.164 335.623 122.533C337.507 122.903 339.266 123.744 340.736 124.978C342.206 126.211 343.34 127.798 344.03 129.588C344.721 131.379 344.947 133.316 344.686 135.217Z" fill="#FF8B7B"/>
<path d="M331.582 136.901C331.582 137.574 331.145 138.09 330.707 138.023C330.27 137.956 329.955 137.417 330 136.755C330.045 136.093 330.427 135.566 330.864 135.633C331.302 135.701 331.638 136.239 331.582 136.901Z" fill="#263238"/>
<path d="M323.223 136.542C323.223 137.215 322.796 137.731 322.359 137.664C321.921 137.596 321.596 137.058 321.641 136.396C321.686 135.734 322.078 135.207 322.516 135.274C322.954 135.341 323.268 135.868 323.223 136.542Z" fill="#263238"/>
<path d="M325.662 137.394C324.609 139.316 323.295 141.083 321.758 142.645C322.169 143.031 322.658 143.323 323.193 143.501C323.727 143.679 324.294 143.739 324.854 143.677L325.662 137.394Z" fill="#FF5652"/>
<path d="M333.108 132.459C333.175 132.447 333.239 132.424 333.299 132.392C333.385 132.333 333.445 132.242 333.466 132.14C333.487 132.037 333.468 131.93 333.411 131.842C333.08 131.309 332.626 130.863 332.088 130.541C331.549 130.219 330.941 130.03 330.315 129.991C330.263 129.989 330.211 129.998 330.163 130.018C330.114 130.037 330.07 130.066 330.034 130.102C329.997 130.139 329.968 130.183 329.949 130.231C329.93 130.28 329.92 130.332 329.922 130.384C329.922 130.435 329.932 130.486 329.952 130.534C329.972 130.582 330.001 130.625 330.037 130.661C330.074 130.698 330.117 130.727 330.164 130.746C330.212 130.766 330.263 130.776 330.315 130.776C330.811 130.815 331.29 130.972 331.714 131.234C332.137 131.495 332.492 131.854 332.749 132.28C332.79 132.337 332.844 132.383 332.906 132.414C332.969 132.446 333.038 132.461 333.108 132.459Z" fill="#263238"/>
<path d="M320.687 133.131C320.749 133.144 320.814 133.14 320.875 133.121C320.936 133.101 320.991 133.066 321.034 133.019C321.367 132.654 321.782 132.374 322.244 132.203C322.707 132.031 323.204 131.972 323.693 132.031C323.744 132.041 323.797 132.041 323.847 132.03C323.898 132.02 323.946 131.999 323.989 131.97C324.032 131.941 324.068 131.903 324.096 131.86C324.125 131.817 324.144 131.768 324.153 131.717C324.163 131.666 324.163 131.614 324.152 131.563C324.142 131.513 324.121 131.465 324.092 131.422C324.063 131.379 324.025 131.343 323.982 131.314C323.939 131.286 323.89 131.267 323.839 131.257C323.222 131.174 322.594 131.24 322.008 131.451C321.422 131.662 320.896 132.011 320.473 132.469C320.436 132.506 320.406 132.549 320.386 132.597C320.366 132.646 320.355 132.697 320.355 132.75C320.355 132.802 320.366 132.853 320.386 132.902C320.406 132.95 320.436 132.993 320.473 133.03C320.53 133.087 320.606 133.123 320.687 133.131Z" fill="#263238"/>
<path d="M325.457 145.316C326.259 146.351 326.986 147.442 327.634 148.581L328.284 148.334C331.213 147.212 332.2 145.731 332.413 144.418C332.53 143.408 332.292 142.389 331.74 141.535C330.54 143.049 327.892 144.306 326.444 144.901C325.85 145.204 325.457 145.316 325.457 145.316Z" fill="#263238"/>
<path d="M326.447 144.945L327.12 145.887C329.869 144.822 331.676 143.7 332.214 142.522C332.1 142.177 331.942 141.849 331.743 141.545C330.542 143.071 327.895 144.328 326.447 144.945Z" fill="white"/>
<path d="M328.283 148.356C331.212 147.234 332.199 145.753 332.412 144.441C331.306 144.89 330.287 145.532 329.405 146.337C328.827 146.874 328.434 147.581 328.283 148.356Z" fill="#DE5753"/>
<path d="M325.119 126.175C325.119 126.175 322.684 124.762 324.165 121.194C325.646 117.626 339.749 120.229 345.92 125.682C352.091 131.134 343.923 141.557 343.923 141.557L340.142 143.689C340.142 143.689 336.507 135.274 339.02 129.104C337.488 127.97 335.892 126.925 334.241 125.973C333.197 125.513 328.384 128.565 325.119 126.175Z" fill="#263238"/>
<path d="M346.944 143.791C345.825 145.533 344.063 146.763 342.041 147.213C339.36 147.774 338.171 145.328 339.046 142.882C339.831 140.638 342.187 137.732 344.824 138.26C345.397 138.385 345.931 138.652 346.376 139.035C346.822 139.418 347.165 139.905 347.375 140.454C347.585 141.002 347.656 141.594 347.581 142.177C347.506 142.759 347.287 143.314 346.944 143.791Z" fill="#FF8B7B"/>
<path d="M377.158 203.266C377.158 202.918 377.158 202.447 377.09 202.29L376.945 200.966C376.821 200.102 376.698 199.227 376.529 198.396C375.14 192.014 372.914 185.842 369.91 180.041C368.485 177.214 366.981 174.431 365.343 171.783C364.536 170.437 363.705 169.113 362.841 167.8C361.977 166.488 361.125 165.231 360.115 163.84C359.127 162.534 357.67 161.664 356.051 161.414C354.433 161.163 352.781 161.552 351.444 162.498C350.108 163.444 349.192 164.873 348.89 166.482C348.588 168.092 348.924 169.755 349.827 171.121L349.883 171.222C350.612 172.277 351.431 173.545 352.194 174.723C352.957 175.901 353.742 177.146 354.438 178.369C355.919 180.838 357.377 183.295 358.713 185.808C361.41 190.593 363.559 195.666 365.119 200.932C365.31 201.56 365.422 202.166 365.568 202.783L365.736 203.692C365.736 203.905 365.736 203.816 365.736 203.838C365.736 203.838 365.826 203.692 365.86 203.737C365.893 203.782 365.86 203.95 365.646 204.186C365.023 204.876 364.282 205.449 363.459 205.88C362.383 206.514 361.257 207.058 360.093 207.507C357.488 208.504 354.824 209.336 352.115 209.998C350.724 210.334 349.322 210.693 347.897 211.007C346.472 211.322 345.013 211.591 343.656 211.871H343.476C342.721 212.012 342.044 212.425 341.574 213.032C341.103 213.639 340.873 214.397 340.925 215.163C340.978 215.93 341.31 216.65 341.859 217.187C342.408 217.724 343.136 218.04 343.903 218.076C350.29 218.571 356.715 218.133 362.976 216.774C364.683 216.374 366.356 215.841 367.98 215.181C369.913 214.394 371.7 213.286 373.264 211.905C374.264 211.013 375.106 209.958 375.755 208.786C376.503 207.428 376.947 205.923 377.057 204.377C377.147 204.029 377.18 203.658 377.158 203.266Z" fill="#263238"/>
<path d="M342.141 158.063C342.343 159.959 340.076 166.68 332.133 169.563C335.196 169.563 336.531 173.468 336.531 173.468C336.531 173.468 347.066 167.858 345.81 161.126C345.652 160.267 345.199 159.491 344.529 158.931C343.859 158.372 343.014 158.064 342.141 158.063Z" fill="#D75337"/>
<path d="M329.664 158.578C329.866 160.429 327.712 164.334 332.132 169.562C329.058 169.562 327.229 172.636 327.229 172.636C326.045 170.788 325.345 168.671 325.192 166.482C325.039 164.292 325.439 162.099 326.354 160.104C327.276 159.27 328.431 158.738 329.664 158.578Z" fill="#D75337"/>
<path d="M311.671 226.858L311.391 233.287L361.094 231.941L360.275 225.523L311.671 226.858Z" fill="#D75337"/>
<path opacity="0.3" d="M311.671 226.858L311.391 233.287L361.094 231.941L360.275 225.523L311.671 226.858Z" fill="black"/>
<path d="M356.221 230.158L361.09 230.068L360.439 226.837L356.221 226.927V230.158Z" fill="#263238"/>
<path d="M354.897 226.951L337.305 227.332V230.519L354.897 230.182V226.951Z" fill="#263238"/>
<path d="M315.228 227.792L311.391 227.881V230.989L315.228 230.922V227.792Z" fill="#263238"/>
<path d="M316.359 227.769V230.9L335.579 230.541V227.365L316.359 227.769Z" fill="#263238"/>
<path d="M326.802 231.505H322.673C322.416 231.506 322.17 231.404 321.987 231.224C321.804 231.043 321.7 230.798 321.697 230.541V228.095C321.697 227.84 321.797 227.595 321.975 227.412C322.153 227.23 322.396 227.124 322.651 227.119L326.78 227.029C327.041 227.037 327.291 227.136 327.487 227.309C327.579 227.4 327.652 227.508 327.702 227.628C327.752 227.747 327.778 227.875 327.778 228.005V230.585C327.764 230.834 327.655 231.069 327.473 231.24C327.292 231.411 327.052 231.506 326.802 231.505ZM322.729 228.14V230.585L326.802 230.518L326.746 228.05L322.729 228.14Z" fill="white"/>
<path d="M326.365 229.79H325.165C325.029 229.787 324.899 229.731 324.803 229.635C324.707 229.539 324.651 229.41 324.648 229.274C324.648 229.137 324.703 229.005 324.8 228.909C324.896 228.812 325.028 228.757 325.165 228.757H326.365C326.433 228.756 326.501 228.768 326.564 228.794C326.628 228.819 326.685 228.857 326.733 228.905C326.782 228.953 326.82 229.011 326.845 229.074C326.87 229.138 326.883 229.205 326.881 229.274C326.881 229.41 326.827 229.542 326.73 229.639C326.633 229.735 326.502 229.79 326.365 229.79Z" fill="white"/>
<path d="M329.945 217.85H338.326L339.852 202.928H328.408L329.945 217.85Z" fill="#D75337"/>
<path d="M327.79 203.546H340.469V202.043H327.79V203.546Z" fill="white"/>
<path d="M330.348 209.951C330.444 210.536 330.706 211.082 331.103 211.523C331.499 211.965 332.014 212.283 332.585 212.441C333.157 212.6 333.762 212.591 334.329 212.416C334.896 212.242 335.401 211.909 335.785 211.456C336.169 211.004 336.415 210.451 336.494 209.863C336.574 209.275 336.483 208.677 336.234 208.138C335.984 207.6 335.586 207.145 335.085 206.826C334.585 206.507 334.004 206.338 333.411 206.338C332.527 206.416 331.71 206.838 331.136 207.515C330.563 208.191 330.28 209.067 330.348 209.951Z" fill="white"/>
<path d="M347.529 211.433L339.529 208.83L339.227 218.927C339.227 218.927 346.755 220.408 348.202 216.526L347.529 211.433Z" fill="#FF8B7B"/>
<path d="M331.705 212.734L332.188 216.291C332.283 216.976 332.619 217.604 333.134 218.064C333.65 218.525 334.313 218.787 335.004 218.804L339.222 218.916L339.525 208.819L334.252 209.436C333.866 209.48 333.493 209.601 333.154 209.792C332.816 209.983 332.519 210.239 332.282 210.547C332.044 210.854 331.871 211.206 331.772 211.582C331.673 211.958 331.65 212.35 331.705 212.734Z" fill="#FF8B7B"/>
<path opacity="0.7" d="M342.141 158.063C342.343 159.959 340.076 166.68 332.133 169.563C335.196 169.563 336.531 173.468 336.531 173.468C336.531 173.468 347.066 167.858 345.81 161.126C345.652 160.267 345.199 159.491 344.529 158.931C343.859 158.372 343.014 158.064 342.141 158.063Z" fill="white"/>
<path opacity="0.7" d="M329.664 158.578C329.866 160.429 327.712 164.334 332.132 169.562C329.058 169.562 327.229 172.636 327.229 172.636C326.045 170.788 325.345 168.671 325.192 166.482C325.039 164.292 325.439 162.099 326.354 160.104C327.276 159.27 328.431 158.738 329.664 158.578Z" fill="white"/>
<path d="M267.319 211.58L275.857 210.458L272.222 203.031C272.222 203.031 264.368 205.331 264.593 207.877L267.319 211.58Z" fill="#FFC8B7"/>
<path d="M280.196 204.144L276.325 199.633L272.219 203.078L275.854 210.505L280.196 204.144Z" fill="#FFC8B7"/>
<path d="M225.165 198.173C225.165 198.173 231.055 212.668 240.614 217.953C250.173 223.237 268.17 211.58 268.17 211.58L265.387 206.43C265.387 206.43 245.573 211.288 244.754 210.548C243.935 209.807 235.072 185.865 223.729 182.633L225.165 198.173Z" fill="#D75337"/>
<path opacity="0.7" d="M268.181 211.591C268.181 211.591 250.229 223.248 240.614 217.953C237.431 216.056 234.654 213.546 232.446 210.57C229.512 206.778 227.065 202.631 225.165 198.228L223.773 182.678C235.105 185.876 243.969 209.863 244.799 210.604C245.629 211.344 265.387 206.43 265.387 206.43L268.181 211.591Z" fill="#D8AEAE"/>
<path opacity="0.1" d="M232.447 210.57C230.572 208.176 228.909 205.623 227.477 202.941C227.601 200.928 228.213 198.976 229.26 197.252C229.26 197.252 233.221 201.976 232.447 210.57Z" fill="black"/>
<path d="M195.939 142.837C195.939 142.837 202.446 133.985 214.17 140.593C229.194 148.986 220.454 188.221 220.454 188.221L194.648 192.406C194.648 192.406 178.929 146.214 195.939 142.837Z" fill="#263238"/>
<path d="M228.812 233.705C228.812 233.705 234.5 277.933 233.996 306.027C235.97 332.371 237.631 387.662 240.615 393.631C240.514 394.977 235.634 395.246 234.366 394.438C234.366 394.438 214.866 348.797 217.536 306.027C199.439 261.418 200.516 233.705 200.516 233.705H228.812Z" fill="#FFC8B7"/>
<path d="M221.104 233.705C221.104 233.705 208.167 283.633 203.04 308.148C197.666 333.886 192.146 364.987 192.067 394.27C190.631 395.123 189.026 396.379 186.109 395.482C186.109 395.482 173.51 336.848 185.122 309.281C180.028 248.291 196.162 233.705 196.162 233.705H221.104Z" fill="#FFC8B7"/>
<path d="M195.94 232.56L228.376 237.048C228.768 230.17 231.944 196.209 231.843 193.213C231.652 187.603 226.951 182.734 220.993 181.993C219.344 181.78 217.627 181.578 215.955 181.443C210.849 181.095 205.725 181.095 200.618 181.443C199.16 181.511 197.746 181.623 196.411 181.746C191.407 182.229 187.951 186.818 189.679 191.373C191.856 197.084 195.244 227.983 195.94 232.56Z" fill="#D75337"/>
<path opacity="0.7" d="M231.842 193.191C231.932 196.198 228.768 230.149 228.375 237.038L195.939 232.55C195.86 232.045 195.759 231.249 195.625 230.216C195.221 227.041 194.57 221.622 193.818 215.765C193.493 213.342 193.168 210.829 192.809 208.383C192.18 203.895 191.53 199.643 190.913 196.389C190.624 194.663 190.208 192.96 189.667 191.295C187.951 186.718 191.395 182.129 196.399 181.658C197.734 181.534 199.148 181.433 200.606 181.355C205.709 181.018 210.829 181.018 215.932 181.355C217.604 181.501 219.298 181.703 220.981 181.916C226.95 182.712 231.662 187.593 231.842 193.191Z" fill="#D8AEAE"/>
<path d="M201.691 164.133C203.026 169.07 204.664 178.113 201.455 181.4C201.455 181.4 199.155 185.731 212.181 185.327C213.303 188.042 215.547 193.013 215.547 193.013C215.547 193.013 215.704 187.167 214.807 185.159C223.177 184.441 216.826 181.367 216.826 181.367C211.217 180.054 211.06 175.97 211.733 172.133L201.691 164.133Z" fill="#FFC8B7"/>
<path opacity="0.2" d="M205.777 167.409L211.701 172.166C211.524 173.064 211.433 173.977 211.432 174.892C209.3 174.589 206.249 172.278 205.822 170.079C205.643 169.199 205.628 168.294 205.777 167.409Z" fill="black"/>
<path d="M197.095 155.551C198.509 163.068 198.958 166.266 203.266 169.867C209.762 175.275 218.671 172.414 219.524 164.762C220.287 157.873 217.841 146.755 210.054 144.275C208.407 143.679 206.63 143.535 204.908 143.856C203.186 144.177 201.581 144.953 200.26 146.103C198.938 147.253 197.948 148.735 197.392 150.396C196.835 152.057 196.733 153.837 197.095 155.551Z" fill="#FFC8B7"/>
<path d="M203.59 150.13C199.416 155.482 207.988 161.63 199.416 161.271C190.844 160.912 194.334 148.93 199.416 146.17C204.499 143.41 203.59 150.13 203.59 150.13Z" fill="#263238"/>
<path d="M199.451 146.259C200.573 151.375 201.347 152.71 205.936 151.319C205.252 150.292 204.951 149.057 205.083 147.83C205.541 149.063 206.458 150.072 207.642 150.646C208.874 150.138 210.156 149.762 211.467 149.524C211.217 148.804 211.14 148.035 211.243 147.28C211.604 148.129 212.204 148.854 212.971 149.367C214.381 149.39 215.778 149.636 217.111 150.096C217.145 144.688 207.888 138.876 199.451 146.259Z" fill="#263238"/>
<path d="M209.065 156.805C209.155 157.445 209.57 157.927 209.974 157.927C210.378 157.927 210.647 157.355 210.546 156.715C210.445 156.076 210.053 155.593 209.637 155.593C209.222 155.593 208.975 156.165 209.065 156.805Z" fill="#263238"/>
<path d="M216.781 156.358C216.882 156.986 217.286 157.48 217.69 157.48C218.094 157.48 218.363 156.919 218.273 156.279C218.183 155.64 217.768 155.157 217.364 155.157C216.96 155.157 216.691 155.718 216.781 156.358Z" fill="#263238"/>
<path d="M217.143 155.201L218.579 154.651C218.579 154.651 218.029 155.896 217.143 155.201Z" fill="#263238"/>
<path d="M214.785 157.558C215.557 158.968 216.507 160.273 217.613 161.44C217.317 161.695 216.968 161.881 216.592 161.984C216.215 162.087 215.82 162.104 215.436 162.035L214.785 157.558Z" fill="#ED893E"/>
<path d="M196.354 162.797C196.669 163.459 197.117 164.05 197.672 164.53C198.226 165.011 198.873 165.372 199.574 165.59C201.335 166.05 202.098 164.053 201.515 162.045C200.976 160.25 199.428 157.838 197.711 158.275C195.995 158.713 195.467 161.024 196.354 162.797Z" fill="#FFC8B7"/>
<path d="M206.911 153.396C207.009 153.394 207.101 153.353 207.169 153.283C207.47 152.937 207.852 152.671 208.281 152.508C208.709 152.345 209.172 152.292 209.626 152.352C209.674 152.36 209.722 152.359 209.769 152.348C209.815 152.337 209.859 152.316 209.898 152.288C209.937 152.26 209.969 152.224 209.994 152.183C210.019 152.142 210.035 152.097 210.042 152.049C210.049 151.949 210.021 151.85 209.961 151.77C209.901 151.689 209.814 151.633 209.716 151.612C209.146 151.524 208.562 151.581 208.02 151.777C207.477 151.973 206.991 152.302 206.608 152.734C206.573 152.768 206.546 152.809 206.527 152.854C206.508 152.9 206.498 152.948 206.498 152.997C206.498 153.046 206.508 153.095 206.527 153.14C206.546 153.185 206.573 153.226 206.608 153.261C206.645 153.305 206.692 153.34 206.744 153.363C206.797 153.386 206.854 153.397 206.911 153.396Z" fill="#263238"/>
<path d="M218.523 152.712C218.617 152.717 218.71 152.685 218.781 152.622C218.816 152.588 218.844 152.547 218.863 152.502C218.882 152.456 218.891 152.408 218.891 152.359C218.891 152.31 218.882 152.261 218.863 152.216C218.844 152.17 218.816 152.129 218.781 152.095C218.391 151.631 217.9 151.262 217.346 151.017C216.792 150.772 216.189 150.657 215.583 150.681C215.535 150.687 215.489 150.702 215.447 150.726C215.405 150.75 215.369 150.783 215.34 150.822C215.312 150.861 215.292 150.906 215.281 150.953C215.271 151 215.271 151.049 215.28 151.096C215.302 151.194 215.358 151.281 215.438 151.341C215.519 151.401 215.618 151.43 215.718 151.422C216.196 151.41 216.67 151.504 217.107 151.698C217.543 151.892 217.931 152.181 218.242 152.544C218.275 152.59 218.317 152.629 218.365 152.658C218.413 152.687 218.467 152.705 218.523 152.712Z" fill="#263238"/>
<path d="M209.471 155.651L210.907 155.101C210.907 155.101 210.312 156.346 209.471 155.651Z" fill="#263238"/>
<path d="M214.954 165.074C214.318 165.896 213.74 166.762 213.227 167.666L212.71 167.475C210.377 166.577 209.603 165.399 209.434 164.367C209.361 163.857 209.415 163.336 209.591 162.852C209.679 162.573 209.808 162.309 209.973 162.067C211.16 163.258 212.592 164.177 214.169 164.76C214.64 164.962 214.954 165.074 214.954 165.074Z" fill="#263238"/>
<path d="M214.167 164.76L213.64 165.511C211.452 164.67 210.016 163.772 209.59 162.852C209.678 162.573 209.806 162.309 209.971 162.067C211.158 163.258 212.59 164.177 214.167 164.76Z" fill="white"/>
<path d="M212.71 167.475C210.376 166.578 209.602 165.4 209.434 164.367C210.313 164.718 211.122 165.223 211.823 165.86C212.279 166.294 212.589 166.858 212.71 167.475Z" fill="#DE5753"/>
<path d="M212.812 179.403C212.812 179.403 215.281 182.051 214.776 185.192L220.453 186.393C220.162 184.533 219.247 182.829 217.858 181.558C216.47 180.288 214.69 179.528 212.812 179.403Z" fill="#D75337"/>
<path d="M212.184 185.326C212.184 185.326 204.577 180.95 202.883 178.594L199.517 181.141C199.517 181.141 198.451 185.113 203.051 188.681L212.184 185.326Z" fill="#D75337"/>
<path opacity="0.6" d="M212.812 179.403C212.812 179.403 215.281 182.051 214.776 185.192L220.453 186.393C220.162 184.533 219.247 182.829 217.858 181.558C216.47 180.288 214.69 179.528 212.812 179.403Z" fill="white"/>
<path opacity="0.6" d="M212.184 185.326C212.184 185.326 204.577 180.95 202.883 178.594L199.517 181.141C199.517 181.141 198.451 185.113 203.051 188.681L212.184 185.326Z" fill="white"/>
<path d="M233.378 406.408H235.095L235.555 404.343L241.108 406.823H255.167C255.167 406.823 257.411 404.579 250.679 402.795C250.349 402.709 250.029 402.589 249.725 402.436C246.157 400.775 241.052 395.143 241.052 395.143H233.344C233.111 395.503 232.901 395.878 232.716 396.265C231.852 397.926 230.405 401.493 233.378 406.408Z" fill="#263238"/>
<path d="M232.695 396.233C233.705 395.111 238.361 400.059 241.761 401.742C244.79 403.246 248.201 403.896 249.704 402.359C246.136 400.699 240.493 393.384 240.493 393.384H234.289C234.289 393.384 233.054 395.515 232.695 396.233Z" fill="#FFC8B7"/>
<path d="M184.763 406.408H186.446L186.906 404.343L192.46 406.823H206.518C206.518 406.823 208.762 404.579 202.03 402.795C201.701 402.709 201.381 402.589 201.077 402.436C197.509 400.775 192.404 395.143 192.404 395.143H184.696C184.463 395.503 184.253 395.878 184.068 396.265C183.238 397.926 181.801 401.493 184.763 406.408Z" fill="#263238"/>
<path d="M184.078 396.233C185.088 395.111 189.744 400.059 193.144 401.742C196.184 403.246 199.584 403.896 201.087 402.359C197.519 400.699 191.876 393.384 191.876 393.384H185.671C185.671 393.384 184.437 395.515 184.078 396.233Z" fill="#FFC8B7"/>
<path d="M182.911 299.474C183.768 300.418 184.781 301.208 185.907 301.807C186.064 296.197 187.691 293.527 187.691 293.527C187.413 296.751 187.709 299.999 188.566 303.12C197.194 306.766 213.833 309.167 234.634 304.074C234.634 279.671 229.81 238.607 229.473 234.601C229.473 234.601 204.79 235.252 194.782 235.252C183.82 248.323 180.869 290.285 182.911 299.474Z" fill="#263238"/>
<path opacity="0.2" d="M182.911 299.474C183.768 300.418 184.781 301.208 185.907 301.807C186.064 296.197 187.691 293.527 187.691 293.527C187.413 296.751 187.709 299.999 188.566 303.12C197.194 306.766 213.833 309.167 234.634 304.074C234.634 279.671 229.81 238.607 229.473 234.601C229.473 234.601 204.79 235.252 194.782 235.252C183.82 248.323 180.869 290.285 182.911 299.474Z" fill="white"/>
<path d="M229.284 236.118C217.723 237.367 206.059 237.344 194.503 236.051C194.378 236.038 194.258 235.995 194.154 235.925C194.049 235.855 193.964 235.76 193.905 235.649C193.846 235.538 193.816 235.414 193.816 235.288C193.817 235.163 193.848 235.039 193.908 234.929L194.75 232.976C194.807 232.831 194.911 232.709 195.045 232.628C195.178 232.547 195.335 232.512 195.49 232.528C206.592 233.717 217.789 233.717 228.891 232.528C228.989 232.518 229.087 232.529 229.18 232.557C229.274 232.586 229.36 232.633 229.435 232.696C229.51 232.759 229.572 232.835 229.618 232.922C229.663 233.009 229.691 233.103 229.699 233.201L229.901 235.232C229.919 235.33 229.917 235.432 229.895 235.53C229.874 235.628 229.834 235.72 229.776 235.803C229.719 235.885 229.646 235.955 229.561 236.009C229.477 236.063 229.383 236.1 229.284 236.118Z" fill="#263238"/>
<path opacity="0.1" d="M196.23 196.266C196.23 196.266 195.815 204.176 192.808 208.405C192.18 203.917 191.529 199.665 190.912 196.411C192.611 195.732 194.497 195.681 196.23 196.266Z" fill="black"/>
<path opacity="0.1" d="M201.311 219.365V226.411C199.557 227.895 197.65 229.189 195.623 230.271C195.219 227.096 194.568 221.676 193.816 215.82C196.235 217.163 198.739 218.347 201.311 219.365Z" fill="black"/>
<path d="M213.575 227.243H205.194L203.668 212.321H215.112L213.575 227.243Z" fill="#D75337"/>
<path d="M215.731 211.434H203.053V212.938H215.731V211.434Z" fill="white"/>
<path d="M213.171 219.367C213.074 219.953 212.812 220.498 212.416 220.939C212.019 221.381 211.505 221.699 210.933 221.857C210.361 222.016 209.756 222.007 209.189 221.832C208.622 221.658 208.117 221.325 207.733 220.872C207.35 220.42 207.104 219.867 207.024 219.279C206.945 218.691 207.035 218.093 207.285 217.554C207.534 217.016 207.933 216.561 208.433 216.242C208.933 215.923 209.514 215.754 210.108 215.754C210.991 215.832 211.808 216.254 212.382 216.931C212.956 217.607 213.239 218.483 213.171 219.367Z" fill="white"/>
<path d="M209.108 219.187L206.931 217.908C206.527 217.675 206.074 217.54 205.608 217.515C205.142 217.489 204.677 217.574 204.25 217.762L200.211 219.579C199.415 219.936 198.716 220.477 198.171 221.158C197.627 221.839 197.253 222.64 197.08 223.495L196.867 224.617C200.334 226.973 205.843 226.973 205.843 226.973L207.402 227.141C207.722 227.187 208.047 227.169 208.359 227.088C208.671 227.007 208.965 226.865 209.221 226.67C209.478 226.474 209.694 226.23 209.855 225.951C210.017 225.672 210.121 225.363 210.163 225.043L210.544 221.947C210.605 221.396 210.501 220.84 210.246 220.348C209.99 219.857 209.594 219.452 209.108 219.187Z" fill="#FFC8B7"/>
<path d="M193.884 182.342C184.348 183.846 174.665 213.948 176.101 219.367C177.537 224.786 198.821 225.807 198.821 225.807L199.449 219.367C199.449 219.367 188.757 216.203 187.231 214.15C185.705 212.097 193.884 199.89 193.884 199.89C195.68 197.157 196.721 193.999 196.903 190.735C196.947 184.474 193.884 182.342 193.884 182.342Z" fill="#D75337"/>
<path opacity="0.7" d="M193.884 182.342C184.348 183.846 174.665 213.948 176.101 219.367C177.537 224.786 198.821 225.807 198.821 225.807L199.449 219.367C199.449 219.367 188.757 216.203 187.231 214.15C185.705 212.097 193.884 199.89 193.884 199.89C195.68 197.157 196.721 193.999 196.903 190.735C196.947 184.474 193.884 182.342 193.884 182.342Z" fill="#D8AEAE"/>
<path d="M142.336 137.158C141.214 137.158 140.305 135.721 140.227 133.848C140.17 133.031 140.32 132.212 140.664 131.469C140.777 131.17 140.969 130.907 141.22 130.709C141.471 130.511 141.772 130.386 142.089 130.347H142.145C143.267 130.347 144.176 131.783 144.266 133.713C144.319 134.531 144.165 135.349 143.817 136.092C143.705 136.391 143.512 136.654 143.261 136.852C143.01 137.049 142.709 137.175 142.392 137.214L142.336 137.158ZM142.145 130.863C141.775 130.863 141.427 131.177 141.158 131.705C140.854 132.368 140.723 133.098 140.776 133.825C140.844 135.385 141.562 136.686 142.403 136.641C142.628 136.602 142.838 136.503 143.011 136.355C143.185 136.207 143.316 136.015 143.391 135.8C143.698 135.141 143.833 134.416 143.783 133.691C143.682 132.142 142.953 130.863 142.145 130.863Z" fill="#263238"/>
<path d="M140.741 133.827C140.741 134.433 141.111 134.949 141.515 134.949C141.919 134.949 142.211 134.422 142.188 133.827C142.166 133.233 141.818 132.705 141.414 132.705C141.01 132.705 140.707 133.21 140.741 133.827Z" fill="#263238"/>
<path d="M141.055 134.916C141.869 136.755 142.934 138.473 144.219 140.02C143.812 140.337 143.342 140.562 142.84 140.68C142.339 140.798 141.818 140.807 141.313 140.705L141.055 134.916Z" fill="#ED847E"/>
<path d="M138.349 130.527C138.256 130.513 138.172 130.465 138.114 130.392C138.085 130.355 138.064 130.312 138.051 130.266C138.039 130.22 138.036 130.173 138.042 130.126C138.048 130.079 138.064 130.034 138.088 129.993C138.112 129.952 138.143 129.916 138.181 129.887C138.62 129.522 139.141 129.267 139.699 129.144C140.258 129.021 140.837 129.033 141.39 129.18C141.478 129.216 141.549 129.282 141.591 129.367C141.632 129.452 141.64 129.55 141.614 129.64C141.599 129.686 141.575 129.727 141.544 129.763C141.512 129.799 141.474 129.828 141.431 129.849C141.388 129.87 141.342 129.882 141.294 129.885C141.247 129.887 141.199 129.881 141.154 129.865C140.715 129.756 140.257 129.752 139.816 129.853C139.376 129.954 138.965 130.158 138.618 130.448C138.581 130.479 138.538 130.502 138.492 130.516C138.446 130.529 138.397 130.533 138.349 130.527Z" fill="#263238"/>
<path d="M141.763 142.623C141.763 142.803 141.707 142.971 141.684 143.151C141.236 145.571 139.943 147.754 138.037 149.311C136.131 150.869 133.734 151.699 131.272 151.655C128.977 151.569 126.793 150.643 125.135 149.052C121.163 145.361 121.074 140.941 120.277 133.446C120.07 131.706 120.311 129.942 120.978 128.321C121.645 126.701 122.715 125.278 124.086 124.187C125.458 123.097 127.085 122.375 128.814 122.091C130.543 121.806 132.316 121.969 133.965 122.563C141.28 125.121 142.896 135.768 141.763 142.623Z" fill="#FFC3BD"/>
<path d="M121.777 145.686C124.559 147.93 136.632 143.813 135.723 134.59C135.723 134.59 140.772 130.158 141.176 124.493C141.58 118.827 138.057 116.022 133.748 116.583C129.956 117.088 129.743 119.085 129.743 119.085C129.743 119.085 112.285 118.411 114.854 125.962C106.63 132.425 118.265 142.904 121.777 145.686Z" fill="#263238"/>
<path d="M143.983 133.405L135.664 134.328L135.721 134.841L144.04 133.918L143.983 133.405Z" fill="#263238"/>
<path d="M132.461 135.668C132.669 137.528 133.485 139.268 134.783 140.616C136.511 142.378 138.149 141.177 138.407 138.944C138.587 136.936 137.914 133.604 135.86 132.672C133.807 131.741 132.236 133.413 132.461 135.668Z" fill="#FFC3BD"/>
<path opacity="0.2" d="M141.76 142.622C141.76 142.802 141.704 142.97 141.681 143.15C141.233 145.57 139.941 147.753 138.034 149.31C136.128 150.868 133.731 151.698 131.27 151.654C133.345 150.33 136.161 148.03 137.025 144.81C138.45 139.492 136.285 132.917 136.285 132.917L137.407 131.38C137.407 131.38 139.404 139.907 139.168 142.151C139.045 143.688 140.683 143.127 141.76 142.622Z" fill="black"/>
<path d="M178.02 183.652H169.627L168.102 168.73H179.546L178.02 183.652Z" fill="#D75337"/>
<path d="M180.167 167.845H167.488V169.349H180.167V167.845Z" fill="#D75337"/>
<path d="M177.606 175.744C177.51 176.328 177.249 176.872 176.854 177.313C176.459 177.754 175.946 178.073 175.377 178.232C174.807 178.391 174.203 178.385 173.637 178.213C173.07 178.041 172.565 177.711 172.18 177.262C171.795 176.812 171.546 176.262 171.463 175.676C171.379 175.09 171.465 174.493 171.71 173.954C171.954 173.415 172.348 172.957 172.844 172.635C173.34 172.312 173.918 172.137 174.509 172.131C175.399 172.2 176.225 172.619 176.806 173.297C177.386 173.974 177.674 174.854 177.606 175.744Z" fill="white"/>
<path opacity="0.8" d="M180.167 167.845H167.488V169.349H180.167V167.845Z" fill="white"/>
<path d="M122.898 146.314C124.02 151.924 124.233 156.165 120.34 159.879C120.34 159.879 121.866 165.489 132.188 165.489C143.542 165.489 137.607 159.879 137.607 159.879C131.414 158.398 131.571 153.798 132.659 149.489L122.898 146.314Z" fill="#FFC3BD"/>
<path d="M118.145 160.909C117.315 159.361 116.395 157.543 118.291 157.039C120.366 156.433 133.729 155.299 137.656 156.444C136.444 158.598 138.486 161.223 138.486 161.223L118.145 160.909Z" fill="#D75337"/>
<path opacity="0.2" d="M118.145 160.909C117.315 159.361 116.395 157.543 118.291 157.039C120.366 156.433 133.729 155.299 137.656 156.444C136.444 158.598 138.486 161.223 138.486 161.223L118.145 160.909Z" fill="black"/>
<path d="M88.971 397.354C89.3051 397.475 89.66 397.527 90.0147 397.508C90.3693 397.489 90.7165 397.398 91.0355 397.242C91.1583 397.13 91.2427 396.981 91.2769 396.818C91.3112 396.655 91.2934 396.486 91.2262 396.333C91.1907 396.205 91.127 396.086 91.0396 395.985C90.9523 395.884 90.8436 395.804 90.7213 395.75C89.5994 395.211 87.0188 396.266 86.9066 396.311C86.8718 396.327 86.842 396.352 86.8203 396.384C86.7985 396.415 86.7857 396.452 86.7832 396.49C86.7835 396.528 86.7941 396.564 86.8139 396.596C86.8337 396.628 86.8619 396.653 86.8954 396.67C87.5612 396.971 88.2569 397.2 88.971 397.354ZM90.3174 396.03C90.3999 396.043 90.4795 396.07 90.553 396.109C90.6251 396.138 90.6893 396.183 90.74 396.242C90.7908 396.3 90.8267 396.37 90.8447 396.446C90.9569 396.793 90.8447 396.906 90.7774 396.939C90.3286 397.321 88.6681 396.939 87.5013 396.502C88.4074 396.131 89.3853 395.97 90.3623 396.03H90.3174Z" fill="#D75337"/>
<path d="M86.9974 396.636C87.9286 396.367 89.9482 394.931 89.9706 393.989C89.9718 393.84 89.9225 393.696 89.8307 393.58C89.7389 393.464 89.6101 393.382 89.4657 393.349C89.3228 393.298 89.1706 393.279 89.0196 393.293C88.8686 393.306 88.7222 393.352 88.5906 393.428C87.4686 393.989 86.7842 396.289 86.7506 396.39C86.7348 396.421 86.7266 396.455 86.7266 396.491C86.7266 396.526 86.7348 396.56 86.7506 396.591C86.7806 396.626 86.8214 396.649 86.8662 396.657C86.911 396.665 86.9572 396.658 86.9974 396.636ZM89.3535 393.697H89.4321C89.6789 393.775 89.6789 393.899 89.6789 393.944C89.6789 394.505 88.3325 395.627 87.3564 396.075C87.6194 395.165 88.1465 394.353 88.8711 393.742C89.0096 393.696 89.1589 393.696 89.2974 393.742L89.3535 393.697Z" fill="#D75337"/>
<path d="M86.5819 395.425L77.449 393.439C77.2873 393.407 77.1193 393.431 76.9726 393.506C76.8259 393.581 76.7091 393.704 76.6412 393.855L73.5334 400.721C73.4571 400.889 73.4198 401.072 73.4242 401.256C73.4286 401.44 73.4746 401.621 73.5587 401.785C73.6429 401.949 73.763 402.092 73.9102 402.203C74.0573 402.314 74.2277 402.391 74.4085 402.426C77.6061 403.066 79.1881 403.212 83.2047 404.076C85.6731 404.614 91.2492 405.972 94.66 406.712C98.0708 407.453 99.2489 404.177 97.9137 403.56C91.9561 400.844 89.4653 398.443 87.816 396.211C87.518 395.803 87.0774 395.523 86.5819 395.425Z" fill="#263238"/>
<path d="M135.365 227.625C135.365 227.625 126.748 281.378 122.025 301.529C116.841 323.575 89.0611 396.548 89.0611 396.548L75.4629 393.822C75.4629 393.822 94.8954 334.357 99.2374 303.526C102.603 279.841 109.156 227.625 109.156 227.625H135.365Z" fill="#D75337"/>
<path opacity="0.7" d="M135.365 227.625C135.365 227.625 126.748 281.378 122.025 301.529C116.841 323.575 89.0611 396.548 89.0611 396.548L75.4629 393.822C75.4629 393.822 94.8954 334.357 99.2374 303.526C102.603 279.841 109.156 227.625 109.156 227.625H135.365Z" fill="white"/>
<path d="M112.881 174.296C111.412 175.922 109.762 177.785 108.259 179.602C106.755 181.42 105.263 183.294 103.85 185.212C101.024 188.854 98.5416 192.749 96.4333 196.847C96.164 197.341 95.9508 197.834 95.7377 198.328L95.4123 199.069L95.2552 199.439L95.1879 199.585C95.1879 199.484 95.0084 199.876 95.1206 200.572C95.5712 202.445 96.3295 204.231 97.3645 205.856C99.9013 209.819 102.733 213.584 105.835 217.121L102.144 221.463C97.6723 218.557 93.6343 215.033 90.1503 210.995C88.1153 208.697 86.5386 206.031 85.5053 203.141C84.8007 201.077 84.6957 198.856 85.2024 196.735L85.3258 196.275L85.4268 195.983L85.5951 195.478L85.9429 194.468C86.1673 193.795 86.4029 193.122 86.6834 192.494C88.7701 187.534 91.4043 182.822 94.5372 178.447C96.0743 176.304 97.6226 174.195 99.3055 172.197C100.988 170.2 102.671 168.259 104.59 166.285L112.881 174.296Z" fill="#FFC3BD"/>
<path d="M103.603 214.879L109.213 215.295L106.689 223.698C106.689 223.698 102.459 222.935 100.832 219.637L103.603 214.879Z" fill="#FFC3BD"/>
<path d="M116.964 216.413L113.329 223.302L106.676 223.74L109.2 215.336L116.964 216.413Z" fill="#FFC3BD"/>
<path d="M141.032 398.757C142.154 398.757 143.13 398.6 143.478 398.128C143.568 398.002 143.617 397.851 143.617 397.696C143.617 397.541 143.568 397.39 143.478 397.264C143.411 397.15 143.323 397.05 143.216 396.971C143.11 396.892 142.989 396.835 142.861 396.804C141.481 396.423 138.575 398.083 138.451 398.151C138.415 398.169 138.386 398.199 138.368 398.235C138.35 398.272 138.344 398.313 138.35 398.353C138.356 398.393 138.375 398.431 138.403 398.461C138.431 398.492 138.467 398.512 138.507 398.521C139.341 398.671 140.185 398.749 141.032 398.757ZM142.356 397.141C142.482 397.123 142.611 397.123 142.737 397.141C142.816 397.157 142.891 397.189 142.957 397.235C143.022 397.281 143.078 397.341 143.119 397.41C143.253 397.657 143.209 397.781 143.119 397.848C142.737 398.386 140.639 398.398 139.091 398.184C140.1 397.625 141.209 397.27 142.356 397.141Z" fill="#D75337"/>
<path d="M138.517 398.522H138.607C139.605 398.062 141.591 396.278 141.445 395.324C141.445 395.111 141.243 394.831 140.705 394.774C140.505 394.752 140.302 394.77 140.109 394.828C139.917 394.886 139.737 394.982 139.583 395.111C138.528 395.986 138.304 398.219 138.293 398.32C138.288 398.354 138.293 398.389 138.307 398.421C138.321 398.452 138.343 398.479 138.371 398.499C138.415 398.524 138.467 398.532 138.517 398.522ZM140.548 395.156H140.671C141.019 395.156 141.041 395.335 141.053 395.38C141.142 395.941 139.796 397.355 138.809 397.972C138.91 397.024 139.302 396.131 139.931 395.414C140.102 395.261 140.319 395.17 140.548 395.156Z" fill="#D75337"/>
<path d="M137.643 397.366H128.567C128.401 397.364 128.24 397.418 128.109 397.52C127.979 397.622 127.887 397.766 127.849 397.927L126.267 405.321C126.226 405.5 126.226 405.686 126.268 405.864C126.309 406.043 126.391 406.21 126.507 406.353C126.622 406.496 126.769 406.61 126.935 406.688C127.102 406.766 127.284 406.804 127.467 406.802C130.743 406.745 135.467 406.555 139.584 406.555C144.398 406.555 148.56 406.813 154.17 406.813C157.536 406.813 158.523 403.368 157.098 403.054C150.591 401.629 145.284 401.472 139.663 398.005C139.063 397.608 138.363 397.386 137.643 397.366Z" fill="#263238"/>
<path d="M108.573 161.092C101.269 161.26 91.8672 177.921 91.8672 177.921L103.67 191.463C108.098 188.338 111.633 184.111 113.925 179.2C118.233 170.37 116.034 160.923 108.573 161.092Z" fill="#D75337"/>
<path opacity="0.2" d="M111.86 175.408C107.294 178.381 104.657 184.944 103.143 190.824L103.67 191.418C108.088 188.302 111.622 184.092 113.925 179.2C114.179 178.676 114.415 178.149 114.632 177.618L111.86 175.408Z" fill="black"/>
<path d="M153.003 187.95C152.88 192.314 152.577 197.363 151.993 203.231C151.488 208.426 150.759 214.249 149.749 220.779H109.358C109.067 215.169 112.803 187.838 106.789 161.438C111.289 160.666 115.829 160.152 120.387 159.901C126.135 159.598 131.895 159.598 137.643 159.901C141.576 160.256 145.478 160.886 149.323 161.786C149.323 161.786 153.598 166.072 153.003 187.95Z" fill="#D75337"/>
<path opacity="0.2" d="M153.003 187.95C152.879 192.314 152.576 197.363 151.993 203.231C148.627 199.775 144.296 194.379 144.723 189.768L153.003 187.95Z" fill="black"/>
<path opacity="0.2" d="M129.924 246.776C119.961 248.582 121.016 283.015 122.216 300.72C125.089 288.199 129.296 264.121 132.168 247.023C131.465 246.706 130.679 246.619 129.924 246.776Z" fill="black"/>
<path d="M149.828 227.625C149.828 227.625 150.882 280.682 150.052 302.314C149.199 324.821 140.785 398.523 140.785 398.523H127.86C127.86 398.523 127.388 326.145 126.816 304.031C126.188 279.931 123.08 227.625 123.08 227.625H149.828Z" fill="#D75337"/>
<path d="M152.88 169.629C153.531 171.694 154.294 174.005 155.124 176.17C155.954 178.336 156.762 180.546 157.66 182.678C159.342 186.88 161.388 190.927 163.774 194.773C164.358 195.693 164.975 196.568 165.603 197.398L166.086 198.004C165.869 197.82 165.632 197.662 165.379 197.533C164.804 197.24 164.159 197.111 163.516 197.163C163.073 197.185 162.641 197.316 162.26 197.544C161.901 197.813 162.114 197.757 162.26 197.544C162.54 197.28 162.795 196.991 163.023 196.68C163.644 195.857 164.217 194.999 164.739 194.111C166.983 190.262 169.048 185.808 171.078 181.5L176.576 183.037C175.926 188.164 174.696 193.2 172.907 198.049C172.41 199.382 171.813 200.676 171.123 201.92C170.705 202.651 170.237 203.352 169.721 204.018C168.981 204.993 168.059 205.817 167.006 206.441C166.088 206.966 165.064 207.277 164.01 207.35C162.753 207.428 161.498 207.156 160.386 206.565C159.598 206.138 158.885 205.584 158.277 204.927L157.559 204.141C156.616 203.094 155.741 202.028 154.933 200.944C151.839 196.675 149.207 192.09 147.079 187.267C146.036 184.911 145.037 182.543 144.185 180.142C143.332 177.741 142.502 175.385 141.795 172.737L152.88 169.629Z" fill="#FFC3BD"/>
<path d="M137.283 170.168C132.302 179.379 147.516 193.729 147.516 193.729L162.696 183.295C160.319 177.491 157.526 171.866 154.337 166.466C148.335 156.536 141.087 163.167 137.283 170.168Z" fill="#D75337"/>
<path d="M174.713 185.617L182.219 179.794L176.149 174.184C176.149 174.184 170.326 177.55 171.145 182.98L174.713 185.617Z" fill="#FFC3BD"/>
<path d="M183.533 176.126L179.46 170.493L176.15 174.129L182.22 179.795L183.533 176.126Z" fill="#FFC3BD"/>
<path opacity="0.7" d="M149.828 227.625C149.828 227.625 150.882 280.682 150.052 302.314C149.199 324.821 140.785 398.523 140.785 398.523H127.86C127.86 398.523 127.388 326.145 126.816 304.031C126.188 279.931 123.08 227.625 123.08 227.625H149.828Z" fill="white"/>
<path d="M109.494 219.366C106.843 228.233 105.925 237.527 106.79 246.742H150.11L150.312 219.815L109.494 219.366Z" fill="#D75337"/>
<path opacity="0.7" d="M109.494 219.366C106.843 228.233 105.925 237.527 106.79 246.742H150.11L150.312 219.815L109.494 219.366Z" fill="white"/>
<path d="M119.367 220.376L108.753 220.253L108.473 223.013L119.367 223.114V220.376Z" fill="#263238"/>
<path d="M137.362 220.59L121.004 220.399V223.125L137.362 223.282V220.59Z" fill="#263238"/>
<path d="M138.52 220.599V223.292L150.311 223.393V220.734L138.52 220.599Z" fill="#263238"/>
<path opacity="0.2" d="M128.871 152.955C129.166 152.776 129.478 152.625 129.802 152.506C129.297 152.776 128.95 152.921 128.871 152.955Z" fill="black"/>
</svg>
