<svg width="555" height="424" viewBox="0 0 555 424" fill="none" xmlns="http://www.w3.org/2000/svg">
<path d="M81.1824 380.487C189.432 438.499 364.94 438.499 473.189 380.487C581.438 322.476 581.426 228.433 473.189 170.421C364.952 112.41 189.432 112.41 81.1824 170.421C-27.0668 228.433 -27.0548 322.488 81.1824 380.487Z" fill="#F5F5F5"/>
<path d="M116.411 5.13057L108.026 9.92194C108.026 9.55061 108.098 9.17928 108.098 8.81993V6.42424C108.098 2.13596 105.08 0.435012 101.366 2.54322C99.7638 3.5213 98.3943 4.83768 97.3536 6.40028C96.7427 0.998 92.5622 -1.01438 87.3636 1.95628C81.8056 5.1665 77.2897 12.9764 77.2897 19.4089V23.0024C77.2726 24.4687 77.5922 25.9194 78.224 27.2428L71.3125 31.2316C70.2254 31.9406 69.3206 32.8957 68.6713 34.0194C68.0221 35.1432 67.6465 36.4041 67.5752 37.7C67.5752 40.0956 69.2522 41.0539 71.3125 39.8561L116.411 13.755C117.499 13.0467 118.404 12.0918 119.054 10.9679C119.703 9.84401 120.078 8.58278 120.149 7.28668C120.173 4.91495 118.496 3.9447 116.411 5.13057Z" fill="#EBEBEB"/>
<path d="M152.071 29.399L145.782 32.9926C145.8 32.7134 145.8 32.4333 145.782 32.1541V30.3693C145.782 27.1351 143.507 25.8175 140.704 27.4346C139.498 28.1784 138.465 29.1707 137.673 30.3453C137.218 26.2727 134.02 24.7634 130.139 27.0034C127.922 28.4445 126.077 30.3894 124.755 32.6793C123.433 34.9692 122.672 37.5392 122.532 40.1796V42.8987C122.509 43.988 122.73 45.0686 123.179 46.0611L117.957 49.0676C117.137 49.6041 116.455 50.3261 115.965 51.1751C115.476 52.0242 115.194 52.9764 115.142 53.9549C115.142 55.7516 116.399 56.4823 117.957 55.5839L152.011 35.9153C152.831 35.3815 153.513 34.6617 154.002 33.8146C154.491 32.9675 154.774 32.0169 154.826 31.0401C154.886 29.2313 153.628 28.5007 152.071 29.399Z" fill="#EBEBEB"/>
<path d="M488.64 62.0638L482.352 65.6573C482.369 65.3781 482.369 65.098 482.352 64.8188V62.9981C482.352 59.7639 480.076 58.4463 477.273 60.0754C476.062 60.8123 475.028 61.8059 474.242 62.9861C473.787 58.9134 470.649 57.3922 466.708 59.6321C464.493 61.0746 462.651 63.0201 461.331 65.3099C460.011 67.5998 459.252 70.1691 459.114 72.8084V75.5275C459.083 76.6161 459.3 77.6975 459.748 78.6898L454.538 81.6964C453.716 82.2323 453.032 82.9538 452.541 83.8028C452.05 84.6518 451.766 85.6044 451.711 86.5836C451.711 88.3804 452.981 89.1111 454.538 88.2127L488.593 68.5441C489.412 68.0103 490.094 67.2905 490.583 66.4434C491.073 65.5963 491.355 64.6457 491.407 63.6689C491.455 61.8961 490.198 61.1654 488.64 62.0638Z" fill="#EBEBEB"/>
<path d="M113.237 178.698L19.8174 232.637V237.129L105.451 286.564L198.871 232.637V228.145L113.237 178.698Z" fill="#D75337"/>
<path opacity="0.15" d="M19.8174 232.637L105.451 282.072V286.564L19.8174 237.129V232.637Z" fill="black"/>
<path opacity="0.1" d="M105.45 282.072L198.87 228.145V232.637L105.45 286.564V282.072Z" fill="black"/>
<path d="M190.558 211.927L186.866 219.201L187.464 219.504L191.156 212.23L190.558 211.927Z" fill="#455A64"/>
<path d="M183.735 211.357L183.165 211.71L186.765 217.525L187.336 217.172L183.735 211.357Z" fill="#455A64"/>
<path d="M187.731 210.68V228.217C187.729 228.265 187.713 228.312 187.685 228.353C187.658 228.393 187.62 228.425 187.575 228.444C187.454 228.509 187.318 228.543 187.18 228.543C187.042 228.543 186.907 228.509 186.785 228.444C186.738 228.426 186.698 228.395 186.668 228.355C186.638 228.315 186.621 228.267 186.617 228.217V210.68H187.731Z" fill="#455A64"/>
<path d="M200.991 205.23C200.991 206.841 200.513 208.416 199.618 209.755C198.723 211.095 197.451 212.139 195.963 212.755C194.474 213.372 192.837 213.533 191.256 213.219C189.676 212.905 188.225 212.129 187.086 210.99C185.947 209.851 185.171 208.399 184.857 206.819C184.542 205.239 184.704 203.601 185.32 202.113C185.937 200.625 186.981 199.352 188.32 198.457C189.66 197.562 191.235 197.085 192.846 197.085C195.005 197.088 197.075 197.947 198.602 199.474C200.129 201.001 200.988 203.071 200.991 205.23Z" fill="#D75337"/>
<path opacity="0.2" d="M195.398 203.147C196.452 199.841 197.566 198.548 196.859 198.14C195.51 197.375 193.971 197.01 192.422 197.09C190.873 197.169 189.379 197.689 188.116 198.588C186.852 199.487 185.871 200.729 185.289 202.166C184.707 203.604 184.547 205.177 184.829 206.703C185.11 208.228 185.821 209.641 186.878 210.776C187.935 211.911 189.294 212.72 190.796 213.109C192.297 213.498 193.878 213.45 195.353 212.972C196.829 212.493 198.136 211.603 199.123 210.406C196.668 211.113 194.032 207.436 195.398 203.147Z" fill="black"/>
<path d="M185.742 207.53C185.742 208.662 185.407 209.769 184.777 210.711C184.148 211.653 183.254 212.386 182.208 212.82C181.162 213.253 180.01 213.367 178.9 213.146C177.789 212.925 176.769 212.379 175.968 211.579C175.167 210.778 174.622 209.758 174.401 208.647C174.18 207.536 174.293 206.385 174.727 205.339C175.16 204.293 175.894 203.398 176.836 202.769C177.777 202.14 178.884 201.804 180.017 201.804C181.535 201.804 182.992 202.407 184.065 203.481C185.139 204.555 185.742 206.011 185.742 207.53Z" fill="#D75337"/>
<path opacity="0.2" d="M180.017 201.804C178.815 201.804 177.645 202.186 176.675 202.894C176.519 206.38 179.49 209.794 178.651 210.944C177.813 212.094 175.788 211.387 175.058 210.405C175.562 211.274 176.286 211.994 177.157 212.495C178.029 212.995 179.016 213.258 180.021 213.256C181.025 213.254 182.012 212.987 182.881 212.483C183.75 211.979 184.472 211.256 184.972 210.385C185.473 209.514 185.736 208.527 185.735 207.522C185.734 206.517 185.468 205.531 184.964 204.661C184.461 203.792 183.738 203.07 182.867 202.568C181.997 202.067 181.009 201.803 180.005 201.804H180.017Z" fill="black"/>
<path d="M187.18 211.867C192.982 211.867 197.685 207.164 197.685 201.362C197.685 195.56 192.982 190.857 187.18 190.857C181.378 190.857 176.675 195.56 176.675 201.362C176.675 207.164 181.378 211.867 187.18 211.867Z" fill="#D75337"/>
<path opacity="0.1" d="M197.397 203.756C197 205.457 196.186 207.033 195.027 208.339C193.869 209.646 192.402 210.644 190.761 211.242C189.12 211.839 187.356 212.018 185.628 211.763C183.901 211.507 182.264 210.825 180.866 209.777C179.469 208.73 178.354 207.35 177.624 205.764C176.893 204.177 176.57 202.434 176.683 200.691C176.796 198.948 177.342 197.261 178.271 195.782C179.2 194.303 180.483 193.079 182.005 192.221C181.117 192.745 180.31 193.394 179.609 194.15C179.087 196.395 179.319 198.75 180.269 200.851C181.219 202.951 182.834 204.681 184.866 205.771C186.897 206.862 189.231 207.253 191.507 206.885C193.782 206.516 195.873 205.408 197.457 203.732L197.397 203.756Z" fill="black"/>
<path d="M34.9136 216.403L31.2217 223.677L31.8198 223.981L35.5118 216.707L34.9136 216.403Z" fill="#455A64"/>
<path d="M28.0606 215.823L27.4902 216.177L31.0904 221.992L31.6607 221.639L28.0606 215.823Z" fill="#455A64"/>
<path d="M32.071 215.149V232.686C32.0662 232.735 32.0481 232.782 32.0186 232.823C31.9891 232.863 31.9492 232.894 31.9033 232.913C31.78 232.973 31.6449 233.004 31.508 233.004C31.3712 233.004 31.2361 232.973 31.1128 232.913C31.0683 232.893 31.0302 232.862 31.0027 232.821C30.9753 232.781 30.9594 232.734 30.957 232.686V215.149H32.071Z" fill="#455A64"/>
<path d="M45.3307 209.686C45.3307 211.297 44.853 212.872 43.958 214.211C43.063 215.551 41.7908 216.595 40.3025 217.211C38.8141 217.828 37.1764 217.989 35.5963 217.675C34.0163 217.361 32.5649 216.585 31.4258 215.446C30.2866 214.307 29.5108 212.855 29.1966 211.275C28.8823 209.695 29.0436 208.057 29.6601 206.569C30.2766 205.081 31.3206 203.809 32.6601 202.914C33.9996 202.018 35.5744 201.541 37.1854 201.541C39.3457 201.541 41.4175 202.399 42.945 203.926C44.4726 205.454 45.3307 207.526 45.3307 209.686Z" fill="#D75337"/>
<path opacity="0.2" d="M39.7484 207.602C40.8025 204.296 41.9165 203.002 41.2098 202.607C39.9893 201.905 38.6051 201.537 37.197 201.541C35.8246 201.54 34.4742 201.886 33.2713 202.547C32.0684 203.208 31.052 204.162 30.3165 205.321C29.5809 206.479 29.1501 207.805 29.0639 209.175C28.9778 210.545 29.2391 211.914 29.8237 213.156C30.4083 214.397 31.2972 215.471 32.4078 216.278C33.5185 217.084 34.8148 217.596 36.1765 217.768C37.5383 217.939 38.9212 217.764 40.1969 217.257C41.4726 216.751 42.5998 215.931 43.4737 214.873C41.0541 215.58 38.3709 211.89 39.7484 207.602Z" fill="black"/>
<path d="M30.0823 211.999C30.0823 213.131 29.7464 214.238 29.1173 215.18C28.4882 216.122 27.5939 216.855 26.5477 217.289C25.5015 217.722 24.3502 217.835 23.2395 217.615C22.1289 217.394 21.1086 216.848 20.3079 216.048C19.5071 215.247 18.9618 214.227 18.7409 213.116C18.52 212.005 18.6333 210.854 19.0667 209.808C19.5001 208.762 20.2339 207.867 21.1755 207.238C22.1171 206.609 23.2241 206.273 24.3566 206.273C25.1089 206.272 25.8542 206.419 26.5496 206.706C27.2449 206.993 27.8768 207.415 28.4088 207.947C28.9408 208.479 29.3624 209.111 29.6496 209.806C29.9368 210.501 30.0838 211.247 30.0823 211.999Z" fill="#D75337"/>
<path opacity="0.2" d="M24.3575 206.273C23.1573 206.269 21.9869 206.646 21.0155 207.351C20.8598 210.849 23.8185 214.263 22.992 215.401C22.1655 216.539 20.1171 215.844 19.3984 214.874C19.9029 215.743 20.6271 216.463 21.4982 216.964C22.3694 217.464 23.357 217.727 24.3616 217.725C25.3663 217.723 26.3528 217.456 27.2219 216.952C28.0911 216.448 28.8124 215.725 29.3133 214.854C29.8142 213.983 30.0772 212.996 30.0758 211.991C30.0744 210.986 29.8086 210 29.3053 209.13C28.8019 208.261 28.0786 207.539 27.208 207.037C26.3374 206.536 25.3502 206.272 24.3455 206.273H24.3575Z" fill="black"/>
<path d="M31.507 216.322C37.3089 216.322 42.0121 211.619 42.0121 205.817C42.0121 200.016 37.3089 195.312 31.507 195.312C25.7052 195.312 21.002 200.016 21.002 205.817C21.002 211.619 25.7052 216.322 31.507 216.322Z" fill="#D75337"/>
<path opacity="0.1" d="M41.7259 208.225C41.3248 209.92 40.5077 211.489 39.3484 212.79C38.1891 214.091 36.7241 215.083 35.0856 215.676C33.4471 216.269 31.6868 216.445 29.9634 216.187C28.2401 215.929 26.608 215.247 25.2146 214.2C23.8211 213.154 22.7101 211.778 21.9818 210.195C21.2536 208.612 20.931 206.872 21.0433 205.133C21.1555 203.394 21.699 201.711 22.6247 200.235C23.5504 198.758 24.8292 197.536 26.3456 196.677C25.4394 197.2 24.6125 197.85 23.89 198.606C23.3722 200.849 23.6065 203.2 24.5567 205.297C25.5068 207.394 27.1201 209.12 29.148 210.209C31.1759 211.299 33.5058 211.691 35.7787 211.326C38.0516 210.961 40.1413 209.859 41.7259 208.189V208.225Z" fill="black"/>
<path d="M134.438 251.85L147.483 244.328L159.186 251.084L146.153 258.594L134.438 251.85Z" fill="#F0F0F0"/>
<path d="M43.1868 232.637L43.1748 192.186L105.463 228.134V268.597L43.1868 232.637Z" fill="#F0F0F0"/>
<path d="M43.1748 208.237L105.463 244.209V228.134L43.1748 192.186V208.237Z" fill="#E0E0E0"/>
<path d="M175.513 228.133V188.808L152.155 183.19V178.698L105.463 228.133V268.596L175.513 228.133Z" fill="#FAFAFA"/>
<path d="M152.154 178.698V183.19L179.405 189.934V185.442L152.154 178.698Z" fill="#263238"/>
<path d="M117.142 149.483L179.406 185.442L152.155 178.698L89.8789 142.739L117.142 149.483Z" fill="#37474F"/>
<path d="M101.557 234.901L152.166 178.698V174.206L97.6641 237.129L101.557 234.901Z" fill="#37474F"/>
<path d="M89.8906 138.247L152.167 174.206L97.7604 237.189L35.3887 201.17L89.8906 138.247Z" fill="#455A64"/>
<path d="M70.3535 196.51L78.1994 201.038V212.406L70.3535 207.914V196.51Z" fill="#263238"/>
<path d="M78.1992 201.038L86.0331 196.51V203.422L78.1992 212.406V201.038Z" fill="#37474F"/>
<path d="M78.1995 188.808L69.5391 193.803V196.067L78.1995 201.038L86.8479 196.067V193.803L78.1995 188.808Z" fill="#F5F5F5"/>
<path d="M69.5391 196.067L78.1995 201.038V198.775L69.5391 193.803V196.067Z" fill="#E0E0E0"/>
<path d="M86.8477 196.067L78.1992 201.038V198.775L86.8477 193.803V196.067Z" fill="#EBEBEB"/>
<path d="M72.4502 193.802L78.1998 190.484L83.9495 193.802L78.1998 197.108L72.4502 193.802Z" fill="#D75337"/>
<path d="M78.1998 190.484V197.108L72.4502 193.802L78.1998 190.484Z" fill="#37474F"/>
<path d="M78.1992 190.484L83.9489 193.802L78.1992 197.108V190.484Z" fill="#263238"/>
<path d="M110.506 238.71L128.03 228.6V242.088L110.506 252.198V238.71Z" fill="#455A64"/>
<path d="M127.252 241.634V229.056L110.506 238.711V251.3L127.252 241.634Z" fill="#E0E0E0"/>
<path d="M128.03 242.089L127.252 241.634L110.506 251.3V252.199L128.03 242.089Z" fill="#37474F"/>
<path d="M110.506 245.454L128.03 235.344V234.434L110.506 244.543V245.454Z" fill="#455A64"/>
<path d="M153.328 213.975L170.841 203.865V217.353L153.328 227.463V213.975Z" fill="#455A64"/>
<path d="M170.062 216.897V204.32L153.328 213.974V226.564L170.062 216.897Z" fill="#E0E0E0"/>
<path d="M170.841 217.352L170.062 216.897L153.328 226.564V227.462L170.841 217.352Z" fill="#37474F"/>
<path d="M153.328 220.719L170.841 210.609V209.699L153.328 219.821V220.719Z" fill="#455A64"/>
<path d="M134.438 251.851V224.887L147.483 217.365V244.328L134.438 251.851Z" fill="#37474F"/>
<path d="M147.028 243.98V217.628L134.438 224.887V251.239L147.028 243.98Z" fill="#455A64"/>
<path d="M147.483 217.365L147.027 217.628V243.981L147.483 244.328V217.365Z" fill="#263238"/>
<path d="M91.2443 233.428L82.0928 228.145V241.621L91.2443 246.904V233.428Z" fill="#455A64"/>
<path d="M82.8711 241.166V228.589L91.244 233.428V246.005L82.8711 241.166Z" fill="#FAFAFA"/>
<path d="M82.0928 241.62L82.8714 241.165L91.2443 246.004V246.902L82.0928 241.62Z" fill="#37474F"/>
<path d="M91.2443 240.123L82.0928 234.877V233.967L91.2443 239.213V240.123Z" fill="#455A64"/>
<path d="M82.8711 228.589L91.244 233.428V236.027L82.8711 231.224V228.589Z" fill="#F5F5F5"/>
<path d="M63.9933 217.688L54.8418 212.405V225.893L63.9933 231.175V217.688Z" fill="#455A64"/>
<path d="M55.6328 225.438V212.861L63.9938 217.688V230.266L55.6328 225.438Z" fill="#FAFAFA"/>
<path d="M54.8418 225.894L55.6324 225.438L63.9933 230.266V231.176L54.8418 225.894Z" fill="#37474F"/>
<path d="M63.9933 224.383L54.8418 219.137V218.226L63.9933 223.473V224.383Z" fill="#455A64"/>
<path d="M55.6328 212.861L63.9938 217.688V220.18L55.6328 215.389V212.861Z" fill="#F5F5F5"/>
<path d="M437.266 174.769L343.846 228.708V233.2L437.266 287.139L530.697 233.2V228.708L437.266 174.769Z" fill="#D75337"/>
<path opacity="0.15" d="M343.846 228.707L437.278 282.646L437.266 287.138L343.846 233.199V228.707Z" fill="black"/>
<path opacity="0.1" d="M437.278 282.646L530.698 228.707V233.199L437.266 287.138L437.278 282.646Z" fill="black"/>
<path d="M522.644 212.637L518.952 219.911L519.55 220.214L523.242 212.94L522.644 212.637Z" fill="#455A64"/>
<path d="M516.758 210.021L516.188 210.377L519.813 216.19L520.383 215.835L516.758 210.021Z" fill="#455A64"/>
<path d="M519.833 211.399V228.935C519.83 228.984 519.815 229.031 519.787 229.071C519.76 229.111 519.721 229.143 519.677 229.163C519.555 229.228 519.42 229.262 519.282 229.262C519.144 229.262 519.008 229.228 518.886 229.163C518.841 229.144 518.801 229.112 518.771 229.072C518.742 229.032 518.724 228.985 518.719 228.935V211.399H519.833Z" fill="#455A64"/>
<path d="M533.093 205.949C533.093 207.56 532.616 209.134 531.721 210.474C530.826 211.813 529.554 212.857 528.065 213.474C526.577 214.09 524.939 214.252 523.359 213.937C521.779 213.623 520.328 212.847 519.188 211.708C518.049 210.569 517.274 209.118 516.959 207.538C516.645 205.958 516.806 204.32 517.423 202.831C518.039 201.343 519.083 200.071 520.423 199.176C521.762 198.281 523.337 197.803 524.948 197.803C527.108 197.803 529.18 198.661 530.708 200.189C532.235 201.716 533.093 203.788 533.093 205.949Z" fill="#D75337"/>
<path opacity="0.2" d="M527.5 203.864C528.554 200.558 529.68 199.264 528.961 198.857C527.612 198.093 526.072 197.73 524.524 197.811C522.975 197.892 521.481 198.414 520.219 199.314C518.956 200.215 517.977 201.457 517.397 202.895C516.816 204.333 516.657 205.907 516.94 207.432C517.223 208.956 517.936 210.369 518.994 211.503C520.052 212.636 521.411 213.445 522.913 213.832C524.414 214.22 525.995 214.171 527.47 213.691C528.945 213.211 530.252 212.32 531.237 211.123C528.818 211.83 526.146 208.116 527.5 203.864Z" fill="black"/>
<path d="M517.846 208.249C517.846 209.381 517.51 210.488 516.881 211.43C516.252 212.371 515.358 213.105 514.311 213.538C513.265 213.972 512.114 214.085 511.003 213.864C509.893 213.643 508.872 213.098 508.072 212.297C507.271 211.497 506.725 210.476 506.505 209.366C506.284 208.255 506.397 207.104 506.83 206.058C507.264 205.011 507.998 204.117 508.939 203.488C509.881 202.859 510.988 202.523 512.12 202.523C513.639 202.523 515.095 203.126 516.169 204.2C517.243 205.274 517.846 206.73 517.846 208.249Z" fill="#D75337"/>
<path opacity="0.2" d="M512.119 202.523C510.918 202.524 509.748 202.906 508.777 203.613C508.621 207.099 511.592 210.513 510.765 211.663C509.939 212.812 507.891 212.106 507.172 211.123C507.676 211.992 508.4 212.713 509.272 213.214C510.143 213.714 511.13 213.976 512.135 213.974C513.14 213.972 514.126 213.706 514.995 213.202C515.865 212.698 516.586 211.974 517.087 211.104C517.588 210.233 517.851 209.245 517.849 208.241C517.848 207.236 517.582 206.249 517.079 205.38C516.575 204.51 515.852 203.789 514.981 203.287C514.111 202.786 513.124 202.522 512.119 202.523Z" fill="black"/>
<path d="M519.282 212.585C525.084 212.585 529.788 207.882 529.788 202.08C529.788 196.278 525.084 191.575 519.282 191.575C513.481 191.575 508.777 196.278 508.777 202.08C508.777 207.882 513.481 212.585 519.282 212.585Z" fill="#D75337"/>
<path opacity="0.1" d="M529.5 204.523C529.094 206.218 528.273 207.784 527.11 209.082C525.948 210.38 524.481 211.369 522.841 211.959C521.201 212.549 519.441 212.722 517.718 212.462C515.995 212.202 514.364 211.518 512.971 210.47C511.578 209.423 510.468 208.046 509.74 206.463C509.012 204.88 508.689 203.14 508.801 201.402C508.912 199.663 509.455 197.979 510.379 196.502C511.303 195.025 512.581 193.801 514.096 192.94C513.181 193.455 512.349 194.106 511.628 194.868C511.106 197.114 511.338 199.469 512.288 201.57C513.238 203.67 514.854 205.399 516.885 206.49C518.916 207.581 521.25 207.972 523.526 207.603C525.802 207.235 527.893 206.127 529.476 204.451L529.5 204.523Z" fill="black"/>
<path d="M358.912 212.253L355.22 219.527L355.818 219.83L359.51 212.556L358.912 212.253Z" fill="#455A64"/>
<path d="M353.071 210.218L352.501 210.573L356.126 216.387L356.696 216.032L353.071 210.218Z" fill="#455A64"/>
<path d="M356.1 211.016V228.553C356.094 228.602 356.076 228.649 356.046 228.688C356.017 228.728 355.978 228.76 355.933 228.78C355.809 228.84 355.674 228.87 355.537 228.87C355.4 228.87 355.265 228.84 355.142 228.78C355.1 228.757 355.064 228.725 355.036 228.685C355.009 228.646 354.992 228.6 354.986 228.553V211.016H356.1Z" fill="#455A64"/>
<path d="M369.36 205.553C369.36 207.164 368.882 208.739 367.987 210.078C367.092 211.418 365.82 212.462 364.332 213.078C362.843 213.695 361.206 213.856 359.626 213.542C358.046 213.228 356.594 212.452 355.455 211.313C354.316 210.174 353.54 208.722 353.226 207.142C352.912 205.562 353.073 203.924 353.689 202.436C354.306 200.948 355.35 199.675 356.689 198.78C358.029 197.885 359.604 197.408 361.215 197.408C363.374 197.411 365.444 198.27 366.971 199.797C368.498 201.324 369.357 203.394 369.36 205.553Z" fill="#D75337"/>
<path opacity="0.2" d="M363.767 203.47C364.821 200.164 365.935 198.87 365.228 198.463C363.88 197.699 362.341 197.336 360.793 197.416C359.245 197.496 357.752 198.017 356.489 198.916C355.226 199.815 354.247 201.056 353.665 202.493C353.083 203.93 352.923 205.503 353.204 207.027C353.485 208.552 354.196 209.964 355.252 211.099C356.308 212.234 357.666 213.044 359.166 213.434C360.666 213.824 362.247 213.777 363.722 213.3C365.196 212.823 366.505 211.935 367.492 210.741C365.085 211.435 362.402 207.758 363.767 203.47Z" fill="black"/>
<path d="M354.112 207.853C354.114 208.986 353.78 210.094 353.152 211.037C352.525 211.98 351.631 212.716 350.585 213.151C349.539 213.586 348.388 213.702 347.276 213.482C346.165 213.262 345.143 212.718 344.341 211.918C343.539 211.118 342.993 210.097 342.771 208.986C342.549 207.875 342.662 206.723 343.095 205.677C343.528 204.63 344.262 203.735 345.204 203.105C346.145 202.475 347.253 202.139 348.386 202.139C349.902 202.139 351.357 202.741 352.43 203.812C353.504 204.883 354.108 206.336 354.112 207.853Z" fill="#D75337"/>
<path opacity="0.2" d="M348.386 202.127C347.186 202.123 346.015 202.501 345.044 203.206C344.888 206.703 347.859 210.105 347.02 211.255C346.182 212.405 344.145 211.698 343.427 210.728C343.931 211.597 344.655 212.318 345.527 212.818C346.398 213.319 347.385 213.581 348.39 213.579C349.395 213.577 350.381 213.31 351.25 212.807C352.119 212.303 352.841 211.579 353.342 210.708C353.843 209.837 354.106 208.85 354.104 207.845C354.103 206.84 353.837 205.854 353.334 204.984C352.83 204.115 352.107 203.393 351.236 202.892C350.366 202.39 349.379 202.127 348.374 202.127H348.386Z" fill="black"/>
<path d="M355.536 212.189C361.338 212.189 366.041 207.486 366.041 201.684C366.041 195.882 361.338 191.179 355.536 191.179C349.735 191.179 345.031 195.882 345.031 201.684C345.031 207.486 349.735 212.189 355.536 212.189Z" fill="#D75337"/>
<path opacity="0.1" d="M365.767 204.092C365.368 205.791 364.552 207.365 363.392 208.67C362.233 209.975 360.766 210.97 359.125 211.566C357.484 212.162 355.721 212.34 353.994 212.083C352.267 211.826 350.632 211.143 349.235 210.095C347.839 209.048 346.725 207.669 345.996 206.083C345.266 204.497 344.943 202.754 345.056 201.012C345.169 199.27 345.715 197.583 346.643 196.105C347.572 194.626 348.854 193.403 350.374 192.544C349.466 193.063 348.638 193.713 347.919 194.473C347.407 196.716 347.646 199.065 348.598 201.159C349.551 203.253 351.164 204.977 353.191 206.065C355.218 207.153 357.546 207.546 359.818 207.183C362.09 206.82 364.18 205.721 365.767 204.056V204.092Z" fill="black"/>
<path d="M456.084 151.315L463.918 155.843V164.898L456.084 160.371V151.315Z" fill="#E0E0E0"/>
<path d="M463.918 155.843L471.764 151.315V169.414L463.918 164.898V155.843Z" fill="#F0F0F0"/>
<path d="M463.918 143.612L455.27 148.595V150.859L463.918 155.842L472.578 150.859V148.595L463.918 143.612Z" fill="#455A64"/>
<path d="M455.27 150.859L463.918 155.842V153.578L455.27 148.595V150.859Z" fill="#37474F"/>
<path d="M472.578 150.859L463.918 155.842V153.578L472.578 148.595V150.859Z" fill="#263238"/>
<path d="M458.168 148.596L463.918 145.29L469.679 148.596L463.918 151.914L458.168 148.596Z" fill="#D75337"/>
<path d="M463.918 145.29V151.914L458.168 148.596L463.918 145.29Z" fill="#37474F"/>
<path d="M463.918 145.29L469.68 148.596L463.918 151.914V145.29Z" fill="#263238"/>
<path d="M437.278 242.195L437.266 201.744L460.588 215.219V255.671L437.278 242.195Z" fill="#F0F0F0"/>
<path d="M437.266 201.744L460.588 215.219V231.33L437.266 217.879V201.744Z" fill="#E0E0E0"/>
<path d="M507.34 228.708V188.257L483.934 174.769L460.588 215.22V255.671L507.34 228.708Z" fill="#FAFAFA"/>
<path d="M456.731 221.964L483.934 174.769V170.277L452.838 224.216L456.731 221.964Z" fill="#37474F"/>
<path d="M437.266 143.314L483.934 170.277L452.838 224.216L437.278 215.22L437.266 143.314Z" fill="#455A64"/>
<path d="M483.934 174.769L511.232 190.497L515.125 188.257L483.934 170.277V174.769Z" fill="#263238"/>
<path d="M493.695 210.452L502.847 205.206V218.693L493.695 223.94V210.452Z" fill="#455A64"/>
<path d="M502.068 218.239V205.662L493.695 210.453V223.03L502.068 218.239Z" fill="#E0E0E0"/>
<path d="M502.847 218.693L502.068 218.238L493.695 223.029V223.94L502.847 218.693Z" fill="#37474F"/>
<path d="M493.695 217.196L502.847 211.95V211.04L493.695 216.286V217.196Z" fill="#455A64"/>
<path d="M464.972 227.019L474.123 221.772V235.248L464.972 240.506V227.019Z" fill="#455A64"/>
<path d="M473.345 234.804V222.215L464.972 227.018V239.596L473.345 234.804Z" fill="#E0E0E0"/>
<path d="M474.123 235.248L473.345 234.805L464.972 239.597V240.507L474.123 235.248Z" fill="#37474F"/>
<path d="M464.972 233.763L474.123 228.516V227.606L464.972 232.853V233.763Z" fill="#455A64"/>
<path d="M478.101 195L489.78 188.256V198.366L478.101 205.11V195Z" fill="#455A64"/>
<path d="M489.001 197.911V188.7L478.101 195V204.212L489.001 197.911Z" fill="#E0E0E0"/>
<path d="M489.78 198.367L489.001 197.912L478.101 204.212V205.111L489.78 198.367Z" fill="#37474F"/>
<path d="M511.234 190.496H507.341V188.256L511.234 190.496Z" fill="black"/>
<path d="M477.417 245.944V218.981L490.462 211.458V238.422L477.417 245.944Z" fill="#37474F"/>
<path d="M490.006 238.075V211.722L477.417 218.981V245.334L490.006 238.075Z" fill="#455A64"/>
<path d="M490.463 211.458L490.008 211.722V238.075L490.463 238.422V211.458Z" fill="#263238"/>
<path d="M437.266 242.195V201.744L413.956 215.219V255.671L437.266 242.195Z" fill="#FAFAFA"/>
<path d="M437.266 201.744L413.956 215.219V231.33L437.278 217.879L437.266 201.744Z" fill="#F5F5F5"/>
<path d="M367.205 228.708V188.257L390.599 174.769L413.957 215.22V255.671L367.205 228.708Z" fill="#EBEBEB"/>
<path d="M417.814 221.964L390.599 174.769V170.277L421.707 224.216L417.814 221.964Z" fill="#455A64"/>
<path d="M437.267 143.314L390.599 170.277L421.707 224.216L437.267 215.22V143.314Z" fill="#37474F"/>
<path d="M390.598 174.769L363.311 190.497L359.418 188.257L390.598 170.277V174.769Z" fill="#263238"/>
<path d="M384.142 211.483L374.99 206.237V219.725L384.142 224.959V211.483Z" fill="#455A64"/>
<path d="M375.769 219.269V206.679L384.142 211.483V224.06L375.769 219.269Z" fill="#FAFAFA"/>
<path d="M375.769 206.679L384.142 211.518V213.183L375.769 208.38V206.679Z" fill="#F5F5F5"/>
<path d="M397.761 219.376L406.134 224.216V225.881L397.761 221.077V219.376Z" fill="#F5F5F5"/>
<path d="M374.99 219.724L375.769 219.269L384.142 224.06V224.959L374.99 219.724Z" fill="#37474F"/>
<path d="M384.142 218.227L374.99 212.98V212.07L384.142 217.316V218.227Z" fill="#455A64"/>
<path d="M396.444 195L384.765 188.256V198.366L396.444 205.11V195Z" fill="#455A64"/>
<path d="M385.543 197.911V188.7L396.443 195V204.212L385.543 197.911Z" fill="#FAFAFA"/>
<path d="M385.543 188.7L396.443 195V196.665L385.543 190.413V188.7Z" fill="#F5F5F5"/>
<path d="M384.765 198.367L385.543 197.912L396.444 204.212V205.111L384.765 198.367Z" fill="#37474F"/>
<path d="M363.312 190.496H367.205V188.256L363.312 190.496Z" fill="black"/>
<path d="M406.134 224.216L396.982 218.933V232.409L406.134 237.691V224.216Z" fill="#455A64"/>
<path d="M397.761 231.954V219.376L406.134 224.216V236.793L397.761 231.954Z" fill="#FAFAFA"/>
<path d="M396.982 232.409L397.761 231.954L406.134 236.793V237.692L396.982 232.409Z" fill="#37474F"/>
<path d="M406.134 230.912L396.982 225.666V224.755L406.134 230.002V230.912Z" fill="#455A64"/>
<path d="M397.761 219.376L406.134 224.216V225.881L397.761 221.077V219.376Z" fill="#F5F5F5"/>
<path d="M452.837 224.215L441.146 217.459V229.893L452.837 236.637V224.215Z" fill="#263238"/>
<path d="M441.865 229.475V217.879L452.837 224.216V235.811L441.865 229.475Z" fill="#FAFAFA"/>
<path d="M441.865 217.879V220.575L452.837 226.923V224.216L441.865 217.879Z" fill="#F0F0F0"/>
<path d="M441.147 229.894L441.866 229.474L452.838 235.811V236.637L441.147 229.894Z" fill="#37474F"/>
<path d="M441.147 223.677L441.866 223.258L452.838 229.594V230.433L441.147 223.677Z" fill="#37474F"/>
<path d="M446.752 233.128L447.471 233.536V221.114L446.752 220.695V233.128Z" fill="#37474F"/>
<path d="M429.276 251.239L431.348 250.041C431.919 246.673 432.004 243.24 431.6 239.847C430.558 233.235 426.042 230.947 424.413 231.606C422.784 232.265 422.401 234.229 425.359 238.051C428.034 241.918 429.406 246.538 429.276 251.239Z" fill="#D75337"/>
<g opacity="0.2">
<path d="M429.276 251.239L431.348 250.041C431.919 246.673 432.004 243.24 431.6 239.847C430.558 233.235 426.042 230.947 424.413 231.606C422.784 232.265 422.401 234.229 425.359 238.051C428.034 241.918 429.406 246.538 429.276 251.239Z" fill="black"/>
</g>
<path d="M430.031 248.651C430.011 248.65 429.991 248.644 429.973 248.635C429.956 248.626 429.94 248.613 429.928 248.597C429.915 248.581 429.906 248.563 429.901 248.543C429.896 248.524 429.896 248.504 429.899 248.484C430.761 242.291 428.27 235.499 425.467 232.756C425.44 232.729 425.425 232.692 425.425 232.654C425.425 232.616 425.44 232.579 425.467 232.552C425.494 232.525 425.531 232.51 425.569 232.51C425.607 232.51 425.644 232.525 425.671 232.552C428.521 235.331 431.061 242.231 430.198 248.532C430.196 248.551 430.189 248.569 430.179 248.585C430.169 248.602 430.156 248.616 430.14 248.627C430.124 248.638 430.107 248.646 430.088 248.65C430.069 248.654 430.05 248.655 430.031 248.651Z" fill="white"/>
<path d="M423.527 254.606C423.191 254.797 422.52 254.39 422.257 254.21C421.816 253.906 421.462 253.494 421.227 253.013C420.961 252.471 420.869 251.86 420.963 251.264C421.015 250.948 421.087 250.636 421.179 250.329C421.275 250.018 421.359 249.719 421.442 249.419C421.551 249.124 421.596 248.81 421.574 248.497C421.493 248.195 421.351 247.914 421.157 247.669C420.964 247.424 420.722 247.221 420.448 247.071C420.14 246.893 419.878 246.645 419.683 246.348C419.487 246.051 419.364 245.712 419.322 245.358C419.361 244.777 419.593 244.224 419.981 243.789C420.34 243.334 420.76 242.939 421.083 242.46C421.304 242.201 421.435 241.878 421.457 241.539C421.478 241.2 421.389 240.863 421.203 240.579C420.9 240.114 420.635 239.626 420.412 239.118C420.303 238.863 420.269 238.582 420.314 238.308C420.358 238.035 420.48 237.78 420.664 237.572C420.845 237.436 421.052 237.338 421.272 237.282C421.492 237.227 421.721 237.215 421.946 237.249C422.371 237.298 422.78 237.441 423.143 237.668C424.341 238.327 425.012 239.74 426.27 240.244C426.768 240.402 427.276 240.527 427.791 240.615C428.05 240.661 428.296 240.761 428.513 240.91C428.73 241.059 428.913 241.252 429.049 241.477C429.516 242.4 428.653 243.538 428.977 244.52C429.3 245.502 430.115 245.718 430.582 246.508C430.782 246.847 430.863 247.244 430.81 247.634C430.767 248.301 430.605 248.954 430.33 249.563C430.017 250.16 429.665 250.737 429.276 251.288L423.527 254.606Z" fill="#D75337"/>
<g opacity="0.1">
<path d="M423.527 254.606C423.191 254.797 422.52 254.39 422.257 254.21C421.816 253.906 421.462 253.494 421.227 253.013C420.961 252.471 420.869 251.86 420.963 251.264C421.015 250.948 421.087 250.636 421.179 250.329C421.275 250.018 421.359 249.719 421.442 249.419C421.551 249.124 421.596 248.81 421.574 248.497C421.493 248.195 421.351 247.914 421.157 247.669C420.964 247.424 420.722 247.221 420.448 247.071C420.14 246.893 419.878 246.645 419.683 246.348C419.487 246.051 419.364 245.712 419.322 245.358C419.361 244.777 419.593 244.224 419.981 243.789C420.34 243.334 420.76 242.939 421.083 242.46C421.304 242.201 421.435 241.878 421.457 241.539C421.478 241.2 421.389 240.863 421.203 240.579C420.9 240.114 420.635 239.626 420.412 239.118C420.303 238.863 420.269 238.582 420.314 238.308C420.358 238.035 420.48 237.78 420.664 237.572C420.845 237.436 421.052 237.338 421.272 237.282C421.492 237.227 421.721 237.215 421.946 237.249C422.371 237.298 422.78 237.441 423.143 237.668C424.341 238.327 425.012 239.74 426.27 240.244C426.768 240.402 427.276 240.527 427.791 240.615C428.05 240.661 428.296 240.761 428.513 240.91C428.73 241.059 428.913 241.252 429.049 241.477C429.516 242.4 428.653 243.538 428.977 244.52C429.3 245.502 430.115 245.718 430.582 246.508C430.782 246.847 430.863 247.244 430.81 247.634C430.767 248.301 430.605 248.954 430.33 249.563C430.017 250.16 429.665 250.737 429.276 251.288L423.527 254.606Z" fill="black"/>
</g>
<path d="M426.894 252.819C426.856 252.814 426.82 252.796 426.794 252.767C426.768 252.739 426.752 252.702 426.75 252.664C427.002 246.794 424.235 240.314 422.222 238.433C422.208 238.42 422.197 238.404 422.189 238.386C422.181 238.368 422.176 238.349 422.176 238.33C422.175 238.31 422.179 238.291 422.185 238.273C422.192 238.255 422.203 238.238 422.216 238.224C422.23 238.21 422.246 238.198 422.263 238.19C422.281 238.182 422.3 238.178 422.32 238.177C422.339 238.177 422.359 238.18 422.377 238.187C422.395 238.194 422.412 238.204 422.426 238.218C424.474 240.134 427.301 246.722 427.05 252.676C427.047 252.715 427.029 252.751 427 252.778C426.971 252.805 426.933 252.82 426.894 252.819Z" fill="white"/>
<path d="M426.006 245.884C424.613 245.506 423.184 245.277 421.742 245.201C421.722 245.201 421.702 245.197 421.684 245.189C421.666 245.181 421.649 245.17 421.636 245.155C421.622 245.14 421.612 245.123 421.605 245.104C421.599 245.085 421.596 245.065 421.598 245.046C421.601 245.006 421.619 244.97 421.648 244.943C421.677 244.917 421.715 244.902 421.754 244.902C423.221 244.978 424.675 245.215 426.09 245.609C426.108 245.614 426.125 245.623 426.14 245.635C426.154 245.647 426.166 245.662 426.175 245.679C426.184 245.695 426.19 245.714 426.192 245.732C426.193 245.751 426.191 245.77 426.186 245.788C426.172 245.823 426.147 245.852 426.114 245.87C426.081 245.887 426.043 245.892 426.006 245.884Z" fill="white"/>
<path d="M477.417 245.945L490.462 238.422L502.164 245.178L489.12 252.688L477.417 245.945Z" fill="#F0F0F0"/>
<path d="M266.477 265.494L152.61 331.232V336.286L270.85 404.552L384.705 338.814V333.759L266.477 265.494Z" fill="#D75337"/>
<path d="M319.027 356.518L332.084 364.148L354.016 351.487L340.924 343.881L319.027 356.518Z" fill="#F0F0F0"/>
<path opacity="0.15" d="M152.61 331.232L270.85 399.497V404.552L152.61 336.287V331.232Z" fill="black"/>
<path opacity="0.1" d="M270.85 399.498L384.705 333.76V338.815L270.85 404.553V399.498Z" fill="black"/>
<path d="M371.911 311.374L366.837 321.372L367.659 321.789L372.734 311.791L371.911 311.374Z" fill="#263238"/>
<path d="M362.482 310.525L361.708 311.004L366.657 318.999L367.431 318.52L362.482 310.525Z" fill="#263238"/>
<path d="M367.958 309.599V333.687C367.951 333.755 367.926 333.819 367.886 333.874C367.846 333.928 367.793 333.972 367.73 333.999C367.562 334.085 367.375 334.13 367.185 334.13C366.996 334.13 366.809 334.085 366.64 333.999C366.58 333.971 366.528 333.927 366.49 333.873C366.452 333.818 366.429 333.754 366.425 333.687V309.599H367.958Z" fill="#263238"/>
<path d="M375.014 313.289C381.193 313.289 386.202 308.28 386.202 302.101C386.202 295.922 381.193 290.913 375.014 290.913C368.835 290.913 363.826 295.922 363.826 302.101C363.826 308.28 368.835 313.289 375.014 313.289Z" fill="#455A64"/>
<path d="M378.523 299.249C379.961 294.697 381.506 292.924 380.524 292.373C378.671 291.324 376.557 290.824 374.43 290.934C372.303 291.045 370.251 291.759 368.517 292.995C366.782 294.231 365.436 295.936 364.637 297.91C363.838 299.885 363.62 302.046 364.007 304.14C364.394 306.235 365.37 308.175 366.822 309.733C368.274 311.292 370.14 312.403 372.202 312.937C374.264 313.472 376.435 313.406 378.461 312.749C380.487 312.092 382.283 310.87 383.638 309.227C380.332 310.185 376.655 305.142 378.523 299.249Z" fill="#37474F"/>
<path d="M357.394 313.132C361.734 313.132 365.252 309.614 365.252 305.274C365.252 300.935 361.734 297.417 357.394 297.417C353.054 297.417 349.536 300.935 349.536 305.274C349.536 309.614 353.054 313.132 357.394 313.132Z" fill="#455A64"/>
<path d="M357.393 297.405C355.742 297.403 354.132 297.923 352.794 298.89C352.59 303.682 356.663 308.377 355.525 309.958C354.387 311.54 351.572 310.557 350.602 309.228C351.296 310.417 352.292 311.402 353.488 312.086C354.683 312.769 356.038 313.126 357.415 313.121C358.792 313.116 360.144 312.749 361.335 312.056C362.525 311.364 363.513 310.371 364.199 309.177C364.885 307.983 365.246 306.629 365.244 305.252C365.242 303.875 364.878 302.522 364.189 301.33C363.499 300.138 362.509 299.147 361.316 298.458C360.123 297.77 358.771 297.406 357.393 297.405Z" fill="#37474F"/>
<path d="M381.25 300.081C383.08 292.329 378.279 284.562 370.526 282.732C362.774 280.902 355.007 285.703 353.177 293.456C351.347 301.208 356.149 308.975 363.901 310.805C371.653 312.634 379.42 307.833 381.25 300.081Z" fill="#455A64"/>
<path d="M381.266 300.087C380.705 302.399 379.579 304.535 377.989 306.305C376.398 308.074 374.394 309.421 372.155 310.225C369.916 311.029 367.513 311.264 365.16 310.91C362.808 310.557 360.58 309.625 358.677 308.198C356.773 306.771 355.254 304.894 354.254 302.735C353.255 300.577 352.807 298.204 352.95 295.829C353.093 293.455 353.824 291.153 355.076 289.13C356.328 287.107 358.063 285.427 360.124 284.24C358.875 284.953 357.737 285.845 356.746 286.887C356.496 287.968 356.367 289.072 356.363 290.181C356.339 293.079 357.191 295.917 358.808 298.322C360.425 300.727 362.731 302.588 365.424 303.659C368.117 304.73 371.071 304.962 373.898 304.325C376.725 303.688 379.293 302.21 381.266 300.087Z" fill="#37474F"/>
<path d="M174.971 308.518L169.896 318.515L170.719 318.933L175.793 308.935L174.971 308.518Z" fill="#263238"/>
<path d="M165.567 307.722L164.793 308.202L169.742 316.197L170.516 315.718L165.567 307.722Z" fill="#263238"/>
<path d="M171.068 306.785V330.874C171.064 330.94 171.041 331.004 171.003 331.059C170.965 331.114 170.913 331.157 170.853 331.185C170.684 331.271 170.497 331.316 170.308 331.316C170.118 331.316 169.931 331.271 169.763 331.185C169.701 331.158 169.647 331.115 169.607 331.06C169.567 331.005 169.542 330.941 169.535 330.874V306.785H171.068Z" fill="#263238"/>
<path d="M178.1 310.485C184.279 310.485 189.288 305.476 189.288 299.297C189.288 293.118 184.279 288.109 178.1 288.109C171.921 288.109 166.912 293.118 166.912 299.297C166.912 305.476 171.921 310.485 178.1 310.485Z" fill="#455A64"/>
<path d="M181.609 296.434C183.047 291.882 184.58 290.109 183.61 289.558C181.757 288.508 179.643 288.009 177.516 288.119C175.389 288.229 173.337 288.944 171.603 290.18C169.868 291.416 168.522 293.121 167.723 295.095C166.924 297.07 166.706 299.231 167.093 301.325C167.48 303.419 168.456 305.36 169.908 306.918C171.36 308.477 173.226 309.588 175.288 310.122C177.35 310.657 179.521 310.591 181.547 309.934C183.573 309.277 185.369 308.055 186.724 306.412C183.418 307.382 179.729 302.327 181.609 296.434Z" fill="#37474F"/>
<path d="M160.481 310.317C164.821 310.317 168.339 306.799 168.339 302.459C168.339 298.119 164.821 294.601 160.481 294.601C156.141 294.601 152.623 298.119 152.623 302.459C152.623 306.799 156.141 310.317 160.481 310.317Z" fill="#455A64"/>
<path d="M160.481 294.601C158.831 294.599 157.222 295.114 155.881 296.075C155.665 300.866 159.75 305.562 158.612 307.143C157.474 308.724 154.659 307.742 153.677 306.412C154.37 307.603 155.364 308.59 156.559 309.276C157.754 309.961 159.108 310.32 160.486 310.317C161.863 310.314 163.216 309.949 164.408 309.258C165.6 308.567 166.589 307.575 167.277 306.382C167.965 305.188 168.326 303.834 168.326 302.457C168.325 301.079 167.963 299.726 167.274 298.532C166.586 297.339 165.596 296.348 164.403 295.658C163.211 294.968 161.858 294.604 160.481 294.601Z" fill="#37474F"/>
<path d="M180.503 304.18C186.135 298.548 186.135 289.416 180.503 283.784C174.871 278.152 165.739 278.152 160.107 283.784C154.475 289.416 154.475 298.548 160.107 304.18C165.739 309.812 174.871 309.812 180.503 304.18Z" fill="#455A64"/>
<path d="M184.341 297.273C183.781 299.586 182.656 301.724 181.065 303.494C179.475 305.265 177.47 306.613 175.23 307.418C172.991 308.222 170.586 308.458 168.233 308.104C165.879 307.75 163.651 306.817 161.747 305.389C159.843 303.961 158.323 302.083 157.324 299.923C156.326 297.762 155.879 295.388 156.024 293.013C156.169 290.637 156.902 288.335 158.156 286.313C159.411 284.29 161.148 282.611 163.212 281.426C161.958 282.132 160.819 283.025 159.834 284.073C159.583 285.153 159.455 286.258 159.45 287.367C159.428 290.262 160.282 293.097 161.898 295.499C163.514 297.902 165.819 299.76 168.509 300.83C171.199 301.901 174.15 302.134 176.975 301.5C179.8 300.865 182.368 299.392 184.341 297.273Z" fill="#37474F"/>
<path d="M205.158 316.067L297.129 369.156V288.253L205.158 235.165V316.067Z" fill="#F0F0F0"/>
<path d="M270.849 338.815V384.333L178.891 331.232V285.726L270.849 338.815Z" fill="#F0F0F0"/>
<path d="M178.891 300.891L270.849 353.991V338.815L178.891 285.726V300.891Z" fill="#E0E0E0"/>
<path d="M205.158 250.33L297.129 303.418V288.253L205.158 235.153V250.33Z" fill="#E0E0E0"/>
<path d="M297.13 288.252L358.436 252.856V333.758L297.13 369.155V288.252Z" fill="#FAFAFA"/>
<path d="M270.85 338.814L297.13 313.54V369.156L270.85 384.332V338.814Z" fill="#FAFAFA"/>
<path d="M327.783 235.153L297.13 288.254L358.436 252.857L327.783 235.153Z" fill="#FAFAFA"/>
<path d="M292.746 295.836L327.783 235.153V231.368L292.746 292.051V295.836Z" fill="#D75337"/>
<path opacity="0.1" d="M292.746 295.836L327.783 235.153V231.368L292.746 292.051V295.836Z" fill="black"/>
<path d="M235.816 178.277L200.785 238.953L292.747 292.047L327.778 231.372L235.816 178.277Z" fill="#D75337"/>
<path d="M200.787 238.95L292.746 292.05V295.836L200.787 242.747V238.95Z" fill="#D75337"/>
<path opacity="0.15" d="M200.787 238.95L292.746 292.05V295.836L200.787 242.747V238.95Z" fill="black"/>
<path d="M327.783 231.368L366.102 253.492L362.808 255.385L327.783 235.153V231.368Z" fill="#D75337"/>
<path opacity="0.15" d="M327.783 231.368L366.102 253.492L362.808 255.385L327.783 235.153V231.368Z" fill="black"/>
<path d="M362.808 255.383H358.436V252.856L362.808 255.383Z" fill="#D75337"/>
<path opacity="0.3" d="M362.808 255.383H358.436V252.856L362.808 255.383Z" fill="black"/>
<path d="M219.27 238.231V220.023L229.751 213.974L240.196 232.062V250.329L219.27 238.231Z" fill="#F0F0F0"/>
<path opacity="0.2" d="M229.751 213.975L216.814 221.438L215.161 220.479L229.751 212.059V213.975Z" fill="black"/>
<path d="M240.197 250.329L250.654 232.194L255.997 222.923L240.197 232.062V250.329Z" fill="#FAFAFA"/>
<path opacity="0.4" d="M216.814 221.438H219.27V220.024L216.814 221.438Z" fill="black"/>
<path d="M242.689 236.375L229.752 213.975V212.058L244.306 237.309L242.689 236.375Z" fill="#D75337"/>
<path opacity="0.1" d="M242.689 236.375L229.752 213.975V212.058L244.306 237.309L242.689 236.375Z" fill="black"/>
<path d="M244.306 237.309L229.752 212.058L244.809 203.362L259.363 228.613L244.306 237.309Z" fill="#D75337"/>
<path opacity="0.3" d="M244.306 237.309L229.752 212.058L244.809 203.362L259.363 228.613L244.306 237.309Z" fill="white"/>
<path d="M234.974 229.139L224.505 223.09V235.164L234.974 241.213V229.139Z" fill="#455A64"/>
<path d="M225.57 234.541V223.701L234.973 229.139V239.968L225.57 234.541Z" fill="#E0E0E0"/>
<path d="M224.505 235.165L225.571 234.542L234.974 239.968V241.214L224.505 235.165Z" fill="#37474F"/>
<path d="M263.051 263.518V245.311L273.544 239.261L283.989 257.349V275.616L263.051 263.518Z" fill="#F0F0F0"/>
<path opacity="0.2" d="M273.543 239.261L260.606 246.724L258.941 245.765L273.543 237.344V239.261Z" fill="black"/>
<path d="M283.989 275.616L294.434 257.481L299.777 248.21L283.989 257.349V275.616Z" fill="#FAFAFA"/>
<path opacity="0.4" d="M260.607 246.724H263.051V245.311L260.607 246.724Z" fill="black"/>
<path d="M286.482 261.661L273.545 239.261V237.344L288.087 262.595L286.482 261.661Z" fill="#D75337"/>
<path opacity="0.1" d="M286.482 261.661L273.545 239.261V237.344L288.087 262.595L286.482 261.661Z" fill="black"/>
<path d="M288.087 262.594L273.545 237.344L288.59 228.635L303.144 253.886L288.087 262.594Z" fill="#D75337"/>
<path opacity="0.3" d="M288.087 262.594L273.545 237.344L288.59 228.635L303.144 253.886L288.087 262.594Z" fill="white"/>
<path d="M278.754 254.414L268.285 248.377V260.451L278.754 266.5V254.414Z" fill="#455A64"/>
<path d="M269.363 259.828V248.988L278.754 254.414V265.255L269.363 259.828Z" fill="#E0E0E0"/>
<path d="M268.285 260.451L269.363 259.828L278.754 265.254V266.5L268.285 260.451Z" fill="#37474F"/>
<path d="M205.159 257.025L297.129 310.114V313.54L266.476 346.409L174.506 293.308V289.894L205.159 257.025Z" fill="#D75337"/>
<path d="M205.159 257.025L297.129 310.114L266.476 342.983L174.506 289.894L205.159 257.025Z" fill="#D75337"/>
<path opacity="0.1" d="M266.477 342.983V346.409L297.129 313.54V310.114L266.477 342.983Z" fill="black"/>
<path opacity="0.15" d="M266.476 346.409L174.506 293.308V289.894L266.476 342.983V346.409Z" fill="black"/>
<path d="M213.928 316.055L192.031 303.418V326.68L213.928 339.317V316.055Z" fill="#263238"/>
<path d="M193.373 325.901V304.196L213.928 316.067V337.76L193.373 325.901Z" fill="#FAFAFA"/>
<path d="M193.373 304.196V309.263L213.928 321.122V316.055L193.373 304.196Z" fill="#F0F0F0"/>
<path d="M192.031 326.68L193.373 325.901L213.928 337.76V339.317L192.031 326.68Z" fill="#37474F"/>
<path d="M192.031 315.049L193.373 314.27L213.928 326.129V327.686L192.031 315.049Z" fill="#37474F"/>
<path d="M202.524 332.74L203.866 333.519V310.257L202.524 309.478V332.74Z" fill="#37474F"/>
<path d="M253.336 338.815L231.439 326.177V349.44L253.336 362.077V338.815Z" fill="#263238"/>
<path d="M232.781 348.661V326.956L253.336 338.814V360.519L232.781 348.661Z" fill="#FAFAFA"/>
<path d="M232.781 326.956V332.011L253.336 343.881V338.814L232.781 326.956Z" fill="#F0F0F0"/>
<path d="M231.44 349.439L232.782 348.66L253.337 360.519V362.076L231.44 349.439Z" fill="#37474F"/>
<path d="M231.44 337.808L232.782 337.029L253.337 348.888V350.445L231.44 337.808Z" fill="#37474F"/>
<path d="M241.934 355.499L243.275 356.278V333.016L241.934 332.237V355.499Z" fill="#37474F"/>
<path d="M283.989 341.353L305.886 328.704V351.966L283.989 364.603V341.353Z" fill="#263238"/>
<path d="M304.544 351.188V329.483L283.989 341.354V363.046L304.544 351.188Z" fill="#E6E6E6"/>
<path d="M304.544 329.483V331.711L283.989 343.57V341.354L304.544 329.483Z" fill="#E0E0E0"/>
<path d="M305.885 351.966L304.543 351.187L283.988 363.046V364.603L305.885 351.966Z" fill="#37474F"/>
<path d="M305.885 340.336L304.543 339.557L283.988 351.416V352.973L305.885 340.336Z" fill="#37474F"/>
<path d="M295.392 358.027L294.051 358.806V335.544L295.392 334.765V358.027Z" fill="#37474F"/>
<path d="M318.619 266.069L340.516 253.431V276.694L318.619 289.331V266.069Z" fill="#263238"/>
<path d="M339.174 275.915V254.21L318.619 266.069V287.774L339.174 275.915Z" fill="#E6E6E6"/>
<path d="M339.174 254.21V256.438L318.619 268.297V266.069L339.174 254.21Z" fill="#E0E0E0"/>
<path d="M340.516 276.693L339.174 275.915L318.619 287.773V289.33L340.516 276.693Z" fill="#37474F"/>
<path d="M340.516 265.063L339.174 264.284L318.619 276.155V277.712L340.516 265.063Z" fill="#37474F"/>
<path d="M330.022 282.755L328.681 283.534V260.272L330.022 259.493V282.755Z" fill="#37474F"/>
<path d="M319.026 356.518V316.067L340.923 303.418V343.881L319.026 356.518Z" fill="#37474F"/>
<path d="M340.12 343.271V303.885L319.026 316.068V355.453L340.12 343.271Z" fill="#455A64"/>
<path d="M340.924 303.418L340.121 303.885V343.27L340.924 343.881V303.418Z" fill="#263238"/>
<path d="M443.95 20.5954C443.882 17.4231 443.069 14.3113 441.574 11.5122C440.08 8.71305 437.947 6.3054 435.349 4.48437C432.953 2.96311 430.653 2.73552 428.976 3.59797C418.855 8.67683 347.727 54.2788 343.187 56.5307H343.127C342.648 56.8482 342.263 57.2874 342.01 57.8032C341.758 58.3189 341.647 58.8927 341.69 59.4654C341.717 61.0645 342.124 62.6342 342.876 64.0459C343.627 65.4575 344.703 66.671 346.014 67.5868C346.467 67.9411 347.008 68.1678 347.578 68.2436C348.149 68.3194 348.729 68.2416 349.26 68.018H349.332C356.519 64.0532 426.725 34.131 441.075 26.4409C442.764 25.5065 443.854 23.4942 443.95 20.5954Z" fill="#D75337"/>
<path opacity="0.1" d="M441.158 10.761C439.75 8.23496 437.758 6.08273 435.348 4.48429C432.952 2.96302 430.677 2.73543 429 3.5859L428.784 3.70569C419.549 8.42519 366.616 42.1924 348.804 53.1767L348.684 53.2485L347.965 53.6917L347.75 53.8235L347.343 54.075L346.863 54.3625C344.983 55.5604 343.713 56.2551 343.27 56.5067H343.21C343.058 56.597 342.917 56.7056 342.791 56.8301C342.455 57.1749 342.191 57.5838 342.017 58.0324C341.842 58.4809 341.759 58.9601 341.773 59.4414C341.749 59.7804 341.749 60.1206 341.773 60.4596C341.773 60.5913 341.773 60.7231 341.832 60.8548C341.892 60.9866 341.904 61.2621 341.952 61.4777C342 61.6933 342.036 61.8131 342.084 61.9688C342.132 62.1245 342.204 62.3641 342.276 62.5558C342.348 62.7474 342.383 62.8433 342.431 62.987V63.0589L441.158 10.761Z" fill="black"/>
<path d="M346.002 67.5981C344.697 66.6845 343.626 65.4764 342.874 64.0717C342.123 62.667 341.713 61.1052 341.678 59.5126C341.786 56.5899 343.87 55.4639 346.349 57.0091C347.656 57.924 348.728 59.1339 349.48 60.5408C350.231 61.9477 350.64 63.512 350.674 65.1066C350.578 68.0293 348.482 69.1673 346.002 67.5981Z" fill="#D75337"/>
<path d="M324.739 69.5632C324.768 70.7868 325.082 71.9867 325.659 73.0664C326.235 74.1461 327.057 75.0756 328.057 75.78C328.405 76.0488 328.818 76.2203 329.253 76.2771C329.689 76.334 330.132 76.274 330.537 76.1034L347.738 66.9399C348.103 66.6973 348.398 66.3622 348.591 65.9687C348.785 65.5752 348.871 65.1374 348.84 64.6999C348.814 63.476 348.5 62.2754 347.923 61.1954C347.347 60.1153 346.524 59.1862 345.522 58.4831C345.176 58.2113 344.764 58.0368 344.328 57.9778C343.892 57.9189 343.448 57.9775 343.042 58.1477L325.841 67.3112C325.474 67.5548 325.178 67.8918 324.985 68.2877C324.791 68.6835 324.706 69.1238 324.739 69.5632Z" fill="#37474F"/>
<path d="M325.865 67.3112C325.494 67.5519 325.193 67.8876 324.995 68.2837C324.797 68.6797 324.709 69.1215 324.739 69.5632C324.733 70.4723 324.912 71.373 325.266 72.2104L347.45 60.3757C346.948 59.6246 346.3 58.9812 345.546 58.4831C345.2 58.2113 344.788 58.0368 344.352 57.9778C343.916 57.9189 343.472 57.9775 343.066 58.1477L325.865 67.3112Z" fill="#263238"/>
<path d="M346.815 84.8239C346.815 73.8038 339.533 62.7836 324.955 54.3747C295.823 37.545 248.58 37.545 219.437 54.3747C204.871 62.7596 197.588 73.8038 197.588 84.8239V105.187C197.588 116.207 204.871 127.228 219.449 135.648C248.58 152.418 295.823 152.418 324.955 135.648C339.533 127.264 346.815 116.207 346.815 105.187V84.8239ZM223.018 60.6155C236.027 53.105 253.479 48.9724 272.13 48.9724C290.78 48.9724 308.269 53.105 321.241 60.6155C333.004 67.4073 339.485 76.0078 339.485 84.8359C339.485 93.664 333.004 102.253 321.241 109.044C308.233 116.555 290.78 120.687 272.13 120.687C253.479 120.687 235.991 116.555 223.018 109.044C211.243 102.253 204.775 93.652 204.775 84.8359C204.775 76.0198 211.279 67.4073 223.018 60.6155Z" fill="#D75337"/>
<path opacity="0.3" d="M219.425 115.285C248.568 132.114 295.799 132.114 324.943 115.285C354.087 98.4548 354.087 71.1919 324.943 54.3741C295.799 37.5564 248.568 37.5444 219.425 54.3741C190.281 71.2038 190.305 98.4668 219.425 115.285ZM204.787 84.8353C204.787 76.0072 211.268 67.4067 223.03 60.6149C236.051 53.1044 253.504 48.9719 272.142 48.9719C290.78 48.9719 308.281 53.1044 321.254 60.6149C333.016 67.4067 339.497 76.0072 339.497 84.8353C339.497 93.6634 333.016 102.252 321.254 109.044C308.233 116.554 290.78 120.687 272.142 120.687C253.504 120.687 236.003 116.554 223.03 109.044C211.28 102.252 204.799 93.6514 204.799 84.8353H204.787Z" fill="white"/>
<path d="M204.8 84.8227C204.842 88.412 205.848 91.9241 207.711 94.9924C210.669 89.8656 215.88 85.0622 223.055 80.9297C236.052 73.4072 253.516 69.2746 272.167 69.2746C290.817 69.2746 308.306 73.4072 321.278 80.9297C328.465 85.0622 333.664 89.8656 336.635 94.9924C338.489 91.9208 339.489 88.4101 339.533 84.8227C339.533 76.0065 333.053 67.406 321.278 60.6142C308.282 53.1038 290.817 48.9712 272.167 48.9712C253.516 48.9712 236.016 53.1038 223.055 60.6142C211.28 67.406 204.8 76.0065 204.8 84.8227Z" fill="#D75337"/>
<path opacity="0.1" d="M204.8 84.8227C204.842 88.412 205.848 91.9241 207.711 94.9924C210.669 89.8656 215.88 85.0622 223.055 80.9297C236.052 73.4072 253.516 69.2746 272.167 69.2746C290.817 69.2746 308.306 73.4072 321.278 80.9297C328.465 85.0622 333.664 89.8656 336.635 94.9924C338.489 91.9208 339.489 88.4101 339.533 84.8227C339.533 76.0065 333.053 67.406 321.278 60.6142C308.282 53.1038 290.817 48.9712 272.167 48.9712C253.516 48.9712 236.016 53.1038 223.055 60.6142C211.28 67.406 204.8 76.0065 204.8 84.8227Z" fill="black"/>
<path opacity="0.4" d="M223.019 69.8147C236.04 62.3042 253.492 58.1597 272.131 58.1597C290.769 58.1597 308.27 62.3042 321.242 69.8147C330.945 75.4206 337.042 82.2483 338.887 89.4234C337.042 96.6105 330.945 103.438 321.242 109.044C308.222 116.555 290.769 120.687 272.131 120.687C253.492 120.687 235.992 116.555 223.019 109.044C213.317 103.438 207.22 96.5985 205.375 89.4234C207.244 82.2483 213.341 75.4206 223.019 69.8147Z" fill="white"/>
<path opacity="0.1" d="M254.618 126.664V147.027C241.729 145.23 229.463 141.433 219.449 135.624C204.871 127.239 197.588 116.183 197.588 105.151V84.7872C197.594 82.5421 197.892 80.3072 198.475 78.1392C194.881 91.2556 201.925 105.139 219.425 115.272C229.511 121.106 241.729 124.903 254.618 126.664Z" fill="black"/>
</svg>
