<svg width="238" height="218" viewBox="0 0 238 218" fill="none" xmlns="http://www.w3.org/2000/svg">
<path d="M232.342 200.805H212.98V200.951H232.342V200.805Z" fill="#EBEBEB"/>
<path d="M162.963 202.394H157.883V202.54H162.963V202.394Z" fill="#EBEBEB"/>
<path d="M212.398 195.379H201.18V195.525H212.398V195.379Z" fill="#EBEBEB"/>
<path d="M25.2489 196.361H0V196.507H25.2489V196.361Z" fill="#EBEBEB"/>
<path d="M34.1576 196.361H30.457V196.507H34.1576V196.361Z" fill="#EBEBEB"/>
<path d="M100.955 198.828H46.1895V198.975H100.955V198.828Z" fill="#EBEBEB"/>
<path d="M234.338 165.325H121.451C120.567 165.324 119.718 164.971 119.093 164.346C118.467 163.72 118.115 162.872 118.113 161.987V3.30884C118.123 2.42908 118.478 1.58841 119.103 0.96903C119.728 0.349655 120.572 0.00148973 121.451 0H234.338C235.216 0.00304255 236.058 0.352075 236.68 0.971447C237.303 1.59082 237.656 2.43062 237.664 3.30884V161.987C237.664 162.87 237.314 163.718 236.691 164.343C236.067 164.969 235.221 165.322 234.338 165.325ZM121.451 0.116921C120.605 0.118466 119.794 0.455252 119.196 1.05352C118.598 1.65179 118.261 2.46276 118.259 3.30884V161.987C118.261 162.833 118.598 163.644 119.196 164.242C119.794 164.841 120.605 165.177 121.451 165.179H234.338C235.184 165.177 235.995 164.841 236.593 164.242C237.191 163.644 237.528 162.833 237.53 161.987V3.30884C237.528 2.46276 237.191 1.65179 236.593 1.05352C235.995 0.455252 235.184 0.118466 234.338 0.116921H121.451Z" fill="#EBEBEB"/>
<path d="M66.8537 23.3076H26.7969V135.785H66.8537V23.3076Z" fill="#FAFAFA"/>
<path d="M60.8924 23.3076H58.5481L44.582 135.785H46.9204L60.8924 23.3076Z" fill="#F5F5F5"/>
<path d="M66.1477 23.8281H26.5469V25.0266H66.1477V23.8281Z" fill="#E0E0E0"/>
<path d="M66.1477 134.592H26.5469V137.152H66.1477V134.592Z" fill="#EBEBEB"/>
<path d="M65.4867 137.042H28.0664V137.153H65.4867V137.042Z" fill="#EBEBEB"/>
<path d="M28.0671 23.834H65.4874V137.042H67.7265V22.1504H25.8281V137.042H28.0671V23.834Z" fill="#EBEBEB"/>
<path d="M111.43 23.3076H71.373V135.785H111.43V23.3076Z" fill="#FAFAFA"/>
<path d="M100.318 23.3076H87.5442L73.5781 135.785H86.3458L100.318 23.3076Z" fill="#F5F5F5"/>
<path d="M111.84 23.8281H71.1172V25.0266H111.84V23.8281Z" fill="#E0E0E0"/>
<path d="M111.84 134.592H71.1172V137.152H111.84V134.592Z" fill="#EBEBEB"/>
<path d="M110.057 137.042H72.6367V137.153H110.057V137.042Z" fill="#EBEBEB"/>
<path d="M72.6375 23.834H110.058V137.042H112.303V22.1504H70.3984V137.042H72.6375V23.834Z" fill="#EBEBEB"/>
<path d="M154.872 23.3076H115.943V135.785H154.872V23.3076Z" fill="#FAFAFA"/>
<path d="M138.002 23.3076H135.658L121.691 135.785H124.03L138.002 23.3076Z" fill="#F5F5F5"/>
<path d="M155.288 23.8281H115.688V25.0266H155.288V23.8281Z" fill="#E0E0E0"/>
<path d="M155.288 134.592H115.688V137.152H155.288V134.592Z" fill="#EBEBEB"/>
<path d="M154.627 137.042H117.207V137.153H154.627V137.042Z" fill="#EBEBEB"/>
<path d="M117.208 23.834H154.628V137.042H156.873V22.1504H114.969V137.042H117.208V23.834Z" fill="#EBEBEB"/>
<path d="M200.571 23.3076H160.514V135.785H200.571V23.3076Z" fill="#FAFAFA"/>
<path d="M196.648 23.3076H183.88L169.908 135.785H182.676L196.648 23.3076Z" fill="#F5F5F5"/>
<path d="M199.859 23.8281H160.258V25.0266H199.859V23.8281Z" fill="#E0E0E0"/>
<path d="M199.859 134.592H160.258V137.152H199.859V134.592Z" fill="#EBEBEB"/>
<path d="M161.782 23.834H199.202V137.042H201.441V22.1504H159.537V137.042H161.782V23.834Z" fill="#EBEBEB"/>
<path d="M199.203 137.042H161.783V137.153H199.203V137.042Z" fill="#EBEBEB"/>
<path d="M57.2747 104.532H39.8828V134.598H57.2747V104.532Z" fill="#EBEBEB"/>
<path d="M53.9345 100.329V107.87H52.5607H44.5926H43.2246V100.329H53.9345Z" fill="#EBEBEB"/>
<path d="M53.9289 107.87H56.1562V105.643H53.9289V107.87Z" fill="#FAFAFA"/>
<path d="M49.6203 107.87H51.8477V105.643H49.6203V107.87Z" fill="#FAFAFA"/>
<path d="M45.3117 107.87H47.5391V105.643H45.3117V107.87Z" fill="#FAFAFA"/>
<path d="M40.9914 107.87H43.2188V105.643H40.9914V107.87Z" fill="#F0F0F0"/>
<path d="M53.9289 111.916H56.1562V109.689H53.9289V111.916Z" fill="#F0F0F0"/>
<path d="M49.6203 111.916H51.8477V109.689H49.6203V111.916Z" fill="#F0F0F0"/>
<path d="M45.3117 111.916H47.5391V109.689H45.3117V111.916Z" fill="#FAFAFA"/>
<path d="M40.9914 111.916H43.2188V109.689H40.9914V111.916Z" fill="#FAFAFA"/>
<path d="M53.9289 115.956H56.1562V113.729H53.9289V115.956Z" fill="#F0F0F0"/>
<path d="M49.6203 115.956H51.8477V113.729H49.6203V115.956Z" fill="#FAFAFA"/>
<path d="M45.3117 115.956H47.5391V113.729H45.3117V115.956Z" fill="#FAFAFA"/>
<path d="M49.6203 104.375H51.8477V102.148H49.6203V104.375Z" fill="#FAFAFA"/>
<path d="M45.3117 104.375H47.5391V102.148H45.3117V104.375Z" fill="#F0F0F0"/>
<path d="M40.9914 115.956H43.2188V113.729H40.9914V115.956Z" fill="#F0F0F0"/>
<path d="M53.9289 120.001H56.1562V117.774H53.9289V120.001Z" fill="#FAFAFA"/>
<path d="M49.6203 120.001H51.8477V117.774H49.6203V120.001Z" fill="#F0F0F0"/>
<path d="M45.3117 120.001H47.5391V117.774H45.3117V120.001Z" fill="#F0F0F0"/>
<path d="M40.9914 120.001H43.2188V117.774H40.9914V120.001Z" fill="#FAFAFA"/>
<path d="M53.9289 124.047H56.1562V121.82H53.9289V124.047Z" fill="#F0F0F0"/>
<path d="M49.6203 124.047H51.8477V121.82H49.6203V124.047Z" fill="#FAFAFA"/>
<path d="M45.3117 124.047H47.5391V121.82H45.3117V124.047Z" fill="#FAFAFA"/>
<path d="M40.9914 124.047H43.2188V121.82H40.9914V124.047Z" fill="#F0F0F0"/>
<path d="M53.9289 128.092H56.1562V125.864H53.9289V128.092Z" fill="#F0F0F0"/>
<path d="M49.6203 128.092H51.8477V125.864H49.6203V128.092Z" fill="#FAFAFA"/>
<path d="M45.3117 128.092H47.5391V125.864H45.3117V128.092Z" fill="#F0F0F0"/>
<path d="M40.9914 128.092H43.2188V125.864H40.9914V128.092Z" fill="#FAFAFA"/>
<path d="M53.9289 132.138H56.1562V129.91H53.9289V132.138Z" fill="#FAFAFA"/>
<path d="M49.6203 132.138H51.8477V129.91H49.6203V132.138Z" fill="#FAFAFA"/>
<path d="M45.3117 132.138H47.5391V129.91H45.3117V132.138Z" fill="#F0F0F0"/>
<path d="M40.9914 132.138H43.2188V129.91H40.9914V132.138Z" fill="#F0F0F0"/>
<path d="M179.759 115.482H164.18V134.599H179.759V115.482Z" fill="#F0F0F0"/>
<path d="M165.535 117.604H169.16H170.159H171.153V119.597H170.159H169.16H165.535V117.604Z" fill="#E6E6E6"/>
<path d="M165.535 121.469H169.16H170.159H171.153V123.462H170.159H169.16H165.535V121.469Z" fill="#FAFAFA"/>
<path d="M165.535 125.326H169.16H170.159H171.153V127.325H170.159H169.16H165.535V125.326Z" fill="#E6E6E6"/>
<path d="M165.535 129.19H169.16H170.703H171.153V131.184H170.703H169.16H165.535V129.19Z" fill="#FAFAFA"/>
<path d="M172.785 117.604H176.41H177.404H178.403V119.597H177.404H176.41H172.785V117.604Z" fill="#FAFAFA"/>
<path d="M172.785 121.469H176.41H177.813H178.403V123.462H177.813H176.41H172.785V121.469Z" fill="#FAFAFA"/>
<path d="M172.785 125.326H176.41H177.404H178.403V127.325H177.404H176.41H172.785V125.326Z" fill="#E6E6E6"/>
<path d="M172.785 129.19H176.41H177.404H178.403V131.184H177.404H176.41H172.785V129.19Z" fill="#FAFAFA"/>
<path d="M104.696 122.719H90.543V134.599H104.696V122.719Z" fill="#F0F0F0"/>
<path d="M101.985 126.017H103.797V124.204H101.985V126.017Z" fill="#FAFAFA"/>
<path d="M98.469 126.017H100.281V124.204H98.469V126.017Z" fill="#FAFAFA"/>
<path d="M94.9573 126.017H96.7695V124.204H94.9573V126.017Z" fill="#FAFAFA"/>
<path d="M91.4495 126.017H93.2617V124.204H91.4495V126.017Z" fill="#FAFAFA"/>
<path d="M101.983 129.302H103.795V127.489H101.983V129.302Z" fill="#FAFAFA"/>
<path d="M98.469 129.302H100.281V127.489H98.469V129.302Z" fill="#FAFAFA"/>
<path d="M94.9573 129.302H96.7695V127.489H94.9573V129.302Z" fill="#FAFAFA"/>
<path d="M91.4495 129.302H93.2617V127.49H91.4495V129.302Z" fill="#E6E6E6"/>
<path d="M101.983 132.599H103.795V130.786H101.983V132.599Z" fill="#E6E6E6"/>
<path d="M98.469 132.599H100.281V130.786H98.469V132.599Z" fill="#E6E6E6"/>
<path d="M94.9573 132.599H96.7695V130.786H94.9573V132.599Z" fill="#FAFAFA"/>
<path d="M91.4495 132.599H93.2617V130.786H91.4495V132.599Z" fill="#E6E6E6"/>
<path d="M88.6258 113.938H74.4727V134.598H88.6258V113.938Z" fill="#F0F0F0"/>
<path d="M87.7183 114.845H82.3984V119.948H87.7183V114.845Z" fill="#FAFAFA"/>
<path d="M80.6988 114.845H75.3789V119.948H80.6988V114.845Z" fill="#FAFAFA"/>
<path d="M87.7183 121.428H82.3984V126.531H87.7183V121.428Z" fill="#FAFAFA"/>
<path d="M80.6988 121.428H75.3789V126.531H80.6988V121.428Z" fill="#FAFAFA"/>
<path d="M87.7203 128.016H82.4004V133.119H87.7203V128.016Z" fill="#FAFAFA"/>
<path d="M80.6988 128.016H75.3789V133.119H80.6988V128.016Z" fill="#FAFAFA"/>
<path d="M159.555 187.61H147.051L153.633 133.991C153.796 132.874 154.348 131.851 155.192 131.102C156.036 130.353 157.118 129.927 158.246 129.898H212.877L204.862 187.628L159.555 187.61Z" fill="#F5F5F5"/>
<path d="M199.273 187.61H211.801L218.372 133.991C218.449 133.477 218.413 132.952 218.266 132.454C218.118 131.956 217.864 131.495 217.521 131.106C217.177 130.716 216.752 130.406 216.277 130.197C215.801 129.989 215.285 129.887 214.765 129.898H210.463C209.334 129.925 208.252 130.351 207.408 131.1C206.563 131.85 206.012 132.873 205.85 133.991L199.273 187.61Z" fill="#F0F0F0"/>
<path d="M194.66 187.545L196.928 161.612C196.978 161.05 197.218 160.521 197.609 160.114C198.001 159.707 198.519 159.446 199.079 159.373L200.015 159.256C200.765 159.159 201.459 158.809 201.983 158.264C202.507 157.719 202.83 157.011 202.897 156.257L203.312 151.528C203.351 151.07 203.295 150.609 203.148 150.173C203 149.738 202.763 149.338 202.452 148.999C202.142 148.66 201.764 148.389 201.344 148.203C200.923 148.018 200.468 147.922 200.009 147.921H220.937C221.395 147.925 221.847 148.023 222.265 148.21C222.683 148.397 223.058 148.669 223.366 149.007C223.674 149.346 223.908 149.745 224.055 150.179C224.201 150.612 224.257 151.072 224.217 151.528L223.802 156.257C223.735 157.011 223.413 157.719 222.889 158.264C222.365 158.809 221.67 159.159 220.92 159.256L219.985 159.373C219.425 159.446 218.906 159.707 218.515 160.114C218.124 160.521 217.883 161.05 217.833 161.612L215.565 187.545C215.486 188.458 215.067 189.308 214.392 189.927C213.716 190.546 212.833 190.89 211.917 190.889H191.012C191.928 190.89 192.811 190.546 193.487 189.927C194.162 189.308 194.581 188.458 194.66 187.545Z" fill="#E6E6E6"/>
<path d="M137.064 155.118C136.894 153.151 135.993 151.319 134.539 149.983C133.084 148.647 131.182 147.906 129.207 147.904H147.429C149.401 147.905 151.301 148.645 152.755 149.977C154.209 151.308 155.112 153.136 155.286 155.101L157.081 175.661H138.865L137.064 155.118Z" fill="#E6E6E6"/>
<path d="M121.118 147.904H129.209C131.181 147.905 133.081 148.645 134.535 149.977C135.989 151.308 136.892 153.136 137.066 155.101L138.866 175.679H182.267L184.062 155.118C184.231 153.152 185.132 151.32 186.585 149.985C188.038 148.65 189.939 147.907 191.913 147.904H200.01C200.469 147.905 200.924 148.001 201.345 148.187C201.765 148.372 202.143 148.643 202.453 148.982C202.764 149.321 203.001 149.721 203.148 150.157C203.296 150.592 203.352 151.053 203.313 151.511L202.898 156.241C202.831 156.994 202.508 157.702 201.984 158.247C201.46 158.793 200.766 159.143 200.015 159.24L199.08 159.357C198.52 159.429 198.002 159.69 197.61 160.098C197.219 160.505 196.979 161.033 196.929 161.596L194.661 187.529C194.581 188.441 194.163 189.291 193.487 189.911C192.812 190.53 191.929 190.873 191.013 190.872H130.097C129.181 190.873 128.298 190.53 127.622 189.911C126.947 189.291 126.528 188.441 126.449 187.529L124.181 161.596C124.132 161.033 123.892 160.504 123.501 160.096C123.109 159.689 122.59 159.428 122.03 159.357L121.1 159.24C120.349 159.144 119.653 158.795 119.128 158.249C118.603 157.704 118.28 156.995 118.212 156.241L117.821 151.529C117.778 151.07 117.832 150.607 117.979 150.17C118.125 149.733 118.361 149.331 118.671 148.99C118.981 148.649 119.359 148.377 119.78 148.19C120.201 148.003 120.657 147.906 121.118 147.904Z" fill="#F0F0F0"/>
<path d="M60.0866 144.524H3.15234C3.1529 145.53 3.54165 146.497 4.23758 147.224C4.9335 147.95 5.88291 148.38 6.88794 148.424C13.0087 148.704 22.4208 149.669 25.4023 153.054C30.9677 159.367 30.4298 181.535 23.7654 186.668C21.6725 188.276 15.581 191.474 15.581 191.474H47.6697C47.6697 191.474 41.9757 188.212 39.9939 186.668C33.3704 181.495 33.1774 159.338 38.7662 153.054C41.6366 149.833 50.4582 148.792 56.3744 148.465C57.3794 148.406 58.324 147.966 59.0143 147.233C59.7046 146.5 60.0883 145.531 60.0866 144.524Z" fill="#F5F5F5"/>
<path d="M10.207 148.635C15.9887 149.097 22.9221 150.242 25.4067 153.054C26.2139 154.028 26.8504 155.131 27.2891 156.316H36.8531C37.3059 155.131 37.9519 154.029 38.7648 153.054C41.2552 150.254 48.247 149.102 53.9176 148.635H10.207Z" fill="#E6E6E6"/>
<path d="M35.8361 144.554L35.0586 135.703H46.2829L47.0605 144.554H35.8361Z" fill="#EBEBEB"/>
<path d="M35.8367 144.554L35.0592 135.703H34.457L35.2287 144.554H35.8367Z" fill="#E0E0E0"/>
<path d="M36.899 143.654L36.2852 136.609H45.2179L45.8317 143.654H36.899Z" fill="#F0F0F0"/>
<path d="M37.5848 143.07L37.0703 137.188H44.5357L45.0501 143.07H37.5848Z" fill="#FAFAFA"/>
<path d="M32.1949 144.525H20.9238L22.1749 130.231H33.446L32.1949 144.525Z" fill="#E6E6E6"/>
<path d="M32.1953 144.525H32.7331L33.9842 130.231H33.4464L32.1953 144.525Z" fill="#E0E0E0"/>
<path d="M31.1709 143.069H22.1973L23.1969 131.687H32.1706L31.1709 143.069Z" fill="#F0F0F0"/>
<path d="M30.5161 142.134H23.0156L23.8516 132.622H31.3462L30.5161 142.134Z" fill="#FAFAFA"/>
<path d="M26.7289 136.901C26.9743 137.146 27.3064 137.283 27.6526 137.283C27.9988 137.283 28.3309 137.146 28.5763 136.901C28.8204 136.656 28.9575 136.324 28.9575 135.978C28.9575 135.632 28.8204 135.299 28.5763 135.054C28.3309 134.81 27.9988 134.673 27.6526 134.673C27.3064 134.673 26.9743 134.81 26.7289 135.054C26.4847 135.299 26.3477 135.632 26.3477 135.978C26.3477 136.324 26.4847 136.656 26.7289 136.901Z" fill="#EBEBEB"/>
<path d="M27.2826 138.497C27.194 138.408 27.0888 138.338 26.9729 138.29C26.8571 138.242 26.7328 138.217 26.6073 138.217C26.4819 138.217 26.3576 138.242 26.2418 138.29C26.1259 138.338 26.0207 138.408 25.9321 138.497C25.7963 138.631 25.7038 138.803 25.6667 138.99C25.6295 139.177 25.6494 139.371 25.7237 139.547C25.798 139.723 25.9234 139.872 26.0835 139.976C26.2436 140.079 26.4312 140.132 26.622 140.128C26.8102 140.127 26.9937 140.069 27.1493 139.963C27.3049 139.857 27.4257 139.708 27.4964 139.533C27.567 139.359 27.5844 139.167 27.5464 138.983C27.5083 138.798 27.4165 138.63 27.2826 138.497Z" fill="#F0F0F0"/>
<path d="M115.481 217.799C178.082 217.799 228.829 214.836 228.829 211.181C228.829 207.526 178.082 204.563 115.481 204.563C52.8805 204.563 2.13281 207.526 2.13281 211.181C2.13281 214.836 52.8805 217.799 115.481 217.799Z" fill="#F5F5F5"/>
<path d="M206.808 171.179C206.913 171.933 204.867 172.43 203.195 172.711C203.336 174.079 204.248 175.464 205.504 176.762C207.089 175.867 209.351 174.687 209.766 174.973C210.181 175.259 207.907 176.791 206.457 177.668C207.491 178.572 208.587 179.402 209.737 180.153C210.45 179.492 211.28 178.907 211.777 179.223C212.274 179.539 212.151 180.579 211.9 181.491C213.619 182.497 214.911 183.111 214.911 183.111C215.419 181.51 215.809 179.875 216.08 178.218C215.992 178.042 215.91 177.873 215.829 177.686C215.548 177.042 215.829 176.774 216.279 176.68C216.407 175.515 216.417 174.34 216.308 173.172C214.355 172.763 211.988 172.003 212.876 170.834C213.408 170.132 214.39 170.051 215.413 170.249C215.272 170.017 215.109 169.798 214.928 169.595C211.38 165.684 208.901 169.595 208.901 169.595C206.837 167.876 203.938 168.338 203.312 171.027C204.458 170.705 206.68 170.249 206.808 171.179Z" fill="#D75337"/>
<path opacity="0.3" d="M206.808 171.179C206.913 171.933 204.867 172.43 203.195 172.711C203.336 174.079 204.248 175.464 205.504 176.762C207.089 175.867 209.351 174.687 209.766 174.973C210.181 175.259 207.907 176.791 206.457 177.668C207.491 178.572 208.587 179.402 209.737 180.153C210.45 179.492 211.28 178.907 211.777 179.223C212.274 179.539 212.151 180.579 211.9 181.491C213.619 182.497 214.911 183.111 214.911 183.111C215.419 181.51 215.809 179.875 216.08 178.218C215.992 178.042 215.91 177.873 215.829 177.686C215.548 177.042 215.829 176.774 216.279 176.68C216.407 175.515 216.417 174.34 216.308 173.172C214.355 172.763 211.988 172.003 212.876 170.834C213.408 170.132 214.39 170.051 215.413 170.249C215.272 170.017 215.109 169.798 214.928 169.595C211.38 165.684 208.901 169.595 208.901 169.595C206.837 167.876 203.938 168.338 203.312 171.027C204.458 170.705 206.68 170.249 206.808 171.179Z" fill="white"/>
<path d="M211.232 199.935L210.723 199.894C210.723 199.631 212.822 173.435 206.947 170.962C206.67 170.836 206.368 170.775 206.064 170.783C205.76 170.791 205.462 170.869 205.193 171.009C203.071 172.114 202.054 176.703 202.042 176.75L201.539 176.638C201.58 176.44 202.621 171.769 204.953 170.553C205.294 170.374 205.671 170.275 206.056 170.264C206.441 170.253 206.824 170.329 207.175 170.488C213.366 173.096 211.355 198.836 211.232 199.935Z" fill="#D75337"/>
<path d="M211.976 199.35C211.87 198.181 209.474 170.453 213.957 167.512C215.033 166.811 215.992 166.659 216.81 167.068C218.932 168.138 219.207 172.674 219.219 172.867H218.704C218.704 172.826 218.435 168.442 216.576 167.507C215.939 167.185 215.15 167.319 214.238 167.922C210.006 170.693 212.455 198.993 212.484 199.28L211.976 199.35Z" fill="#D75337"/>
<path d="M212.654 201.601C212.619 200.701 211.877 179.486 215.963 177.632C216.344 177.453 216.759 177.36 217.179 177.36C217.6 177.36 218.015 177.453 218.395 177.632C221.201 178.866 222.932 184.092 223.002 184.314L222.517 184.472C222.517 184.42 220.763 179.24 218.191 178.1C217.876 177.951 217.533 177.873 217.185 177.873C216.837 177.873 216.494 177.951 216.18 178.1C213.046 179.527 212.941 195.539 213.163 201.589L212.654 201.601Z" fill="#D75337"/>
<path d="M211.612 200.631L211.098 200.572C211.823 194.259 213.196 177.434 210.946 175.434C210.836 175.304 210.692 175.207 210.529 175.156C210.366 175.106 210.192 175.103 210.028 175.148C208.52 175.733 207.602 181.199 207.374 183.262L206.865 183.204C206.953 182.415 207.777 175.464 209.841 174.669C210.093 174.584 210.365 174.575 210.622 174.642C210.88 174.71 211.112 174.851 211.291 175.049C214.196 177.638 211.717 199.695 211.612 200.631Z" fill="#D75337"/>
<path d="M203.043 188.664H221.493L219.95 209.33H204.58L203.043 188.664Z" fill="#D75337"/>
<path opacity="0.2" d="M208.643 188.664L209.157 209.33H219.949L221.492 188.664H208.643Z" fill="white"/>
<path d="M205.555 181.075C205.362 181.578 203.93 181.186 202.802 180.783C202.453 181.854 202.465 183.011 202.837 184.074C204.123 184.074 205.918 184.115 206.081 184.437C206.245 184.758 204.327 184.916 203.117 184.963C203.445 185.874 203.835 186.761 204.286 187.617C204.953 187.453 205.666 187.377 205.859 187.74C206.052 188.102 205.631 188.704 205.158 189.184C205.877 190.394 206.461 191.212 206.461 191.212C207.319 190.397 208.118 189.522 208.852 188.593C208.852 188.453 208.852 188.319 208.852 188.178C208.899 187.687 209.162 187.594 209.478 187.711C209.959 187.034 210.369 186.309 210.7 185.548C209.641 184.624 208.437 183.344 209.384 182.929C209.969 182.677 210.588 182.964 211.138 183.425C211.131 183.229 211.106 183.033 211.062 182.841C210.214 179.21 207.344 180.777 207.344 180.777C206.666 179.023 204.719 178.298 203.41 179.742C204.275 179.97 205.789 180.456 205.555 181.075Z" fill="#D75337"/>
<path opacity="0.3" d="M205.555 181.075C205.362 181.578 203.93 181.186 202.802 180.783C202.453 181.854 202.465 183.011 202.837 184.074C204.123 184.074 205.918 184.115 206.081 184.437C206.245 184.758 204.327 184.916 203.117 184.963C203.445 185.874 203.835 186.761 204.286 187.617C204.953 187.453 205.666 187.377 205.859 187.74C206.052 188.102 205.631 188.704 205.158 189.184C205.877 190.394 206.461 191.212 206.461 191.212C207.319 190.397 208.118 189.522 208.852 188.593C208.852 188.453 208.852 188.319 208.852 188.178C208.899 187.687 209.162 187.594 209.478 187.711C209.959 187.034 210.369 186.309 210.7 185.548C209.641 184.624 208.437 183.344 209.384 182.929C209.969 182.677 210.588 182.964 211.138 183.425C211.131 183.229 211.106 183.033 211.062 182.841C210.214 179.21 207.344 180.777 207.344 180.777C206.666 179.023 204.719 178.298 203.41 179.742C204.275 179.97 205.789 180.456 205.555 181.075Z" fill="white"/>
<path d="M219.253 183.53C218.68 183.58 218.114 183.7 217.57 183.887C217.418 183.497 217.333 183.084 217.318 182.665C217.201 178.947 219.867 180.514 221.27 179.421C221.588 179.143 221.959 178.934 222.362 178.807C222.764 178.68 223.189 178.638 223.608 178.684C223.488 178.889 223.383 179.102 223.293 179.321C223.26 179.403 223.246 179.491 223.252 179.578C223.258 179.666 223.283 179.751 223.327 179.827C223.37 179.904 223.43 179.969 223.502 180.019C223.574 180.069 223.656 180.103 223.743 180.116C224.096 180.188 224.462 180.145 224.789 179.994C224.881 179.937 224.969 179.874 225.052 179.807C225.279 180.196 225.452 180.615 225.567 181.052C225.705 181.571 225.786 182.105 225.807 182.642C225.596 182.686 225.389 182.745 225.187 182.817C225.107 182.853 225.035 182.906 224.978 182.972C224.921 183.039 224.88 183.118 224.858 183.202C224.835 183.287 224.832 183.376 224.849 183.462C224.865 183.548 224.901 183.63 224.953 183.7C225.174 183.924 225.434 184.106 225.719 184.238C225.624 184.837 225.467 185.425 225.251 185.992L225.064 186.021C224.928 186.045 224.793 186.078 224.661 186.12C224.584 186.139 224.509 186.166 224.439 186.202C224.347 186.241 224.266 186.303 224.205 186.381C224.143 186.46 224.103 186.553 224.088 186.652C224.075 186.753 224.088 186.856 224.127 186.951C224.166 187.045 224.229 187.128 224.31 187.19C224.398 187.252 224.49 187.309 224.585 187.36C224.233 187.976 223.725 188.488 223.112 188.844C222.574 188.598 222.051 188.32 221.545 188.014C221.656 187.868 221.767 187.716 221.872 187.564C221.99 187.393 222.046 187.187 222.03 186.98C222.002 186.771 221.893 186.582 221.726 186.453C221.644 186.39 221.55 186.343 221.449 186.316C221.348 186.289 221.244 186.282 221.14 186.295C221.037 186.309 220.937 186.343 220.847 186.395C220.757 186.447 220.678 186.517 220.615 186.6C220.493 186.781 220.358 186.956 220.224 187.132C219.527 186.613 218.904 186.004 218.37 185.319H218.423C218.768 185.231 219.12 185.174 219.475 185.15C219.672 185.109 219.846 184.996 219.963 184.833C220.079 184.669 220.13 184.468 220.104 184.268C220.078 184.069 219.977 183.887 219.823 183.759C219.668 183.631 219.471 183.566 219.271 183.577L219.253 183.53Z" fill="#D75337"/>
<path opacity="0.5" d="M219.253 183.53C218.68 183.58 218.114 183.7 217.57 183.887C217.418 183.497 217.333 183.084 217.318 182.665C217.201 178.947 219.867 180.514 221.27 179.421C221.588 179.143 221.959 178.934 222.362 178.807C222.764 178.68 223.189 178.638 223.608 178.684C223.488 178.889 223.383 179.102 223.293 179.321C223.26 179.403 223.246 179.491 223.252 179.578C223.258 179.666 223.283 179.751 223.327 179.827C223.37 179.904 223.43 179.969 223.502 180.019C223.574 180.069 223.656 180.103 223.743 180.116C224.096 180.188 224.462 180.145 224.789 179.994C224.881 179.937 224.969 179.874 225.052 179.807C225.279 180.196 225.452 180.615 225.567 181.052C225.705 181.571 225.786 182.105 225.807 182.642C225.596 182.686 225.389 182.745 225.187 182.817C225.107 182.853 225.035 182.906 224.978 182.972C224.921 183.039 224.88 183.118 224.858 183.202C224.835 183.287 224.832 183.376 224.849 183.462C224.865 183.548 224.901 183.63 224.953 183.7C225.174 183.924 225.434 184.106 225.719 184.238C225.624 184.837 225.467 185.425 225.251 185.992L225.064 186.021C224.928 186.045 224.793 186.078 224.661 186.12C224.584 186.139 224.509 186.166 224.439 186.202C224.347 186.241 224.266 186.303 224.205 186.381C224.143 186.46 224.103 186.553 224.088 186.652C224.075 186.753 224.088 186.856 224.127 186.951C224.166 187.045 224.229 187.128 224.31 187.19C224.398 187.252 224.49 187.309 224.585 187.36C224.233 187.976 223.725 188.488 223.112 188.844C222.574 188.598 222.051 188.32 221.545 188.014C221.656 187.868 221.767 187.716 221.872 187.564C221.99 187.393 222.046 187.187 222.03 186.98C222.002 186.771 221.893 186.582 221.726 186.453C221.644 186.39 221.55 186.343 221.449 186.316C221.348 186.289 221.244 186.282 221.14 186.295C221.037 186.309 220.937 186.343 220.847 186.395C220.757 186.447 220.678 186.517 220.615 186.6C220.493 186.781 220.358 186.956 220.224 187.132C219.527 186.613 218.904 186.004 218.37 185.319H218.423C218.768 185.231 219.12 185.174 219.475 185.15C219.672 185.109 219.846 184.996 219.963 184.833C220.079 184.669 220.13 184.468 220.104 184.268C220.078 184.069 219.977 183.887 219.823 183.759C219.668 183.631 219.471 183.566 219.271 183.577L219.253 183.53Z" fill="white"/>
<path d="M220.317 170.705C220.641 170.479 220.99 170.292 221.358 170.149C221.267 169.879 221.131 169.626 220.955 169.401C219.382 167.396 218.675 169.401 217.447 169.43C217.156 169.423 216.868 169.477 216.599 169.587C216.33 169.698 216.087 169.863 215.886 170.073C216.038 170.13 216.187 170.196 216.33 170.272C216.383 170.3 216.429 170.34 216.464 170.389C216.499 170.437 216.523 170.492 216.535 170.551C216.546 170.61 216.544 170.67 216.529 170.728C216.514 170.786 216.486 170.84 216.447 170.886C216.3 171.076 216.095 171.213 215.863 171.277C215.789 171.283 215.715 171.283 215.641 171.277C215.696 171.581 215.79 171.875 215.921 172.154C216.078 172.49 216.275 172.806 216.506 173.096C216.637 173.028 216.772 172.968 216.909 172.914C216.967 172.896 217.028 172.892 217.088 172.901C217.148 172.911 217.204 172.934 217.254 172.969C217.303 173.004 217.343 173.05 217.372 173.104C217.4 173.157 217.416 173.216 217.418 173.277C217.4 173.491 217.345 173.701 217.254 173.896C217.565 174.169 217.904 174.408 218.265 174.61L218.377 174.539C218.458 174.494 218.542 174.453 218.628 174.417L218.78 174.358C218.846 174.34 218.917 174.338 218.984 174.353C219.051 174.369 219.114 174.4 219.166 174.446C219.217 174.493 219.255 174.554 219.275 174.62C219.296 174.687 219.298 174.758 219.283 174.826C219.265 174.898 219.241 174.968 219.213 175.036C219.669 175.201 220.16 175.247 220.639 175.171C220.814 174.806 220.968 174.431 221.101 174.048L220.733 173.949C220.595 173.915 220.474 173.832 220.393 173.715C220.354 173.656 220.327 173.589 220.314 173.518C220.301 173.448 220.302 173.376 220.317 173.306C220.35 173.166 220.436 173.044 220.557 172.967C220.617 172.928 220.684 172.902 220.755 172.89C220.825 172.878 220.897 172.88 220.966 172.897L221.405 173.002C221.55 172.415 221.613 171.811 221.592 171.207H221.557C221.337 171.31 221.128 171.434 220.931 171.576C220.811 171.639 220.671 171.655 220.54 171.62C220.408 171.585 220.294 171.502 220.221 171.388C220.148 171.273 220.12 171.135 220.143 171.001C220.166 170.867 220.239 170.747 220.347 170.664L220.317 170.705Z" fill="#D75337"/>
<path opacity="0.3" d="M220.317 170.705C220.641 170.479 220.99 170.292 221.358 170.149C221.267 169.879 221.131 169.626 220.955 169.401C219.382 167.396 218.675 169.401 217.447 169.43C217.156 169.423 216.868 169.477 216.599 169.587C216.33 169.698 216.087 169.863 215.886 170.073C216.038 170.13 216.187 170.196 216.33 170.272C216.383 170.3 216.429 170.34 216.464 170.389C216.499 170.437 216.523 170.492 216.535 170.551C216.546 170.61 216.544 170.67 216.529 170.728C216.514 170.786 216.486 170.84 216.447 170.886C216.3 171.076 216.095 171.213 215.863 171.277C215.789 171.283 215.715 171.283 215.641 171.277C215.696 171.581 215.79 171.875 215.921 172.154C216.078 172.49 216.275 172.806 216.506 173.096C216.637 173.028 216.772 172.968 216.909 172.914C216.967 172.896 217.028 172.892 217.088 172.901C217.148 172.911 217.204 172.934 217.254 172.969C217.303 173.004 217.343 173.05 217.372 173.104C217.4 173.157 217.416 173.216 217.418 173.277C217.4 173.491 217.345 173.701 217.254 173.896C217.565 174.169 217.904 174.408 218.265 174.61L218.377 174.539C218.458 174.494 218.542 174.453 218.628 174.417L218.78 174.358C218.846 174.34 218.917 174.338 218.984 174.353C219.051 174.369 219.114 174.4 219.166 174.446C219.217 174.493 219.255 174.554 219.275 174.62C219.296 174.687 219.298 174.758 219.283 174.826C219.265 174.898 219.241 174.968 219.213 175.036C219.669 175.201 220.16 175.247 220.639 175.171C220.814 174.806 220.968 174.431 221.101 174.048L220.733 173.949C220.595 173.915 220.474 173.832 220.393 173.715C220.354 173.656 220.327 173.589 220.314 173.518C220.301 173.448 220.302 173.376 220.317 173.306C220.35 173.166 220.436 173.044 220.557 172.967C220.617 172.928 220.684 172.902 220.755 172.89C220.825 172.878 220.897 172.88 220.966 172.897L221.405 173.002C221.55 172.415 221.613 171.811 221.592 171.207H221.557C221.337 171.31 221.128 171.434 220.931 171.576C220.811 171.639 220.671 171.655 220.54 171.62C220.408 171.585 220.294 171.502 220.221 171.388C220.148 171.273 220.12 171.135 220.143 171.001C220.166 170.867 220.239 170.747 220.347 170.664L220.317 170.705Z" fill="white"/>
<path d="M205.287 174.427C205.176 175.182 207.222 175.678 208.894 175.959C208.76 177.327 207.848 178.712 206.556 180.004C204.972 179.116 202.709 177.935 202.294 178.221C201.879 178.508 204.153 180.034 205.603 180.916C204.567 181.818 203.471 182.648 202.323 183.401C201.616 182.735 200.78 182.156 200.289 182.471C199.798 182.787 199.909 183.822 200.166 184.74C198.412 185.745 197.15 186.353 197.15 186.353C196.642 184.753 196.251 183.117 195.981 181.46C196.068 181.291 196.156 181.115 196.232 180.934C196.513 180.291 196.232 180.016 195.782 179.928C195.654 178.763 195.644 177.588 195.753 176.421C197.705 176.012 200.079 175.252 199.19 174.082C198.652 173.375 197.67 173.299 196.653 173.498C196.791 173.264 196.951 173.045 197.132 172.843C200.687 168.926 203.159 172.843 203.159 172.843C205.223 171.119 208.123 171.586 208.748 174.275C207.637 173.936 205.422 173.492 205.287 174.427Z" fill="#D75337"/>
<path opacity="0.5" d="M205.287 174.427C205.176 175.182 207.222 175.678 208.894 175.959C208.76 177.327 207.848 178.712 206.556 180.004C204.972 179.116 202.709 177.935 202.294 178.221C201.879 178.508 204.153 180.034 205.603 180.916C204.567 181.818 203.471 182.648 202.323 183.401C201.616 182.735 200.78 182.156 200.289 182.471C199.798 182.787 199.909 183.822 200.166 184.74C198.412 185.745 197.15 186.353 197.15 186.353C196.642 184.753 196.251 183.117 195.981 181.46C196.068 181.291 196.156 181.115 196.232 180.934C196.513 180.291 196.232 180.016 195.782 179.928C195.654 178.763 195.644 177.588 195.753 176.421C197.705 176.012 200.079 175.252 199.19 174.082C198.652 173.375 197.67 173.299 196.653 173.498C196.791 173.264 196.951 173.045 197.132 172.843C200.687 168.926 203.159 172.843 203.159 172.843C205.223 171.119 208.123 171.586 208.748 174.275C207.637 173.936 205.422 173.492 205.287 174.427Z" fill="white"/>
<path d="M23.7648 198.367C23.7648 198.367 21.0405 192.421 24.1506 186.558C27.2607 180.694 28.1668 179.315 26.185 178.116C24.2032 176.918 23.262 182.793 23.262 182.793C22.2787 180.13 22.1782 177.222 22.9756 174.498C24.3552 170.259 25.2204 163.349 23.3322 162.607C21.4439 161.864 22.9756 171.224 21.3387 174.416C20.5018 172.177 19.9632 169.838 19.7369 167.459C19.5089 164.051 19.8596 158.614 18.3747 157.217C16.8899 155.82 15.9253 156.784 17.3926 164.302C18.2712 168.796 18.7582 173.357 18.8483 177.935C18.8483 177.935 15.633 168.085 13.4641 167.781C11.2952 167.477 11.2952 170.704 13.1543 173.451C15.0133 176.199 18.5969 181.185 19.1815 183.74C19.1815 183.74 15.633 176.316 12.441 178.596C9.24913 180.876 15.2179 185.348 17.8837 186.967C20.5495 188.586 22.391 198.764 22.391 198.764L23.7648 198.367Z" fill="#D75337"/>
<path opacity="0.2" d="M23.7648 198.367C23.7648 198.367 21.0405 192.421 24.1506 186.558C27.2607 180.694 28.1668 179.315 26.185 178.116C24.2032 176.918 23.262 182.793 23.262 182.793C22.2787 180.13 22.1782 177.222 22.9756 174.498C24.3552 170.259 25.2204 163.349 23.3322 162.607C21.4439 161.864 22.9756 171.224 21.3387 174.416C20.5018 172.177 19.9632 169.838 19.7369 167.459C19.5089 164.051 19.8596 158.614 18.3747 157.217C16.8899 155.82 15.9253 156.784 17.3926 164.302C18.2712 168.796 18.7582 173.357 18.8483 177.935C18.8483 177.935 15.633 168.085 13.4641 167.781C11.2952 167.477 11.2952 170.704 13.1543 173.451C15.0133 176.199 18.5969 181.185 19.1815 183.74C19.1815 183.74 15.633 176.316 12.441 178.596C9.24913 180.876 15.2179 185.348 17.8837 186.967C20.5495 188.586 22.391 198.764 22.391 198.764L23.7648 198.367Z" fill="black"/>
<path d="M21.6126 200.805C21.6126 200.805 24.2667 194.819 21.0806 189.002C17.8945 183.185 16.9884 181.823 18.9468 180.59C20.9052 179.356 21.8698 185.237 21.8698 185.237C22.8217 182.564 22.8893 179.656 22.0627 176.942C20.6305 172.721 19.6834 165.834 21.56 165.057C23.4366 164.279 22.0218 173.668 23.6996 176.831C24.5067 174.58 25.0157 172.233 25.2137 169.851C25.4008 166.442 24.9857 161.011 26.4589 159.591C27.9321 158.17 28.8967 159.123 27.5229 166.665C26.6968 171.169 26.2645 175.736 26.2309 180.315C26.2309 180.315 29.3469 170.406 31.4924 170.084C33.6378 169.763 33.6963 172.955 31.8665 175.755C30.0367 178.555 26.5759 183.565 26.038 186.132C26.038 186.132 29.4989 178.655 32.72 180.87C35.9412 183.086 30.025 187.669 27.3826 189.33C24.7402 190.99 23.0098 201.168 23.0098 201.168L21.6126 200.805Z" fill="#D75337"/>
<path d="M30.5341 197.999H14.7031L15.9892 209.329H29.2538L30.5341 197.999Z" fill="#263238"/>
<path d="M152.191 61.9678C152.191 61.9678 153.191 67.4455 160.434 69.9183C160.434 69.9183 156.313 65.9431 156.313 61.9678H152.191Z" fill="#D75337"/>
<path opacity="0.8" d="M152.191 61.9678C152.191 61.9678 153.191 67.4455 160.434 69.9183C160.434 69.9183 156.313 65.9431 156.313 61.9678H152.191Z" fill="white"/>
<path d="M162.526 49.6094H146.326C145.426 49.6094 144.695 50.3396 144.695 51.2404V62.0497C144.695 62.9505 145.426 63.6807 146.326 63.6807H162.526C163.426 63.6807 164.157 62.9505 164.157 62.0497V51.2404C164.157 50.3396 163.426 49.6094 162.526 49.6094Z" fill="#D75337"/>
<path opacity="0.8" d="M162.526 49.6094H146.326C145.426 49.6094 144.695 50.3396 144.695 51.2404V62.0497C144.695 62.9505 145.426 63.6807 146.326 63.6807H162.526C163.426 63.6807 164.157 62.9505 164.157 62.0497V51.2404C164.157 50.3396 163.426 49.6094 162.526 49.6094Z" fill="white"/>
<path d="M150.499 56.6421C150.499 56.856 150.436 57.0651 150.317 57.2429C150.198 57.4208 150.029 57.5594 149.831 57.6413C149.634 57.7231 149.416 57.7445 149.206 57.7028C148.997 57.6611 148.804 57.5581 148.653 57.4068C148.501 57.2556 148.398 57.0628 148.357 56.8531C148.315 56.6433 148.336 56.4258 148.418 56.2282C148.5 56.0306 148.639 55.8617 148.817 55.7428C148.994 55.624 149.204 55.5605 149.417 55.5605C149.559 55.5605 149.7 55.5885 149.831 55.6429C149.963 55.6972 150.082 55.7769 150.182 55.8773C150.283 55.9777 150.362 56.097 150.417 56.2282C150.471 56.3594 150.499 56.5 150.499 56.6421Z" fill="#D75337"/>
<path d="M154.423 57.7233C155.021 57.7233 155.505 57.2391 155.505 56.6418C155.505 56.0445 155.021 55.5603 154.423 55.5603C153.826 55.5603 153.342 56.0445 153.342 56.6418C153.342 57.2391 153.826 57.7233 154.423 57.7233Z" fill="#D75337"/>
<path d="M159.427 57.7233C160.025 57.7233 160.509 57.2391 160.509 56.6418C160.509 56.0445 160.025 55.5603 159.427 55.5603C158.83 55.5603 158.346 56.0445 158.346 56.6418C158.346 57.2391 158.83 57.7233 159.427 57.7233Z" fill="#D75337"/>
<path d="M129.917 76.7168C129.917 76.7168 128.923 82.2004 121.68 84.6732C121.68 84.6732 125.772 80.6921 125.772 76.7168H129.917Z" fill="#D75337"/>
<path opacity="0.8" d="M129.917 76.7168C129.917 76.7168 128.923 82.2004 121.68 84.6732C121.68 84.6732 125.772 80.6921 125.772 76.7168H129.917Z" fill="white"/>
<path d="M119.586 78.4473H135.785C136.686 78.4473 137.416 77.717 137.416 76.8162V66.007C137.416 65.1062 136.686 64.3759 135.785 64.3759H119.586C118.685 64.3759 117.955 65.1062 117.955 66.007V76.8162C117.955 77.717 118.685 78.4473 119.586 78.4473Z" fill="#D75337"/>
<path opacity="0.8" d="M119.586 78.4473H135.785C136.686 78.4473 137.416 77.717 137.416 76.8162V66.007C137.416 65.1062 136.686 64.3759 135.785 64.3759H119.586C118.685 64.3759 117.955 65.1062 117.955 66.007V76.8162C117.955 77.717 118.685 78.4473 119.586 78.4473Z" fill="white"/>
<path d="M131.611 71.4087C131.61 71.6228 131.673 71.8325 131.791 72.0111C131.909 72.1897 132.077 72.3293 132.275 72.412C132.472 72.4948 132.69 72.517 132.9 72.476C133.11 72.4349 133.304 72.3324 133.456 72.1813C133.607 72.0303 133.711 71.8376 133.753 71.6277C133.795 71.4177 133.774 71.2 133.693 71.002C133.611 70.804 133.472 70.6348 133.294 70.5157C133.116 70.3966 132.907 70.333 132.693 70.333C132.407 70.333 132.133 70.4461 131.93 70.6477C131.728 70.8493 131.613 71.1229 131.611 71.4087Z" fill="#D75337"/>
<path d="M126.59 71.4087C126.589 71.6231 126.651 71.833 126.77 72.0117C126.888 72.1905 127.057 72.33 127.255 72.4126C127.453 72.4952 127.671 72.5171 127.881 72.4755C128.091 72.434 128.284 72.3309 128.436 72.1793C128.588 72.0277 128.691 71.8344 128.732 71.6241C128.774 71.4137 128.752 71.1958 128.669 70.998C128.587 70.8001 128.447 70.6312 128.269 70.5129C128.09 70.3945 127.88 70.3319 127.666 70.333C127.38 70.333 127.107 70.4464 126.905 70.6481C126.703 70.8498 126.59 71.1234 126.59 71.4087Z" fill="#D75337"/>
<path d="M121.598 71.4087C121.597 71.6228 121.659 71.8325 121.777 72.0111C121.895 72.1897 122.064 72.3293 122.261 72.412C122.459 72.4948 122.676 72.517 122.887 72.476C123.097 72.4349 123.29 72.3324 123.442 72.1813C123.594 72.0303 123.697 71.8376 123.739 71.6277C123.782 71.4177 123.761 71.2 123.679 71.002C123.597 70.804 123.459 70.6348 123.281 70.5157C123.103 70.3966 122.893 70.333 122.679 70.333C122.393 70.333 122.119 70.4461 121.917 70.6477C121.714 70.8493 121.599 71.1229 121.598 71.4087Z" fill="#D75337"/>
<path d="M88.7292 58.6709C88.7292 58.6709 87.7354 64.1486 80.4922 66.6215C80.4922 66.6215 84.5844 62.6462 84.5844 58.6709H88.7292Z" fill="#D75337"/>
<path opacity="0.8" d="M88.7292 58.6709C88.7292 58.6709 87.7354 64.1486 80.4922 66.6215C80.4922 66.6215 84.5844 62.6462 84.5844 58.6709H88.7292Z" fill="white"/>
<path d="M92.443 46.3242H81.0959C80.1951 46.3242 79.4648 47.0545 79.4648 47.9553V58.7645C79.4648 59.6653 80.1951 60.3956 81.0959 60.3956H92.443C93.3438 60.3956 94.074 59.6653 94.074 58.7645V47.9553C94.074 47.0545 93.3438 46.3242 92.443 46.3242Z" fill="#D75337"/>
<path opacity="0.8" d="M92.443 46.3242H81.0959C80.1951 46.3242 79.4648 47.0545 79.4648 47.9553V58.7645C79.4648 59.6653 80.1951 60.3956 81.0959 60.3956H92.443C93.3438 60.3956 94.074 59.6653 94.074 58.7645V47.9553C94.074 47.0545 93.3438 46.3242 92.443 46.3242Z" fill="white"/>
<path d="M87.4738 60.7109V60.4951C87.478 59.7547 87.5436 59.1645 87.6705 58.7245C87.8017 58.2845 87.9921 57.9291 88.2417 57.6584C88.4913 57.3876 88.7917 57.1422 89.1428 56.9222C89.4052 56.753 89.64 56.5774 89.8473 56.3955C90.0546 56.2136 90.2196 56.0126 90.3423 55.7926C90.465 55.5684 90.5263 55.3188 90.5263 55.0438C90.5263 54.7518 90.4565 54.4959 90.3169 54.2759C90.1773 54.0559 89.989 53.8866 89.7521 53.7682C89.5194 53.6497 89.2613 53.5905 88.9778 53.5905C88.7028 53.5905 88.4427 53.6518 88.1973 53.7745C87.9519 53.893 87.7509 54.0707 87.5944 54.3076C87.4378 54.5403 87.3532 54.8301 87.3405 55.177H84.7513C84.7725 54.3309 84.9755 53.6328 85.3605 53.0828C85.7455 52.5286 86.2553 52.1161 86.89 51.8453C87.5246 51.5703 88.2248 51.4328 88.9905 51.4328C89.8325 51.4328 90.5771 51.5724 91.2244 51.8516C91.8717 52.1266 92.3794 52.5265 92.7475 53.0511C93.1155 53.5757 93.2996 54.2082 93.2996 54.9486C93.2996 55.4436 93.2171 55.8836 93.0521 56.2686C92.8913 56.6493 92.665 56.9878 92.373 57.284C92.0811 57.5759 91.7363 57.8403 91.3386 58.0772C91.0044 58.2761 90.7294 58.4834 90.5136 58.6991C90.3021 58.9149 90.1434 59.1645 90.0377 59.448C89.9361 59.7315 89.8832 60.0805 89.879 60.4951V60.7109H87.4738ZM88.7303 64.7724C88.3073 64.7724 87.9455 64.6243 87.6452 64.3282C87.349 64.0278 87.203 63.6682 87.2073 63.2493C87.203 62.8347 87.349 62.4793 87.6452 62.1832C87.9455 61.887 88.3073 61.739 88.7303 61.739C89.1323 61.739 89.4855 61.887 89.7902 62.1832C90.0948 62.4793 90.2492 62.8347 90.2534 63.2493C90.2492 63.5286 90.1752 63.7845 90.0313 64.0172C89.8917 64.2457 89.7077 64.4297 89.4792 64.5693C89.2507 64.7047 89.0011 64.7724 88.7303 64.7724Z" fill="#D75337"/>
<path d="M167.236 85.5322C166.422 85.2219 165.518 85.2471 164.723 85.6021C163.927 85.9572 163.305 86.6132 162.992 87.4263V87.4614C162.407 88.958 161.823 90.5306 161.238 92.0564C160.654 93.5822 160.022 95.1138 159.391 96.6163C158.759 98.1187 158.087 99.5919 157.391 101.001C157.047 101.702 156.672 102.386 156.31 103.029C156.14 103.316 155.965 103.614 155.796 103.848C155.649 103.649 155.503 103.433 155.357 103.211C154.86 102.445 154.381 101.603 153.907 100.738C153.434 99.8725 152.966 98.9839 152.51 98.1187L152.475 98.0544C152.292 97.7195 151.999 97.4582 151.646 97.3152C151.292 97.1721 150.9 97.1561 150.536 97.2699C150.172 97.3837 149.858 97.6202 149.649 97.9391C149.44 98.2581 149.348 98.6397 149.388 99.019C149.52 100.101 149.715 101.175 149.973 102.234C150.23 103.314 150.554 104.376 150.943 105.415C151.161 105.973 151.409 106.52 151.686 107.051C152.009 107.686 152.414 108.275 152.89 108.805C153.228 109.188 153.622 109.518 154.059 109.781C154.737 110.208 155.527 110.424 156.327 110.401C156.788 110.384 157.243 110.289 157.672 110.121C158.029 109.966 158.367 109.77 158.678 109.536C159.013 109.28 159.318 108.988 159.59 108.665C160.278 107.921 160.909 107.125 161.478 106.286L161.606 106.093C162.092 105.374 162.518 104.66 162.928 103.941C163.828 102.38 164.611 100.814 165.348 99.2645C165.617 98.6799 165.88 98.0953 166.131 97.5107C166.581 96.5052 167.002 95.4938 167.412 94.4766C168.043 92.8631 168.663 91.2905 169.218 89.6127C169.476 88.8082 169.413 87.9354 169.044 87.1756C168.675 86.4157 168.028 85.8272 167.236 85.5322Z" fill="#263238"/>
<path opacity="0.2" d="M166.09 97.5347C165.839 98.1193 165.576 98.7039 165.307 99.2885C164.57 100.867 163.787 102.434 162.886 103.965C162.477 104.684 162.05 105.398 161.565 106.117C160.706 101.34 163.699 95.6406 163.699 95.6406C164.517 95.7926 165.336 96.4941 166.09 97.5347Z" fill="black"/>
<path d="M188.865 103.778C188.865 104.631 188.795 105.532 188.749 106.415C188.602 109.092 188.351 112.021 187.971 115.184C187.85 116.236 187.712 117.317 187.556 118.428L162.71 118.855C161.5 115.546 160.413 108.408 163.815 102.2C163.815 98.2301 162.839 93.8339 162.716 89.5839C162.64 86.9239 164.949 84.4803 168.1 83.9249C172.929 83.1265 177.836 82.9126 182.715 83.2877C185.393 83.4689 187.503 85.0766 187.918 87.3039C188.325 89.6055 188.602 91.9281 188.749 94.2607C188.912 96.9206 188.988 100.089 188.865 103.778Z" fill="#263238"/>
<path d="M170.644 83.0888C170.062 83.358 169.601 83.8356 169.353 84.4275C169.106 85.0194 169.089 85.6827 169.306 86.2866C169.54 87.1617 169.993 87.9628 170.622 88.6151C171.251 89.2675 172.035 89.7496 172.901 90.0163C173.901 90.2268 179.828 87.0933 180.571 84.3165C181.313 81.5396 170.644 83.0888 170.644 83.0888Z" fill="#D75337"/>
<path opacity="0.5" d="M170.644 83.0888C170.062 83.358 169.601 83.8356 169.353 84.4275C169.106 85.0194 169.089 85.6827 169.306 86.2866C169.54 87.1617 169.993 87.9628 170.622 88.6151C171.251 89.2675 172.035 89.7496 172.901 90.0163C173.901 90.2268 179.828 87.0933 180.571 84.3165C181.313 81.5396 170.644 83.0888 170.644 83.0888Z" fill="white"/>
<path opacity="0.2" d="M188.75 106.396C188.604 109.074 188.353 112.003 187.973 115.165C185.05 115.107 180.7 114.75 179.654 113.184C178.052 110.781 179.326 109.355 179.326 109.355C179.326 109.355 186.172 107.846 188.75 106.396Z" fill="black"/>
<path opacity="0.2" d="M188.866 103.777C185.721 100.609 184.914 90.916 184.914 90.916C184.914 90.916 186.732 92.3307 188.737 94.2658C188.913 96.9199 188.989 100.088 188.866 103.777Z" fill="black"/>
<path d="M150.728 101.012L146.051 99.6676L149.436 95.6455C149.436 95.6455 153.382 96.8147 152.75 99.2642L150.728 101.012Z" fill="#FF8B7B"/>
<path d="M144.542 96.7102L145.711 94.857C145.807 94.6991 145.935 94.5623 146.085 94.4548C146.236 94.3473 146.407 94.2713 146.588 94.2315C146.768 94.1916 146.955 94.1887 147.137 94.2228C147.319 94.257 147.492 94.3276 147.646 94.4303L149.464 95.6462L146.079 99.6683L144.787 98.4173C144.557 98.2041 144.406 97.9181 144.362 97.6073C144.317 97.2965 144.38 96.9797 144.542 96.7102Z" fill="#FF8B7B"/>
<path d="M162.564 206.662L167.288 206.738C167.373 206.737 167.456 206.768 167.521 206.824C167.585 206.88 167.627 206.957 167.638 207.042L168.223 210.906C168.237 211.002 168.229 211.099 168.202 211.192C168.174 211.284 168.126 211.369 168.062 211.442C167.998 211.514 167.92 211.571 167.831 211.61C167.743 211.649 167.647 211.668 167.551 211.666C165.844 211.608 163.388 211.473 161.243 211.438C158.735 211.397 158.986 211.503 156.046 211.438C154.292 211.438 153.895 209.603 154.649 209.451C158.08 208.767 158.431 208.726 161.471 206.966C161.802 206.769 162.179 206.664 162.564 206.662Z" fill="#263238"/>
<path d="M169.673 161.35C174.935 139.228 179.974 129.629 177.981 118.674L162.705 118.855C162.705 118.855 156.684 148.944 157.964 161.917C159.297 175.409 161.243 206.808 161.243 206.808L168.218 206.908C168.218 206.908 172.281 176.438 169.673 161.35Z" fill="#D75337"/>
<path opacity="0.3" d="M169.673 161.35C174.935 139.228 179.974 129.629 177.981 118.674L162.705 118.855C162.705 118.855 156.684 148.944 157.964 161.917C159.297 175.409 161.243 206.808 161.243 206.808L168.218 206.908C168.218 206.908 172.281 176.438 169.673 161.35Z" fill="black"/>
<path opacity="0.2" d="M170.434 158.216C173.257 146.939 175.906 139.099 177.326 132.528C167.405 136.094 168.253 148.453 170.434 158.216Z" fill="black"/>
<path d="M186.375 206.661L191.099 206.737C191.182 206.738 191.262 206.77 191.323 206.826C191.385 206.882 191.423 206.959 191.432 207.041L191.847 210.906C191.854 211.003 191.841 211.101 191.809 211.194C191.776 211.286 191.725 211.371 191.658 211.442C191.59 211.514 191.509 211.571 191.419 211.609C191.329 211.647 191.232 211.667 191.134 211.666C189.433 211.607 188.901 211.473 186.755 211.438C184.253 211.397 185.405 211.502 182.47 211.438C180.716 211.438 180.412 209.614 181.172 209.45C183.575 208.947 184.206 207.988 185.294 206.965C185.604 206.733 185.989 206.624 186.375 206.661Z" fill="#263238"/>
<path d="M185.825 161.349C188.199 139.228 190.993 129.383 187.579 118.416L171.655 118.843C171.655 118.843 171.222 148.932 174.209 161.904C177.319 175.397 184.574 206.796 184.574 206.796L191.59 206.895C191.59 206.895 190.414 176.438 185.825 161.349Z" fill="#D75337"/>
<path opacity="0.3" d="M185.825 161.349C188.199 139.228 190.993 129.383 187.579 118.416L171.655 118.843C171.655 118.843 171.222 148.932 174.209 161.904C177.319 175.397 184.574 206.796 184.574 206.796L191.59 206.895C191.59 206.895 190.414 176.438 185.825 161.349Z" fill="black"/>
<path d="M177.478 77.2021C177.478 79.7452 177.63 82.7208 179.711 84.5097C178.542 86.0705 176.303 88.4616 173.059 88.0465C169.487 87.5905 170.177 84.346 170.966 83.3288C172.72 82.3174 172.234 80.7974 172.036 79.7393L177.478 77.2021Z" fill="#FF8B7B"/>
<path opacity="0.2" d="M176.281 78.2421C176.281 78.0842 176.281 77.9205 176.281 77.7627L172.043 79.7386C172.251 80.4505 172.291 81.2009 172.16 81.9309C174.194 81.3112 176.235 79.7796 176.281 78.2421Z" fill="black"/>
<path d="M179.6 70.1513C179.056 74.4131 178.957 76.9327 176.648 78.973C173.181 82.0363 168.019 79.6803 167.294 75.3309C166.627 71.4199 167.627 65.1062 171.93 63.7149C172.882 63.4091 173.896 63.3498 174.878 63.5423C175.859 63.7349 176.775 64.1731 177.541 64.8159C178.308 65.4588 178.898 66.2854 179.258 67.2184C179.618 68.1515 179.736 69.1605 179.6 70.1513Z" fill="#FF8B7B"/>
<path d="M172.772 71.0281C172.772 71.3789 172.544 71.6478 172.316 71.6127C172.088 71.5777 171.924 71.297 171.948 70.9521C171.971 70.6072 172.17 70.3324 172.398 70.3675C172.626 70.4026 172.801 70.6832 172.772 71.0281Z" fill="#263238"/>
<path d="M168.416 70.8416C168.416 71.1924 168.194 71.4613 167.966 71.4262C167.738 71.3911 167.569 71.1105 167.592 70.7656C167.615 70.4207 167.82 70.1459 168.048 70.181C168.276 70.2161 168.44 70.4908 168.416 70.8416Z" fill="#263238"/>
<path d="M169.687 71.2852C169.138 72.2867 168.454 73.2074 167.652 74.0211C167.866 74.2222 168.121 74.3744 168.4 74.4673C168.679 74.5601 168.974 74.5914 169.266 74.5589L169.687 71.2852Z" fill="#FF5652"/>
<path d="M173.567 68.7139C173.601 68.7075 173.635 68.6957 173.666 68.6789C173.711 68.648 173.742 68.6009 173.753 68.5475C173.764 68.494 173.754 68.4384 173.724 68.3924C173.552 68.1147 173.315 67.8823 173.035 67.7145C172.754 67.5467 172.437 67.4484 172.111 67.4278C172.084 67.427 172.057 67.4318 172.032 67.4417C172.007 67.4517 171.984 67.4668 171.964 67.486C171.945 67.5051 171.93 67.528 171.92 67.5532C171.91 67.5784 171.906 67.6053 171.906 67.6324C171.906 67.6593 171.912 67.6859 171.922 67.7107C171.932 67.7356 171.947 67.7581 171.966 67.7771C171.985 67.7961 172.008 67.8112 172.033 67.8215C172.057 67.8317 172.084 67.837 172.111 67.837C172.369 67.8574 172.619 67.9391 172.84 68.0753C173.061 68.2115 173.246 68.3984 173.38 68.6204C173.401 68.6502 173.429 68.6743 173.461 68.6906C173.494 68.7069 173.53 68.7149 173.567 68.7139Z" fill="#263238"/>
<path d="M167.094 69.0639C167.127 69.0707 167.161 69.0689 167.193 69.0586C167.224 69.0484 167.253 69.03 167.276 69.0055C167.449 68.8155 167.665 68.6698 167.906 68.5803C168.147 68.4908 168.406 68.4602 168.661 68.491C168.688 68.4961 168.715 68.4959 168.741 68.4904C168.768 68.4849 168.793 68.4742 168.815 68.459C168.837 68.4438 168.856 68.4243 168.871 68.4017C168.886 68.3791 168.896 68.3538 168.901 68.3273C168.906 68.3008 168.906 68.2736 168.9 68.2472C168.895 68.2208 168.884 68.1957 168.869 68.1734C168.854 68.1512 168.834 68.1321 168.812 68.1174C168.789 68.1027 168.764 68.0925 168.737 68.0876C168.416 68.044 168.088 68.0786 167.783 68.1886C167.478 68.2985 167.203 68.4804 166.983 68.719C166.964 68.7381 166.948 68.7608 166.938 68.7859C166.927 68.811 166.922 68.8379 166.922 68.8652C166.922 68.8924 166.927 68.9193 166.938 68.9444C166.948 68.9695 166.964 68.9923 166.983 69.0113C167.013 69.0412 167.052 69.0599 167.094 69.0639Z" fill="#263238"/>
<path d="M169.58 75.4125C169.998 75.9521 170.377 76.5206 170.714 77.1137L171.053 76.9851C172.579 76.4005 173.094 75.6288 173.205 74.9448C173.265 74.4185 173.141 73.8874 172.854 73.4424C172.228 74.2316 170.849 74.8863 170.095 75.1962C169.785 75.354 169.58 75.4125 169.58 75.4125Z" fill="#263238"/>
<path d="M170.096 75.2196L170.446 75.7106C171.879 75.1553 172.82 74.5707 173.101 73.9568C173.041 73.7774 172.959 73.6064 172.855 73.4482C172.229 74.2433 170.85 74.8981 170.096 75.2196Z" fill="white"/>
<path d="M171.053 76.9973C172.579 76.4127 173.093 75.641 173.204 74.957C172.628 75.1911 172.097 75.5256 171.637 75.945C171.336 76.2249 171.131 76.5934 171.053 76.9973Z" fill="#DE5753"/>
<path d="M169.404 65.4396C169.404 65.4396 168.135 64.703 168.907 62.844C169.679 60.985 177.027 62.3412 180.243 65.1824C183.458 68.0236 179.202 73.4545 179.202 73.4545L177.232 74.5652C177.232 74.5652 175.338 70.1807 176.647 66.9654C175.849 66.375 175.017 65.8305 174.157 65.3344C173.613 65.0947 171.105 66.6848 169.404 65.4396Z" fill="#263238"/>
<path d="M180.775 74.6179C180.192 75.5258 179.274 76.1667 178.221 76.4009C176.823 76.6932 176.204 75.4188 176.66 74.1444C177.069 72.9752 178.297 71.4611 179.67 71.7358C179.969 71.8013 180.247 71.9401 180.479 72.1397C180.711 72.3392 180.89 72.5933 181 72.879C181.109 73.1648 181.146 73.4733 181.107 73.7768C181.068 74.0803 180.954 74.3693 180.775 74.6179Z" fill="#FF8B7B"/>
<path d="M196.519 105.607C196.519 105.426 196.519 105.181 196.484 105.099L196.408 104.409C196.344 103.959 196.28 103.503 196.192 103.07C195.468 99.7445 194.308 96.5287 192.743 93.5062C192 92.033 191.217 90.5832 190.364 89.2036C189.943 88.502 189.51 87.8122 189.06 87.1282C188.61 86.4443 188.165 85.7895 187.639 85.0646C187.124 84.3842 186.365 83.9309 185.522 83.8004C184.679 83.6699 183.818 83.8725 183.122 84.3654C182.425 84.8583 181.948 85.6028 181.79 86.4414C181.633 87.28 181.808 88.1469 182.279 88.8587L182.308 88.9113C182.688 89.4608 183.115 90.1214 183.512 90.7352C183.91 91.3491 184.319 91.998 184.681 92.6352C185.453 93.9213 186.213 95.2016 186.909 96.5111C188.314 99.0041 189.434 101.648 190.247 104.392C190.346 104.719 190.405 105.035 190.481 105.356L190.568 105.83C190.568 105.941 190.568 105.894 190.568 105.906C190.568 105.906 190.615 105.83 190.632 105.853C190.65 105.876 190.632 105.964 190.521 106.087C190.197 106.446 189.811 106.745 189.381 106.97C188.821 107.3 188.235 107.584 187.628 107.817C186.271 108.337 184.883 108.77 183.471 109.115C182.746 109.29 182.015 109.478 181.273 109.641C180.531 109.805 179.771 109.945 179.063 110.091H178.97C178.576 110.164 178.224 110.38 177.978 110.696C177.733 111.012 177.613 111.408 177.641 111.807C177.668 112.206 177.841 112.581 178.127 112.861C178.413 113.141 178.792 113.306 179.192 113.324C182.52 113.582 185.868 113.354 189.13 112.646C190.019 112.437 190.891 112.16 191.737 111.816C192.745 111.406 193.676 110.829 194.491 110.109C195.012 109.644 195.451 109.095 195.789 108.484C196.178 107.776 196.41 106.992 196.467 106.186C196.514 106.005 196.531 105.812 196.519 105.607Z" fill="#263238"/>
<path d="M178.273 82.0547C178.378 83.0427 177.198 86.5444 173.059 88.0468C174.655 88.0468 175.35 90.0813 175.35 90.0813C175.35 90.0813 180.84 87.1582 180.185 83.6506C180.103 83.2032 179.867 82.7986 179.518 82.507C179.168 82.2155 178.728 82.0554 178.273 82.0547Z" fill="#D75337"/>
<path d="M171.772 82.3232C171.878 83.2878 170.755 85.3222 173.059 88.0465C171.457 88.0465 170.504 89.6483 170.504 89.6483C169.887 88.6851 169.522 87.5825 169.442 86.4415C169.363 85.3005 169.571 84.1578 170.048 83.1183C170.528 82.6838 171.13 82.4064 171.772 82.3232Z" fill="#D75337"/>
<path d="M162.396 117.901L162.25 121.251L188.148 120.549L187.721 117.205L162.396 117.901Z" fill="#D75337"/>
<path opacity="0.3" d="M162.396 117.901L162.25 121.251L188.148 120.549L187.721 117.205L162.396 117.901Z" fill="black"/>
<path d="M185.609 119.62L188.147 119.573L187.807 117.89L185.609 117.936V119.62Z" fill="#263238"/>
<path d="M184.92 117.948L175.754 118.147V119.807L184.92 119.632V117.948Z" fill="#263238"/>
<path d="M164.249 118.387L162.25 118.433V120.053L164.249 120.018V118.387Z" fill="#263238"/>
<path d="M164.84 118.375V120.007L174.854 119.819V118.165L164.84 118.375Z" fill="#263238"/>
<path d="M170.281 120.322H168.13C167.996 120.322 167.867 120.269 167.772 120.175C167.677 120.081 167.623 119.953 167.621 119.819V118.545C167.621 118.412 167.673 118.284 167.766 118.189C167.859 118.094 167.985 118.039 168.118 118.036L170.269 117.989C170.405 117.994 170.536 118.045 170.638 118.135C170.686 118.183 170.724 118.239 170.75 118.301C170.776 118.364 170.79 118.43 170.79 118.498V119.842C170.782 119.972 170.725 120.094 170.631 120.183C170.536 120.272 170.411 120.322 170.281 120.322ZM168.159 118.568V119.842L170.281 119.807L170.252 118.521L168.159 118.568Z" fill="white"/>
<path d="M170.053 119.428H169.427C169.356 119.426 169.289 119.397 169.239 119.347C169.188 119.297 169.16 119.229 169.158 119.159C169.158 119.087 169.187 119.019 169.237 118.968C169.287 118.918 169.356 118.89 169.427 118.89H170.053C170.088 118.889 170.124 118.895 170.156 118.909C170.189 118.922 170.219 118.942 170.245 118.967C170.27 118.992 170.289 119.022 170.303 119.055C170.316 119.088 170.322 119.123 170.322 119.159C170.322 119.23 170.293 119.298 170.243 119.349C170.192 119.399 170.124 119.428 170.053 119.428Z" fill="white"/>
<path d="M171.918 113.207H176.285L177.08 105.432H171.117L171.918 113.207Z" fill="#D75337"/>
<path d="M170.796 105.754H177.402V104.971H170.796V105.754Z" fill="white"/>
<path d="M172.128 109.091C172.178 109.396 172.315 109.681 172.522 109.911C172.728 110.141 172.996 110.307 173.294 110.389C173.592 110.471 173.907 110.467 174.203 110.376C174.498 110.285 174.761 110.111 174.961 109.876C175.161 109.64 175.289 109.352 175.331 109.045C175.372 108.739 175.325 108.427 175.195 108.147C175.065 107.866 174.857 107.629 174.597 107.463C174.336 107.297 174.033 107.209 173.724 107.209C173.264 107.249 172.838 107.469 172.539 107.822C172.24 108.174 172.093 108.631 172.128 109.091Z" fill="white"/>
<path d="M181.08 109.863L176.912 108.507L176.754 113.768C176.754 113.768 180.677 114.54 181.431 112.517L181.08 109.863Z" fill="#FF8B7B"/>
<path d="M172.836 110.541L173.087 112.394C173.137 112.751 173.312 113.079 173.58 113.318C173.849 113.558 174.194 113.695 174.554 113.704L176.752 113.762L176.91 108.501L174.163 108.822C173.961 108.845 173.767 108.909 173.591 109.008C173.414 109.107 173.26 109.241 173.136 109.401C173.012 109.562 172.922 109.745 172.87 109.941C172.819 110.137 172.807 110.341 172.836 110.541Z" fill="#FF8B7B"/>
<path opacity="0.7" d="M178.273 82.0547C178.378 83.0427 177.198 86.5444 173.059 88.0468C174.655 88.0468 175.35 90.0813 175.35 90.0813C175.35 90.0813 180.84 87.1582 180.185 83.6506C180.103 83.2032 179.867 82.7986 179.518 82.507C179.168 82.2155 178.728 82.0554 178.273 82.0547Z" fill="white"/>
<path opacity="0.7" d="M171.772 82.3232C171.878 83.2878 170.755 85.3222 173.059 88.0465C171.457 88.0465 170.504 89.6483 170.504 89.6483C169.887 88.6851 169.522 87.5825 169.442 86.4415C169.363 85.3005 169.571 84.1578 170.048 83.1183C170.528 82.6838 171.13 82.4064 171.772 82.3232Z" fill="white"/>
<path d="M139.286 109.94L143.735 109.355L141.841 105.485C141.841 105.485 137.749 106.684 137.866 108.011L139.286 109.94Z" fill="#FFB573"/>
<path d="M145.996 106.065L143.979 103.715L141.84 105.51L143.734 109.38L145.996 106.065Z" fill="#FFB573"/>
<path d="M117.323 102.954C117.323 102.954 120.392 110.507 125.372 113.261C130.353 116.014 139.73 109.94 139.73 109.94L138.28 107.257C138.28 107.257 127.956 109.788 127.53 109.402C127.103 109.016 122.485 96.5411 116.574 94.8574L117.323 102.954Z" fill="#D75337"/>
<path opacity="0.7" d="M139.736 109.946C139.736 109.946 130.383 116.02 125.373 113.261C123.714 112.272 122.267 110.965 121.117 109.414C119.587 107.438 118.313 105.277 117.323 102.983L116.598 94.8809C122.502 96.547 127.12 109.046 127.553 109.432C127.986 109.817 138.28 107.257 138.28 107.257L139.736 109.946Z" fill="white"/>
<path opacity="0.1" d="M121.117 109.414C120.14 108.166 119.274 106.836 118.527 105.439C118.592 104.39 118.911 103.373 119.457 102.475C119.457 102.475 121.521 104.936 121.117 109.414Z" fill="black"/>
<path d="M102.094 74.1219C102.094 74.1219 105.484 69.5094 111.594 72.9527C119.421 77.3255 114.867 97.769 114.867 97.769L101.421 99.9496C101.421 99.9496 93.2312 75.8815 102.094 74.1219Z" fill="#263238"/>
<path d="M119.223 121.469C119.223 121.469 122.187 144.514 121.923 159.152C122.952 172.879 123.818 201.688 125.373 204.798C125.32 205.499 122.777 205.64 122.116 205.219C122.116 205.219 111.956 181.437 113.347 159.152C103.918 135.908 104.479 121.469 104.479 121.469H119.223Z" fill="#FFB573"/>
<path d="M115.207 121.469C115.207 121.469 108.466 147.483 105.795 160.257C102.994 173.668 100.118 189.873 100.077 205.131C99.3288 205.575 98.4929 206.23 96.9729 205.762C96.9729 205.762 90.4078 175.211 96.4585 160.847C93.8044 129.069 102.211 121.469 102.211 121.469H115.207Z" fill="#FFB573"/>
<path d="M102.094 120.872L118.995 123.211C119.2 119.627 120.854 101.931 120.802 100.37C120.702 97.4472 118.253 94.91 115.149 94.5242C114.289 94.4131 113.395 94.3079 112.524 94.2377C109.863 94.0562 107.193 94.0562 104.532 94.2377C103.772 94.2728 103.036 94.3312 102.34 94.3955C99.7327 94.6469 97.9321 97.0379 98.8324 99.4114C99.9665 102.387 101.732 118.487 102.094 120.872Z" fill="#D75337"/>
<path opacity="0.7" d="M120.802 100.359C120.848 101.925 119.2 119.616 118.995 123.205L102.094 120.867C102.053 120.603 102.001 120.188 101.931 119.651C101.72 117.996 101.381 115.173 100.989 112.121C100.82 110.858 100.65 109.549 100.463 108.274C100.136 105.936 99.7968 103.72 99.4753 102.025C99.3252 101.125 99.1083 100.238 98.8264 99.3708C97.9319 96.9856 99.7266 94.5946 102.334 94.3491C103.03 94.2848 103.766 94.2322 104.526 94.1912C107.185 94.0157 109.853 94.0157 112.512 94.1912C113.383 94.2672 114.266 94.3725 115.143 94.4835C118.253 94.8986 120.708 97.4416 120.802 100.359Z" fill="white"/>
<path d="M105.091 85.2178C105.787 87.79 106.64 92.5019 104.968 94.2148C104.968 94.2148 103.77 96.4713 110.557 96.2609C111.142 97.6756 112.311 100.265 112.311 100.265C112.311 100.265 112.393 97.2196 111.925 96.1732C116.286 95.799 112.977 94.1972 112.977 94.1972C110.054 93.5133 109.973 91.3853 110.323 89.386L105.091 85.2178Z" fill="#FFB573"/>
<path opacity="0.2" d="M107.221 86.9248L110.308 89.4035C110.215 89.8714 110.168 90.3471 110.167 90.8241C109.057 90.6662 107.466 89.462 107.244 88.3162C107.151 87.8578 107.143 87.3861 107.221 86.9248Z" fill="black"/>
<path d="M102.697 80.746C103.433 84.6628 103.667 86.3289 105.912 88.2055C109.297 91.0233 113.939 89.5325 114.383 85.5456C114.78 81.9561 113.506 76.1627 109.449 74.8708C108.591 74.5603 107.665 74.4849 106.768 74.6524C105.87 74.8198 105.034 75.224 104.345 75.8232C103.657 76.4224 103.141 77.1947 102.851 78.0602C102.561 78.9257 102.508 79.853 102.697 80.746Z" fill="#FFB573"/>
<path d="M106.08 77.922C103.906 80.7105 108.372 83.9141 103.906 83.7271C99.4392 83.54 101.257 77.2965 103.906 75.8583C106.554 74.4202 106.08 77.922 106.08 77.922Z" fill="#263238"/>
<path d="M103.924 75.9048C104.508 78.5706 104.912 79.2663 107.303 78.5414C106.947 78.006 106.789 77.3626 106.859 76.7232C107.097 77.3658 107.575 77.8915 108.191 78.1906C108.833 77.9259 109.502 77.73 110.185 77.606C110.054 77.2309 110.014 76.8303 110.068 76.4368C110.256 76.879 110.569 77.2569 110.968 77.5241C111.703 77.5363 112.431 77.6645 113.125 77.9041C113.143 75.0864 108.32 72.0581 103.924 75.9048Z" fill="#263238"/>
<path d="M108.933 81.3997C108.98 81.7329 109.196 81.9843 109.407 81.9843C109.617 81.9843 109.758 81.6861 109.705 81.3529C109.652 81.0197 109.448 80.7683 109.232 80.7683C109.015 80.7683 108.887 81.0665 108.933 81.3997Z" fill="#263238"/>
<path d="M112.954 81.1665C113.007 81.4939 113.217 81.7511 113.428 81.7511C113.638 81.7511 113.779 81.4588 113.732 81.1256C113.685 80.7924 113.469 80.541 113.258 80.541C113.048 80.541 112.908 80.8333 112.954 81.1665Z" fill="#263238"/>
<path d="M113.143 80.5638L113.891 80.2773C113.891 80.2773 113.604 80.9262 113.143 80.5638Z" fill="#263238"/>
<path d="M111.914 81.792C112.316 82.5267 112.811 83.2065 113.387 83.8147C113.233 83.9478 113.052 84.0447 112.855 84.0983C112.659 84.1519 112.453 84.1609 112.253 84.1245L111.914 81.792Z" fill="#ED893E"/>
<path d="M102.311 84.5217C102.475 84.867 102.709 85.1745 102.997 85.425C103.286 85.6756 103.624 85.8636 103.989 85.9774C104.906 86.2171 105.304 85.1765 105 84.1301C104.719 83.1947 103.913 81.9378 103.018 82.1658C102.124 82.3938 101.849 83.5981 102.311 84.5217Z" fill="#FFB573"/>
<path d="M107.811 79.6231C107.862 79.6221 107.91 79.6011 107.945 79.5647C108.102 79.3842 108.301 79.2454 108.524 79.1607C108.748 79.076 108.989 79.0481 109.226 79.0795C109.25 79.0836 109.276 79.0828 109.3 79.0771C109.324 79.0713 109.347 79.0608 109.367 79.0461C109.387 79.0314 109.404 79.0128 109.417 78.9914C109.43 78.9701 109.439 78.9463 109.442 78.9216C109.446 78.8695 109.431 78.8178 109.4 78.7759C109.369 78.734 109.324 78.7048 109.273 78.6936C108.975 78.6481 108.671 78.6777 108.388 78.7798C108.106 78.882 107.853 79.0533 107.653 79.2782C107.635 79.2962 107.621 79.3176 107.611 79.3411C107.601 79.3647 107.596 79.39 107.596 79.4156C107.596 79.4412 107.601 79.4665 107.611 79.4901C107.621 79.5136 107.635 79.535 107.653 79.553C107.673 79.5758 107.697 79.594 107.724 79.6061C107.751 79.6182 107.781 79.6241 107.811 79.6231Z" fill="#263238"/>
<path d="M113.861 79.2668C113.91 79.2695 113.959 79.2527 113.996 79.22C114.014 79.2021 114.028 79.1807 114.038 79.1571C114.048 79.1335 114.053 79.1082 114.053 79.0826C114.053 79.0571 114.048 79.0317 114.038 79.0082C114.028 78.9846 114.014 78.9632 113.996 78.9452C113.792 78.7035 113.537 78.5114 113.248 78.3838C112.959 78.2561 112.645 78.1962 112.329 78.2086C112.304 78.2114 112.28 78.2193 112.258 78.232C112.237 78.2446 112.218 78.2616 112.203 78.282C112.188 78.3023 112.178 78.3255 112.172 78.3502C112.167 78.3748 112.167 78.4003 112.172 78.4249C112.183 78.476 112.212 78.5212 112.254 78.5524C112.296 78.5836 112.348 78.5985 112.4 78.5945C112.648 78.5882 112.896 78.6374 113.123 78.7386C113.351 78.8397 113.553 78.9902 113.715 79.1791C113.732 79.2031 113.754 79.2233 113.779 79.2384C113.804 79.2535 113.832 79.2632 113.861 79.2668Z" fill="#263238"/>
<path d="M109.145 80.7982L109.893 80.5117C109.893 80.5117 109.583 81.1606 109.145 80.7982Z" fill="#263238"/>
<path d="M112.002 85.7083C111.67 86.1365 111.37 86.5878 111.102 87.0588L110.833 86.9594C109.617 86.4917 109.214 85.8779 109.126 85.34C109.088 85.0742 109.116 84.8031 109.208 84.5508C109.254 84.4054 109.321 84.2676 109.407 84.1416C110.025 84.7624 110.771 85.2411 111.593 85.5446C111.839 85.6499 112.002 85.7083 112.002 85.7083Z" fill="#263238"/>
<path d="M111.592 85.5446L111.317 85.9363C110.177 85.4979 109.429 85.0302 109.207 84.5508C109.253 84.4054 109.32 84.2676 109.406 84.1416C110.024 84.7624 110.77 85.2411 111.592 85.5446Z" fill="white"/>
<path d="M110.832 86.9592C109.616 86.4915 109.213 85.8777 109.125 85.3398C109.583 85.5225 110.005 85.7859 110.37 86.1174C110.608 86.3434 110.769 86.6376 110.832 86.9592Z" fill="#DE5753"/>
<path d="M110.887 93.1738C110.887 93.1738 112.173 94.5535 111.91 96.1904L114.868 96.8159C114.716 95.8471 114.239 94.9588 113.516 94.2969C112.792 93.635 111.865 93.239 110.887 93.1738Z" fill="#D75337"/>
<path d="M110.558 96.2605C110.558 96.2605 106.595 93.9806 105.712 92.7529L103.958 94.08C103.958 94.08 103.403 96.1495 105.8 98.0085L110.558 96.2605Z" fill="#D75337"/>
<path opacity="0.6" d="M110.887 93.1738C110.887 93.1738 112.173 94.5535 111.91 96.1904L114.868 96.8159C114.716 95.8471 114.239 94.9588 113.516 94.2969C112.792 93.635 111.865 93.239 110.887 93.1738Z" fill="white"/>
<path opacity="0.6" d="M110.558 96.2605C110.558 96.2605 106.595 93.9806 105.712 92.7529L103.958 94.08C103.958 94.08 103.403 96.1495 105.8 98.0085L110.558 96.2605Z" fill="white"/>
<path d="M121.602 211.455H122.496L122.736 210.38L125.63 211.672H132.955C132.955 211.672 134.124 210.502 130.616 209.573C130.444 209.528 130.278 209.466 130.119 209.386C128.26 208.521 125.6 205.586 125.6 205.586H121.584C121.462 205.774 121.353 205.969 121.257 206.171C120.807 207.036 120.052 208.895 121.602 211.455Z" fill="#263238"/>
<path d="M121.246 206.154C121.772 205.569 124.198 208.147 125.97 209.024C127.548 209.808 129.325 210.147 130.109 209.346C128.25 208.481 125.309 204.669 125.309 204.669H122.076C122.076 204.669 121.433 205.78 121.246 206.154Z" fill="#EBB376"/>
<path d="M96.2708 211.455H97.1477L97.3874 210.38L100.281 211.672H107.606C107.606 211.672 108.775 210.502 105.268 209.573C105.096 209.528 104.929 209.466 104.771 209.386C102.912 208.521 100.252 205.586 100.252 205.586H96.2357C96.1141 205.774 96.0047 205.969 95.9083 206.171C95.4757 207.036 94.7274 208.895 96.2708 211.455Z" fill="#263238"/>
<path d="M95.9141 206.154C96.4402 205.569 98.8663 208.147 100.638 209.024C102.222 209.808 103.993 210.147 104.777 209.346C102.918 208.481 99.977 204.669 99.977 204.669H96.7442C96.7442 204.669 96.1011 205.78 95.9141 206.154Z" fill="#EBB376"/>
<path d="M95.3062 155.737C95.7525 156.23 96.2805 156.641 96.8671 156.953C96.9489 154.03 97.7966 152.639 97.7966 152.639C97.6517 154.319 97.8061 156.011 98.2526 157.637C102.748 159.537 111.418 160.788 122.256 158.134C122.256 145.419 119.743 124.023 119.567 121.936C119.567 121.936 106.706 122.275 101.491 122.275C95.7797 129.085 94.2422 150.949 95.3062 155.737Z" fill="#263238"/>
<path opacity="0.2" d="M95.3062 155.737C95.7525 156.23 96.2805 156.641 96.8671 156.953C96.9489 154.03 97.7966 152.639 97.7966 152.639C97.6517 154.319 97.8061 156.011 98.2526 157.637C102.748 159.537 111.418 160.788 122.256 158.134C122.256 145.419 119.743 124.023 119.567 121.936C119.567 121.936 106.706 122.275 101.491 122.275C95.7797 129.085 94.2422 150.949 95.3062 155.737Z" fill="white"/>
<path d="M119.469 122.725C113.445 123.376 107.367 123.364 101.346 122.69C101.281 122.684 101.218 122.661 101.164 122.625C101.11 122.588 101.065 122.539 101.035 122.481C101.004 122.423 100.988 122.358 100.988 122.293C100.989 122.227 101.005 122.163 101.036 122.106L101.475 121.088C101.505 121.013 101.559 120.949 101.628 120.907C101.698 120.865 101.779 120.846 101.86 120.854C107.645 121.474 113.479 121.474 119.264 120.854C119.315 120.85 119.366 120.855 119.415 120.87C119.463 120.885 119.508 120.91 119.548 120.942C119.587 120.975 119.619 121.015 119.643 121.06C119.666 121.105 119.68 121.154 119.685 121.205L119.79 122.263C119.799 122.315 119.798 122.368 119.787 122.419C119.776 122.47 119.755 122.518 119.725 122.561C119.695 122.604 119.657 122.64 119.613 122.669C119.569 122.697 119.52 122.716 119.469 122.725Z" fill="#263238"/>
<path opacity="0.1" d="M102.246 101.96C102.246 101.96 102.029 106.082 100.463 108.286C100.135 105.947 99.7961 103.732 99.4746 102.036C100.36 101.682 101.342 101.655 102.246 101.96Z" fill="black"/>
<path opacity="0.1" d="M104.893 113.997V117.668C103.979 118.441 102.986 119.115 101.929 119.679C101.719 118.025 101.38 115.201 100.988 112.149C102.249 112.849 103.553 113.466 104.893 113.997Z" fill="black"/>
<path d="M111.283 118.101H106.916L106.121 110.326H112.084L111.283 118.101Z" fill="#D75337"/>
<path d="M112.407 109.864H105.801V110.648H112.407V109.864Z" fill="white"/>
<path d="M111.073 113.998C111.022 114.303 110.886 114.587 110.679 114.817C110.473 115.047 110.205 115.213 109.907 115.295C109.609 115.378 109.294 115.373 108.998 115.282C108.703 115.191 108.44 115.018 108.24 114.782C108.04 114.546 107.912 114.258 107.87 113.952C107.829 113.645 107.876 113.334 108.006 113.053C108.136 112.773 108.344 112.535 108.604 112.369C108.865 112.203 109.168 112.115 109.477 112.115C109.937 112.155 110.363 112.376 110.662 112.728C110.961 113.081 111.108 113.537 111.073 113.998Z" fill="white"/>
<path d="M108.956 113.904L107.822 113.237C107.611 113.116 107.375 113.046 107.132 113.033C106.89 113.019 106.647 113.063 106.425 113.161L104.32 114.108C103.906 114.294 103.541 114.576 103.258 114.931C102.974 115.286 102.779 115.703 102.689 116.149L102.578 116.733C104.385 117.961 107.255 117.961 107.255 117.961L108.068 118.049C108.234 118.072 108.403 118.063 108.566 118.021C108.729 117.979 108.881 117.904 109.015 117.803C109.149 117.701 109.261 117.574 109.345 117.428C109.43 117.283 109.484 117.122 109.506 116.955L109.704 115.342C109.736 115.055 109.682 114.765 109.549 114.509C109.416 114.253 109.209 114.042 108.956 113.904Z" fill="#FFB573"/>
<path d="M101.024 94.7058C96.0546 95.4892 91.0095 111.174 91.7577 113.998C92.506 116.821 103.596 117.353 103.596 117.353L103.923 113.998C103.923 113.998 98.352 112.349 97.557 111.279C96.7619 110.209 101.024 103.849 101.024 103.849C101.959 102.425 102.502 100.78 102.596 99.0786C102.62 95.8165 101.024 94.7058 101.024 94.7058Z" fill="#D75337"/>
<path opacity="0.7" d="M101.024 94.7058C96.0546 95.4892 91.0095 111.174 91.7577 113.998C92.506 116.821 103.596 117.353 103.596 117.353L103.923 113.998C103.923 113.998 98.352 112.349 97.557 111.279C96.7619 110.209 101.024 103.849 101.024 103.849C101.959 102.425 102.502 100.78 102.596 99.0786C102.62 95.8165 101.024 94.7058 101.024 94.7058Z" fill="white"/>
<path d="M74.1638 71.1625C73.5792 71.1625 73.1056 70.4142 73.0647 69.438C73.035 69.0122 73.1135 68.5859 73.2927 68.1986C73.3513 68.0427 73.4514 67.9057 73.5823 67.8027C73.7132 67.6996 73.8698 67.6344 74.0352 67.614H74.0644C74.649 67.614 75.1225 68.3623 75.1693 69.3678C75.1972 69.794 75.1167 70.2204 74.9354 70.6072C74.8769 70.7631 74.7767 70.9001 74.6459 71.0031C74.515 71.1062 74.3583 71.1714 74.193 71.1918L74.1638 71.1625ZM74.0644 67.8829C73.8715 67.8829 73.6903 68.0466 73.5499 68.3214C73.3917 68.667 73.3233 69.0471 73.3512 69.4263C73.3863 70.2389 73.7604 70.917 74.1989 70.8936C74.3159 70.8731 74.4253 70.8216 74.5158 70.7445C74.6062 70.6674 74.6744 70.5675 74.7133 70.4552C74.8736 70.1121 74.944 69.7339 74.9179 69.3561C74.8653 68.5494 74.4853 67.8829 74.0644 67.8829Z" fill="#263238"/>
<path d="M73.3334 69.4271C73.3334 69.7428 73.5263 70.0117 73.7367 70.0117C73.9472 70.0117 74.0992 69.737 74.0875 69.4271C74.0758 69.1173 73.8946 68.8425 73.6841 68.8425C73.4737 68.8425 73.3158 69.1056 73.3334 69.4271Z" fill="#263238"/>
<path d="M73.4961 69.9939C73.9204 70.9523 74.4752 71.8474 75.1447 72.6538C74.9328 72.8188 74.6879 72.936 74.4266 72.9975C74.1653 73.0591 73.8937 73.0635 73.6306 73.0104L73.4961 69.9939Z" fill="#ED847E"/>
<path d="M72.0874 67.7074C72.0391 67.7004 71.9952 67.6753 71.9646 67.6372C71.9496 67.6177 71.9385 67.5953 71.9322 67.5715C71.9258 67.5477 71.9242 67.5228 71.9274 67.4984C71.9307 67.4739 71.9387 67.4504 71.9512 67.429C71.9636 67.4077 71.98 67.3891 71.9997 67.3741C72.2287 67.1837 72.5 67.0509 72.7909 66.9868C73.0818 66.9227 73.3838 66.9292 73.6716 67.0058C73.7174 67.0242 73.7547 67.0589 73.7763 67.1032C73.7979 67.1474 73.8023 67.1982 73.7886 67.2455C73.7807 67.2691 73.7682 67.2908 73.7518 67.3094C73.7354 67.3281 73.7155 67.3433 73.6932 67.3542C73.6709 67.3651 73.6467 67.3714 73.6219 67.3728C73.5971 67.3742 73.5723 67.3707 73.5489 67.3624C73.3203 67.3055 73.0815 67.3034 72.8519 67.3563C72.6223 67.4091 72.4084 67.5154 72.2277 67.6664C72.2084 67.6826 72.186 67.6946 72.1618 67.7017C72.1377 67.7087 72.1123 67.7107 72.0874 67.7074Z" fill="#263238"/>
<path d="M73.8654 74.0105C73.8654 74.104 73.8362 74.1917 73.8245 74.2853C73.5909 75.5464 72.9175 76.6838 71.9241 77.4952C70.9308 78.3066 69.6818 78.7394 68.3994 78.7165C67.2032 78.6718 66.0652 78.1891 65.2016 77.3602C63.1321 75.4369 63.0854 73.1336 62.6703 69.2284C62.5625 68.3218 62.6882 67.4027 63.0356 66.5584C63.383 65.7141 63.9405 64.9726 64.6551 64.4044C65.3698 63.8362 66.2178 63.4601 67.1187 63.312C68.0196 63.1638 68.9435 63.2484 69.8024 63.5578C73.614 64.8907 74.4559 70.4386 73.8654 74.0105Z" fill="#FFC3BD"/>
<path d="M63.4523 75.6063C64.9021 76.7755 71.1924 74.63 70.7189 69.8246C70.7189 69.8246 73.3496 67.5154 73.56 64.5632C73.7705 61.6109 71.9349 60.1494 69.69 60.4417C67.714 60.7048 67.603 61.7454 67.603 61.7454C67.603 61.7454 58.5066 61.3946 59.8453 65.329C55.5602 68.6963 61.6225 74.1565 63.4523 75.6063Z" fill="#263238"/>
<path d="M75.022 69.2064L70.6875 69.6873L70.7171 69.9545L75.0517 69.4737L75.022 69.2064Z" fill="#263238"/>
<path d="M69.0189 70.3861C69.1272 71.3553 69.5526 72.2616 70.2291 72.9642C71.1294 73.882 71.9829 73.2565 72.1173 72.0931C72.2109 71.0467 71.8601 69.3104 70.7903 68.8252C69.7205 68.34 68.902 69.211 69.0189 70.3861Z" fill="#FFC3BD"/>
<path opacity="0.2" d="M73.8644 74.0096C73.8644 74.1031 73.8352 74.1908 73.8235 74.2843C73.5899 75.5455 72.9165 76.6829 71.9232 77.4943C70.9298 78.3057 69.6809 78.7384 68.3984 78.7156C69.4799 78.0258 70.9473 76.8273 71.3974 75.1495C72.1399 72.3785 71.0116 68.9528 71.0116 68.9528L71.5962 68.1519C71.5962 68.1519 72.6368 72.5948 72.514 73.764C72.4497 74.5649 73.3032 74.2726 73.8644 74.0096Z" fill="black"/>
<path d="M92.7577 95.3882H88.3849L87.5898 87.613H93.5528L92.7577 95.3882Z" fill="#D75337"/>
<path d="M93.8755 87.1521H87.2695V87.9355H93.8755V87.1521Z" fill="#D75337"/>
<path d="M92.5414 91.2679C92.4913 91.5722 92.3553 91.8558 92.1495 92.0855C91.9438 92.3151 91.6767 92.4812 91.3797 92.5643C91.0827 92.6473 90.7682 92.6439 90.4732 92.5543C90.1781 92.4647 89.9147 92.2928 89.7141 92.0586C89.5134 91.8245 89.3837 91.5379 89.3403 91.2327C89.2969 90.9274 89.3416 90.616 89.4691 90.3352C89.5966 90.0545 89.8016 89.8159 90.06 89.6477C90.3185 89.4794 90.6195 89.3885 90.9279 89.3855C91.3914 89.4213 91.8217 89.6398 92.1243 89.9927C92.4268 90.3457 92.5769 90.8044 92.5414 91.2679Z" fill="white"/>
<path opacity="0.8" d="M93.8755 87.1521H87.2695V87.9355H93.8755V87.1521Z" fill="white"/>
<path d="M64.036 75.9333C64.6206 78.8564 64.7317 81.0661 62.7031 83.0012C62.7031 83.0012 63.4982 85.9242 68.8765 85.9242C74.7927 85.9242 71.7001 83.0012 71.7001 83.0012C68.4731 82.2295 68.555 79.8326 69.122 77.5878L64.036 75.9333Z" fill="#FFC3BD"/>
<path d="M61.5597 83.5385C61.127 82.7317 60.6477 81.7847 61.6357 81.5216C62.7172 81.2059 69.6798 80.6155 71.7259 81.2118C71.0945 82.3342 72.1585 83.7022 72.1585 83.7022L61.5597 83.5385Z" fill="#D75337"/>
<path opacity="0.2" d="M61.5597 83.5385C61.127 82.7317 60.6477 81.7847 61.6357 81.5216C62.7172 81.2059 69.6798 80.6155 71.7259 81.2118C71.0945 82.3342 72.1585 83.7022 72.1585 83.7022L61.5597 83.5385Z" fill="black"/>
<path d="M46.3587 206.738C46.5328 206.801 46.7177 206.828 46.9025 206.818C47.0873 206.808 47.2682 206.761 47.4344 206.679C47.4984 206.621 47.5424 206.543 47.5602 206.458C47.578 206.373 47.5688 206.285 47.5338 206.206C47.5153 206.139 47.4821 206.077 47.4366 206.024C47.3911 205.971 47.3344 205.93 47.2707 205.902C46.6861 205.621 45.3415 206.171 45.2831 206.194C45.2649 206.202 45.2494 206.215 45.2381 206.232C45.2267 206.248 45.2201 206.268 45.2188 206.287C45.2189 206.307 45.2244 206.326 45.2347 206.343C45.2451 206.359 45.2598 206.372 45.2772 206.381C45.6241 206.538 45.9866 206.657 46.3587 206.738ZM47.0602 206.048C47.1032 206.054 47.1447 206.068 47.183 206.089C47.2206 206.104 47.254 206.127 47.2805 206.158C47.3069 206.188 47.3256 206.225 47.335 206.264C47.3935 206.445 47.335 206.504 47.2999 206.521C47.0661 206.72 46.2009 206.521 45.5929 206.293C46.065 206.1 46.5746 206.016 47.0836 206.048H47.0602Z" fill="#D75337"/>
<path d="M45.3306 206.363C45.8158 206.223 46.8681 205.475 46.8798 204.984C46.8804 204.906 46.8547 204.831 46.8068 204.771C46.759 204.71 46.6919 204.668 46.6167 204.65C46.5422 204.624 46.4629 204.614 46.3842 204.621C46.3055 204.628 46.2293 204.652 46.1607 204.691C45.5761 204.984 45.2195 206.182 45.202 206.235C45.1937 206.251 45.1895 206.269 45.1895 206.287C45.1895 206.306 45.1937 206.324 45.202 206.34C45.2176 206.358 45.2389 206.37 45.2622 206.374C45.2855 206.378 45.3096 206.374 45.3306 206.363ZM46.5582 204.832H46.5992C46.7278 204.873 46.7278 204.937 46.7278 204.96C46.7278 205.253 46.0263 205.837 45.5176 206.071C45.6546 205.596 45.9293 205.173 46.3069 204.855C46.379 204.831 46.4568 204.831 46.529 204.855L46.5582 204.832Z" fill="#D75337"/>
<path d="M45.1138 205.733L40.3551 204.698C40.2709 204.681 40.1834 204.693 40.1069 204.732C40.0305 204.772 39.9696 204.836 39.9342 204.914L38.3149 208.492C38.2752 208.579 38.2557 208.675 38.258 208.771C38.2603 208.867 38.2843 208.961 38.3281 209.046C38.372 209.132 38.4346 209.206 38.5112 209.264C38.5879 209.322 38.6767 209.362 38.7709 209.38C40.437 209.714 41.2613 209.79 43.3541 210.24C44.6403 210.52 47.5457 211.228 49.3229 211.614C51.1001 211.999 51.7139 210.292 51.0183 209.971C47.914 208.556 46.6162 207.305 45.7569 206.142C45.6016 205.929 45.372 205.783 45.1138 205.733Z" fill="#263238"/>
<path d="M70.5321 118.3C70.5321 118.3 66.0424 146.308 63.5812 156.807C60.8804 168.295 46.4057 206.317 46.4057 206.317L39.3203 204.896C39.3203 204.896 49.4456 173.913 51.708 157.848C53.4618 145.507 56.8759 118.3 56.8759 118.3H70.5321Z" fill="#D75337"/>
<path opacity="0.7" d="M70.5321 118.3C70.5321 118.3 66.0424 146.308 63.5812 156.807C60.8804 168.295 46.4057 206.317 46.4057 206.317L39.3203 204.896C39.3203 204.896 49.4456 173.913 51.708 157.848C53.4618 145.507 56.8759 118.3 56.8759 118.3H70.5321Z" fill="white"/>
<path d="M58.8171 90.5127C58.0512 91.3603 57.1919 92.3308 56.4085 93.2778C55.6251 94.2249 54.8476 95.2012 54.111 96.2008C52.6389 98.0982 51.3454 100.128 50.2468 102.263C50.1065 102.52 49.9954 102.778 49.8843 103.035L49.7148 103.421L49.633 103.614L49.5979 103.69C49.5979 103.637 49.5044 103.842 49.5628 104.204C49.7976 105.18 50.1927 106.111 50.732 106.957C52.0538 109.022 53.5292 110.984 55.1458 112.827L53.2224 115.089C50.8924 113.575 48.7884 111.739 46.973 109.635C45.9127 108.438 45.0912 107.049 44.5528 105.543C44.1856 104.467 44.1309 103.31 44.3949 102.205L44.4593 101.965L44.5119 101.813L44.5996 101.55L44.7808 101.024C44.8977 100.673 45.0205 100.322 45.1666 99.9949C46.2539 97.4104 47.6265 94.9554 49.2588 92.6757C50.0597 91.5591 50.8665 90.4601 51.7434 89.4195C52.6203 88.3789 53.4972 87.3675 54.4968 86.3386L58.8171 90.5127Z" fill="#FFC3BD"/>
<path d="M53.983 111.659L56.906 111.875L55.5907 116.254C55.5907 116.254 53.3867 115.856 52.5391 114.138L53.983 111.659Z" fill="#FFC3BD"/>
<path d="M60.9448 112.458L59.0507 116.048L55.584 116.276L56.8993 111.897L60.9448 112.458Z" fill="#FFC3BD"/>
<path d="M73.4846 207.468C74.0692 207.468 74.5778 207.386 74.759 207.141C74.8061 207.075 74.8314 206.997 74.8314 206.916C74.8314 206.835 74.8061 206.756 74.759 206.691C74.7244 206.631 74.6781 206.579 74.6228 206.538C74.5676 206.497 74.5045 206.467 74.4375 206.451C73.7184 206.252 72.2043 207.117 72.14 207.153C72.1211 207.162 72.1059 207.178 72.0964 207.197C72.087 207.215 72.0838 207.237 72.0874 207.258C72.0905 207.279 72.0999 207.299 72.1146 207.314C72.1292 207.33 72.1483 207.341 72.1692 207.345C72.6034 207.423 73.0434 207.464 73.4846 207.468ZM74.1744 206.626C74.2403 206.617 74.3072 206.617 74.3731 206.626C74.4143 206.635 74.4532 206.651 74.4875 206.675C74.5217 206.7 74.5505 206.731 74.5719 206.767C74.6421 206.895 74.6187 206.96 74.5719 206.995C74.3732 207.275 73.2799 207.281 72.4732 207.17C72.9989 206.878 73.577 206.694 74.1744 206.626Z" fill="#D75337"/>
<path d="M72.1744 207.346H72.2211C72.7414 207.106 73.7762 206.177 73.7002 205.68C73.7002 205.569 73.5949 205.423 73.3143 205.393C73.2101 205.382 73.1046 205.391 73.0041 205.421C72.9036 205.451 72.8103 205.502 72.7297 205.569C72.1802 206.025 72.0633 207.188 72.0574 207.241C72.0552 207.258 72.0578 207.277 72.065 207.293C72.0722 207.31 72.0837 207.324 72.0984 207.334C72.1215 207.347 72.1484 207.351 72.1744 207.346ZM73.2325 205.592H73.2968C73.478 205.592 73.4897 205.686 73.4956 205.709C73.5423 206.001 72.8408 206.738 72.3264 207.059C72.3791 206.565 72.5833 206.1 72.911 205.727C73 205.647 73.1133 205.599 73.2325 205.592Z" fill="#D75337"/>
<path d="M71.719 206.744H66.9896C66.9033 206.743 66.8193 206.771 66.7513 206.824C66.6833 206.878 66.6354 206.952 66.6155 207.036L65.7912 210.889C65.7699 210.982 65.7701 211.079 65.7918 211.172C65.8135 211.265 65.856 211.352 65.9163 211.427C65.9765 211.501 66.0529 211.561 66.1396 211.601C66.2263 211.642 66.3211 211.662 66.4167 211.66C68.1238 211.631 70.5849 211.532 72.7304 211.532C75.2383 211.532 77.4072 211.666 80.3302 211.666C82.084 211.666 82.5985 209.872 81.856 209.708C78.4653 208.965 75.7002 208.884 72.7713 207.077C72.4585 206.87 72.094 206.755 71.719 206.744Z" fill="#263238"/>
<path d="M56.5719 83.6327C52.7661 83.7204 47.8672 92.4018 47.8672 92.4018L54.0172 99.4579C56.3242 97.8295 58.166 95.627 59.3604 93.0682C61.6053 88.4674 60.4595 83.5451 56.5719 83.6327Z" fill="#D75337"/>
<path opacity="0.2" d="M58.2845 91.0925C55.9052 92.6417 54.5314 96.0616 53.7422 99.1249L54.017 99.4348C56.3192 97.8111 58.1604 95.6174 59.3602 93.0685C59.4927 92.7957 59.6155 92.5209 59.7285 92.2442L58.2845 91.0925Z" fill="black"/>
<path d="M79.7223 97.6278C79.658 99.9019 79.5001 102.533 79.1961 105.59C78.9331 108.297 78.5531 111.331 78.0269 114.733H56.9813C56.8293 111.81 58.776 97.5693 55.6426 83.8137C57.9871 83.4113 60.3528 83.1439 62.7279 83.0128C65.7229 82.8548 68.7241 82.8548 71.7191 83.0128C73.7681 83.1981 75.8016 83.5262 77.8048 83.9949C77.8048 83.9949 80.0321 86.2281 79.7223 97.6278Z" fill="#D75337"/>
<path opacity="0.2" d="M79.7221 97.6277C79.6578 99.9018 79.5 102.532 79.196 105.59C77.4422 103.789 75.1856 100.977 75.4078 98.5747L79.7221 97.6277Z" fill="black"/>
<path opacity="0.2" d="M67.6968 128.278C62.5055 129.22 63.0551 147.161 63.6806 156.386C65.1772 149.862 67.3694 137.316 68.866 128.407C68.4996 128.242 68.0903 128.197 67.6968 128.278Z" fill="black"/>
<path d="M78.0677 118.3C78.0677 118.3 78.6173 145.945 78.1847 157.216C77.7404 168.944 73.3559 207.346 73.3559 207.346H66.6213C66.6213 207.346 66.3757 169.633 66.0776 158.111C65.7502 145.554 64.1309 118.3 64.1309 118.3H78.0677Z" fill="#D75337"/>
<path d="M79.6587 88.0818C79.9977 89.1575 80.3953 90.3617 80.8279 91.49C81.2605 92.6183 81.6814 93.77 82.1491 94.8807C83.0256 97.0701 84.0916 99.1788 85.3351 101.183C85.6391 101.662 85.9607 102.118 86.288 102.551L86.5394 102.866C86.4267 102.77 86.3031 102.688 86.1711 102.621C85.8717 102.468 85.5358 102.401 85.2007 102.428C84.9695 102.44 84.7447 102.508 84.5459 102.627C84.3589 102.767 84.4699 102.738 84.5459 102.627C84.6919 102.489 84.8249 102.338 84.9435 102.177C85.2671 101.748 85.5657 101.301 85.8379 100.838C87.0071 98.8326 88.0828 96.5117 89.1409 94.2669L92.0054 95.0678C91.667 97.7392 91.0257 100.363 90.0938 102.89C89.8345 103.584 89.5238 104.258 89.1643 104.907C88.9466 105.288 88.7025 105.653 88.4335 106C88.048 106.508 87.5676 106.937 87.0188 107.263C86.5409 107.536 86.0073 107.698 85.4579 107.736C84.8028 107.777 84.1492 107.635 83.5697 107.327C83.159 107.104 82.7877 106.816 82.4706 106.473L82.0965 106.064C81.6054 105.518 81.1494 104.963 80.7285 104.398C79.1165 102.174 77.7448 99.785 76.6363 97.2717C76.0926 96.0441 75.5723 94.8105 75.128 93.5595C74.6837 92.3084 74.2511 91.0808 73.8828 89.7011L79.6587 88.0818Z" fill="#FFC3BD"/>
<path d="M71.5318 88.3623C68.9362 93.1619 76.8634 100.639 76.8634 100.639L84.773 95.2022C83.5348 92.1779 82.0792 89.2472 80.4178 86.4331C77.2901 81.2594 73.5136 84.7144 71.5318 88.3623Z" fill="#D75337"/>
<path d="M91.0349 96.4119L94.9459 93.3778L91.7832 90.4548C91.7832 90.4548 88.7491 92.2086 89.1759 95.0381L91.0349 96.4119Z" fill="#FFC3BD"/>
<path d="M95.6299 91.4667L93.5078 88.532L91.7832 90.4261L94.9459 93.3783L95.6299 91.4667Z" fill="#FFC3BD"/>
<path opacity="0.7" d="M78.0677 118.3C78.0677 118.3 78.6173 145.945 78.1847 157.216C77.7404 168.944 73.3559 207.346 73.3559 207.346H66.6213C66.6213 207.346 66.3757 169.633 66.0776 158.111C65.7502 145.554 64.1309 118.3 64.1309 118.3H78.0677Z" fill="white"/>
<path d="M57.052 113.997C55.6703 118.617 55.192 123.46 55.6431 128.261H78.2145L78.3198 114.231L57.052 113.997Z" fill="#D75337"/>
<path opacity="0.7" d="M57.052 113.997C55.6703 118.617 55.192 123.46 55.6431 128.261H78.2145L78.3198 114.231L57.052 113.997Z" fill="white"/>
<path d="M62.196 114.523L56.6657 114.458L56.5195 115.897L62.196 115.949V114.523Z" fill="#263238"/>
<path d="M71.5723 114.634L63.0488 114.535V115.955L71.5723 116.037V114.634Z" fill="#263238"/>
<path d="M72.1758 114.639V116.042L78.3199 116.095V114.71L72.1758 114.639Z" fill="#263238"/>
<path opacity="0.2" d="M67.1484 79.3937C67.3022 79.3003 67.4647 79.222 67.6336 79.1599C67.3706 79.3002 67.1894 79.3762 67.1484 79.3937Z" fill="black"/>
</svg>
